ISO-10303-21;
HEADER;
FILE_DESCRIPTION (( 'STEP AP214' ),
    '1' );
FILE_NAME ('valj fi49 za printanje desno s šèitnikom.STEP',
    '2025-10-23T13:13:35',
    ( '' ),
    ( '' ),
    'SwSTEP 2.0',
    'SolidWorks 2024',
    '' );
FILE_SCHEMA (( 'AUTOMOTIVE_DESIGN' ));
ENDSEC;

DATA;
#1 = AXIS2_PLACEMENT_3D ( 'NONE', #345, #664, #607 ) ;
#2 = VERTEX_POINT ( 'NONE', #135 ) ;
#3 = DIRECTION ( 'NONE',  ( 1.000000000000000000, 0.000000000000000000, 0.000000000000000000 ) ) ;
#4 = CARTESIAN_POINT ( 'NONE',  ( -4.999999999999998224, 24.49489742783178059, 120.0000000000000000 ) ) ;
#5 = ORIENTED_EDGE ( 'NONE', *, *, #491, .T. ) ;
#6 = ORIENTED_EDGE ( 'NONE', *, *, #77, .F. ) ;
#7 = CARTESIAN_POINT ( 'NONE',  ( 4.999999999999915623, -12.00000000000003553, 120.0000000000000000 ) ) ;
#8 = EDGE_CURVE ( 'NONE', #267, #195, #401, .T. ) ;
#9 = EDGE_LOOP ( 'NONE', ( #576, #174, #296, #224 ) ) ;
#10 = EDGE_LOOP ( 'NONE', ( #667, #577, #214, #677 ) ) ;
#11 = CARTESIAN_POINT ( 'NONE',  ( 12.00000000000001776, 4.999999999999956479, 105.0000000000000000 ) ) ;
#12 = STYLED_ITEM ( 'NONE', ( #281 ), #226 ) ;
#13 = VERTEX_POINT ( 'NONE', #278 ) ;
#14 = AXIS2_PLACEMENT_3D ( 'NONE', #404, #524, #222 ) ;
#15 = AXIS2_PLACEMENT_3D ( 'NONE', #526, #530, #781 ) ;
#16 = CYLINDRICAL_SURFACE ( 'NONE', #643, 3.075000000000000178 ) ;
#17 = ORIENTED_EDGE ( 'NONE', *, *, #275, .F. ) ;
#18 = EDGE_CURVE ( 'NONE', #250, #2, #543, .T. ) ;
#19 = DIRECTION ( 'NONE',  ( -1.000000000000000000, 6.938893903907228378E-15, 0.000000000000000000 ) ) ;
#20 = DIRECTION ( 'NONE',  ( 1.000000000000000000, -6.941727557173836130E-15, 0.000000000000000000 ) ) ;
#21 = ORIENTED_EDGE ( 'NONE', *, *, #344, .F. ) ;
#22 = ORIENTED_EDGE ( 'NONE', *, *, #773, .F. ) ;
#23 = FACE_OUTER_BOUND ( 'NONE', #211, .T. ) ;
#24 = DIRECTION ( 'NONE',  ( -0.000000000000000000, -0.000000000000000000, 1.000000000000000000 ) ) ;
#25 = DIRECTION ( 'NONE',  ( -6.664058454886882022E-15, -1.000000000000000000, -0.000000000000000000 ) ) ;
#26 = VECTOR ( 'NONE', #364, 1000.000000000000000 ) ;
#27 = AXIS2_PLACEMENT_3D ( 'NONE', #683, #121, #435 ) ;
#28 = LINE ( 'NONE', #594, #569 ) ;
#29 = FACE_OUTER_BOUND ( 'NONE', #648, .T. ) ;
#30 = DIRECTION ( 'NONE',  ( 0.000000000000000000, 0.000000000000000000, -1.000000000000000000 ) ) ;
#31 = ADVANCED_FACE ( 'NONE', ( #92 ), #154, .F. ) ;
#32 = CARTESIAN_POINT ( 'NONE',  ( -12.00000000000005151, -4.999999999999872990, 120.0000000000000000 ) ) ;
#33 = PLANE ( 'NONE',  #110 ) ;
#34 = ORIENTED_EDGE ( 'NONE', *, *, #750, .T. ) ;
#35 = DIRECTION ( 'NONE',  ( 0.000000000000000000, 0.000000000000000000, -1.000000000000000000 ) ) ;
#36 = CIRCLE ( 'NONE', #528, 25.00000000000000000 ) ;
#37 = DIRECTION ( 'NONE',  ( -1.000000000000000000, 0.000000000000000000, 0.000000000000000000 ) ) ;
#38 = VECTOR ( 'NONE', #165, 1000.000000000000000 ) ;
#39 = ADVANCED_FACE ( 'NONE', ( #89 ), #790, .T. ) ;
#40 = ORIENTED_EDGE ( 'NONE', *, *, #480, .F. ) ;
#41 = EDGE_CURVE ( 'NONE', #127, #354, #727, .T. ) ;
#42 = LINE ( 'NONE', #796, #85 ) ;
#43 = CARTESIAN_POINT ( 'NONE',  ( -24.49489742783173085, 5.000000000000255795, 105.0000000000000000 ) ) ;
#44 = VERTEX_POINT ( 'NONE', #168 ) ;
#45 = LINE ( 'NONE', #167, #215 ) ;
#46 = DIRECTION ( 'NONE',  ( -1.000000000000000000, 0.000000000000000000, -0.000000000000000000 ) ) ;
#47 = ORIENTED_EDGE ( 'NONE', *, *, #275, .T. ) ;
#48 = ORIENTED_EDGE ( 'NONE', *, *, #469, .F. ) ;
#49 = CARTESIAN_POINT ( 'NONE',  ( -24.49489742783183388, -4.999999999999741540, 105.0000000000000000 ) ) ;
#50 = CARTESIAN_POINT ( 'NONE',  ( 0.000000000000000000, 0.000000000000000000, 105.0000000000000000 ) ) ;
#51 = CLOSED_SHELL ( 'NONE', ( #774, #445, #145, #39, #637, #31, #246, #764, #198, #428, #134, #257, #396, #328, #398, #210, #359, #437, #338, #377, #598, #755, #166, #234, #173 ) ) ;
#52 = AXIS2_PLACEMENT_3D ( 'NONE', #591, #20, #325 ) ;
#53 = CARTESIAN_POINT ( 'NONE',  ( 0.000000000000000000, 0.000000000000000000, -3.000000000000000000 ) ) ;
#54 = ORIENTED_EDGE ( 'NONE', *, *, #480, .T. ) ;
#55 = ORIENTED_EDGE ( 'NONE', *, *, #747, .T. ) ;
#56 = ORIENTED_EDGE ( 'NONE', *, *, #453, .T. ) ;
#57 = CARTESIAN_POINT ( 'NONE',  ( 0.000000000000000000, 0.000000000000000000, -3.000000000000000000 ) ) ;
#58 = APPLICATION_CONTEXT ( 'automotive_design' ) ;
#59 = CARTESIAN_POINT ( 'NONE',  ( 0.000000000000000000, 0.000000000000000000, 0.000000000000000000 ) ) ;
#60 = EDGE_CURVE ( 'NONE', #700, #757, #610, .T. ) ;
#61 = EDGE_LOOP ( 'NONE', ( #810, #439, #580, #486 ) ) ;
#62 = ORIENTED_EDGE ( 'NONE', *, *, #347, .T. ) ;
#63 = FACE_OUTER_BOUND ( 'NONE', #732, .T. ) ;
#64 = CARTESIAN_POINT ( 'NONE',  ( 4.999999999999915623, -12.00000000000003553, 105.0000000000000000 ) ) ;
#65 = FACE_OUTER_BOUND ( 'NONE', #579, .T. ) ;
#66 = ORIENTED_EDGE ( 'NONE', *, *, #292, .F. ) ;
#67 = VERTEX_POINT ( 'NONE', #144 ) ;
#68 = CARTESIAN_POINT ( 'NONE',  ( 0.000000000000000000, 0.000000000000000000, 105.0000000000000000 ) ) ;
#69 = DIRECTION ( 'NONE',  ( 1.000000000000000000, 0.000000000000000000, -0.000000000000000000 ) ) ;
#70 = LINE ( 'NONE', #641, #584 ) ;
#71 = VECTOR ( 'NONE', #223, 1000.000000000000000 ) ;
#72 = VECTOR ( 'NONE', #492, 1000.000000000000000 ) ;
#73 = ORIENTED_EDGE ( 'NONE', *, *, #319, .F. ) ;
#74 = EDGE_LOOP ( 'NONE', ( #264, #746 ) ) ;
#75 = DIRECTION ( 'NONE',  ( -0.000000000000000000, -0.000000000000000000, -1.000000000000000000 ) ) ;
#76 = DIRECTION ( 'NONE',  ( 1.000000000000000000, 0.000000000000000000, 0.000000000000000000 ) ) ;
#77 = EDGE_CURVE ( 'NONE', #642, #550, #392, .T. ) ;
#78 = EDGE_LOOP ( 'NONE', ( #441, #22, #73, #240 ) ) ;
#79 = EDGE_LOOP ( 'NONE', ( #616, #66, #6, #534 ) ) ;
#80 = CARTESIAN_POINT ( 'NONE',  ( -4.999999999999998224, 12.00000000000000000, 105.0000000000000000 ) ) ;
#81 = ORIENTED_EDGE ( 'NONE', *, *, #418, .F. ) ;
#82 = LINE ( 'NONE', #333, #189 ) ;
#83 = EDGE_CURVE ( 'NONE', #374, #274, #82, .T. ) ;
#84 = VECTOR ( 'NONE', #649, 1000.000000000000000 ) ;
#85 = VECTOR ( 'NONE', #804, 1000.000000000000000 ) ;
#86 = LINE ( 'NONE', #709, #258 ) ;
#87 = CARTESIAN_POINT ( 'NONE',  ( -12.00000000000005151, -4.999999999999872990, 105.0000000000000000 ) ) ;
#88 = EDGE_CURVE ( 'NONE', #563, #442, #86, .T. ) ;
#89 = FACE_OUTER_BOUND ( 'NONE', #484, .T. ) ;
#90 = CARTESIAN_POINT ( 'NONE',  ( 4.999999999999998224, 24.49489742783178059, 105.0000000000000000 ) ) ;
#91 =( LENGTH_UNIT ( ) NAMED_UNIT ( * ) SI_UNIT ( .MILLI., .METRE. ) );
#92 = FACE_OUTER_BOUND ( 'NONE', #692, .T. ) ;
#93 = CARTESIAN_POINT ( 'NONE',  ( -4.999999999999998224, 12.00000000000000000, 105.0000000000000000 ) ) ;
#94 = CARTESIAN_POINT ( 'NONE',  ( -4.999999999999998224, 24.49489742783178059, 120.0000000000000000 ) ) ;
#95 = VECTOR ( 'NONE', #809, 1000.000000000000000 ) ;
#96 = AXIS2_PLACEMENT_3D ( 'NONE', #80, #260, #327 ) ;
#97 = AXIS2_PLACEMENT_3D ( 'NONE', #104, #35, #294 ) ;
#98 = EDGE_CURVE ( 'NONE', #442, #367, #181, .T. ) ;
#99 = EDGE_LOOP ( 'NONE', ( #446, #552, #546, #299 ) ) ;
#100 = DIRECTION ( 'NONE',  ( 1.040834085586084257E-14, 1.000000000000000000, 0.000000000000000000 ) ) ;
#101 = DIRECTION ( 'NONE',  ( -1.000000000000000000, 0.000000000000000000, 0.000000000000000000 ) ) ;
#102 = APPLICATION_CONTEXT ( 'automotive_design' ) ;
#103 = UNCERTAINTY_MEASURE_WITH_UNIT (LENGTH_MEASURE( 1.000000000000000082E-05 ), #536, 'distance_accuracy_value', 'NONE');
#104 = CARTESIAN_POINT ( 'NONE',  ( 0.000000000000000000, 0.000000000000000000, -3.000000000000000000 ) ) ;
#105 = LINE ( 'NONE', #233, #644 ) ;
#106 = EDGE_CURVE ( 'NONE', #588, #274, #684, .T. ) ;
#107 = EDGE_CURVE ( 'NONE', #636, #143, #751, .T. ) ;
#108 = VECTOR ( 'NONE', #25, 1000.000000000000000 ) ;
#109 = LINE ( 'NONE', #554, #599 ) ;
#110 = AXIS2_PLACEMENT_3D ( 'NONE', #617, #537, #489 ) ;
#111 = FACE_OUTER_BOUND ( 'NONE', #521, .T. ) ;
#112 = VERTEX_POINT ( 'NONE', #800 ) ;
#113 = FACE_OUTER_BOUND ( 'NONE', #499, .T. ) ;
#114 = CARTESIAN_POINT ( 'NONE',  ( 0.000000000000000000, 0.000000000000000000, 120.0000000000000000 ) ) ;
#115 = ORIENTED_EDGE ( 'NONE', *, *, #301, .T. ) ;
#116 = LINE ( 'NONE', #32, #723 ) ;
#117 = CARTESIAN_POINT ( 'NONE',  ( 0.000000000000000000, 0.000000000000000000, -3.000000000000000000 ) ) ;
#118 = DIRECTION ( 'NONE',  ( -0.000000000000000000, -0.000000000000000000, -1.000000000000000000 ) ) ;
#119 = ORIENTED_EDGE ( 'NONE', *, *, #292, .T. ) ;
#120 = MECHANICAL_DESIGN_GEOMETRIC_PRESENTATION_REPRESENTATION (  '', ( #12 ), #353 ) ;
#121 = DIRECTION ( 'NONE',  ( -1.048200861133249292E-14, -1.000000000000000000, 0.000000000000000000 ) ) ;
#122 = VECTOR ( 'NONE', #356, 1000.000000000000000 ) ;
#123 = PRODUCT_RELATED_PRODUCT_CATEGORY ( 'part', '', ( #702 ) ) ;
#124 = VECTOR ( 'NONE', #448, 1000.000000000000000 ) ;
#125 = CARTESIAN_POINT ( 'NONE',  ( -4.999999999999998224, 12.00000000000000000, 105.0000000000000000 ) ) ;
#126 = EDGE_LOOP ( 'NONE', ( #310, #21 ) ) ;
#127 = VERTEX_POINT ( 'NONE', #298 ) ;
#128 = CARTESIAN_POINT ( 'NONE',  ( -5.000000000000181188, -24.49489742783174506, 105.0000000000000000 ) ) ;
#129 = CARTESIAN_POINT ( 'NONE',  ( -12.00000000000005151, -4.999999999999872990, 120.0000000000000000 ) ) ;
#130 = CARTESIAN_POINT ( 'NONE',  ( 3.075000000000000178, 3.765788907378111032E-16, -3.000000000000000000 ) ) ;
#131 = ORIENTED_EDGE ( 'NONE', *, *, #582, .F. ) ;
#132 = DIRECTION ( 'NONE',  ( 1.000000000000000000, 0.000000000000000000, 0.000000000000000000 ) ) ;
#133 = ORIENTED_EDGE ( 'NONE', *, *, #77, .T. ) ;
#134 = ADVANCED_FACE ( 'NONE', ( #186 ), #416, .F. ) ;
#135 = CARTESIAN_POINT ( 'NONE',  ( -5.000000000000181188, -24.49489742783174506, 120.0000000000000000 ) ) ;
#136 = DIRECTION ( 'NONE',  ( 1.000000000000000000, 0.000000000000000000, 0.000000000000000000 ) ) ;
#137 = DIRECTION ( 'NONE',  ( 0.000000000000000000, 0.000000000000000000, 1.000000000000000000 ) ) ;
#138 = AXIS2_PLACEMENT_3D ( 'NONE', #90, #330, #593 ) ;
#139 = CIRCLE ( 'NONE', #323, 25.00000000000000000 ) ;
#140 = ORIENTED_EDGE ( 'NONE', *, *, #558, .F. ) ;
#141 = ORIENTED_EDGE ( 'NONE', *, *, #523, .F. ) ;
#142 = DIRECTION ( 'NONE',  ( 1.000000000000000000, -3.262611951871702681E-15, 0.000000000000000000 ) ) ;
#143 = VERTEX_POINT ( 'NONE', #630 ) ;
#144 = CARTESIAN_POINT ( 'NONE',  ( 12.00000000000001776, 4.999999999999956479, 105.0000000000000000 ) ) ;
#145 = ADVANCED_FACE ( 'NONE', ( #681 ), #249, .T. ) ;
#146 = PLANE ( 'NONE',  #670 ) ;
#147 = FACE_BOUND ( 'NONE', #728, .T. ) ;
#148 = VERTEX_POINT ( 'NONE', #736 ) ;
#149 = CARTESIAN_POINT ( 'NONE',  ( 25.00000000000000000, 3.061616997868383043E-15, 0.000000000000000000 ) ) ;
#150 = EDGE_CURVE ( 'NONE', #369, #700, #365, .T. ) ;
#151 = VECTOR ( 'NONE', #362, 1000.000000000000000 ) ;
#152 = CARTESIAN_POINT ( 'NONE',  ( 0.000000000000000000, 0.000000000000000000, 120.0000000000000000 ) ) ;
#153 = AXIS2_PLACEMENT_3D ( 'NONE', #675, #721, #680 ) ;
#154 = PLANE ( 'NONE',  #567 ) ;
#155 = ORIENTED_EDGE ( 'NONE', *, *, #88, .T. ) ;
#156 = PLANE ( 'NONE',  #307 ) ;
#157 = APPLICATION_PROTOCOL_DEFINITION ( 'draft international standard', 'automotive_design', 1998, #58 ) ;
#158 = DIRECTION ( 'NONE',  ( -1.000000000000000000, 3.469446951953614583E-15, 0.000000000000000000 ) ) ;
#159 = FACE_OUTER_BOUND ( 'NONE', #9, .T. ) ;
#160 = EDGE_CURVE ( 'NONE', #793, #381, #734, .T. ) ;
#161 = LINE ( 'NONE', #454, #432 ) ;
#162 = AXIS2_PLACEMENT_3D ( 'NONE', #503, #206, #132 ) ;
#163 = FACE_BOUND ( 'NONE', #74, .T. ) ;
#164 =( NAMED_UNIT ( * ) SI_UNIT ( $, .STERADIAN. ) SOLID_ANGLE_UNIT ( ) );
#165 = DIRECTION ( 'NONE',  ( 1.000000000000000000, -3.262611951871702681E-15, -0.000000000000000000 ) ) ;
#166 = ADVANCED_FACE ( 'NONE', ( #312, #690 ), #624, .T. ) ;
#167 = CARTESIAN_POINT ( 'NONE',  ( 25.00000000000000000, 3.061616997868383043E-15, 120.0000000000000000 ) ) ;
#168 = CARTESIAN_POINT ( 'NONE',  ( -11.99999999999994849, 5.000000000000127898, 105.0000000000000000 ) ) ;
#169 = ORIENTED_EDGE ( 'NONE', *, *, #691, .F. ) ;
#170 = CARTESIAN_POINT ( 'NONE',  ( 0.000000000000000000, 0.000000000000000000, -3.000000000000000000 ) ) ;
#171 = CARTESIAN_POINT ( 'NONE',  ( 0.000000000000000000, 0.000000000000000000, 120.0000000000000000 ) ) ;
#172 = DIRECTION ( 'NONE',  ( -0.000000000000000000, -0.000000000000000000, 1.000000000000000000 ) ) ;
#173 = ADVANCED_FACE ( 'NONE', ( #111 ), #549, .T. ) ;
#174 = ORIENTED_EDGE ( 'NONE', *, *, #227, .F. ) ;
#175 = AXIS2_PLACEMENT_3D ( 'NONE', #57, #748, #277 ) ;
#176 = DIRECTION ( 'NONE',  ( -0.000000000000000000, -0.000000000000000000, 1.000000000000000000 ) ) ;
#177 = EDGE_CURVE ( 'NONE', #387, #803, #358, .T. ) ;
#178 = ORIENTED_EDGE ( 'NONE', *, *, #83, .T. ) ;
#179 = LINE ( 'NONE', #425, #38 ) ;
#180 = CARTESIAN_POINT ( 'NONE',  ( -50.00000000000000000, 6.123233995736766085E-15, -3.000000000000000000 ) ) ;
#181 = LINE ( 'NONE', #741, #798 ) ;
#182 = ORIENTED_EDGE ( 'NONE', *, *, #612, .F. ) ;
#183 = CARTESIAN_POINT ( 'NONE',  ( -50.00000000000000000, 6.123233995736766085E-15, -3.000000000000000000 ) ) ;
#184 = EDGE_CURVE ( 'NONE', #563, #265, #498, .T. ) ;
#185 = CARTESIAN_POINT ( 'NONE',  ( 0.000000000000000000, 0.000000000000000000, 120.0000000000000000 ) ) ;
#186 = FACE_OUTER_BOUND ( 'NONE', #10, .T. ) ;
#187 = VERTEX_POINT ( 'NONE', #556 ) ;
#188 = ORIENTED_EDGE ( 'NONE', *, *, #508, .T. ) ;
#189 = VECTOR ( 'NONE', #771, 1000.000000000000000 ) ;
#190 = LINE ( 'NONE', #201, #72 ) ;
#191 = DIRECTION ( 'NONE',  ( 0.000000000000000000, 0.000000000000000000, -1.000000000000000000 ) ) ;
#192 = CIRCLE ( 'NONE', #397, 3.075000000000000178 ) ;
#193 = CARTESIAN_POINT ( 'NONE',  ( 4.999999999999915623, -12.00000000000003553, 105.0000000000000000 ) ) ;
#194 = ORIENTED_EDGE ( 'NONE', *, *, #18, .F. ) ;
#195 = VERTEX_POINT ( 'NONE', #130 ) ;
#196 = DIRECTION ( 'NONE',  ( -0.000000000000000000, -0.000000000000000000, 1.000000000000000000 ) ) ;
#197 = EDGE_CURVE ( 'NONE', #67, #387, #376, .T. ) ;
#198 = ADVANCED_FACE ( 'NONE', ( #65 ), #566, .T. ) ;
#199 = ORIENTED_EDGE ( 'NONE', *, *, #478, .F. ) ;
#200 = ORIENTED_EDGE ( 'NONE', *, *, #8, .T. ) ;
#201 = CARTESIAN_POINT ( 'NONE',  ( 50.00000000000000000, 0.000000000000000000, -3.000000000000000000 ) ) ;
#202 = LINE ( 'NONE', #253, #124 ) ;
#203 = ORIENTED_EDGE ( 'NONE', *, *, #738, .F. ) ;
#204 = FILL_AREA_STYLE_COLOUR ( '', #368 ) ;
#205 = ORIENTED_EDGE ( 'NONE', *, *, #197, .F. ) ;
#206 = DIRECTION ( 'NONE',  ( 0.000000000000000000, 0.000000000000000000, 1.000000000000000000 ) ) ;
#207 = DIRECTION ( 'NONE',  ( -0.000000000000000000, -0.000000000000000000, 1.000000000000000000 ) ) ;
#208 = ORIENTED_EDGE ( 'NONE', *, *, #773, .T. ) ;
#209 = DIRECTION ( 'NONE',  ( -0.000000000000000000, 0.000000000000000000, 1.000000000000000000 ) ) ;
#210 = ADVANCED_FACE ( 'NONE', ( #731 ), #545, .F. ) ;
#211 = EDGE_LOOP ( 'NONE', ( #81, #200, #34, #525 ) ) ;
#212 = CARTESIAN_POINT ( 'NONE',  ( -4.999999999999998224, 24.49489742783178059, 105.0000000000000000 ) ) ;
#213 = AXIS2_PLACEMENT_3D ( 'NONE', #59, #373, #797 ) ;
#214 = ORIENTED_EDGE ( 'NONE', *, *, #747, .F. ) ;
#215 = VECTOR ( 'NONE', #295, 1000.000000000000000 ) ;
#216 = CARTESIAN_POINT ( 'NONE',  ( -4.999999999999998224, 12.00000000000000000, 120.0000000000000000 ) ) ;
#217 = VERTEX_POINT ( 'NONE', #483 ) ;
#218 = DIRECTION ( 'NONE',  ( -1.000000000000000000, 0.000000000000000000, -0.000000000000000000 ) ) ;
#219 = EDGE_CURVE ( 'NONE', #642, #757, #70, .T. ) ;
#220 = ORIENTED_EDGE ( 'NONE', *, *, #160, .F. ) ;
#221 = CARTESIAN_POINT ( 'NONE',  ( -4.999999999999998224, 24.49489742783178059, 105.0000000000000000 ) ) ;
#222 = DIRECTION ( 'NONE',  ( 1.040834085586084257E-14, 1.000000000000000000, 0.000000000000000000 ) ) ;
#223 = DIRECTION ( 'NONE',  ( 1.040834085586084257E-14, 1.000000000000000000, 0.000000000000000000 ) ) ;
#224 = ORIENTED_EDGE ( 'NONE', *, *, #41, .T. ) ;
#225 = AXIS2_PLACEMENT_3D ( 'NONE', #436, #137, #76 ) ;
#226 = MANIFOLD_SOLID_BREP ( 'Boss-Extrude2', #51 ) ;
#227 = EDGE_CURVE ( 'NONE', #44, #374, #28, .T. ) ;
#228 = CIRCLE ( 'NONE', #672, 25.00000000000000000 ) ;
#229 = DIRECTION ( 'NONE',  ( -0.000000000000000000, -0.000000000000000000, -1.000000000000000000 ) ) ;
#230 = CARTESIAN_POINT ( 'NONE',  ( 4.999999999999998224, 24.49489742783178059, 105.0000000000000000 ) ) ;
#231 = ORIENTED_EDGE ( 'NONE', *, *, #150, .T. ) ;
#232 = DIRECTION ( 'NONE',  ( 0.000000000000000000, 0.000000000000000000, -1.000000000000000000 ) ) ;
#233 = CARTESIAN_POINT ( 'NONE',  ( 11.99999999999998224, -5.000000000000043521, 105.0000000000000000 ) ) ;
#234 = ADVANCED_FACE ( 'NONE', ( #147, #783 ), #780, .F. ) ;
#235 = CARTESIAN_POINT ( 'NONE',  ( 0.000000000000000000, 0.000000000000000000, 105.0000000000000000 ) ) ;
#236 = ORIENTED_EDGE ( 'NONE', *, *, #623, .T. ) ;
#237 = DIRECTION ( 'NONE',  ( -1.000000000000000000, 3.540281054158656000E-15, 0.000000000000000000 ) ) ;
#238 = CARTESIAN_POINT ( 'NONE',  ( 4.999999999999829470, -24.49489742783181612, 105.0000000000000000 ) ) ;
#239 = DIRECTION ( 'NONE',  ( 3.540281054158656395E-15, 1.000000000000000000, 0.000000000000000000 ) ) ;
#240 = ORIENTED_EDGE ( 'NONE', *, *, #812, .T. ) ;
#241 = CARTESIAN_POINT ( 'NONE',  ( 24.49489742783176283, -5.000000000000095923, 105.0000000000000000 ) ) ;
#242 = VECTOR ( 'NONE', #788, 1000.000000000000000 ) ;
#243 = CARTESIAN_POINT ( 'NONE',  ( -3.075000000000000178, 0.000000000000000000, 120.0000000000000000 ) ) ;
#244 = AXIS2_PLACEMENT_3D ( 'NONE', #185, #75, #813 ) ;
#245 = CARTESIAN_POINT ( 'NONE',  ( 0.000000000000000000, 0.000000000000000000, -3.000000000000000000 ) ) ;
#246 = ADVANCED_FACE ( 'NONE', ( #159 ), #459, .F. ) ;
#247 = LINE ( 'NONE', #621, #242 ) ;
#248 = DIRECTION ( 'NONE',  ( 0.000000000000000000, 0.000000000000000000, 1.000000000000000000 ) ) ;
#249 = CYLINDRICAL_SURFACE ( 'NONE', #305, 25.00000000000000000 ) ;
#250 = VERTEX_POINT ( 'NONE', #657 ) ;
#251 = ORIENTED_EDGE ( 'NONE', *, *, #335, .T. ) ;
#252 = CARTESIAN_POINT ( 'NONE',  ( 5.000000000000001776, 12.00000000000000000, 120.0000000000000000 ) ) ;
#253 = CARTESIAN_POINT ( 'NONE',  ( 4.999999999999998224, 24.49489742783178414, 105.0000000000000000 ) ) ;
#254 = DIRECTION ( 'NONE',  ( 1.000000000000000000, -3.262611951871702681E-15, -0.000000000000000000 ) ) ;
#255 = VERTEX_POINT ( 'NONE', #94 ) ;
#256 = ORIENTED_EDGE ( 'NONE', *, *, #344, .T. ) ;
#257 = ADVANCED_FACE ( 'NONE', ( #600 ), #467, .F. ) ;
#258 = VECTOR ( 'NONE', #176, 1000.000000000000000 ) ;
#259 = CARTESIAN_POINT ( 'NONE',  ( 4.999999999999915623, -12.00000000000003553, 105.0000000000000000 ) ) ;
#260 = DIRECTION ( 'NONE',  ( 0.000000000000000000, -1.000000000000000000, 0.000000000000000000 ) ) ;
#261 = EDGE_CURVE ( 'NONE', #442, #217, #36, .T. ) ;
#262 = VECTOR ( 'NONE', #646, 1000.000000000000000 ) ;
#263 = CIRCLE ( 'NONE', #285, 50.00000000000000000 ) ;
#264 = ORIENTED_EDGE ( 'NONE', *, *, #656, .T. ) ;
#265 = VERTEX_POINT ( 'NONE', #64 ) ;
#266 = CARTESIAN_POINT ( 'NONE',  ( 50.00000000000000000, 0.000000000000000000, -3.000000000000000000 ) ) ;
#267 = VERTEX_POINT ( 'NONE', #514 ) ;
#268 = VERTEX_POINT ( 'NONE', #703 ) ;
#269 = ORIENTED_EDGE ( 'NONE', *, *, #405, .T. ) ;
#270 = LINE ( 'NONE', #11, #262 ) ;
#271 = VECTOR ( 'NONE', #615, 1000.000000000000000 ) ;
#272 = CIRCLE ( 'NONE', #341, 50.00000000000000000 ) ;
#273 = CIRCLE ( 'NONE', #385, 25.00000000000000000 ) ;
#274 = VERTEX_POINT ( 'NONE', #581 ) ;
#275 = EDGE_CURVE ( 'NONE', #67, #143, #270, .T. ) ;
#276 = CARTESIAN_POINT ( 'NONE',  ( 0.000000000000000000, 0.000000000000000000, 120.0000000000000000 ) ) ;
#277 = DIRECTION ( 'NONE',  ( -1.000000000000000000, 0.000000000000000000, 0.000000000000000000 ) ) ;
#278 = CARTESIAN_POINT ( 'NONE',  ( -3.075000000000000178, 0.000000000000000000, 120.0000000000000000 ) ) ;
#279 = EDGE_LOOP ( 'NONE', ( #638, #811, #314, #792 ) ) ;
#280 = CARTESIAN_POINT ( 'NONE',  ( 12.00000000000001776, 4.999999999999956479, 105.0000000000000000 ) ) ;
#281 = PRESENTATION_STYLE_ASSIGNMENT (( #284 ) ) ;
#282 = ORIENTED_EDGE ( 'NONE', *, *, #623, .F. ) ;
#283 = PRODUCT_DEFINITION ( 'UNKNOWN', '', #473, #468 ) ;
#284 = SURFACE_STYLE_USAGE ( .BOTH. , #400 ) ;
#285 = AXIS2_PLACEMENT_3D ( 'NONE', #350, #608, #37 ) ;
#286 = CARTESIAN_POINT ( 'NONE',  ( -4.999999999999998224, 12.00000000000000000, 105.0000000000000000 ) ) ;
#287 = SHAPE_DEFINITION_REPRESENTATION ( #450, #390 ) ;
#288 = CARTESIAN_POINT ( 'NONE',  ( 24.49489742783179835, 4.999999999999912070, 105.0000000000000000 ) ) ;
#289 = DIRECTION ( 'NONE',  ( -0.000000000000000000, -0.000000000000000000, 1.000000000000000000 ) ) ;
#290 = VECTOR ( 'NONE', #595, 1000.000000000000000 ) ;
#291 = AXIS2_PLACEMENT_3D ( 'NONE', #662, #457, #532 ) ;
#292 = EDGE_CURVE ( 'NONE', #550, #772, #202, .T. ) ;
#293 = ORIENTED_EDGE ( 'NONE', *, *, #533, .F. ) ;
#294 = DIRECTION ( 'NONE',  ( -1.000000000000000000, 0.000000000000000000, 0.000000000000000000 ) ) ;
#295 = DIRECTION ( 'NONE',  ( -0.000000000000000000, -0.000000000000000000, -1.000000000000000000 ) ) ;
#296 = ORIENTED_EDGE ( 'NONE', *, *, #410, .F. ) ;
#297 = LINE ( 'NONE', #241, #722 ) ;
#298 = CARTESIAN_POINT ( 'NONE',  ( -12.00000000000005151, -4.999999999999872990, 105.0000000000000000 ) ) ;
#299 = ORIENTED_EDGE ( 'NONE', *, *, #582, .T. ) ;
#300 = CARTESIAN_POINT ( 'NONE',  ( 0.000000000000000000, 0.000000000000000000, 105.0000000000000000 ) ) ;
#301 = EDGE_CURVE ( 'NONE', #268, #2, #458, .T. ) ;
#302 = CARTESIAN_POINT ( 'NONE',  ( 12.00000000000001776, 4.999999999999956479, 105.0000000000000000 ) ) ;
#303 = ORIENTED_EDGE ( 'NONE', *, *, #301, .F. ) ;
#304 = ORIENTED_EDGE ( 'NONE', *, *, #509, .F. ) ;
#305 = AXIS2_PLACEMENT_3D ( 'NONE', #114, #118, #671 ) ;
#306 = LINE ( 'NONE', #49, #384 ) ;
#307 = AXIS2_PLACEMENT_3D ( 'NONE', #399, #653, #334 ) ;
#308 = LINE ( 'NONE', #456, #553 ) ;
#309 = CARTESIAN_POINT ( 'NONE',  ( 24.49489742783176638, -5.000000000000084377, 105.0000000000000000 ) ) ;
#310 = ORIENTED_EDGE ( 'NONE', *, *, #651, .F. ) ;
#311 = DIRECTION ( 'NONE',  ( 1.000000000000000000, 0.000000000000000000, 0.000000000000000000 ) ) ;
#312 = FACE_OUTER_BOUND ( 'NONE', #363, .T. ) ;
#313 = ORIENTED_EDGE ( 'NONE', *, *, #361, .F. ) ;
#314 = ORIENTED_EDGE ( 'NONE', *, *, #787, .F. ) ;
#315 = CARTESIAN_POINT ( 'NONE',  ( -5.000000000000084377, -11.99999999999996625, 105.0000000000000000 ) ) ;
#316 = PLANE ( 'NONE',  #331 ) ;
#317 = DIRECTION ( 'NONE',  ( 1.000000000000000000, 0.000000000000000000, 0.000000000000000000 ) ) ;
#318 = EDGE_LOOP ( 'NONE', ( #169, #628, #62, #48, #619, #477, #647, #140, #182, #119, #464, #763 ) ) ;
#319 = EDGE_CURVE ( 'NONE', #753, #510, #497, .T. ) ;
#320 = CARTESIAN_POINT ( 'NONE',  ( -4.999999999999998224, 12.00000000000000000, 120.0000000000000000 ) ) ;
#321 = CARTESIAN_POINT ( 'NONE',  ( -25.00000000000000000, 0.000000000000000000, 105.0000000000000000 ) ) ;
#322 = VECTOR ( 'NONE', #711, 1000.000000000000000 ) ;
#323 = AXIS2_PLACEMENT_3D ( 'NONE', #50, #332, #311 ) ;
#324 = EDGE_LOOP ( 'NONE', ( #494, #626, #785, #544 ) ) ;
#325 = DIRECTION ( 'NONE',  ( 6.941727557173836130E-15, 1.000000000000000000, 0.000000000000000000 ) ) ;
#326 = ORIENTED_EDGE ( 'NONE', *, *, #541, .F. ) ;
#327 = DIRECTION ( 'NONE',  ( 0.000000000000000000, -0.000000000000000000, -1.000000000000000000 ) ) ;
#328 = ADVANCED_FACE ( 'NONE', ( #561 ), #146, .F. ) ;
#329 = ORIENTED_EDGE ( 'NONE', *, *, #88, .F. ) ;
#330 = DIRECTION ( 'NONE',  ( 1.000000000000000000, 2.776691022869534176E-16, 0.000000000000000000 ) ) ;
#331 = AXIS2_PLACEMENT_3D ( 'NONE', #759, #640, #69 ) ;
#332 = DIRECTION ( 'NONE',  ( 0.000000000000000000, 0.000000000000000000, 1.000000000000000000 ) ) ;
#333 = CARTESIAN_POINT ( 'NONE',  ( -24.49489742783173085, 5.000000000000254907, 120.0000000000000000 ) ) ;
#334 = DIRECTION ( 'NONE',  ( -6.664058454886882022E-15, -1.000000000000000000, 0.000000000000000000 ) ) ;
#335 = EDGE_CURVE ( 'NONE', #360, #112, #660, .T. ) ;
#336 = PRODUCT_CONTEXT ( 'NONE', #58, 'mechanical' ) ;
#337 = CARTESIAN_POINT ( 'NONE',  ( 0.000000000000000000, 0.000000000000000000, 120.0000000000000000 ) ) ;
#338 = ADVANCED_FACE ( 'NONE', ( #814 ), #511, .F. ) ;
#339 = DIRECTION ( 'NONE',  ( -1.000000000000000000, 0.000000000000000000, 0.000000000000000000 ) ) ;
#340 = CARTESIAN_POINT ( 'NONE',  ( 0.000000000000000000, 0.000000000000000000, 0.000000000000000000 ) ) ;
#341 = AXIS2_PLACEMENT_3D ( 'NONE', #705, #191, #650 ) ;
#342 = AXIS2_PLACEMENT_3D ( 'NONE', #754, #196, #440 ) ;
#343 = ORIENTED_EDGE ( 'NONE', *, *, #107, .T. ) ;
#344 = EDGE_CURVE ( 'NONE', #462, #187, #272, .T. ) ;
#345 = CARTESIAN_POINT ( 'NONE',  ( 0.000000000000000000, 0.000000000000000000, 105.0000000000000000 ) ) ;
#346 = DIRECTION ( 'NONE',  ( 0.000000000000000000, 0.000000000000000000, 1.000000000000000000 ) ) ;
#347 = EDGE_CURVE ( 'NONE', #381, #793, #419, .T. ) ;
#348 = ORIENTED_EDGE ( 'NONE', *, *, #98, .T. ) ;
#349 = DIRECTION ( 'NONE',  ( -1.000000000000000000, 0.000000000000000000, 0.000000000000000000 ) ) ;
#350 = CARTESIAN_POINT ( 'NONE',  ( 0.000000000000000000, 0.000000000000000000, 0.000000000000000000 ) ) ;
#351 = DIRECTION ( 'NONE',  ( -0.000000000000000000, -0.000000000000000000, 1.000000000000000000 ) ) ;
#352 = AXIS2_PLACEMENT_3D ( 'NONE', #337, #516, #652 ) ;
#353 =( GEOMETRIC_REPRESENTATION_CONTEXT ( 3 ) GLOBAL_UNCERTAINTY_ASSIGNED_CONTEXT ( ( #411 ) ) GLOBAL_UNIT_ASSIGNED_CONTEXT ( ( #91, #716, #466 ) ) REPRESENTATION_CONTEXT ( 'NONE', 'WORKASPACE' ) );
#354 = VERTEX_POINT ( 'NONE', #129 ) ;
#355 = CIRCLE ( 'NONE', #1, 25.00000000000000000 ) ;
#356 = DIRECTION ( 'NONE',  ( -1.000000000000000000, 6.938893903907228378E-15, 0.000000000000000000 ) ) ;
#357 = LINE ( 'NONE', #243, #407 ) ;
#358 = LINE ( 'NONE', #309, #597 ) ;
#359 = ADVANCED_FACE ( 'NONE', ( #383 ), #316, .T. ) ;
#360 = VERTEX_POINT ( 'NONE', #321 ) ;
#361 = EDGE_CURVE ( 'NONE', #255, #700, #574, .T. ) ;
#362 = DIRECTION ( 'NONE',  ( -1.000000000000000000, 3.540281054158656000E-15, 0.000000000000000000 ) ) ;
#363 = EDGE_LOOP ( 'NONE', ( #5, #236 ) ) ;
#364 = DIRECTION ( 'NONE',  ( 1.000000000000000000, -1.048200861133249134E-14, 0.000000000000000000 ) ) ;
#365 = LINE ( 'NONE', #125, #95 ) ;
#366 = ORIENTED_EDGE ( 'NONE', *, *, #714, .T. ) ;
#367 = VERTEX_POINT ( 'NONE', #7 ) ;
#368 = COLOUR_RGB ( '',0.7921568627450980005, 0.8196078431372548767, 0.9333333333333333481 ) ;
#369 = VERTEX_POINT ( 'NONE', #93 ) ;
#370 = AXIS2_PLACEMENT_3D ( 'NONE', #527, #470, #339 ) ;
#371 = CARTESIAN_POINT ( 'NONE',  ( 0.000000000000000000, 0.000000000000000000, 105.0000000000000000 ) ) ;
#372 = VECTOR ( 'NONE', #708, 1000.000000000000000 ) ;
#373 = DIRECTION ( 'NONE',  ( 0.000000000000000000, 0.000000000000000000, 1.000000000000000000 ) ) ;
#374 = VERTEX_POINT ( 'NONE', #403 ) ;
#375 = DIRECTION ( 'NONE',  ( -0.000000000000000000, -0.000000000000000000, 1.000000000000000000 ) ) ;
#376 = LINE ( 'NONE', #302, #447 ) ;
#377 = ADVANCED_FACE ( 'NONE', ( #782 ), #465, .F. ) ;
#378 = ORIENTED_EDGE ( 'NONE', *, *, #335, .F. ) ;
#379 = ORIENTED_EDGE ( 'NONE', *, *, #460, .F. ) ;
#380 = DIRECTION ( 'NONE',  ( -3.262611951871702681E-15, -1.000000000000000000, 0.000000000000000000 ) ) ;
#381 = VERTEX_POINT ( 'NONE', #149 ) ;
#382 = LINE ( 'NONE', #744, #372 ) ;
#383 = FACE_OUTER_BOUND ( 'NONE', #433, .T. ) ;
#384 = VECTOR ( 'NONE', #482, 1000.000000000000000 ) ;
#385 = AXIS2_PLACEMENT_3D ( 'NONE', #68, #633, #3 ) ;
#386 = VERTEX_POINT ( 'NONE', #221 ) ;
#387 = VERTEX_POINT ( 'NONE', #596 ) ;
#388 = EDGE_CURVE ( 'NONE', #369, #642, #718, .T. ) ;
#389 = FILL_AREA_STYLE ('',( #204 ) ) ;
#390 = ADVANCED_BREP_SHAPE_REPRESENTATION ( 'valj fi49 za printanje desno s \X2\0161010d\X0\itnikom', ( #226, #15 ), #434 ) ;
#391 = ORIENTED_EDGE ( 'NONE', *, *, #666, .F. ) ;
#392 = LINE ( 'NONE', #230, #84 ) ;
#393 = DIRECTION ( 'NONE',  ( 1.000000000000000000, 0.000000000000000000, 0.000000000000000000 ) ) ;
#394 = ORIENTED_EDGE ( 'NONE', *, *, #714, .F. ) ;
#395 = PLANE ( 'NONE',  #777 ) ;
#396 = ADVANCED_FACE ( 'NONE', ( #29 ), #535, .T. ) ;
#397 = AXIS2_PLACEMENT_3D ( 'NONE', #171, #415, #668 ) ;
#398 = ADVANCED_FACE ( 'NONE', ( #603 ), #395, .F. ) ;
#399 = CARTESIAN_POINT ( 'NONE',  ( -5.000000000000167866, -24.49489742783174862, 105.0000000000000000 ) ) ;
#400 = SURFACE_SIDE_STYLE ('',( #518 ) ) ;
#401 = LINE ( 'NONE', #520, #290 ) ;
#402 = ORIENTED_EDGE ( 'NONE', *, *, #795, .F. ) ;
#403 = CARTESIAN_POINT ( 'NONE',  ( -11.99999999999994849, 5.000000000000127898, 120.0000000000000000 ) ) ;
#404 = CARTESIAN_POINT ( 'NONE',  ( -12.00000000000005151, -4.999999999999872990, 105.0000000000000000 ) ) ;
#405 = EDGE_CURVE ( 'NONE', #631, #636, #161, .T. ) ;
#406 = ORIENTED_EDGE ( 'NONE', *, *, #713, .T. ) ;
#407 = VECTOR ( 'NONE', #229, 1000.000000000000000 ) ;
#408 = DIRECTION ( 'NONE',  ( -3.469446951953614583E-15, -1.000000000000000000, 0.000000000000000000 ) ) ;
#409 = CARTESIAN_POINT ( 'NONE',  ( 0.000000000000000000, 0.000000000000000000, 120.0000000000000000 ) ) ;
#410 = EDGE_CURVE ( 'NONE', #127, #44, #769, .T. ) ;
#411 = UNCERTAINTY_MEASURE_WITH_UNIT (LENGTH_MEASURE( 1.000000000000000082E-05 ), #91, 'distance_accuracy_value', 'NONE');
#412 = DIRECTION ( 'NONE',  ( 1.000000000000000000, 0.000000000000000000, -0.000000000000000000 ) ) ;
#413 = DIRECTION ( 'NONE',  ( 1.000000000000000000, 0.000000000000000000, 0.000000000000000000 ) ) ;
#414 = LINE ( 'NONE', #427, #122 ) ;
#415 = DIRECTION ( 'NONE',  ( 0.000000000000000000, 0.000000000000000000, -1.000000000000000000 ) ) ;
#416 = PLANE ( 'NONE',  #815 ) ;
#417 = ORIENTED_EDGE ( 'NONE', *, *, #219, .F. ) ;
#418 = EDGE_CURVE ( 'NONE', #267, #13, #585, .T. ) ;
#419 = CIRCLE ( 'NONE', #225, 25.00000000000000000 ) ;
#420 = ORIENTED_EDGE ( 'NONE', *, *, #787, .T. ) ;
#421 = CIRCLE ( 'NONE', #175, 3.075000000000000178 ) ;
#422 = DIRECTION ( 'NONE',  ( -0.000000000000000000, -0.000000000000000000, 1.000000000000000000 ) ) ;
#423 = DIRECTION ( 'NONE',  ( 6.941727557173835341E-15, 1.000000000000000000, 0.000000000000000000 ) ) ;
#424 = ORIENTED_EDGE ( 'NONE', *, *, #508, .F. ) ;
#425 = CARTESIAN_POINT ( 'NONE',  ( 24.49489742783176638, -5.000000000000084377, 120.0000000000000000 ) ) ;
#426 = ORIENTED_EDGE ( 'NONE', *, *, #197, .T. ) ;
#427 = CARTESIAN_POINT ( 'NONE',  ( 4.999999999999915623, -12.00000000000003553, 120.0000000000000000 ) ) ;
#428 = ADVANCED_FACE ( 'NONE', ( #719 ), #156, .F. ) ;
#429 = PLANE ( 'NONE',  #27 ) ;
#430 = CARTESIAN_POINT ( 'NONE',  ( 24.49489742783179835, 4.999999999999912070, 120.0000000000000000 ) ) ;
#431 = ORIENTED_EDGE ( 'NONE', *, *, #495, .F. ) ;
#432 = VECTOR ( 'NONE', #784, 1000.000000000000000 ) ;
#433 = EDGE_LOOP ( 'NONE', ( #451, #568, #802, #188, #426 ) ) ;
#434 =( GEOMETRIC_REPRESENTATION_CONTEXT ( 3 ) GLOBAL_UNCERTAINTY_ASSIGNED_CONTEXT ( ( #103 ) ) GLOBAL_UNIT_ASSIGNED_CONTEXT ( ( #536, #786, #164 ) ) REPRESENTATION_CONTEXT ( 'NONE', 'WORKASPACE' ) );
#435 = DIRECTION ( 'NONE',  ( 1.000000000000000000, -1.048200861133249292E-14, 0.000000000000000000 ) ) ;
#436 = CARTESIAN_POINT ( 'NONE',  ( 0.000000000000000000, 0.000000000000000000, 0.000000000000000000 ) ) ;
#437 = ADVANCED_FACE ( 'NONE', ( #522 ), #654, .F. ) ;
#438 = CARTESIAN_POINT ( 'NONE',  ( 4.999999999999829470, -24.49489742783181612, 105.0000000000000000 ) ) ;
#439 = ORIENTED_EDGE ( 'NONE', *, *, #41, .F. ) ;
#440 = DIRECTION ( 'NONE',  ( 1.000000000000000000, 0.000000000000000000, 0.000000000000000000 ) ) ;
#441 = ORIENTED_EDGE ( 'NONE', *, *, #18, .T. ) ;
#442 = VERTEX_POINT ( 'NONE', #586 ) ;
#443 = FACE_OUTER_BOUND ( 'NONE', #324, .T. ) ;
#444 = ORIENTED_EDGE ( 'NONE', *, *, #478, .T. ) ;
#445 = ADVANCED_FACE ( 'NONE', ( #23 ), #16, .F. ) ;
#446 = ORIENTED_EDGE ( 'NONE', *, *, #523, .T. ) ;
#447 = VECTOR ( 'NONE', #635, 1000.000000000000000 ) ;
#448 = DIRECTION ( 'NONE',  ( -0.000000000000000000, -0.000000000000000000, 1.000000000000000000 ) ) ;
#449 = CIRCLE ( 'NONE', #779, 25.00000000000000000 ) ;
#450 = PRODUCT_DEFINITION_SHAPE ( 'NONE', 'NONE',  #283 ) ;
#451 = ORIENTED_EDGE ( 'NONE', *, *, #177, .T. ) ;
#452 = EDGE_LOOP ( 'NONE', ( #715, #417, #688, #231 ) ) ;
#453 = EDGE_CURVE ( 'NONE', #112, #127, #306, .T. ) ;
#454 = CARTESIAN_POINT ( 'NONE',  ( 24.49489742783179835, 4.999999999999912070, 105.0000000000000000 ) ) ;
#455 = EDGE_CURVE ( 'NONE', #803, #217, #297, .T. ) ;
#456 = CARTESIAN_POINT ( 'NONE',  ( -24.49489742783173085, 5.000000000000254907, 105.0000000000000000 ) ) ;
#457 = DIRECTION ( 'NONE',  ( 0.000000000000000000, 0.000000000000000000, 1.000000000000000000 ) ) ;
#458 = CIRCLE ( 'NONE', #162, 25.00000000000000000 ) ;
#459 = PLANE ( 'NONE',  #14 ) ;
#460 = EDGE_CURVE ( 'NONE', #268, #354, #488, .T. ) ;
#461 = VECTOR ( 'NONE', #422, 1000.000000000000000 ) ;
#462 = VERTEX_POINT ( 'NONE', #729 ) ;
#463 = CARTESIAN_POINT ( 'NONE',  ( -5.000000000000084377, -11.99999999999996625, 105.0000000000000000 ) ) ;
#464 = ORIENTED_EDGE ( 'NONE', *, *, #575, .F. ) ;
#465 = PLANE ( 'NONE',  #735 ) ;
#466 =( NAMED_UNIT ( * ) SI_UNIT ( $, .STERADIAN. ) SOLID_ANGLE_UNIT ( ) );
#467 = PLANE ( 'NONE',  #52 ) ;
#468 = PRODUCT_DEFINITION_CONTEXT ( 'detailed design', #102, 'design' ) ;
#469 = EDGE_CURVE ( 'NONE', #360, #793, #109, .T. ) ;
#470 = DIRECTION ( 'NONE',  ( 0.000000000000000000, 0.000000000000000000, -1.000000000000000000 ) ) ;
#471 = LINE ( 'NONE', #605, #461 ) ;
#472 = PRESENTATION_LAYER_ASSIGNMENT (  '', '', ( #12 ) ) ;
#473 = PRODUCT_DEFINITION_FORMATION_WITH_SPECIFIED_SOURCE ( 'ANY', '', #702, .NOT_KNOWN. ) ;
#474 = PLANE ( 'NONE',  #529 ) ;
#475 = DIRECTION ( 'NONE',  ( 1.020433950904553960E-14, 1.000000000000000000, 0.000000000000000000 ) ) ;
#476 = CARTESIAN_POINT ( 'NONE',  ( 24.49489742783176283, -5.000000000000095923, 105.0000000000000000 ) ) ;
#477 = ORIENTED_EDGE ( 'NONE', *, *, #106, .T. ) ;
#478 = EDGE_CURVE ( 'NONE', #143, #673, #247, .T. ) ;
#479 = CARTESIAN_POINT ( 'NONE',  ( -24.49489742783173085, 5.000000000000255795, 105.0000000000000000 ) ) ;
#480 = EDGE_CURVE ( 'NONE', #613, #462, #743, .T. ) ;
#481 = DIRECTION ( 'NONE',  ( 0.000000000000000000, 0.000000000000000000, 1.000000000000000000 ) ) ;
#482 = DIRECTION ( 'NONE',  ( 1.000000000000000000, -1.048200861133249134E-14, 0.000000000000000000 ) ) ;
#483 = CARTESIAN_POINT ( 'NONE',  ( 24.49489742783176283, -5.000000000000095923, 120.0000000000000000 ) ) ;
#484 = EDGE_LOOP ( 'NONE', ( #658, #293, #583, #632, #329, #203, #208, #303, #402, #378, #682, #775 ) ) ;
#485 = VECTOR ( 'NONE', #578, 1000.000000000000000 ) ;
#486 = ORIENTED_EDGE ( 'NONE', *, *, #795, .T. ) ;
#487 = VECTOR ( 'NONE', #19, 1000.000000000000000 ) ;
#488 = LINE ( 'NONE', #674, #26 ) ;
#489 = DIRECTION ( 'NONE',  ( 1.000000000000000000, 0.000000000000000000, -0.000000000000000000 ) ) ;
#490 = CARTESIAN_POINT ( 'NONE',  ( 24.49489742783179835, 4.999999999999912070, 105.0000000000000000 ) ) ;
#491 = EDGE_CURVE ( 'NONE', #742, #613, #587, .T. ) ;
#492 = DIRECTION ( 'NONE',  ( -0.000000000000000000, -0.000000000000000000, 1.000000000000000000 ) ) ;
#493 = DIRECTION ( 'NONE',  ( 1.000000000000000000, 0.000000000000000000, -0.000000000000000000 ) ) ;
#494 = ORIENTED_EDGE ( 'NONE', *, *, #8, .F. ) ;
#495 = EDGE_CURVE ( 'NONE', #367, #250, #414, .T. ) ;
#496 = FACE_OUTER_BOUND ( 'NONE', #61, .T. ) ;
#497 = LINE ( 'NONE', #507, #625 ) ;
#498 = LINE ( 'NONE', #438, #271 ) ;
#499 = EDGE_LOOP ( 'NONE', ( #133, #737, #420, #704 ) ) ;
#500 = ORIENTED_EDGE ( 'NONE', *, *, #184, .F. ) ;
#501 = CIRCLE ( 'NONE', #153, 25.00000000000000000 ) ;
#502 = CYLINDRICAL_SURFACE ( 'NONE', #342, 50.00000000000000000 ) ;
#503 = CARTESIAN_POINT ( 'NONE',  ( 0.000000000000000000, 0.000000000000000000, 120.0000000000000000 ) ) ;
#504 = ORIENTED_EDGE ( 'NONE', *, *, #410, .T. ) ;
#505 = EDGE_LOOP ( 'NONE', ( #348, #391, #500, #155 ) ) ;
#506 = CARTESIAN_POINT ( 'NONE',  ( -25.00000000000000000, 0.000000000000000000, 0.000000000000000000 ) ) ;
#507 = CARTESIAN_POINT ( 'NONE',  ( -5.000000000000167866, -24.49489742783174862, 105.0000000000000000 ) ) ;
#508 = EDGE_CURVE ( 'NONE', #631, #67, #733, .T. ) ;
#509 = EDGE_CURVE ( 'NONE', #354, #374, #116, .T. ) ;
#510 = VERTEX_POINT ( 'NONE', #740 ) ;
#511 = PLANE ( 'NONE',  #96 ) ;
#512 = EDGE_LOOP ( 'NONE', ( #326, #515 ) ) ;
#513 = VECTOR ( 'NONE', #413, 1000.000000000000000 ) ;
#514 = CARTESIAN_POINT ( 'NONE',  ( 3.075000000000000178, 3.765788907378111032E-16, 120.0000000000000000 ) ) ;
#515 = ORIENTED_EDGE ( 'NONE', *, *, #750, .F. ) ;
#516 = DIRECTION ( 'NONE',  ( -0.000000000000000000, -0.000000000000000000, -1.000000000000000000 ) ) ;
#517 = DIRECTION ( 'NONE',  ( -0.000000000000000000, -0.000000000000000000, -1.000000000000000000 ) ) ;
#518 = SURFACE_STYLE_FILL_AREA ( #389 ) ;
#519 = LINE ( 'NONE', #770, #801 ) ;
#520 = CARTESIAN_POINT ( 'NONE',  ( 3.075000000000000178, 3.765788907378111032E-16, 120.0000000000000000 ) ) ;
#521 = EDGE_LOOP ( 'NONE', ( #40, #707, #767, #559 ) ) ;
#522 = FACE_OUTER_BOUND ( 'NONE', #79, .T. ) ;
#523 = EDGE_CURVE ( 'NONE', #673, #217, #179, .T. ) ;
#524 = DIRECTION ( 'NONE',  ( 1.000000000000000000, -1.040834085586084257E-14, 0.000000000000000000 ) ) ;
#525 = ORIENTED_EDGE ( 'NONE', *, *, #571, .F. ) ;
#526 = CARTESIAN_POINT ( 'NONE',  ( 0.000000000000000000, 0.000000000000000000, 0.000000000000000000 ) ) ;
#527 = CARTESIAN_POINT ( 'NONE',  ( 0.000000000000000000, 0.000000000000000000, 120.0000000000000000 ) ) ;
#528 = AXIS2_PLACEMENT_3D ( 'NONE', #634, #695, #749 ) ;
#529 = AXIS2_PLACEMENT_3D ( 'NONE', #409, #346, #412 ) ;
#530 = DIRECTION ( 'NONE',  ( 0.000000000000000000, 0.000000000000000000, 1.000000000000000000 ) ) ;
#531 = CARTESIAN_POINT ( 'NONE',  ( -24.49489742783173085, 5.000000000000254907, 105.0000000000000000 ) ) ;
#532 = DIRECTION ( 'NONE',  ( 1.000000000000000000, 0.000000000000000000, -0.000000000000000000 ) ) ;
#533 = EDGE_CURVE ( 'NONE', #803, #148, #355, .T. ) ;
#534 = ORIENTED_EDGE ( 'NONE', *, *, #219, .T. ) ;
#535 = PLANE ( 'NONE',  #291 ) ;
#536 =( LENGTH_UNIT ( ) NAMED_UNIT ( * ) SI_UNIT ( .MILLI., .METRE. ) );
#537 = DIRECTION ( 'NONE',  ( 0.000000000000000000, 0.000000000000000000, 1.000000000000000000 ) ) ;
#538 = AXIS2_PLACEMENT_3D ( 'NONE', #170, #232, #349 ) ;
#539 = CIRCLE ( 'NONE', #752, 50.00000000000000000 ) ;
#540 = CARTESIAN_POINT ( 'NONE',  ( 4.999999999999998224, 24.49489742783178414, 105.0000000000000000 ) ) ;
#541 = EDGE_CURVE ( 'NONE', #739, #195, #661, .T. ) ;
#542 = DIRECTION ( 'NONE',  ( 0.000000000000000000, 0.000000000000000000, 1.000000000000000000 ) ) ;
#543 = LINE ( 'NONE', #655, #108 ) ;
#544 = ORIENTED_EDGE ( 'NONE', *, *, #541, .T. ) ;
#545 = PLANE ( 'NONE',  #720 ) ;
#546 = ORIENTED_EDGE ( 'NONE', *, *, #177, .F. ) ;
#547 = DIRECTION ( 'NONE',  ( -1.000000000000000000, 0.000000000000000000, 0.000000000000000000 ) ) ;
#548 = DIRECTION ( 'NONE',  ( 1.000000000000000000, 0.000000000000000000, 0.000000000000000000 ) ) ;
#549 = CYLINDRICAL_SURFACE ( 'NONE', #762, 50.00000000000000000 ) ;
#550 = VERTEX_POINT ( 'NONE', #540 ) ;
#551 = AXIS2_PLACEMENT_3D ( 'NONE', #340, #712, #218 ) ;
#552 = ORIENTED_EDGE ( 'NONE', *, *, #455, .F. ) ;
#553 = VECTOR ( 'NONE', #560, 1000.000000000000000 ) ;
#554 = CARTESIAN_POINT ( 'NONE',  ( -25.00000000000000000, 0.000000000000000000, 120.0000000000000000 ) ) ;
#555 = CARTESIAN_POINT ( 'NONE',  ( 11.99999999999998224, -5.000000000000043521, 120.0000000000000000 ) ) ;
#556 = CARTESIAN_POINT ( 'NONE',  ( 50.00000000000000000, 0.000000000000000000, 0.000000000000000000 ) ) ;
#557 = ORIENTED_EDGE ( 'NONE', *, *, #575, .T. ) ;
#558 = EDGE_CURVE ( 'NONE', #386, #255, #471, .T. ) ;
#559 = ORIENTED_EDGE ( 'NONE', *, *, #651, .T. ) ;
#560 = DIRECTION ( 'NONE',  ( -1.000000000000000000, 1.020433950904553802E-14, -0.000000000000000000 ) ) ;
#561 = FACE_OUTER_BOUND ( 'NONE', #99, .T. ) ;
#562 = DIRECTION ( 'NONE',  ( -0.000000000000000000, -0.000000000000000000, 1.000000000000000000 ) ) ;
#563 = VERTEX_POINT ( 'NONE', #238 ) ;
#564 = ORIENTED_EDGE ( 'NONE', *, *, #347, .F. ) ;
#565 = CARTESIAN_POINT ( 'NONE',  ( 4.999999999999998224, 24.49489742783178414, 120.0000000000000000 ) ) ;
#566 = PLANE ( 'NONE',  #699 ) ;
#567 = AXIS2_PLACEMENT_3D ( 'NONE', #531, #475, #776 ) ;
#568 = ORIENTED_EDGE ( 'NONE', *, *, #533, .T. ) ;
#569 = VECTOR ( 'NONE', #24, 1000.000000000000000 ) ;
#570 = ORIENTED_EDGE ( 'NONE', *, *, #60, .F. ) ;
#571 = EDGE_CURVE ( 'NONE', #13, #739, #357, .T. ) ;
#572 = AXIS2_PLACEMENT_3D ( 'NONE', #300, #542, #548 ) ;
#573 = DIRECTION ( 'NONE',  ( 0.000000000000000000, -1.000000000000000000, 0.000000000000000000 ) ) ;
#574 = LINE ( 'NONE', #4, #485 ) ;
#575 = EDGE_CURVE ( 'NONE', #636, #772, #501, .T. ) ;
#576 = ORIENTED_EDGE ( 'NONE', *, *, #509, .T. ) ;
#577 = ORIENTED_EDGE ( 'NONE', *, *, #812, .F. ) ;
#578 = DIRECTION ( 'NONE',  ( 0.000000000000000000, -1.000000000000000000, 0.000000000000000000 ) ) ;
#579 = EDGE_LOOP ( 'NONE', ( #366, #406, #251, #56, #504 ) ) ;
#580 = ORIENTED_EDGE ( 'NONE', *, *, #453, .F. ) ;
#581 = CARTESIAN_POINT ( 'NONE',  ( -24.49489742783173085, 5.000000000000255795, 120.0000000000000000 ) ) ;
#582 = EDGE_CURVE ( 'NONE', #387, #673, #105, .T. ) ;
#583 = ORIENTED_EDGE ( 'NONE', *, *, #455, .T. ) ;
#584 = VECTOR ( 'NONE', #207, 1000.000000000000000 ) ;
#585 = CIRCLE ( 'NONE', #370, 3.075000000000000178 ) ;
#586 = CARTESIAN_POINT ( 'NONE',  ( 4.999999999999829470, -24.49489742783181612, 120.0000000000000000 ) ) ;
#587 = CIRCLE ( 'NONE', #538, 50.00000000000000000 ) ;
#588 = VERTEX_POINT ( 'NONE', #479 ) ;
#589 = EDGE_CURVE ( 'NONE', #148, #381, #45, .T. ) ;
#590 = LINE ( 'NONE', #128, #601 ) ;
#591 = CARTESIAN_POINT ( 'NONE',  ( 4.999999999999829470, -24.49489742783181612, 105.0000000000000000 ) ) ;
#592 = ORIENTED_EDGE ( 'NONE', *, *, #227, .T. ) ;
#593 = DIRECTION ( 'NONE',  ( -2.776691022869534176E-16, 1.000000000000000000, 0.000000000000000000 ) ) ;
#594 = CARTESIAN_POINT ( 'NONE',  ( -11.99999999999994849, 5.000000000000127898, 105.0000000000000000 ) ) ;
#595 = DIRECTION ( 'NONE',  ( -0.000000000000000000, -0.000000000000000000, -1.000000000000000000 ) ) ;
#596 = CARTESIAN_POINT ( 'NONE',  ( 11.99999999999998224, -5.000000000000043521, 105.0000000000000000 ) ) ;
#597 = VECTOR ( 'NONE', #254, 1000.000000000000000 ) ;
#598 = ADVANCED_FACE ( 'NONE', ( #113 ), #33, .T. ) ;
#599 = VECTOR ( 'NONE', #725, 1000.000000000000000 ) ;
#600 = FACE_OUTER_BOUND ( 'NONE', #505, .T. ) ;
#601 = VECTOR ( 'NONE', #375, 1000.000000000000000 ) ;
#602 = ORIENTED_EDGE ( 'NONE', *, *, #98, .F. ) ;
#603 = FACE_OUTER_BOUND ( 'NONE', #693, .T. ) ;
#604 = LINE ( 'NONE', #463, #686 ) ;
#605 = CARTESIAN_POINT ( 'NONE',  ( -4.999999999999998224, 24.49489742783178059, 105.0000000000000000 ) ) ;
#606 = ORIENTED_EDGE ( 'NONE', *, *, #726, .F. ) ;
#607 = DIRECTION ( 'NONE',  ( 1.000000000000000000, 0.000000000000000000, 0.000000000000000000 ) ) ;
#608 = DIRECTION ( 'NONE',  ( 0.000000000000000000, 0.000000000000000000, -1.000000000000000000 ) ) ;
#609 = VECTOR ( 'NONE', #351, 1000.000000000000000 ) ;
#610 = LINE ( 'NONE', #216, #513 ) ;
#611 = CIRCLE ( 'NONE', #572, 25.00000000000000000 ) ;
#612 = EDGE_CURVE ( 'NONE', #550, #386, #611, .T. ) ;
#613 = VERTEX_POINT ( 'NONE', #180 ) ;
#614 = CARTESIAN_POINT ( 'NONE',  ( 24.49489742783179835, 4.999999999999912070, 105.0000000000000000 ) ) ;
#615 = DIRECTION ( 'NONE',  ( 6.941727557173835341E-15, 1.000000000000000000, 0.000000000000000000 ) ) ;
#616 = ORIENTED_EDGE ( 'NONE', *, *, #726, .T. ) ;
#617 = CARTESIAN_POINT ( 'NONE',  ( 0.000000000000000000, 0.000000000000000000, 105.0000000000000000 ) ) ;
#618 = DIRECTION ( 'NONE',  ( 0.000000000000000000, 0.000000000000000000, -1.000000000000000000 ) ) ;
#619 = ORIENTED_EDGE ( 'NONE', *, *, #713, .F. ) ;
#620 = ORIENTED_EDGE ( 'NONE', *, *, #738, .T. ) ;
#621 = CARTESIAN_POINT ( 'NONE',  ( 12.00000000000001776, 4.999999999999956479, 120.0000000000000000 ) ) ;
#622 = CYLINDRICAL_SURFACE ( 'NONE', #244, 3.075000000000000178 ) ;
#623 = EDGE_CURVE ( 'NONE', #613, #742, #539, .T. ) ;
#624 = PLANE ( 'NONE',  #669 ) ;
#625 = VECTOR ( 'NONE', #698, 1000.000000000000000 ) ;
#626 = ORIENTED_EDGE ( 'NONE', *, *, #656, .F. ) ;
#627 = VECTOR ( 'NONE', #237, 1000.000000000000000 ) ;
#628 = ORIENTED_EDGE ( 'NONE', *, *, #589, .T. ) ;
#629 = DIRECTION ( 'NONE',  ( 0.000000000000000000, 0.000000000000000000, 1.000000000000000000 ) ) ;
#630 = CARTESIAN_POINT ( 'NONE',  ( 12.00000000000001776, 4.999999999999956479, 120.0000000000000000 ) ) ;
#631 = VERTEX_POINT ( 'NONE', #288 ) ;
#632 = ORIENTED_EDGE ( 'NONE', *, *, #261, .F. ) ;
#633 = DIRECTION ( 'NONE',  ( 0.000000000000000000, 0.000000000000000000, 1.000000000000000000 ) ) ;
#634 = CARTESIAN_POINT ( 'NONE',  ( 0.000000000000000000, 0.000000000000000000, 120.0000000000000000 ) ) ;
#635 = DIRECTION ( 'NONE',  ( -3.469446951953614189E-15, -1.000000000000000000, 0.000000000000000000 ) ) ;
#636 = VERTEX_POINT ( 'NONE', #730 ) ;
#637 = ADVANCED_FACE ( 'NONE', ( #163, #789 ), #474, .T. ) ;
#638 = ORIENTED_EDGE ( 'NONE', *, *, #361, .T. ) ;
#639 = CARTESIAN_POINT ( 'NONE',  ( -4.999999999999998224, 24.49489742783178059, 105.0000000000000000 ) ) ;
#640 = DIRECTION ( 'NONE',  ( 0.000000000000000000, 0.000000000000000000, 1.000000000000000000 ) ) ;
#641 = CARTESIAN_POINT ( 'NONE',  ( 5.000000000000001776, 12.00000000000000000, 105.0000000000000000 ) ) ;
#642 = VERTEX_POINT ( 'NONE', #665 ) ;
#643 = AXIS2_PLACEMENT_3D ( 'NONE', #276, #517, #547 ) ;
#644 = VECTOR ( 'NONE', #289, 1000.000000000000000 ) ;
#645 = LINE ( 'NONE', #259, #487 ) ;
#646 = DIRECTION ( 'NONE',  ( -0.000000000000000000, -0.000000000000000000, 1.000000000000000000 ) ) ;
#647 = ORIENTED_EDGE ( 'NONE', *, *, #679, .F. ) ;
#648 = EDGE_LOOP ( 'NONE', ( #760, #620, #756, #55 ) ) ;
#649 = DIRECTION ( 'NONE',  ( -2.776691022869534176E-16, 1.000000000000000000, -0.000000000000000000 ) ) ;
#650 = DIRECTION ( 'NONE',  ( -1.000000000000000000, 0.000000000000000000, 0.000000000000000000 ) ) ;
#651 = EDGE_CURVE ( 'NONE', #187, #462, #263, .T. ) ;
#652 = DIRECTION ( 'NONE',  ( -1.000000000000000000, 0.000000000000000000, 0.000000000000000000 ) ) ;
#653 = DIRECTION ( 'NONE',  ( -1.000000000000000000, 6.664058454886882022E-15, 0.000000000000000000 ) ) ;
#654 = PLANE ( 'NONE',  #138 ) ;
#655 = CARTESIAN_POINT ( 'NONE',  ( -5.000000000000167866, -24.49489742783174862, 120.0000000000000000 ) ) ;
#656 = EDGE_CURVE ( 'NONE', #13, #267, #192, .T. ) ;
#657 = CARTESIAN_POINT ( 'NONE',  ( -5.000000000000084377, -11.99999999999996625, 120.0000000000000000 ) ) ;
#658 = ORIENTED_EDGE ( 'NONE', *, *, #589, .F. ) ;
#659 = VECTOR ( 'NONE', #172, 1000.000000000000000 ) ;
#660 = CIRCLE ( 'NONE', #685, 25.00000000000000000 ) ;
#661 = CIRCLE ( 'NONE', #97, 3.075000000000000178 ) ;
#662 = CARTESIAN_POINT ( 'NONE',  ( 0.000000000000000000, 0.000000000000000000, 105.0000000000000000 ) ) ;
#663 = EDGE_LOOP ( 'NONE', ( #343, #17, #424, #269 ) ) ;
#664 = DIRECTION ( 'NONE',  ( 0.000000000000000000, 0.000000000000000000, 1.000000000000000000 ) ) ;
#665 = CARTESIAN_POINT ( 'NONE',  ( 5.000000000000001776, 12.00000000000000000, 105.0000000000000000 ) ) ;
#666 = EDGE_CURVE ( 'NONE', #265, #367, #42, .T. ) ;
#667 = ORIENTED_EDGE ( 'NONE', *, *, #495, .T. ) ;
#668 = DIRECTION ( 'NONE',  ( -1.000000000000000000, 0.000000000000000000, 0.000000000000000000 ) ) ;
#669 = AXIS2_PLACEMENT_3D ( 'NONE', #245, #618, #46 ) ;
#670 = AXIS2_PLACEMENT_3D ( 'NONE', #766, #380, #142 ) ;
#671 = DIRECTION ( 'NONE',  ( -1.000000000000000000, 0.000000000000000000, 0.000000000000000000 ) ) ;
#672 = AXIS2_PLACEMENT_3D ( 'NONE', #152, #248, #136 ) ;
#673 = VERTEX_POINT ( 'NONE', #555 ) ;
#674 = CARTESIAN_POINT ( 'NONE',  ( -24.49489742783183388, -4.999999999999741540, 120.0000000000000000 ) ) ;
#675 = CARTESIAN_POINT ( 'NONE',  ( 0.000000000000000000, 0.000000000000000000, 120.0000000000000000 ) ) ;
#676 = DIRECTION ( 'NONE',  ( -1.000000000000000000, 6.938893903907229167E-15, 0.000000000000000000 ) ) ;
#677 = ORIENTED_EDGE ( 'NONE', *, *, #666, .T. ) ;
#678 = DIRECTION ( 'NONE',  ( -0.000000000000000000, -0.000000000000000000, 1.000000000000000000 ) ) ;
#679 = EDGE_CURVE ( 'NONE', #255, #274, #228, .T. ) ;
#680 = DIRECTION ( 'NONE',  ( 1.000000000000000000, 0.000000000000000000, 0.000000000000000000 ) ) ;
#681 = FACE_OUTER_BOUND ( 'NONE', #318, .T. ) ;
#682 = ORIENTED_EDGE ( 'NONE', *, *, #469, .T. ) ;
#683 = CARTESIAN_POINT ( 'NONE',  ( -24.49489742783183388, -4.999999999999741540, 105.0000000000000000 ) ) ;
#684 = LINE ( 'NONE', #43, #659 ) ;
#685 = AXIS2_PLACEMENT_3D ( 'NONE', #761, #689, #393 ) ;
#686 = VECTOR ( 'NONE', #791, 1000.000000000000000 ) ;
#687 = EDGE_LOOP ( 'NONE', ( #606, #570, #313, #724, #710, #304, #379, #115, #194, #431, #602, #806, #141, #199, #807, #557 ) ) ;
#688 = ORIENTED_EDGE ( 'NONE', *, *, #388, .F. ) ;
#689 = DIRECTION ( 'NONE',  ( 0.000000000000000000, 0.000000000000000000, 1.000000000000000000 ) ) ;
#690 = FACE_BOUND ( 'NONE', #512, .T. ) ;
#691 = EDGE_CURVE ( 'NONE', #148, #631, #273, .T. ) ;
#692 = EDGE_LOOP ( 'NONE', ( #178, #696, #394, #592 ) ) ;
#693 = EDGE_LOOP ( 'NONE', ( #444, #131, #205, #47 ) ) ;
#694 = LINE ( 'NONE', #639, #701 ) ;
#695 = DIRECTION ( 'NONE',  ( 0.000000000000000000, 0.000000000000000000, 1.000000000000000000 ) ) ;
#696 = ORIENTED_EDGE ( 'NONE', *, *, #106, .F. ) ;
#697 = DIRECTION ( 'NONE',  ( -0.000000000000000000, -0.000000000000000000, 1.000000000000000000 ) ) ;
#698 = DIRECTION ( 'NONE',  ( -6.664058454886882022E-15, -1.000000000000000000, -0.000000000000000000 ) ) ;
#699 = AXIS2_PLACEMENT_3D ( 'NONE', #235, #481, #493 ) ;
#700 = VERTEX_POINT ( 'NONE', #320 ) ;
#701 = VECTOR ( 'NONE', #573, 1000.000000000000000 ) ;
#702 = PRODUCT ( 'valj fi49 za printanje desno s \X2\0161010d\X0\itnikom', 'valj fi49 za printanje desno s \X2\0161010d\X0\itnikom', '', ( #336 ) ) ;
#703 = CARTESIAN_POINT ( 'NONE',  ( -24.49489742783183388, -4.999999999999741540, 120.0000000000000000 ) ) ;
#704 = ORIENTED_EDGE ( 'NONE', *, *, #388, .T. ) ;
#705 = CARTESIAN_POINT ( 'NONE',  ( 0.000000000000000000, 0.000000000000000000, 0.000000000000000000 ) ) ;
#706 = EDGE_CURVE ( 'NONE', #742, #187, #190, .T. ) ;
#707 = ORIENTED_EDGE ( 'NONE', *, *, #491, .F. ) ;
#708 = DIRECTION ( 'NONE',  ( -2.776691022869534176E-16, 1.000000000000000000, -0.000000000000000000 ) ) ;
#709 = CARTESIAN_POINT ( 'NONE',  ( 4.999999999999829470, -24.49489742783181612, 105.0000000000000000 ) ) ;
#710 = ORIENTED_EDGE ( 'NONE', *, *, #83, .F. ) ;
#711 = DIRECTION ( 'NONE',  ( 1.000000000000000000, 0.000000000000000000, 0.000000000000000000 ) ) ;
#712 = DIRECTION ( 'NONE',  ( 0.000000000000000000, 0.000000000000000000, -1.000000000000000000 ) ) ;
#713 = EDGE_CURVE ( 'NONE', #588, #360, #139, .T. ) ;
#714 = EDGE_CURVE ( 'NONE', #44, #588, #308, .T. ) ;
#715 = ORIENTED_EDGE ( 'NONE', *, *, #60, .T. ) ;
#716 =( NAMED_UNIT ( * ) PLANE_ANGLE_UNIT ( ) SI_UNIT ( $, .RADIAN. ) );
#717 = APPLICATION_PROTOCOL_DEFINITION ( 'draft international standard', 'automotive_design', 1998, #102 ) ;
#718 = LINE ( 'NONE', #286, #322 ) ;
#719 = FACE_OUTER_BOUND ( 'NONE', #78, .T. ) ;
#720 = AXIS2_PLACEMENT_3D ( 'NONE', #490, #239, #745 ) ;
#721 = DIRECTION ( 'NONE',  ( 0.000000000000000000, 0.000000000000000000, 1.000000000000000000 ) ) ;
#722 = VECTOR ( 'NONE', #678, 1000.000000000000000 ) ;
#723 = VECTOR ( 'NONE', #100, 1000.000000000000000 ) ;
#724 = ORIENTED_EDGE ( 'NONE', *, *, #679, .T. ) ;
#725 = DIRECTION ( 'NONE',  ( -0.000000000000000000, -0.000000000000000000, -1.000000000000000000 ) ) ;
#726 = EDGE_CURVE ( 'NONE', #757, #772, #382, .T. ) ;
#727 = LINE ( 'NONE', #768, #609 ) ;
#728 = EDGE_LOOP ( 'NONE', ( #220, #564 ) ) ;
#729 = CARTESIAN_POINT ( 'NONE',  ( -50.00000000000000000, 6.123233995736766085E-15, 0.000000000000000000 ) ) ;
#730 = CARTESIAN_POINT ( 'NONE',  ( 24.49489742783179835, 4.999999999999912070, 120.0000000000000000 ) ) ;
#731 = FACE_OUTER_BOUND ( 'NONE', #663, .T. ) ;
#732 = EDGE_LOOP ( 'NONE', ( #282, #54, #256, #765 ) ) ;
#733 = LINE ( 'NONE', #614, #627 ) ;
#734 = CIRCLE ( 'NONE', #213, 25.00000000000000000 ) ;
#735 = AXIS2_PLACEMENT_3D ( 'NONE', #212, #778, #209 ) ;
#736 = CARTESIAN_POINT ( 'NONE',  ( 25.00000000000000000, 3.061616997868383043E-15, 105.0000000000000000 ) ) ;
#737 = ORIENTED_EDGE ( 'NONE', *, *, #612, .T. ) ;
#738 = EDGE_CURVE ( 'NONE', #510, #563, #449, .T. ) ;
#739 = VERTEX_POINT ( 'NONE', #758 ) ;
#740 = CARTESIAN_POINT ( 'NONE',  ( -5.000000000000181188, -24.49489742783174506, 105.0000000000000000 ) ) ;
#741 = CARTESIAN_POINT ( 'NONE',  ( 4.999999999999829470, -24.49489742783181612, 120.0000000000000000 ) ) ;
#742 = VERTEX_POINT ( 'NONE', #266 ) ;
#743 = LINE ( 'NONE', #183, #799 ) ;
#744 = CARTESIAN_POINT ( 'NONE',  ( 4.999999999999998224, 24.49489742783178059, 120.0000000000000000 ) ) ;
#745 = DIRECTION ( 'NONE',  ( -1.000000000000000000, 3.540281054158656395E-15, 0.000000000000000000 ) ) ;
#746 = ORIENTED_EDGE ( 'NONE', *, *, #418, .T. ) ;
#747 = EDGE_CURVE ( 'NONE', #265, #753, #645, .T. ) ;
#748 = DIRECTION ( 'NONE',  ( 0.000000000000000000, 0.000000000000000000, -1.000000000000000000 ) ) ;
#749 = DIRECTION ( 'NONE',  ( 1.000000000000000000, 0.000000000000000000, 0.000000000000000000 ) ) ;
#750 = EDGE_CURVE ( 'NONE', #195, #739, #421, .T. ) ;
#751 = LINE ( 'NONE', #430, #151 ) ;
#752 = AXIS2_PLACEMENT_3D ( 'NONE', #117, #30, #101 ) ;
#753 = VERTEX_POINT ( 'NONE', #315 ) ;
#754 = CARTESIAN_POINT ( 'NONE',  ( 0.000000000000000000, 0.000000000000000000, -3.000000000000000000 ) ) ;
#755 = ADVANCED_FACE ( 'NONE', ( #443 ), #622, .F. ) ;
#756 = ORIENTED_EDGE ( 'NONE', *, *, #184, .T. ) ;
#757 = VERTEX_POINT ( 'NONE', #252 ) ;
#758 = CARTESIAN_POINT ( 'NONE',  ( -3.075000000000000178, 0.000000000000000000, -3.000000000000000000 ) ) ;
#759 = CARTESIAN_POINT ( 'NONE',  ( 0.000000000000000000, 0.000000000000000000, 105.0000000000000000 ) ) ;
#760 = ORIENTED_EDGE ( 'NONE', *, *, #319, .T. ) ;
#761 = CARTESIAN_POINT ( 'NONE',  ( 0.000000000000000000, 0.000000000000000000, 105.0000000000000000 ) ) ;
#762 = AXIS2_PLACEMENT_3D ( 'NONE', #53, #562, #317 ) ;
#763 = ORIENTED_EDGE ( 'NONE', *, *, #405, .F. ) ;
#764 = ADVANCED_FACE ( 'NONE', ( #496 ), #429, .F. ) ;
#765 = ORIENTED_EDGE ( 'NONE', *, *, #706, .F. ) ;
#766 = CARTESIAN_POINT ( 'NONE',  ( 24.49489742783176638, -5.000000000000084377, 105.0000000000000000 ) ) ;
#767 = ORIENTED_EDGE ( 'NONE', *, *, #706, .T. ) ;
#768 = CARTESIAN_POINT ( 'NONE',  ( -12.00000000000005151, -4.999999999999872990, 105.0000000000000000 ) ) ;
#769 = LINE ( 'NONE', #87, #71 ) ;
#770 = CARTESIAN_POINT ( 'NONE',  ( -24.49489742783183388, -4.999999999999741540, 105.0000000000000000 ) ) ;
#771 = DIRECTION ( 'NONE',  ( -1.000000000000000000, 1.020433950904553802E-14, -0.000000000000000000 ) ) ;
#772 = VERTEX_POINT ( 'NONE', #565 ) ;
#773 = EDGE_CURVE ( 'NONE', #510, #2, #590, .T. ) ;
#774 = ADVANCED_FACE ( 'NONE', ( #63 ), #502, .T. ) ;
#775 = ORIENTED_EDGE ( 'NONE', *, *, #160, .T. ) ;
#776 = DIRECTION ( 'NONE',  ( -1.000000000000000000, 1.020433950904553960E-14, 0.000000000000000000 ) ) ;
#777 = AXIS2_PLACEMENT_3D ( 'NONE', #280, #158, #408 ) ;
#778 = DIRECTION ( 'NONE',  ( -1.000000000000000000, 0.000000000000000000, -0.000000000000000000 ) ) ;
#779 = AXIS2_PLACEMENT_3D ( 'NONE', #371, #629, #808 ) ;
#780 = PLANE ( 'NONE',  #551 ) ;
#781 = DIRECTION ( 'NONE',  ( 1.000000000000000000, 0.000000000000000000, 0.000000000000000000 ) ) ;
#782 = FACE_OUTER_BOUND ( 'NONE', #279, .T. ) ;
#783 = FACE_OUTER_BOUND ( 'NONE', #126, .T. ) ;
#784 = DIRECTION ( 'NONE',  ( -0.000000000000000000, -0.000000000000000000, 1.000000000000000000 ) ) ;
#785 = ORIENTED_EDGE ( 'NONE', *, *, #571, .T. ) ;
#786 =( NAMED_UNIT ( * ) PLANE_ANGLE_UNIT ( ) SI_UNIT ( $, .RADIAN. ) );
#787 = EDGE_CURVE ( 'NONE', #386, #369, #694, .T. ) ;
#788 = DIRECTION ( 'NONE',  ( -3.469446951953614189E-15, -1.000000000000000000, 0.000000000000000000 ) ) ;
#789 = FACE_OUTER_BOUND ( 'NONE', #687, .T. ) ;
#790 = CYLINDRICAL_SURFACE ( 'NONE', #352, 25.00000000000000000 ) ;
#791 = DIRECTION ( 'NONE',  ( -0.000000000000000000, -0.000000000000000000, 1.000000000000000000 ) ) ;
#792 = ORIENTED_EDGE ( 'NONE', *, *, #558, .T. ) ;
#793 = VERTEX_POINT ( 'NONE', #506 ) ;
#794 = DIRECTION ( 'NONE',  ( -0.000000000000000000, -0.000000000000000000, 1.000000000000000000 ) ) ;
#795 = EDGE_CURVE ( 'NONE', #112, #268, #519, .T. ) ;
#796 = CARTESIAN_POINT ( 'NONE',  ( 4.999999999999915623, -12.00000000000003553, 105.0000000000000000 ) ) ;
#797 = DIRECTION ( 'NONE',  ( 1.000000000000000000, 0.000000000000000000, 0.000000000000000000 ) ) ;
#798 = VECTOR ( 'NONE', #423, 1000.000000000000000 ) ;
#799 = VECTOR ( 'NONE', #794, 1000.000000000000000 ) ;
#800 = CARTESIAN_POINT ( 'NONE',  ( -24.49489742783183388, -4.999999999999741540, 105.0000000000000000 ) ) ;
#801 = VECTOR ( 'NONE', #697, 1000.000000000000000 ) ;
#802 = ORIENTED_EDGE ( 'NONE', *, *, #691, .T. ) ;
#803 = VERTEX_POINT ( 'NONE', #476 ) ;
#804 = DIRECTION ( 'NONE',  ( -0.000000000000000000, -0.000000000000000000, 1.000000000000000000 ) ) ;
#805 = DIRECTION ( 'NONE',  ( 6.938893903907229167E-15, 1.000000000000000000, 0.000000000000000000 ) ) ;
#806 = ORIENTED_EDGE ( 'NONE', *, *, #261, .T. ) ;
#807 = ORIENTED_EDGE ( 'NONE', *, *, #107, .F. ) ;
#808 = DIRECTION ( 'NONE',  ( 1.000000000000000000, 0.000000000000000000, 0.000000000000000000 ) ) ;
#809 = DIRECTION ( 'NONE',  ( -0.000000000000000000, -0.000000000000000000, 1.000000000000000000 ) ) ;
#810 = ORIENTED_EDGE ( 'NONE', *, *, #460, .T. ) ;
#811 = ORIENTED_EDGE ( 'NONE', *, *, #150, .F. ) ;
#812 = EDGE_CURVE ( 'NONE', #753, #250, #604, .T. ) ;
#813 = DIRECTION ( 'NONE',  ( -1.000000000000000000, 0.000000000000000000, 0.000000000000000000 ) ) ;
#814 = FACE_OUTER_BOUND ( 'NONE', #452, .T. ) ;
#815 = AXIS2_PLACEMENT_3D ( 'NONE', #193, #805, #676 ) ;
ENDSEC;
END-ISO-10303-21;
