ISO-10303-21;
HEADER;
FILE_DESCRIPTION (( 'STEP AP214' ),
    '1' );
FILE_NAME ('valj fi49 za printanje levo s šèitnikom.STEP',
    '2025-10-23T13:13:11',
    ( '' ),
    ( '' ),
    'SwSTEP 2.0',
    'SolidWorks 2024',
    '' );
FILE_SCHEMA (( 'AUTOMOTIVE_DESIGN' ));
ENDSEC;

DATA;
#1 = ADVANCED_FACE ( 'NONE', ( #141, #726 ), #723, .T. ) ;
#2 = CARTESIAN_POINT ( 'NONE',  ( 12.00000000000001776, 4.999999999999956479, 135.0000000000000000 ) ) ;
#3 = ORIENTED_EDGE ( 'NONE', *, *, #646, .F. ) ;
#4 = DIRECTION ( 'NONE',  ( 1.000000000000000000, 0.000000000000000000, -0.000000000000000000 ) ) ;
#5 = LINE ( 'NONE', #322, #32 ) ;
#6 = ORIENTED_EDGE ( 'NONE', *, *, #240, .F. ) ;
#7 = CARTESIAN_POINT ( 'NONE',  ( 4.999999999999829470, -24.49489742783181612, 135.0000000000000000 ) ) ;
#8 = CARTESIAN_POINT ( 'NONE',  ( 12.00000000000001776, 4.999999999999956479, 120.0000000000000000 ) ) ;
#9 = ORIENTED_EDGE ( 'NONE', *, *, #202, .F. ) ;
#10 = DIRECTION ( 'NONE',  ( 1.000000000000000000, 0.000000000000000000, 0.000000000000000000 ) ) ;
#11 = ORIENTED_EDGE ( 'NONE', *, *, #603, .F. ) ;
#12 = EDGE_CURVE ( 'NONE', #122, #629, #335, .T. ) ;
#13 = DIRECTION ( 'NONE',  ( -0.000000000000000000, -0.000000000000000000, 1.000000000000000000 ) ) ;
#14 = PLANE ( 'NONE',  #221 ) ;
#15 = CARTESIAN_POINT ( 'NONE',  ( -25.00000000000000000, 0.000000000000000000, 120.0000000000000000 ) ) ;
#16 = AXIS2_PLACEMENT_3D ( 'NONE', #87, #27, #162 ) ;
#17 = DIRECTION ( 'NONE',  ( 1.000000000000000000, 0.000000000000000000, 0.000000000000000000 ) ) ;
#18 = DIRECTION ( 'NONE',  ( 0.000000000000000000, 0.000000000000000000, -1.000000000000000000 ) ) ;
#19 = PLANE ( 'NONE',  #380 ) ;
#20 = DIRECTION ( 'NONE',  ( -3.540281054158656395E-15, -1.000000000000000000, 0.000000000000000000 ) ) ;
#21 = CARTESIAN_POINT ( 'NONE',  ( 0.000000000000000000, 0.000000000000000000, -3.000000000000000000 ) ) ;
#22 = DIRECTION ( 'NONE',  ( -0.000000000000000000, -0.000000000000000000, -1.000000000000000000 ) ) ;
#23 = ADVANCED_FACE ( 'NONE', ( #584, #275 ), #451, .F. ) ;
#24 = ORIENTED_EDGE ( 'NONE', *, *, #650, .T. ) ;
#25 = ORIENTED_EDGE ( 'NONE', *, *, #276, .F. ) ;
#26 = DIRECTION ( 'NONE',  ( -1.000000000000000000, 1.020433950904553802E-14, -0.000000000000000000 ) ) ;
#27 = DIRECTION ( 'NONE',  ( 1.000000000000000000, 0.000000000000000000, -0.000000000000000000 ) ) ;
#28 = VERTEX_POINT ( 'NONE', #223 ) ;
#29 = ORIENTED_EDGE ( 'NONE', *, *, #205, .F. ) ;
#30 = DIRECTION ( 'NONE',  ( 0.000000000000000000, 0.000000000000000000, -1.000000000000000000 ) ) ;
#31 = CARTESIAN_POINT ( 'NONE',  ( -3.075000000000000178, 0.000000000000000000, 120.0000000000000000 ) ) ;
#32 = VECTOR ( 'NONE', #455, 1000.000000000000000 ) ;
#33 = EDGE_LOOP ( 'NONE', ( #381, #610, #624, #722 ) ) ;
#34 = EDGE_CURVE ( 'NONE', #159, #448, #72, .T. ) ;
#35 = VERTEX_POINT ( 'NONE', #347 ) ;
#36 = CARTESIAN_POINT ( 'NONE',  ( -12.00000000000005151, -4.999999999999872990, 120.0000000000000000 ) ) ;
#37 = LINE ( 'NONE', #298, #341 ) ;
#38 = ORIENTED_EDGE ( 'NONE', *, *, #214, .F. ) ;
#39 = DIRECTION ( 'NONE',  ( 1.000000000000000000, -6.938893903907229167E-15, 0.000000000000000000 ) ) ;
#40 = ORIENTED_EDGE ( 'NONE', *, *, #691, .T. ) ;
#41 = CARTESIAN_POINT ( 'NONE',  ( 0.000000000000000000, 0.000000000000000000, 135.0000000000000000 ) ) ;
#42 = DIRECTION ( 'NONE',  ( -0.000000000000000000, -0.000000000000000000, -1.000000000000000000 ) ) ;
#43 = ORIENTED_EDGE ( 'NONE', *, *, #646, .T. ) ;
#44 = FILL_AREA_STYLE ('',( #548 ) ) ;
#45 = ORIENTED_EDGE ( 'NONE', *, *, #536, .F. ) ;
#46 = EDGE_CURVE ( 'NONE', #327, #306, #192, .T. ) ;
#47 = CARTESIAN_POINT ( 'NONE',  ( -4.999999999999998224, 12.00000000000000000, 135.0000000000000000 ) ) ;
#48 = ORIENTED_EDGE ( 'NONE', *, *, #285, .F. ) ;
#49 = VECTOR ( 'NONE', #482, 1000.000000000000000 ) ;
#50 = CARTESIAN_POINT ( 'NONE',  ( 0.000000000000000000, 0.000000000000000000, 120.0000000000000000 ) ) ;
#51 = ADVANCED_FACE ( 'NONE', ( #713 ), #14, .T. ) ;
#52 = DIRECTION ( 'NONE',  ( -6.941727557173836130E-15, -1.000000000000000000, 0.000000000000000000 ) ) ;
#53 = DIRECTION ( 'NONE',  ( -0.000000000000000000, -0.000000000000000000, -1.000000000000000000 ) ) ;
#54 = ORIENTED_EDGE ( 'NONE', *, *, #434, .F. ) ;
#55 = CIRCLE ( 'NONE', #156, 25.00000000000000000 ) ;
#56 = CARTESIAN_POINT ( 'NONE',  ( 4.999999999999829470, -24.49489742783181612, 135.0000000000000000 ) ) ;
#57 = CARTESIAN_POINT ( 'NONE',  ( -11.99999999999994849, 5.000000000000127898, 120.0000000000000000 ) ) ;
#58 = EDGE_CURVE ( 'NONE', #256, #144, #353, .T. ) ;
#59 = LINE ( 'NONE', #320, #189 ) ;
#60 = PRODUCT_DEFINITION ( 'UNKNOWN', '', #611, #224 ) ;
#61 = CARTESIAN_POINT ( 'NONE',  ( -24.49489742783183388, -4.999999999999741540, 120.0000000000000000 ) ) ;
#62 = ORIENTED_EDGE ( 'NONE', *, *, #210, .T. ) ;
#63 = CARTESIAN_POINT ( 'NONE',  ( 4.999999999999998224, 24.49489742783178059, 135.0000000000000000 ) ) ;
#64 = VECTOR ( 'NONE', #379, 1000.000000000000000 ) ;
#65 = EDGE_CURVE ( 'NONE', #549, #417, #88, .T. ) ;
#66 = VECTOR ( 'NONE', #657, 1000.000000000000000 ) ;
#67 = DIRECTION ( 'NONE',  ( 2.776691022869534176E-16, -1.000000000000000000, 0.000000000000000000 ) ) ;
#68 = EDGE_LOOP ( 'NONE', ( #343, #498, #768, #24 ) ) ;
#69 = EDGE_CURVE ( 'NONE', #95, #763, #518, .T. ) ;
#70 = FACE_OUTER_BOUND ( 'NONE', #735, .T. ) ;
#71 = ORIENTED_EDGE ( 'NONE', *, *, #700, .T. ) ;
#72 = LINE ( 'NONE', #532, #66 ) ;
#73 = VECTOR ( 'NONE', #128, 1000.000000000000000 ) ;
#74 = LINE ( 'NONE', #449, #707 ) ;
#75 = ADVANCED_FACE ( 'NONE', ( #648 ), #272, .T. ) ;
#76 = CARTESIAN_POINT ( 'NONE',  ( -5.000000000000167866, -24.49489742783174862, 120.0000000000000000 ) ) ;
#77 = FACE_BOUND ( 'NONE', #291, .T. ) ;
#78 = AXIS2_PLACEMENT_3D ( 'NONE', #702, #124, #500 ) ;
#79 = DIRECTION ( 'NONE',  ( 0.000000000000000000, -0.000000000000000000, 1.000000000000000000 ) ) ;
#80 = VECTOR ( 'NONE', #689, 1000.000000000000000 ) ;
#81 = ORIENTED_EDGE ( 'NONE', *, *, #202, .T. ) ;
#82 = DIRECTION ( 'NONE',  ( 0.000000000000000000, 0.000000000000000000, -1.000000000000000000 ) ) ;
#83 = CARTESIAN_POINT ( 'NONE',  ( 4.999999999999915623, -12.00000000000003553, 120.0000000000000000 ) ) ;
#84 = DIRECTION ( 'NONE',  ( 0.000000000000000000, 0.000000000000000000, 1.000000000000000000 ) ) ;
#85 = ORIENTED_EDGE ( 'NONE', *, *, #407, .T. ) ;
#86 = CARTESIAN_POINT ( 'NONE',  ( 5.000000000000001776, 12.00000000000000000, 135.0000000000000000 ) ) ;
#87 = CARTESIAN_POINT ( 'NONE',  ( -4.999999999999998224, 24.49489742783178059, 135.0000000000000000 ) ) ;
#88 = CIRCLE ( 'NONE', #206, 50.00000000000000000 ) ;
#89 = VECTOR ( 'NONE', #356, 1000.000000000000000 ) ;
#90 = ORIENTED_EDGE ( 'NONE', *, *, #34, .F. ) ;
#91 = VECTOR ( 'NONE', #774, 1000.000000000000000 ) ;
#92 = DIRECTION ( 'NONE',  ( 1.000000000000000000, -3.262611951871702681E-15, -0.000000000000000000 ) ) ;
#93 = EDGE_CURVE ( 'NONE', #129, #629, #770, .T. ) ;
#94 = CARTESIAN_POINT ( 'NONE',  ( 4.999999999999829470, -24.49489742783181612, 135.0000000000000000 ) ) ;
#95 = VERTEX_POINT ( 'NONE', #521 ) ;
#96 = ORIENTED_EDGE ( 'NONE', *, *, #700, .F. ) ;
#97 = LINE ( 'NONE', #361, #49 ) ;
#98 = CARTESIAN_POINT ( 'NONE',  ( 4.999999999999829470, -24.49489742783181612, 135.0000000000000000 ) ) ;
#99 = EDGE_LOOP ( 'NONE', ( #43, #38, #409, #489 ) ) ;
#100 = LINE ( 'NONE', #424, #476 ) ;
#101 = ORIENTED_EDGE ( 'NONE', *, *, #430, .F. ) ;
#102 = LINE ( 'NONE', #289, #587 ) ;
#103 = COLOUR_RGB ( '',0.7921568627450980005, 0.8196078431372548767, 0.9333333333333333481 ) ;
#104 = AXIS2_PLACEMENT_3D ( 'NONE', #714, #772, #79 ) ;
#105 = AXIS2_PLACEMENT_3D ( 'NONE', #257, #187, #704 ) ;
#106 = CARTESIAN_POINT ( 'NONE',  ( -24.49489742783173085, 5.000000000000254907, 120.0000000000000000 ) ) ;
#107 = ADVANCED_FACE ( 'NONE', ( #652, #77 ), #466, .T. ) ;
#108 = ORIENTED_EDGE ( 'NONE', *, *, #564, .F. ) ;
#109 = APPLICATION_CONTEXT ( 'automotive_design' ) ;
#110 = DIRECTION ( 'NONE',  ( 0.000000000000000000, 0.000000000000000000, 1.000000000000000000 ) ) ;
#111 = ORIENTED_EDGE ( 'NONE', *, *, #771, .T. ) ;
#112 = DIRECTION ( 'NONE',  ( 1.000000000000000000, -3.469446951953614583E-15, 0.000000000000000000 ) ) ;
#113 = EDGE_LOOP ( 'NONE', ( #368, #169 ) ) ;
#114 = DIRECTION ( 'NONE',  ( -1.000000000000000000, 6.941727557173836130E-15, 0.000000000000000000 ) ) ;
#115 = CIRCLE ( 'NONE', #435, 50.00000000000000000 ) ;
#116 = DIRECTION ( 'NONE',  ( -0.000000000000000000, -0.000000000000000000, -1.000000000000000000 ) ) ;
#117 = ORIENTED_EDGE ( 'NONE', *, *, #408, .F. ) ;
#118 = ADVANCED_FACE ( 'NONE', ( #461 ), #19, .F. ) ;
#119 = PLANE ( 'NONE',  #389 ) ;
#120 = CARTESIAN_POINT ( 'NONE',  ( 12.00000000000001776, 4.999999999999956479, 135.0000000000000000 ) ) ;
#121 = DIRECTION ( 'NONE',  ( -1.000000000000000000, 0.000000000000000000, 0.000000000000000000 ) ) ;
#122 = VERTEX_POINT ( 'NONE', #86 ) ;
#123 = AXIS2_PLACEMENT_3D ( 'NONE', #148, #213, #595 ) ;
#124 = DIRECTION ( 'NONE',  ( 0.000000000000000000, 0.000000000000000000, 1.000000000000000000 ) ) ;
#125 = EDGE_CURVE ( 'NONE', #487, #579, #351, .T. ) ;
#126 = ORIENTED_EDGE ( 'NONE', *, *, #809, .F. ) ;
#127 = CARTESIAN_POINT ( 'NONE',  ( 11.99999999999998224, -5.000000000000043521, 120.0000000000000000 ) ) ;
#128 = DIRECTION ( 'NONE',  ( -3.469446951953614189E-15, -1.000000000000000000, 0.000000000000000000 ) ) ;
#129 = VERTEX_POINT ( 'NONE', #621 ) ;
#130 = DIRECTION ( 'NONE',  ( 0.000000000000000000, 0.000000000000000000, 1.000000000000000000 ) ) ;
#131 = DIRECTION ( 'NONE',  ( -1.000000000000000000, 0.000000000000000000, 0.000000000000000000 ) ) ;
#132 = EDGE_CURVE ( 'NONE', #242, #301, #545, .T. ) ;
#133 = CYLINDRICAL_SURFACE ( 'NONE', #765, 50.00000000000000000 ) ;
#134 =( NAMED_UNIT ( * ) PLANE_ANGLE_UNIT ( ) SI_UNIT ( $, .RADIAN. ) );
#135 = DIRECTION ( 'NONE',  ( 1.000000000000000000, 0.000000000000000000, 0.000000000000000000 ) ) ;
#136 = CARTESIAN_POINT ( 'NONE',  ( 24.49489742783176638, -5.000000000000084377, 135.0000000000000000 ) ) ;
#137 = ORIENTED_EDGE ( 'NONE', *, *, #205, .T. ) ;
#138 = CARTESIAN_POINT ( 'NONE',  ( -4.999999999999998224, 12.00000000000000000, 120.0000000000000000 ) ) ;
#139 = FACE_OUTER_BOUND ( 'NONE', #796, .T. ) ;
#140 = VERTEX_POINT ( 'NONE', #253 ) ;
#141 = FACE_BOUND ( 'NONE', #429, .T. ) ;
#142 = VECTOR ( 'NONE', #486, 1000.000000000000000 ) ;
#143 = DIRECTION ( 'NONE',  ( -1.000000000000000000, 1.020433950904553802E-14, -0.000000000000000000 ) ) ;
#144 = VERTEX_POINT ( 'NONE', #106 ) ;
#145 = CARTESIAN_POINT ( 'NONE',  ( 0.000000000000000000, 0.000000000000000000, 120.0000000000000000 ) ) ;
#146 = LINE ( 'NONE', #401, #310 ) ;
#147 = ORIENTED_EDGE ( 'NONE', *, *, #358, .F. ) ;
#148 = CARTESIAN_POINT ( 'NONE',  ( 0.000000000000000000, 0.000000000000000000, -3.000000000000000000 ) ) ;
#149 = EDGE_CURVE ( 'NONE', #35, #28, #100, .T. ) ;
#150 = AXIS2_PLACEMENT_3D ( 'NONE', #330, #386, #712 ) ;
#151 = LINE ( 'NONE', #791, #199 ) ;
#152 = ADVANCED_FACE ( 'NONE', ( #480 ), #418, .F. ) ;
#153 = CIRCLE ( 'NONE', #747, 3.075000000000000178 ) ;
#154 = DIRECTION ( 'NONE',  ( -1.000000000000000000, 0.000000000000000000, 0.000000000000000000 ) ) ;
#155 = VECTOR ( 'NONE', #17, 1000.000000000000000 ) ;
#156 = AXIS2_PLACEMENT_3D ( 'NONE', #265, #130, #201 ) ;
#157 = ORIENTED_EDGE ( 'NONE', *, *, #780, .T. ) ;
#158 = AXIS2_PLACEMENT_3D ( 'NONE', #678, #164, #39 ) ;
#159 = VERTEX_POINT ( 'NONE', #300 ) ;
#160 = ADVANCED_FACE ( 'NONE', ( #372 ), #744, .F. ) ;
#161 = DIRECTION ( 'NONE',  ( 1.000000000000000000, 0.000000000000000000, 0.000000000000000000 ) ) ;
#162 = DIRECTION ( 'NONE',  ( -0.000000000000000000, 0.000000000000000000, -1.000000000000000000 ) ) ;
#163 = ORIENTED_EDGE ( 'NONE', *, *, #813, .T. ) ;
#164 = DIRECTION ( 'NONE',  ( -6.938893903907229167E-15, -1.000000000000000000, 0.000000000000000000 ) ) ;
#165 = ORIENTED_EDGE ( 'NONE', *, *, #338, .T. ) ;
#166 = LINE ( 'NONE', #421, #640 ) ;
#167 = CIRCLE ( 'NONE', #741, 3.075000000000000178 ) ;
#168 = LINE ( 'NONE', #808, #654 ) ;
#169 = ORIENTED_EDGE ( 'NONE', *, *, #373, .F. ) ;
#170 = ADVANCED_FACE ( 'NONE', ( #625 ), #364, .F. ) ;
#171 = CARTESIAN_POINT ( 'NONE',  ( -24.49489742783183388, -4.999999999999741540, 120.0000000000000000 ) ) ;
#172 = ORIENTED_EDGE ( 'NONE', *, *, #684, .T. ) ;
#173 = CARTESIAN_POINT ( 'NONE',  ( -12.00000000000005151, -4.999999999999872990, 135.0000000000000000 ) ) ;
#174 = ORIENTED_EDGE ( 'NONE', *, *, #750, .T. ) ;
#175 = VECTOR ( 'NONE', #734, 1000.000000000000000 ) ;
#176 = DIRECTION ( 'NONE',  ( 3.469446951953614583E-15, 1.000000000000000000, 0.000000000000000000 ) ) ;
#177 = AXIS2_PLACEMENT_3D ( 'NONE', #599, #456, #135 ) ;
#178 = ORIENTED_EDGE ( 'NONE', *, *, #668, .F. ) ;
#179 = CARTESIAN_POINT ( 'NONE',  ( 25.00000000000000000, 3.061616997868383043E-15, 0.000000000000000000 ) ) ;
#180 = MANIFOLD_SOLID_BREP ( 'Boss-Extrude3', #795 ) ;
#181 = CARTESIAN_POINT ( 'NONE',  ( -11.99999999999994849, 5.000000000000127898, 135.0000000000000000 ) ) ;
#182 = CARTESIAN_POINT ( 'NONE',  ( 25.00000000000000000, 3.061616997868383043E-15, 135.0000000000000000 ) ) ;
#183 = VECTOR ( 'NONE', #13, 1000.000000000000000 ) ;
#184 = SURFACE_SIDE_STYLE ('',( #243 ) ) ;
#185 = DIRECTION ( 'NONE',  ( -1.000000000000000000, 0.000000000000000000, 0.000000000000000000 ) ) ;
#186 = EDGE_LOOP ( 'NONE', ( #431, #45, #357, #9, #655, #620, #667, #531, #728, #262, #350, #191, #494, #108, #805, #3 ) ) ;
#187 = DIRECTION ( 'NONE',  ( 0.000000000000000000, 0.000000000000000000, 1.000000000000000000 ) ) ;
#188 = MECHANICAL_DESIGN_GEOMETRIC_PRESENTATION_REPRESENTATION (  '', ( #708 ), #261 ) ;
#189 = VECTOR ( 'NONE', #643, 1000.000000000000000 ) ;
#190 =( LENGTH_UNIT ( ) NAMED_UNIT ( * ) SI_UNIT ( .MILLI., .METRE. ) );
#191 = ORIENTED_EDGE ( 'NONE', *, *, #626, .F. ) ;
#192 = CIRCLE ( 'NONE', #528, 25.00000000000000000 ) ;
#193 = AXIS2_PLACEMENT_3D ( 'NONE', #696, #559, #495 ) ;
#194 = FACE_OUTER_BOUND ( 'NONE', #297, .T. ) ;
#195 = CARTESIAN_POINT ( 'NONE',  ( 0.000000000000000000, 0.000000000000000000, 0.000000000000000000 ) ) ;
#196 = VERTEX_POINT ( 'NONE', #683 ) ;
#197 = CARTESIAN_POINT ( 'NONE',  ( 4.999999999999915623, -12.00000000000003553, 135.0000000000000000 ) ) ;
#198 = EDGE_CURVE ( 'NONE', #694, #323, #630, .T. ) ;
#199 = VECTOR ( 'NONE', #618, 1000.000000000000000 ) ;
#200 = ORIENTED_EDGE ( 'NONE', *, *, #729, .T. ) ;
#201 = DIRECTION ( 'NONE',  ( 1.000000000000000000, 0.000000000000000000, 0.000000000000000000 ) ) ;
#202 = EDGE_CURVE ( 'NONE', #763, #758, #812, .T. ) ;
#203 = LINE ( 'NONE', #76, #537 ) ;
#204 = DIRECTION ( 'NONE',  ( 1.000000000000000000, 0.000000000000000000, 0.000000000000000000 ) ) ;
#205 = EDGE_CURVE ( 'NONE', #122, #35, #554, .T. ) ;
#206 = AXIS2_PLACEMENT_3D ( 'NONE', #21, #82, #392 ) ;
#207 = AXIS2_PLACEMENT_3D ( 'NONE', #7, #114, #52 ) ;
#208 = CARTESIAN_POINT ( 'NONE',  ( 24.49489742783179835, 4.999999999999912070, 120.0000000000000000 ) ) ;
#209 = CARTESIAN_POINT ( 'NONE',  ( 5.000000000000001776, 12.00000000000000000, 135.0000000000000000 ) ) ;
#210 = EDGE_CURVE ( 'NONE', #616, #226, #492, .T. ) ;
#211 = CARTESIAN_POINT ( 'NONE',  ( 0.000000000000000000, 0.000000000000000000, -3.000000000000000000 ) ) ;
#212 = ORIENTED_EDGE ( 'NONE', *, *, #536, .T. ) ;
#213 = DIRECTION ( 'NONE',  ( 0.000000000000000000, 0.000000000000000000, -1.000000000000000000 ) ) ;
#214 = EDGE_CURVE ( 'NONE', #140, #129, #315, .T. ) ;
#215 = CARTESIAN_POINT ( 'NONE',  ( -5.000000000000181188, -24.49489742783174506, 135.0000000000000000 ) ) ;
#216 = EDGE_LOOP ( 'NONE', ( #505, #230, #40, #513, #688 ) ) ;
#217 = DIRECTION ( 'NONE',  ( 0.000000000000000000, 0.000000000000000000, 1.000000000000000000 ) ) ;
#218 = VECTOR ( 'NONE', #369, 1000.000000000000000 ) ;
#219 = AXIS2_PLACEMENT_3D ( 'NONE', #428, #110, #370 ) ;
#220 = DIRECTION ( 'NONE',  ( -1.000000000000000000, 0.000000000000000000, 0.000000000000000000 ) ) ;
#221 = AXIS2_PLACEMENT_3D ( 'NONE', #716, #217, #396 ) ;
#222 = ORIENTED_EDGE ( 'NONE', *, *, #69, .T. ) ;
#223 = CARTESIAN_POINT ( 'NONE',  ( 4.999999999999998224, 24.49489742783178059, 120.0000000000000000 ) ) ;
#224 = PRODUCT_DEFINITION_CONTEXT ( 'detailed design', #109, 'design' ) ;
#225 = CARTESIAN_POINT ( 'NONE',  ( -24.49489742783173085, 5.000000000000254907, 135.0000000000000000 ) ) ;
#226 = VERTEX_POINT ( 'NONE', #57 ) ;
#227 = LINE ( 'NONE', #422, #645 ) ;
#228 = ORIENTED_EDGE ( 'NONE', *, *, #149, .F. ) ;
#229 = EDGE_CURVE ( 'NONE', #445, #159, #318, .T. ) ;
#230 = ORIENTED_EDGE ( 'NONE', *, *, #408, .T. ) ;
#231 = EDGE_CURVE ( 'NONE', #555, #733, #604, .T. ) ;
#232 = DIRECTION ( 'NONE',  ( 1.000000000000000000, 0.000000000000000000, 0.000000000000000000 ) ) ;
#233 = VECTOR ( 'NONE', #477, 1000.000000000000000 ) ;
#234 = DIRECTION ( 'NONE',  ( -0.000000000000000000, -0.000000000000000000, -1.000000000000000000 ) ) ;
#235 = AXIS2_PLACEMENT_3D ( 'NONE', #145, #659, #340 ) ;
#236 = AXIS2_PLACEMENT_3D ( 'NONE', #403, #462, #391 ) ;
#237 = ORIENTED_EDGE ( 'NONE', *, *, #634, .F. ) ;
#238 = VERTEX_POINT ( 'NONE', #179 ) ;
#239 = CARTESIAN_POINT ( 'NONE',  ( 0.000000000000000000, 0.000000000000000000, -3.000000000000000000 ) ) ;
#240 = EDGE_CURVE ( 'NONE', #319, #811, #227, .T. ) ;
#241 = DIRECTION ( 'NONE',  ( 1.000000000000000000, 0.000000000000000000, 0.000000000000000000 ) ) ;
#242 = VERTEX_POINT ( 'NONE', #540 ) ;
#243 = SURFACE_STYLE_FILL_AREA ( #44 ) ;
#244 = ADVANCED_FACE ( 'NONE', ( #471 ), #623, .F. ) ;
#245 = CYLINDRICAL_SURFACE ( 'NONE', #325, 3.075000000000000178 ) ;
#246 = EDGE_LOOP ( 'NONE', ( #608, #387, #802, #523 ) ) ;
#247 = DIRECTION ( 'NONE',  ( -2.776691022869534176E-16, 1.000000000000000000, -0.000000000000000000 ) ) ;
#248 = VECTOR ( 'NONE', #776, 1000.000000000000000 ) ;
#249 = LINE ( 'NONE', #173, #233 ) ;
#250 = CARTESIAN_POINT ( 'NONE',  ( 0.000000000000000000, 0.000000000000000000, 135.0000000000000000 ) ) ;
#251 = ORIENTED_EDGE ( 'NONE', *, *, #231, .F. ) ;
#252 = DIRECTION ( 'NONE',  ( 1.000000000000000000, 0.000000000000000000, 0.000000000000000000 ) ) ;
#253 = CARTESIAN_POINT ( 'NONE',  ( -4.999999999999998224, 12.00000000000000000, 135.0000000000000000 ) ) ;
#254 = EDGE_CURVE ( 'NONE', #286, #487, #804, .T. ) ;
#255 = CARTESIAN_POINT ( 'NONE',  ( 12.00000000000001776, 4.999999999999956479, 120.0000000000000000 ) ) ;
#256 = VERTEX_POINT ( 'NONE', #671 ) ;
#257 = CARTESIAN_POINT ( 'NONE',  ( 0.000000000000000000, 0.000000000000000000, 135.0000000000000000 ) ) ;
#258 = AXIS2_PLACEMENT_3D ( 'NONE', #239, #470, #185 ) ;
#259 = DIRECTION ( 'NONE',  ( 0.000000000000000000, 0.000000000000000000, -1.000000000000000000 ) ) ;
#260 = FACE_OUTER_BOUND ( 'NONE', #793, .T. ) ;
#261 =( GEOMETRIC_REPRESENTATION_CONTEXT ( 3 ) GLOBAL_UNCERTAINTY_ASSIGNED_CONTEXT ( ( #529 ) ) GLOBAL_UNIT_ASSIGNED_CONTEXT ( ( #628, #437, #810 ) ) REPRESENTATION_CONTEXT ( 'NONE', 'WORKASPACE' ) );
#262 = ORIENTED_EDGE ( 'NONE', *, *, #684, .F. ) ;
#263 = EDGE_CURVE ( 'NONE', #662, #256, #546, .T. ) ;
#264 = CARTESIAN_POINT ( 'NONE',  ( 24.49489742783176638, -5.000000000000084377, 135.0000000000000000 ) ) ;
#265 = CARTESIAN_POINT ( 'NONE',  ( 0.000000000000000000, 0.000000000000000000, 120.0000000000000000 ) ) ;
#266 = EDGE_CURVE ( 'NONE', #579, #676, #102, .T. ) ;
#267 = ADVANCED_FACE ( 'NONE', ( #432 ), #245, .F. ) ;
#268 = CIRCLE ( 'NONE', #281, 50.00000000000000000 ) ;
#269 = LINE ( 'NONE', #334, #395 ) ;
#270 = PLANE ( 'NONE',  #644 ) ;
#271 = DIRECTION ( 'NONE',  ( 0.000000000000000000, 0.000000000000000000, 1.000000000000000000 ) ) ;
#272 = CYLINDRICAL_SURFACE ( 'NONE', #441, 50.00000000000000000 ) ;
#273 = CARTESIAN_POINT ( 'NONE',  ( -5.000000000000084377, -11.99999999999996625, 135.0000000000000000 ) ) ;
#274 = APPLICATION_CONTEXT ( 'automotive_design' ) ;
#275 = FACE_OUTER_BOUND ( 'NONE', #740, .T. ) ;
#276 = EDGE_CURVE ( 'NONE', #140, #122, #534, .T. ) ;
#277 = CARTESIAN_POINT ( 'NONE',  ( 5.000000000000001776, 12.00000000000000000, 120.0000000000000000 ) ) ;
#278 = ORIENTED_EDGE ( 'NONE', *, *, #430, .T. ) ;
#279 = PRODUCT ( 'valj fi49 za printanje levo s \X2\0161010d\X0\itnikom', 'valj fi49 za printanje levo s \X2\0161010d\X0\itnikom', '', ( #339 ) ) ;
#280 = DIRECTION ( 'NONE',  ( -1.020433950904553960E-14, -1.000000000000000000, 0.000000000000000000 ) ) ;
#281 = AXIS2_PLACEMENT_3D ( 'NONE', #390, #259, #715 ) ;
#282 = DIRECTION ( 'NONE',  ( -0.000000000000000000, -0.000000000000000000, 1.000000000000000000 ) ) ;
#283 = DIRECTION ( 'NONE',  ( -0.000000000000000000, -0.000000000000000000, -1.000000000000000000 ) ) ;
#284 = FACE_OUTER_BOUND ( 'NONE', #354, .T. ) ;
#285 = EDGE_CURVE ( 'NONE', #95, #384, #308, .T. ) ;
#286 = VERTEX_POINT ( 'NONE', #98 ) ;
#287 = DIRECTION ( 'NONE',  ( -1.000000000000000000, 0.000000000000000000, -0.000000000000000000 ) ) ;
#288 = FACE_OUTER_BOUND ( 'NONE', #574, .T. ) ;
#289 = CARTESIAN_POINT ( 'NONE',  ( -5.000000000000084377, -11.99999999999996625, 135.0000000000000000 ) ) ;
#290 = ORIENTED_EDGE ( 'NONE', *, *, #132, .T. ) ;
#291 = EDGE_LOOP ( 'NONE', ( #371, #746 ) ) ;
#292 = VECTOR ( 'NONE', #737, 1000.000000000000000 ) ;
#293 =( GEOMETRIC_REPRESENTATION_CONTEXT ( 3 ) GLOBAL_UNCERTAINTY_ASSIGNED_CONTEXT ( ( #660 ) ) GLOBAL_UNIT_ASSIGNED_CONTEXT ( ( #190, #134, #760 ) ) REPRESENTATION_CONTEXT ( 'NONE', 'WORKASPACE' ) );
#294 = CARTESIAN_POINT ( 'NONE',  ( -25.00000000000000000, 0.000000000000000000, 135.0000000000000000 ) ) ;
#295 = ORIENTED_EDGE ( 'NONE', *, *, #439, .F. ) ;
#296 = EDGE_CURVE ( 'NONE', #417, #196, #362, .T. ) ;
#297 = EDGE_LOOP ( 'NONE', ( #562, #147, #800, #377 ) ) ;
#298 = CARTESIAN_POINT ( 'NONE',  ( 4.999999999999915623, -12.00000000000003553, 135.0000000000000000 ) ) ;
#299 = ORIENTED_EDGE ( 'NONE', *, *, #69, .F. ) ;
#300 = CARTESIAN_POINT ( 'NONE',  ( 11.99999999999998224, -5.000000000000043521, 135.0000000000000000 ) ) ;
#301 = VERTEX_POINT ( 'NONE', #31 ) ;
#302 = CARTESIAN_POINT ( 'NONE',  ( -5.000000000000167866, -24.49489742783174862, 120.0000000000000000 ) ) ;
#303 = CARTESIAN_POINT ( 'NONE',  ( -3.075000000000000178, 0.000000000000000000, 120.0000000000000000 ) ) ;
#304 = ORIENTED_EDGE ( 'NONE', *, *, #656, .T. ) ;
#305 = PRESENTATION_STYLE_ASSIGNMENT (( #697 ) ) ;
#306 = VERTEX_POINT ( 'NONE', #483 ) ;
#307 = VECTOR ( 'NONE', #92, 1000.000000000000000 ) ;
#308 = LINE ( 'NONE', #557, #89 ) ;
#309 = VERTEX_POINT ( 'NONE', #411 ) ;
#310 = VECTOR ( 'NONE', #345, 1000.000000000000000 ) ;
#311 = LINE ( 'NONE', #632, #572 ) ;
#312 = VECTOR ( 'NONE', #116, 1000.000000000000000 ) ;
#313 = VECTOR ( 'NONE', #283, 1000.000000000000000 ) ;
#314 = AXIS2_PLACEMENT_3D ( 'NONE', #329, #571, #762 ) ;
#315 = LINE ( 'NONE', #563, #685 ) ;
#316 = ORIENTED_EDGE ( 'NONE', *, *, #488, .F. ) ;
#317 = DIRECTION ( 'NONE',  ( 1.000000000000000000, -6.664058454886882022E-15, 0.000000000000000000 ) ) ;
#318 = LINE ( 'NONE', #120, #64 ) ;
#319 = VERTEX_POINT ( 'NONE', #739 ) ;
#320 = CARTESIAN_POINT ( 'NONE',  ( 24.49489742783176283, -5.000000000000095923, 135.0000000000000000 ) ) ;
#321 = AXIS2_PLACEMENT_3D ( 'NONE', #475, #467, #161 ) ;
#322 = CARTESIAN_POINT ( 'NONE',  ( -4.999999999999998224, 24.49489742783178059, 135.0000000000000000 ) ) ;
#323 = VERTEX_POINT ( 'NONE', #294 ) ;
#324 = FACE_OUTER_BOUND ( 'NONE', #703, .T. ) ;
#325 = AXIS2_PLACEMENT_3D ( 'NONE', #731, #675, #154 ) ;
#326 = CARTESIAN_POINT ( 'NONE',  ( -12.00000000000005151, -4.999999999999872990, 120.0000000000000000 ) ) ;
#327 = VERTEX_POINT ( 'NONE', #792 ) ;
#328 = EDGE_CURVE ( 'NONE', #327, #553, #742, .T. ) ;
#329 = CARTESIAN_POINT ( 'NONE',  ( -24.49489742783183388, -4.999999999999741540, 135.0000000000000000 ) ) ;
#330 = CARTESIAN_POINT ( 'NONE',  ( -12.00000000000005151, -4.999999999999872990, 135.0000000000000000 ) ) ;
#331 = ORIENTED_EDGE ( 'NONE', *, *, #626, .T. ) ;
#332 = CYLINDRICAL_SURFACE ( 'NONE', #781, 25.00000000000000000 ) ;
#333 = ORIENTED_EDGE ( 'NONE', *, *, #642, .T. ) ;
#334 = CARTESIAN_POINT ( 'NONE',  ( 24.49489742783179835, 4.999999999999912070, 135.0000000000000000 ) ) ;
#335 = LINE ( 'NONE', #209, #91 ) ;
#336 = CARTESIAN_POINT ( 'NONE',  ( 0.000000000000000000, 0.000000000000000000, 120.0000000000000000 ) ) ;
#337 = ORIENTED_EDGE ( 'NONE', *, *, #790, .F. ) ;
#338 = EDGE_CURVE ( 'NONE', #694, #144, #168, .T. ) ;
#339 = PRODUCT_CONTEXT ( 'NONE', #274, 'mechanical' ) ;
#340 = DIRECTION ( 'NONE',  ( 1.000000000000000000, 0.000000000000000000, -0.000000000000000000 ) ) ;
#341 = VECTOR ( 'NONE', #42, 1000.000000000000000 ) ;
#342 = CARTESIAN_POINT ( 'NONE',  ( 4.999999999999915623, -12.00000000000003553, 120.0000000000000000 ) ) ;
#343 = ORIENTED_EDGE ( 'NONE', *, *, #729, .F. ) ;
#344 = CARTESIAN_POINT ( 'NONE',  ( -24.49489742783183388, -4.999999999999741540, 135.0000000000000000 ) ) ;
#345 = DIRECTION ( 'NONE',  ( -2.776691022869534176E-16, 1.000000000000000000, -0.000000000000000000 ) ) ;
#346 = ORIENTED_EDGE ( 'NONE', *, *, #603, .T. ) ;
#347 = CARTESIAN_POINT ( 'NONE',  ( 4.999999999999998224, 24.49489742783178414, 135.0000000000000000 ) ) ;
#348 = EDGE_CURVE ( 'NONE', #384, #758, #249, .T. ) ;
#349 = DIRECTION ( 'NONE',  ( -1.000000000000000000, 0.000000000000000000, 0.000000000000000000 ) ) ;
#350 = ORIENTED_EDGE ( 'NONE', *, *, #771, .F. ) ;
#351 = LINE ( 'NONE', #602, #80 ) ;
#352 = LINE ( 'NONE', #544, #406 ) ;
#353 = CIRCLE ( 'NONE', #177, 25.00000000000000000 ) ;
#354 = EDGE_LOOP ( 'NONE', ( #331, #538, #126, #761 ) ) ;
#355 = DIRECTION ( 'NONE',  ( 0.000000000000000000, 0.000000000000000000, 1.000000000000000000 ) ) ;
#356 = DIRECTION ( 'NONE',  ( 1.000000000000000000, -1.048200861133249134E-14, 0.000000000000000000 ) ) ;
#357 = ORIENTED_EDGE ( 'NONE', *, *, #717, .F. ) ;
#358 = EDGE_CURVE ( 'NONE', #487, #553, #37, .T. ) ;
#359 = DIRECTION ( 'NONE',  ( -1.000000000000000000, 0.000000000000000000, 0.000000000000000000 ) ) ;
#360 = EDGE_LOOP ( 'NONE', ( #814, #605, #706, #404 ) ) ;
#361 = CARTESIAN_POINT ( 'NONE',  ( 25.00000000000000000, 3.061616997868383043E-15, 120.0000000000000000 ) ) ;
#362 = LINE ( 'NONE', #607, #474 ) ;
#363 = ORIENTED_EDGE ( 'NONE', *, *, #266, .T. ) ;
#364 = CYLINDRICAL_SURFACE ( 'NONE', #399, 3.075000000000000178 ) ;
#365 = EDGE_CURVE ( 'NONE', #301, #419, #681, .T. ) ;
#366 = ORIENTED_EDGE ( 'NONE', *, *, #503, .F. ) ;
#367 = CARTESIAN_POINT ( 'NONE',  ( 4.999999999999829470, -24.49489742783181612, 120.0000000000000000 ) ) ;
#368 = ORIENTED_EDGE ( 'NONE', *, *, #407, .F. ) ;
#369 = DIRECTION ( 'NONE',  ( 1.000000000000000000, -1.048200861133249134E-14, 0.000000000000000000 ) ) ;
#370 = DIRECTION ( 'NONE',  ( 1.000000000000000000, 0.000000000000000000, 0.000000000000000000 ) ) ;
#371 = ORIENTED_EDGE ( 'NONE', *, *, #650, .F. ) ;
#372 = FACE_OUTER_BOUND ( 'NONE', #783, .T. ) ;
#373 = EDGE_CURVE ( 'NONE', #238, #686, #699, .T. ) ;
#374 = CIRCLE ( 'NONE', #258, 3.075000000000000178 ) ;
#375 = CARTESIAN_POINT ( 'NONE',  ( -5.000000000000167866, -24.49489742783174862, 135.0000000000000000 ) ) ;
#376 = DIRECTION ( 'NONE',  ( -1.000000000000000000, 0.000000000000000000, 0.000000000000000000 ) ) ;
#377 = ORIENTED_EDGE ( 'NONE', *, *, #499, .T. ) ;
#378 = FACE_OUTER_BOUND ( 'NONE', #425, .T. ) ;
#379 = DIRECTION ( 'NONE',  ( -3.469446951953614189E-15, -1.000000000000000000, 0.000000000000000000 ) ) ;
#380 = AXIS2_PLACEMENT_3D ( 'NONE', #405, #280, #663 ) ;
#381 = ORIENTED_EDGE ( 'NONE', *, *, #296, .F. ) ;
#382 = DIRECTION ( 'NONE',  ( 6.664058454886882022E-15, 1.000000000000000000, 0.000000000000000000 ) ) ;
#383 = ADVANCED_FACE ( 'NONE', ( #378 ), #119, .T. ) ;
#384 = VERTEX_POINT ( 'NONE', #627 ) ;
#385 = PLANE ( 'NONE',  #617 ) ;
#386 = DIRECTION ( 'NONE',  ( -1.000000000000000000, 1.040834085586084257E-14, 0.000000000000000000 ) ) ;
#387 = ORIENTED_EDGE ( 'NONE', *, *, #296, .T. ) ;
#388 = FACE_OUTER_BOUND ( 'NONE', #751, .T. ) ;
#389 = AXIS2_PLACEMENT_3D ( 'NONE', #446, #754, #4 ) ;
#390 = CARTESIAN_POINT ( 'NONE',  ( 0.000000000000000000, 0.000000000000000000, -3.000000000000000000 ) ) ;
#391 = DIRECTION ( 'NONE',  ( 1.000000000000000000, 0.000000000000000000, 0.000000000000000000 ) ) ;
#392 = DIRECTION ( 'NONE',  ( -1.000000000000000000, 0.000000000000000000, 0.000000000000000000 ) ) ;
#393 = ADVANCED_FACE ( 'NONE', ( #194 ), #443, .F. ) ;
#394 = FACE_OUTER_BOUND ( 'NONE', #246, .T. ) ;
#395 = VECTOR ( 'NONE', #755, 1000.000000000000000 ) ;
#396 = DIRECTION ( 'NONE',  ( 1.000000000000000000, 0.000000000000000000, -0.000000000000000000 ) ) ;
#397 = CARTESIAN_POINT ( 'NONE',  ( 50.00000000000000000, 0.000000000000000000, -3.000000000000000000 ) ) ;
#398 = EDGE_LOOP ( 'NONE', ( #212, #807, #565, #62 ) ) ;
#399 = AXIS2_PLACEMENT_3D ( 'NONE', #50, #53, #359 ) ;
#400 = DIRECTION ( 'NONE',  ( 0.000000000000000000, 0.000000000000000000, -1.000000000000000000 ) ) ;
#401 = CARTESIAN_POINT ( 'NONE',  ( 4.999999999999998224, 24.49489742783178059, 120.0000000000000000 ) ) ;
#402 = CARTESIAN_POINT ( 'NONE',  ( 0.000000000000000000, 0.000000000000000000, 0.000000000000000000 ) ) ;
#403 = CARTESIAN_POINT ( 'NONE',  ( 0.000000000000000000, 0.000000000000000000, 135.0000000000000000 ) ) ;
#404 = ORIENTED_EDGE ( 'NONE', *, *, #358, .T. ) ;
#405 = CARTESIAN_POINT ( 'NONE',  ( -24.49489742783173085, 5.000000000000254907, 135.0000000000000000 ) ) ;
#406 = VECTOR ( 'NONE', #803, 1000.000000000000000 ) ;
#407 = EDGE_CURVE ( 'NONE', #686, #238, #794, .T. ) ;
#408 = EDGE_CURVE ( 'NONE', #309, #468, #543, .T. ) ;
#409 = ORIENTED_EDGE ( 'NONE', *, *, #813, .F. ) ;
#410 = LINE ( 'NONE', #669, #307 ) ;
#411 = CARTESIAN_POINT ( 'NONE',  ( 24.49489742783176283, -5.000000000000095923, 135.0000000000000000 ) ) ;
#412 = ORIENTED_EDGE ( 'NONE', *, *, #214, .T. ) ;
#413 = ORIENTED_EDGE ( 'NONE', *, *, #717, .T. ) ;
#414 = DIRECTION ( 'NONE',  ( -0.000000000000000000, -0.000000000000000000, -1.000000000000000000 ) ) ;
#415 = ADVANCED_FACE ( 'NONE', ( #440 ), #385, .F. ) ;
#416 = CARTESIAN_POINT ( 'NONE',  ( -4.999999999999998224, 24.49489742783178059, 135.0000000000000000 ) ) ;
#417 = VERTEX_POINT ( 'NONE', #509 ) ;
#418 = PLANE ( 'NONE',  #158 ) ;
#419 = VERTEX_POINT ( 'NONE', #638 ) ;
#420 = VECTOR ( 'NONE', #22, 1000.000000000000000 ) ;
#421 = CARTESIAN_POINT ( 'NONE',  ( 3.075000000000000178, 3.765788907378111032E-16, 120.0000000000000000 ) ) ;
#422 = CARTESIAN_POINT ( 'NONE',  ( 24.49489742783179835, 4.999999999999912070, 135.0000000000000000 ) ) ;
#423 = ORIENTED_EDGE ( 'NONE', *, *, #516, .F. ) ;
#424 = CARTESIAN_POINT ( 'NONE',  ( 4.999999999999998224, 24.49489742783178414, 135.0000000000000000 ) ) ;
#425 = EDGE_LOOP ( 'NONE', ( #278, #622, #789, #502 ) ) ;
#426 = AXIS2_PLACEMENT_3D ( 'NONE', #520, #18, #661 ) ;
#427 = CIRCLE ( 'NONE', #527, 25.00000000000000000 ) ;
#428 = CARTESIAN_POINT ( 'NONE',  ( 0.000000000000000000, 0.000000000000000000, 0.000000000000000000 ) ) ;
#429 = EDGE_LOOP ( 'NONE', ( #756, #290 ) ) ;
#430 = EDGE_CURVE ( 'NONE', #579, #555, #311, .T. ) ;
#431 = ORIENTED_EDGE ( 'NONE', *, *, #58, .T. ) ;
#432 = FACE_OUTER_BOUND ( 'NONE', #68, .T. ) ;
#433 = ORIENTED_EDGE ( 'NONE', *, *, #210, .F. ) ;
#434 = EDGE_CURVE ( 'NONE', #309, #306, #59, .T. ) ;
#435 = AXIS2_PLACEMENT_3D ( 'NONE', #195, #705, #131 ) ;
#436 = DIRECTION ( 'NONE',  ( -1.000000000000000000, -2.776691022869534176E-16, 0.000000000000000000 ) ) ;
#437 =( NAMED_UNIT ( * ) PLANE_ANGLE_UNIT ( ) SI_UNIT ( $, .RADIAN. ) );
#438 = ORIENTED_EDGE ( 'NONE', *, *, #503, .T. ) ;
#439 = EDGE_CURVE ( 'NONE', #555, #286, #427, .T. ) ;
#440 = FACE_OUTER_BOUND ( 'NONE', #736, .T. ) ;
#441 = AXIS2_PLACEMENT_3D ( 'NONE', #778, #590, #784 ) ;
#442 = ORIENTED_EDGE ( 'NONE', *, *, #12, .T. ) ;
#443 = PLANE ( 'NONE',  #207 ) ;
#444 = PRODUCT_RELATED_PRODUCT_CATEGORY ( 'part', '', ( #279 ) ) ;
#445 = VERTEX_POINT ( 'NONE', #2 ) ;
#446 = CARTESIAN_POINT ( 'NONE',  ( 0.000000000000000000, 0.000000000000000000, 135.0000000000000000 ) ) ;
#447 = CIRCLE ( 'NONE', #581, 25.00000000000000000 ) ;
#448 = VERTEX_POINT ( 'NONE', #127 ) ;
#449 = CARTESIAN_POINT ( 'NONE',  ( -24.49489742783173085, 5.000000000000254907, 120.0000000000000000 ) ) ;
#450 = ORIENTED_EDGE ( 'NONE', *, *, #285, .T. ) ;
#451 = PLANE ( 'NONE',  #491 ) ;
#452 = ADVANCED_FACE ( 'NONE', ( #260 ), #641, .F. ) ;
#453 = CARTESIAN_POINT ( 'NONE',  ( 0.000000000000000000, 0.000000000000000000, 120.0000000000000000 ) ) ;
#454 = EDGE_LOOP ( 'NONE', ( #743, #157 ) ) ;
#455 = DIRECTION ( 'NONE',  ( 0.000000000000000000, -1.000000000000000000, 0.000000000000000000 ) ) ;
#456 = DIRECTION ( 'NONE',  ( 0.000000000000000000, 0.000000000000000000, 1.000000000000000000 ) ) ;
#457 = ADVANCED_FACE ( 'NONE', ( #324 ), #504, .F. ) ;
#458 = CARTESIAN_POINT ( 'NONE',  ( -11.99999999999994849, 5.000000000000127898, 135.0000000000000000 ) ) ;
#459 = VECTOR ( 'NONE', #718, 1000.000000000000000 ) ;
#460 = ORIENTED_EDGE ( 'NONE', *, *, #12, .F. ) ;
#461 = FACE_OUTER_BOUND ( 'NONE', #398, .T. ) ;
#462 = DIRECTION ( 'NONE',  ( 0.000000000000000000, 0.000000000000000000, 1.000000000000000000 ) ) ;
#463 = EDGE_CURVE ( 'NONE', #159, #309, #576, .T. ) ;
#464 = CARTESIAN_POINT ( 'NONE',  ( 0.000000000000000000, 0.000000000000000000, 120.0000000000000000 ) ) ;
#465 = PLANE ( 'NONE',  #586 ) ;
#466 = PLANE ( 'NONE',  #123 ) ;
#467 = DIRECTION ( 'NONE',  ( 0.000000000000000000, 0.000000000000000000, 1.000000000000000000 ) ) ;
#468 = VERTEX_POINT ( 'NONE', #182 ) ;
#469 = VECTOR ( 'NONE', #512, 1000.000000000000000 ) ;
#470 = DIRECTION ( 'NONE',  ( 0.000000000000000000, 0.000000000000000000, -1.000000000000000000 ) ) ;
#471 = FACE_OUTER_BOUND ( 'NONE', #99, .T. ) ;
#472 = EDGE_LOOP ( 'NONE', ( #96, #117, #639, #773, #598, #295, #485, #237, #299, #366, #346, #85 ) ) ;
#473 = ORIENTED_EDGE ( 'NONE', *, *, #787, .T. ) ;
#474 = VECTOR ( 'NONE', #613, 1000.000000000000000 ) ;
#475 = CARTESIAN_POINT ( 'NONE',  ( 0.000000000000000000, 0.000000000000000000, 135.0000000000000000 ) ) ;
#476 = VECTOR ( 'NONE', #801, 1000.000000000000000 ) ;
#477 = DIRECTION ( 'NONE',  ( -0.000000000000000000, -0.000000000000000000, -1.000000000000000000 ) ) ;
#478 = VERTEX_POINT ( 'NONE', #759 ) ;
#479 = PRODUCT_DEFINITION_SHAPE ( 'NONE', 'NONE',  #60 ) ;
#480 = FACE_OUTER_BOUND ( 'NONE', #360, .T. ) ;
#481 = EDGE_LOOP ( 'NONE', ( #333, #577, #438, #450, #508 ) ) ;
#482 = DIRECTION ( 'NONE',  ( -0.000000000000000000, -0.000000000000000000, -1.000000000000000000 ) ) ;
#483 = CARTESIAN_POINT ( 'NONE',  ( 24.49489742783176283, -5.000000000000095923, 120.0000000000000000 ) ) ;
#484 = ORIENTED_EDGE ( 'NONE', *, *, #365, .F. ) ;
#485 = ORIENTED_EDGE ( 'NONE', *, *, #231, .T. ) ;
#486 = DIRECTION ( 'NONE',  ( 6.941727557173835341E-15, 1.000000000000000000, 0.000000000000000000 ) ) ;
#487 = VERTEX_POINT ( 'NONE', #197 ) ;
#488 = EDGE_CURVE ( 'NONE', #811, #28, #55, .T. ) ;
#489 = ORIENTED_EDGE ( 'NONE', *, *, #263, .T. ) ;
#490 = DIRECTION ( 'NONE',  ( -0.000000000000000000, -0.000000000000000000, -1.000000000000000000 ) ) ;
#491 = AXIS2_PLACEMENT_3D ( 'NONE', #402, #400, #287 ) ;
#492 = LINE ( 'NONE', #181, #312 ) ;
#493 = ADVANCED_FACE ( 'NONE', ( #388 ), #692, .T. ) ;
#494 = ORIENTED_EDGE ( 'NONE', *, *, #488, .T. ) ;
#495 = DIRECTION ( 'NONE',  ( 1.000000000000000000, 0.000000000000000000, -0.000000000000000000 ) ) ;
#496 = CARTESIAN_POINT ( 'NONE',  ( 0.000000000000000000, 0.000000000000000000, 120.0000000000000000 ) ) ;
#497 = PLANE ( 'NONE',  #150 ) ;
#498 = ORIENTED_EDGE ( 'NONE', *, *, #695, .F. ) ;
#499 = EDGE_CURVE ( 'NONE', #286, #327, #752, .T. ) ;
#500 = DIRECTION ( 'NONE',  ( 1.000000000000000000, 0.000000000000000000, 0.000000000000000000 ) ) ;
#501 = CARTESIAN_POINT ( 'NONE',  ( 12.00000000000001776, 4.999999999999956479, 135.0000000000000000 ) ) ;
#502 = ORIENTED_EDGE ( 'NONE', *, *, #125, .T. ) ;
#503 = EDGE_CURVE ( 'NONE', #323, #95, #745, .T. ) ;
#504 = PLANE ( 'NONE',  #314 ) ;
#505 = ORIENTED_EDGE ( 'NONE', *, *, #463, .T. ) ;
#506 = DIRECTION ( 'NONE',  ( 1.000000000000000000, -3.262611951871702681E-15, -0.000000000000000000 ) ) ;
#507 = DIRECTION ( 'NONE',  ( 1.000000000000000000, 0.000000000000000000, 0.000000000000000000 ) ) ;
#508 = ORIENTED_EDGE ( 'NONE', *, *, #668, .T. ) ;
#509 = CARTESIAN_POINT ( 'NONE',  ( -50.00000000000000000, 6.123233995736766085E-15, -3.000000000000000000 ) ) ;
#510 = ORIENTED_EDGE ( 'NONE', *, *, #348, .F. ) ;
#511 = ADVANCED_FACE ( 'NONE', ( #70 ), #580, .F. ) ;
#512 = DIRECTION ( 'NONE',  ( -0.000000000000000000, -0.000000000000000000, -1.000000000000000000 ) ) ;
#513 = ORIENTED_EDGE ( 'NONE', *, *, #809, .T. ) ;
#514 = DIRECTION ( 'NONE',  ( 1.000000000000000000, 0.000000000000000000, -0.000000000000000000 ) ) ;
#515 = ORIENTED_EDGE ( 'NONE', *, *, #691, .F. ) ;
#516 = EDGE_CURVE ( 'NONE', #196, #593, #601, .T. ) ;
#517 = CARTESIAN_POINT ( 'NONE',  ( 24.49489742783179835, 4.999999999999912070, 120.0000000000000000 ) ) ;
#518 = LINE ( 'NONE', #344, #313 ) ;
#519 = AXIS2_PLACEMENT_3D ( 'NONE', #496, #609, #376 ) ;
#520 = CARTESIAN_POINT ( 'NONE',  ( 0.000000000000000000, 0.000000000000000000, 0.000000000000000000 ) ) ;
#521 = CARTESIAN_POINT ( 'NONE',  ( -24.49489742783183388, -4.999999999999741540, 135.0000000000000000 ) ) ;
#522 = DIRECTION ( 'NONE',  ( 0.000000000000000000, 0.000000000000000000, 1.000000000000000000 ) ) ;
#523 = ORIENTED_EDGE ( 'NONE', *, *, #797, .F. ) ;
#524 = DIRECTION ( 'NONE',  ( 0.000000000000000000, 0.000000000000000000, 1.000000000000000000 ) ) ;
#525 = EDGE_CURVE ( 'NONE', #553, #676, #766, .T. ) ;
#526 = FACE_OUTER_BOUND ( 'NONE', #216, .T. ) ;
#527 = AXIS2_PLACEMENT_3D ( 'NONE', #567, #815, #252 ) ;
#528 = AXIS2_PLACEMENT_3D ( 'NONE', #464, #524, #204 ) ;
#529 = UNCERTAINTY_MEASURE_WITH_UNIT (LENGTH_MEASURE( 1.000000000000000082E-05 ), #628, 'distance_accuracy_value', 'NONE');
#530 = LINE ( 'NONE', #208, #459 ) ;
#531 = ORIENTED_EDGE ( 'NONE', *, *, #328, .F. ) ;
#532 = CARTESIAN_POINT ( 'NONE',  ( 11.99999999999998224, -5.000000000000043521, 135.0000000000000000 ) ) ;
#533 = CARTESIAN_POINT ( 'NONE',  ( 0.000000000000000000, 0.000000000000000000, 120.0000000000000000 ) ) ;
#534 = LINE ( 'NONE', #47, #710 ) ;
#535 = ORIENTED_EDGE ( 'NONE', *, *, #348, .T. ) ;
#536 = EDGE_CURVE ( 'NONE', #226, #144, #74, .T. ) ;
#537 = VECTOR ( 'NONE', #568, 1000.000000000000000 ) ;
#538 = ORIENTED_EDGE ( 'NONE', *, *, #750, .F. ) ;
#539 = CYLINDRICAL_SURFACE ( 'NONE', #566, 25.00000000000000000 ) ;
#540 = CARTESIAN_POINT ( 'NONE',  ( 3.075000000000000178, 3.765788907378111032E-16, 120.0000000000000000 ) ) ;
#541 = ORIENTED_EDGE ( 'NONE', *, *, #149, .T. ) ;
#542 = ORIENTED_EDGE ( 'NONE', *, *, #263, .F. ) ;
#543 = CIRCLE ( 'NONE', #105, 25.00000000000000000 ) ;
#544 = CARTESIAN_POINT ( 'NONE',  ( -4.999999999999998224, 24.49489742783178059, 120.0000000000000000 ) ) ;
#545 = CIRCLE ( 'NONE', #519, 3.075000000000000178 ) ;
#546 = LINE ( 'NONE', #416, #631 ) ;
#547 = EDGE_LOOP ( 'NONE', ( #614, #200, #569, #484 ) ) ;
#548 = FILL_AREA_STYLE_COLOUR ( '', #103 ) ;
#549 = VERTEX_POINT ( 'NONE', #397 ) ;
#550 = FACE_OUTER_BOUND ( 'NONE', #690, .T. ) ;
#551 = ADVANCED_FACE ( 'NONE', ( #284 ), #465, .F. ) ;
#552 = DIRECTION ( 'NONE',  ( -0.000000000000000000, -0.000000000000000000, -1.000000000000000000 ) ) ;
#553 = VERTEX_POINT ( 'NONE', #342 ) ;
#554 = LINE ( 'NONE', #806, #732 ) ;
#555 = VERTEX_POINT ( 'NONE', #215 ) ;
#556 = AXIS2_PLACEMENT_3D ( 'NONE', #573, #271, #507 ) ;
#557 = CARTESIAN_POINT ( 'NONE',  ( -24.49489742783183388, -4.999999999999741540, 135.0000000000000000 ) ) ;
#558 = PRESENTATION_LAYER_ASSIGNMENT (  '', '', ( #708 ) ) ;
#559 = DIRECTION ( 'NONE',  ( 0.000000000000000000, 0.000000000000000000, 1.000000000000000000 ) ) ;
#560 = CARTESIAN_POINT ( 'NONE',  ( 12.00000000000001776, 4.999999999999956479, 135.0000000000000000 ) ) ;
#561 = ADVANCED_FACE ( 'NONE', ( #394 ), #133, .T. ) ;
#562 = ORIENTED_EDGE ( 'NONE', *, *, #328, .T. ) ;
#563 = CARTESIAN_POINT ( 'NONE',  ( -4.999999999999998224, 12.00000000000000000, 135.0000000000000000 ) ) ;
#564 = EDGE_CURVE ( 'NONE', #629, #28, #146, .T. ) ;
#565 = ORIENTED_EDGE ( 'NONE', *, *, #642, .F. ) ;
#566 = AXIS2_PLACEMENT_3D ( 'NONE', #533, #414, #698 ) ;
#567 = CARTESIAN_POINT ( 'NONE',  ( 0.000000000000000000, 0.000000000000000000, 135.0000000000000000 ) ) ;
#568 = DIRECTION ( 'NONE',  ( -6.664058454886882022E-15, -1.000000000000000000, -0.000000000000000000 ) ) ;
#569 = ORIENTED_EDGE ( 'NONE', *, *, #596, .T. ) ;
#570 = AXIS2_PLACEMENT_3D ( 'NONE', #136, #720, #649 ) ;
#571 = DIRECTION ( 'NONE',  ( 1.048200861133249292E-14, 1.000000000000000000, -0.000000000000000000 ) ) ;
#572 = VECTOR ( 'NONE', #757, 1000.000000000000000 ) ;
#573 = CARTESIAN_POINT ( 'NONE',  ( 0.000000000000000000, 0.000000000000000000, 0.000000000000000000 ) ) ;
#574 = EDGE_LOOP ( 'NONE', ( #515, #71, #777, #11, #786, #165, #711, #542, #673, #541, #316, #6 ) ) ;
#575 = ADVANCED_FACE ( 'NONE', ( #647 ), #332, .T. ) ;
#576 = LINE ( 'NONE', #264, #767 ) ;
#577 = ORIENTED_EDGE ( 'NONE', *, *, #198, .T. ) ;
#578 = CARTESIAN_POINT ( 'NONE',  ( 50.00000000000000000, 0.000000000000000000, -3.000000000000000000 ) ) ;
#579 = VERTEX_POINT ( 'NONE', #273 ) ;
#580 = PLANE ( 'NONE',  #570 ) ;
#581 = AXIS2_PLACEMENT_3D ( 'NONE', #453, #522, #664 ) ;
#582 = ADVANCED_FACE ( 'NONE', ( #139 ), #653, .F. ) ;
#583 = LINE ( 'NONE', #501, #469 ) ;
#584 = FACE_BOUND ( 'NONE', #113, .T. ) ;
#585 = CARTESIAN_POINT ( 'NONE',  ( 0.000000000000000000, 0.000000000000000000, -3.000000000000000000 ) ) ;
#586 = AXIS2_PLACEMENT_3D ( 'NONE', #658, #20, #709 ) ;
#587 = VECTOR ( 'NONE', #799, 1000.000000000000000 ) ;
#588 = SHAPE_DEFINITION_REPRESENTATION ( #479, #591 ) ;
#589 = ADVANCED_FACE ( 'NONE', ( #526 ), #270, .T. ) ;
#590 = DIRECTION ( 'NONE',  ( -0.000000000000000000, -0.000000000000000000, 1.000000000000000000 ) ) ;
#591 = ADVANCED_BREP_SHAPE_REPRESENTATION ( 'valj fi49 za printanje levo s \X2\0161010d\X0\itnikom', ( #180, #556 ), #293 ) ;
#592 = CARTESIAN_POINT ( 'NONE',  ( 0.000000000000000000, 0.000000000000000000, 135.0000000000000000 ) ) ;
#593 = VERTEX_POINT ( 'NONE', #724 ) ;
#594 = APPLICATION_PROTOCOL_DEFINITION ( 'draft international standard', 'automotive_design', 1998, #109 ) ;
#595 = DIRECTION ( 'NONE',  ( -1.000000000000000000, 0.000000000000000000, -0.000000000000000000 ) ) ;
#596 = EDGE_CURVE ( 'NONE', #478, #419, #153, .T. ) ;
#597 = DIRECTION ( 'NONE',  ( -0.000000000000000000, -0.000000000000000000, -1.000000000000000000 ) ) ;
#598 = ORIENTED_EDGE ( 'NONE', *, *, #499, .F. ) ;
#599 = CARTESIAN_POINT ( 'NONE',  ( 0.000000000000000000, 0.000000000000000000, 120.0000000000000000 ) ) ;
#600 = LINE ( 'NONE', #15, #420 ) ;
#601 = CIRCLE ( 'NONE', #426, 50.00000000000000000 ) ;
#602 = CARTESIAN_POINT ( 'NONE',  ( 4.999999999999915623, -12.00000000000003553, 135.0000000000000000 ) ) ;
#603 = EDGE_CURVE ( 'NONE', #323, #686, #600, .T. ) ;
#604 = LINE ( 'NONE', #749, #175 ) ;
#605 = ORIENTED_EDGE ( 'NONE', *, *, #266, .F. ) ;
#606 = CARTESIAN_POINT ( 'NONE',  ( 0.000000000000000000, 0.000000000000000000, 120.0000000000000000 ) ) ;
#607 = CARTESIAN_POINT ( 'NONE',  ( -50.00000000000000000, 6.123233995736766085E-15, -3.000000000000000000 ) ) ;
#608 = ORIENTED_EDGE ( 'NONE', *, *, #780, .F. ) ;
#609 = DIRECTION ( 'NONE',  ( 0.000000000000000000, 0.000000000000000000, -1.000000000000000000 ) ) ;
#610 = ORIENTED_EDGE ( 'NONE', *, *, #65, .F. ) ;
#611 = PRODUCT_DEFINITION_FORMATION_WITH_SPECIFIED_SOURCE ( 'ANY', '', #279, .NOT_KNOWN. ) ;
#612 = LINE ( 'NONE', #36, #292 ) ;
#613 = DIRECTION ( 'NONE',  ( -0.000000000000000000, -0.000000000000000000, 1.000000000000000000 ) ) ;
#614 = ORIENTED_EDGE ( 'NONE', *, *, #132, .F. ) ;
#615 = DIRECTION ( 'NONE',  ( 0.000000000000000000, 0.000000000000000000, 1.000000000000000000 ) ) ;
#616 = VERTEX_POINT ( 'NONE', #458 ) ;
#617 = AXIS2_PLACEMENT_3D ( 'NONE', #375, #317, #382 ) ;
#618 = DIRECTION ( 'NONE',  ( 1.040834085586084257E-14, 1.000000000000000000, 0.000000000000000000 ) ) ;
#619 = DIRECTION ( 'NONE',  ( 6.941727557173835341E-15, 1.000000000000000000, 0.000000000000000000 ) ) ;
#620 = ORIENTED_EDGE ( 'NONE', *, *, #787, .F. ) ;
#621 = CARTESIAN_POINT ( 'NONE',  ( -4.999999999999998224, 12.00000000000000000, 120.0000000000000000 ) ) ;
#622 = ORIENTED_EDGE ( 'NONE', *, *, #439, .T. ) ;
#623 = PLANE ( 'NONE',  #16 ) ;
#624 = ORIENTED_EDGE ( 'NONE', *, *, #797, .T. ) ;
#625 = FACE_OUTER_BOUND ( 'NONE', #547, .T. ) ;
#626 = EDGE_CURVE ( 'NONE', #811, #682, #530, .T. ) ;
#627 = CARTESIAN_POINT ( 'NONE',  ( -12.00000000000005151, -4.999999999999872990, 135.0000000000000000 ) ) ;
#628 =( LENGTH_UNIT ( ) NAMED_UNIT ( * ) SI_UNIT ( .MILLI., .METRE. ) );
#629 = VERTEX_POINT ( 'NONE', #277 ) ;
#630 = CIRCLE ( 'NONE', #721, 25.00000000000000000 ) ;
#631 = VECTOR ( 'NONE', #490, 1000.000000000000000 ) ;
#632 = CARTESIAN_POINT ( 'NONE',  ( -5.000000000000167866, -24.49489742783174862, 135.0000000000000000 ) ) ;
#633 = AXIS2_PLACEMENT_3D ( 'NONE', #560, #112, #176 ) ;
#634 = EDGE_CURVE ( 'NONE', #763, #733, #447, .T. ) ;
#635 = DIRECTION ( 'NONE',  ( -0.000000000000000000, -0.000000000000000000, -1.000000000000000000 ) ) ;
#636 = CARTESIAN_POINT ( 'NONE',  ( -24.49489742783173085, 5.000000000000255795, 135.0000000000000000 ) ) ;
#637 = ORIENTED_EDGE ( 'NONE', *, *, #229, .F. ) ;
#638 = CARTESIAN_POINT ( 'NONE',  ( -3.075000000000000178, 0.000000000000000000, -3.000000000000000000 ) ) ;
#639 = ORIENTED_EDGE ( 'NONE', *, *, #434, .T. ) ;
#640 = VECTOR ( 'NONE', #680, 1000.000000000000000 ) ;
#641 = PLANE ( 'NONE',  #666 ) ;
#642 = EDGE_CURVE ( 'NONE', #616, #694, #798, .T. ) ;
#643 = DIRECTION ( 'NONE',  ( -0.000000000000000000, -0.000000000000000000, -1.000000000000000000 ) ) ;
#644 = AXIS2_PLACEMENT_3D ( 'NONE', #592, #84, #514 ) ;
#645 = VECTOR ( 'NONE', #687, 1000.000000000000000 ) ;
#646 = EDGE_CURVE ( 'NONE', #256, #129, #352, .T. ) ;
#647 = FACE_OUTER_BOUND ( 'NONE', #472, .T. ) ;
#648 = FACE_OUTER_BOUND ( 'NONE', #33, .T. ) ;
#649 = DIRECTION ( 'NONE',  ( -1.000000000000000000, 3.262611951871702681E-15, 0.000000000000000000 ) ) ;
#650 = EDGE_CURVE ( 'NONE', #419, #478, #374, .T. ) ;
#651 = ORIENTED_EDGE ( 'NONE', *, *, #564, .T. ) ;
#652 = FACE_OUTER_BOUND ( 'NONE', #454, .T. ) ;
#653 = PLANE ( 'NONE',  #104 ) ;
#654 = VECTOR ( 'NONE', #234, 1000.000000000000000 ) ;
#655 = ORIENTED_EDGE ( 'NONE', *, *, #634, .T. ) ;
#656 = EDGE_CURVE ( 'NONE', #35, #662, #753, .T. ) ;
#657 = DIRECTION ( 'NONE',  ( -0.000000000000000000, -0.000000000000000000, -1.000000000000000000 ) ) ;
#658 = CARTESIAN_POINT ( 'NONE',  ( 24.49489742783179835, 4.999999999999912070, 135.0000000000000000 ) ) ;
#659 = DIRECTION ( 'NONE',  ( 0.000000000000000000, 0.000000000000000000, 1.000000000000000000 ) ) ;
#660 = UNCERTAINTY_MEASURE_WITH_UNIT (LENGTH_MEASURE( 1.000000000000000082E-05 ), #190, 'distance_accuracy_value', 'NONE');
#661 = DIRECTION ( 'NONE',  ( -1.000000000000000000, 0.000000000000000000, 0.000000000000000000 ) ) ;
#662 = VERTEX_POINT ( 'NONE', #727 ) ;
#663 = DIRECTION ( 'NONE',  ( 1.000000000000000000, -1.020433950904553960E-14, 0.000000000000000000 ) ) ;
#664 = DIRECTION ( 'NONE',  ( 1.000000000000000000, 0.000000000000000000, 0.000000000000000000 ) ) ;
#665 = ORIENTED_EDGE ( 'NONE', *, *, #34, .T. ) ;
#666 = AXIS2_PLACEMENT_3D ( 'NONE', #63, #436, #67 ) ;
#667 = ORIENTED_EDGE ( 'NONE', *, *, #525, .F. ) ;
#668 = EDGE_CURVE ( 'NONE', #384, #616, #151, .T. ) ;
#669 = CARTESIAN_POINT ( 'NONE',  ( 24.49489742783176638, -5.000000000000084377, 120.0000000000000000 ) ) ;
#670 = ADVANCED_FACE ( 'NONE', ( #288 ), #539, .T. ) ;
#671 = CARTESIAN_POINT ( 'NONE',  ( -4.999999999999998224, 24.49489742783178414, 120.0000000000000000 ) ) ;
#672 = ORIENTED_EDGE ( 'NONE', *, *, #276, .T. ) ;
#673 = ORIENTED_EDGE ( 'NONE', *, *, #656, .F. ) ;
#674 = CARTESIAN_POINT ( 'NONE',  ( -25.00000000000000000, 0.000000000000000000, 0.000000000000000000 ) ) ;
#675 = DIRECTION ( 'NONE',  ( -0.000000000000000000, -0.000000000000000000, -1.000000000000000000 ) ) ;
#676 = VERTEX_POINT ( 'NONE', #730 ) ;
#677 = CIRCLE ( 'NONE', #775, 25.00000000000000000 ) ;
#678 = CARTESIAN_POINT ( 'NONE',  ( 4.999999999999915623, -12.00000000000003553, 135.0000000000000000 ) ) ;
#679 = ORIENTED_EDGE ( 'NONE', *, *, #463, .F. ) ;
#680 = DIRECTION ( 'NONE',  ( -0.000000000000000000, -0.000000000000000000, -1.000000000000000000 ) ) ;
#681 = LINE ( 'NONE', #303, #782 ) ;
#682 = VERTEX_POINT ( 'NONE', #255 ) ;
#683 = CARTESIAN_POINT ( 'NONE',  ( -50.00000000000000000, 6.123233995736766085E-15, 0.000000000000000000 ) ) ;
#684 = EDGE_CURVE ( 'NONE', #448, #306, #410, .T. ) ;
#685 = VECTOR ( 'NONE', #635, 1000.000000000000000 ) ;
#686 = VERTEX_POINT ( 'NONE', #674 ) ;
#687 = DIRECTION ( 'NONE',  ( -0.000000000000000000, -0.000000000000000000, -1.000000000000000000 ) ) ;
#688 = ORIENTED_EDGE ( 'NONE', *, *, #229, .T. ) ;
#689 = DIRECTION ( 'NONE',  ( -1.000000000000000000, 6.938893903907228378E-15, 0.000000000000000000 ) ) ;
#690 = EDGE_LOOP ( 'NONE', ( #413, #433, #178, #535 ) ) ;
#691 = EDGE_CURVE ( 'NONE', #468, #319, #677, .T. ) ;
#692 = PLANE ( 'NONE',  #193 ) ;
#693 = DIRECTION ( 'NONE',  ( 1.000000000000000000, 0.000000000000000000, 0.000000000000000000 ) ) ;
#694 = VERTEX_POINT ( 'NONE', #636 ) ;
#695 = EDGE_CURVE ( 'NONE', #301, #242, #167, .T. ) ;
#696 = CARTESIAN_POINT ( 'NONE',  ( 0.000000000000000000, 0.000000000000000000, 135.0000000000000000 ) ) ;
#697 = SURFACE_STYLE_USAGE ( .BOTH. , #184 ) ;
#698 = DIRECTION ( 'NONE',  ( -1.000000000000000000, 0.000000000000000000, 0.000000000000000000 ) ) ;
#699 = CIRCLE ( 'NONE', #219, 25.00000000000000000 ) ;
#700 = EDGE_CURVE ( 'NONE', #468, #238, #97, .T. ) ;
#701 = LINE ( 'NONE', #578, #183 ) ;
#702 = CARTESIAN_POINT ( 'NONE',  ( 0.000000000000000000, 0.000000000000000000, 0.000000000000000000 ) ) ;
#703 = EDGE_LOOP ( 'NONE', ( #81, #510, #48, #222 ) ) ;
#704 = DIRECTION ( 'NONE',  ( 1.000000000000000000, 0.000000000000000000, 0.000000000000000000 ) ) ;
#705 = DIRECTION ( 'NONE',  ( 0.000000000000000000, 0.000000000000000000, -1.000000000000000000 ) ) ;
#706 = ORIENTED_EDGE ( 'NONE', *, *, #125, .F. ) ;
#707 = VECTOR ( 'NONE', #143, 1000.000000000000000 ) ;
#708 = STYLED_ITEM ( 'NONE', ( #305 ), #180 ) ;
#709 = DIRECTION ( 'NONE',  ( 1.000000000000000000, -3.540281054158656395E-15, 0.000000000000000000 ) ) ;
#710 = VECTOR ( 'NONE', #241, 1000.000000000000000 ) ;
#711 = ORIENTED_EDGE ( 'NONE', *, *, #58, .F. ) ;
#712 = DIRECTION ( 'NONE',  ( -1.040834085586084257E-14, -1.000000000000000000, 0.000000000000000000 ) ) ;
#713 = FACE_OUTER_BOUND ( 'NONE', #481, .T. ) ;
#714 = CARTESIAN_POINT ( 'NONE',  ( -4.999999999999998224, 12.00000000000000000, 135.0000000000000000 ) ) ;
#715 = DIRECTION ( 'NONE',  ( -1.000000000000000000, 0.000000000000000000, 0.000000000000000000 ) ) ;
#716 = CARTESIAN_POINT ( 'NONE',  ( 0.000000000000000000, 0.000000000000000000, 135.0000000000000000 ) ) ;
#717 = EDGE_CURVE ( 'NONE', #758, #226, #612, .T. ) ;
#718 = DIRECTION ( 'NONE',  ( -1.000000000000000000, 3.540281054158656000E-15, 0.000000000000000000 ) ) ;
#719 = VECTOR ( 'NONE', #785, 1000.000000000000000 ) ;
#720 = DIRECTION ( 'NONE',  ( 3.262611951871702681E-15, 1.000000000000000000, -0.000000000000000000 ) ) ;
#721 = AXIS2_PLACEMENT_3D ( 'NONE', #250, #615, #693 ) ;
#722 = ORIENTED_EDGE ( 'NONE', *, *, #790, .T. ) ;
#723 = PLANE ( 'NONE',  #235 ) ;
#724 = CARTESIAN_POINT ( 'NONE',  ( 50.00000000000000000, 0.000000000000000000, 0.000000000000000000 ) ) ;
#725 = ORIENTED_EDGE ( 'NONE', *, *, #93, .T. ) ;
#726 = FACE_OUTER_BOUND ( 'NONE', #186, .T. ) ;
#727 = CARTESIAN_POINT ( 'NONE',  ( -4.999999999999998224, 24.49489742783178059, 135.0000000000000000 ) ) ;
#728 = ORIENTED_EDGE ( 'NONE', *, *, #46, .T. ) ;
#729 = EDGE_CURVE ( 'NONE', #242, #478, #166, .T. ) ;
#730 = CARTESIAN_POINT ( 'NONE',  ( -5.000000000000084377, -11.99999999999996625, 120.0000000000000000 ) ) ;
#731 = CARTESIAN_POINT ( 'NONE',  ( 0.000000000000000000, 0.000000000000000000, 120.0000000000000000 ) ) ;
#732 = VECTOR ( 'NONE', #247, 1000.000000000000000 ) ;
#733 = VERTEX_POINT ( 'NONE', #302 ) ;
#734 = DIRECTION ( 'NONE',  ( -0.000000000000000000, -0.000000000000000000, -1.000000000000000000 ) ) ;
#735 = EDGE_LOOP ( 'NONE', ( #172, #54, #679, #665 ) ) ;
#736 = EDGE_LOOP ( 'NONE', ( #473, #251, #101, #363 ) ) ;
#737 = DIRECTION ( 'NONE',  ( 1.040834085586084257E-14, 1.000000000000000000, 0.000000000000000000 ) ) ;
#738 = ADVANCED_FACE ( 'NONE', ( #550 ), #497, .F. ) ;
#739 = CARTESIAN_POINT ( 'NONE',  ( 24.49489742783179835, 4.999999999999912070, 135.0000000000000000 ) ) ;
#740 = EDGE_LOOP ( 'NONE', ( #337, #423 ) ) ;
#741 = AXIS2_PLACEMENT_3D ( 'NONE', #606, #30, #121 ) ;
#742 = LINE ( 'NONE', #367, #748 ) ;
#743 = ORIENTED_EDGE ( 'NONE', *, *, #65, .T. ) ;
#744 = PLANE ( 'NONE',  #633 ) ;
#745 = CIRCLE ( 'NONE', #236, 25.00000000000000000 ) ;
#746 = ORIENTED_EDGE ( 'NONE', *, *, #596, .F. ) ;
#747 = AXIS2_PLACEMENT_3D ( 'NONE', #585, #779, #349 ) ;
#748 = VECTOR ( 'NONE', #619, 1000.000000000000000 ) ;
#749 = CARTESIAN_POINT ( 'NONE',  ( -5.000000000000181188, -24.49489742783174506, 135.0000000000000000 ) ) ;
#750 = EDGE_CURVE ( 'NONE', #445, #682, #583, .T. ) ;
#751 = EDGE_LOOP ( 'NONE', ( #137, #304, #163, #672 ) ) ;
#752 = LINE ( 'NONE', #56, #719 ) ;
#753 = CIRCLE ( 'NONE', #321, 25.00000000000000000 ) ;
#754 = DIRECTION ( 'NONE',  ( 0.000000000000000000, 0.000000000000000000, 1.000000000000000000 ) ) ;
#755 = DIRECTION ( 'NONE',  ( -1.000000000000000000, 3.540281054158656000E-15, 0.000000000000000000 ) ) ;
#756 = ORIENTED_EDGE ( 'NONE', *, *, #695, .T. ) ;
#757 = DIRECTION ( 'NONE',  ( -6.664058454886882022E-15, -1.000000000000000000, -0.000000000000000000 ) ) ;
#758 = VERTEX_POINT ( 'NONE', #326 ) ;
#759 = CARTESIAN_POINT ( 'NONE',  ( 3.075000000000000178, 3.765788907378111032E-16, -3.000000000000000000 ) ) ;
#760 =( NAMED_UNIT ( * ) SI_UNIT ( $, .STERADIAN. ) SOLID_ANGLE_UNIT ( ) );
#761 = ORIENTED_EDGE ( 'NONE', *, *, #240, .T. ) ;
#762 = DIRECTION ( 'NONE',  ( -1.000000000000000000, 1.048200861133249292E-14, 0.000000000000000000 ) ) ;
#763 = VERTEX_POINT ( 'NONE', #61 ) ;
#764 = LINE ( 'NONE', #8, #73 ) ;
#765 = AXIS2_PLACEMENT_3D ( 'NONE', #211, #282, #10 ) ;
#766 = LINE ( 'NONE', #83, #248 ) ;
#767 = VECTOR ( 'NONE', #506, 1000.000000000000000 ) ;
#768 = ORIENTED_EDGE ( 'NONE', *, *, #365, .T. ) ;
#769 = APPLICATION_PROTOCOL_DEFINITION ( 'draft international standard', 'automotive_design', 1998, #274 ) ;
#770 = LINE ( 'NONE', #138, #155 ) ;
#771 = EDGE_CURVE ( 'NONE', #682, #448, #764, .T. ) ;
#772 = DIRECTION ( 'NONE',  ( 0.000000000000000000, 1.000000000000000000, 0.000000000000000000 ) ) ;
#773 = ORIENTED_EDGE ( 'NONE', *, *, #46, .F. ) ;
#774 = DIRECTION ( 'NONE',  ( -0.000000000000000000, -0.000000000000000000, -1.000000000000000000 ) ) ;
#775 = AXIS2_PLACEMENT_3D ( 'NONE', #41, #355, #232 ) ;
#776 = DIRECTION ( 'NONE',  ( -1.000000000000000000, 6.938893903907228378E-15, 0.000000000000000000 ) ) ;
#777 = ORIENTED_EDGE ( 'NONE', *, *, #373, .T. ) ;
#778 = CARTESIAN_POINT ( 'NONE',  ( 0.000000000000000000, 0.000000000000000000, -3.000000000000000000 ) ) ;
#779 = DIRECTION ( 'NONE',  ( 0.000000000000000000, 0.000000000000000000, -1.000000000000000000 ) ) ;
#780 = EDGE_CURVE ( 'NONE', #417, #549, #268, .T. ) ;
#781 = AXIS2_PLACEMENT_3D ( 'NONE', #336, #597, #220 ) ;
#782 = VECTOR ( 'NONE', #552, 1000.000000000000000 ) ;
#783 = EDGE_LOOP ( 'NONE', ( #111, #90, #637, #174 ) ) ;
#784 = DIRECTION ( 'NONE',  ( 1.000000000000000000, 0.000000000000000000, 0.000000000000000000 ) ) ;
#785 = DIRECTION ( 'NONE',  ( -0.000000000000000000, -0.000000000000000000, -1.000000000000000000 ) ) ;
#786 = ORIENTED_EDGE ( 'NONE', *, *, #198, .F. ) ;
#787 = EDGE_CURVE ( 'NONE', #676, #733, #203, .T. ) ;
#788 = VECTOR ( 'NONE', #26, 1000.000000000000000 ) ;
#789 = ORIENTED_EDGE ( 'NONE', *, *, #254, .T. ) ;
#790 = EDGE_CURVE ( 'NONE', #593, #196, #115, .T. ) ;
#791 = CARTESIAN_POINT ( 'NONE',  ( -12.00000000000005151, -4.999999999999872990, 135.0000000000000000 ) ) ;
#792 = CARTESIAN_POINT ( 'NONE',  ( 4.999999999999829470, -24.49489742783181612, 120.0000000000000000 ) ) ;
#793 = EDGE_LOOP ( 'NONE', ( #651, #228, #29, #442 ) ) ;
#794 = CIRCLE ( 'NONE', #78, 25.00000000000000000 ) ;
#795 = CLOSED_SHELL ( 'NONE', ( #561, #170, #670, #1, #575, #267, #452, #244, #582, #493, #511, #551, #160, #589, #415, #393, #152, #383, #118, #457, #738, #51, #107, #23, #75 ) ) ;
#796 = EDGE_LOOP ( 'NONE', ( #725, #460, #25, #412 ) ) ;
#797 = EDGE_CURVE ( 'NONE', #549, #593, #701, .T. ) ;
#798 = LINE ( 'NONE', #225, #788 ) ;
#799 = DIRECTION ( 'NONE',  ( -0.000000000000000000, -0.000000000000000000, -1.000000000000000000 ) ) ;
#800 = ORIENTED_EDGE ( 'NONE', *, *, #254, .F. ) ;
#801 = DIRECTION ( 'NONE',  ( -0.000000000000000000, -0.000000000000000000, -1.000000000000000000 ) ) ;
#802 = ORIENTED_EDGE ( 'NONE', *, *, #516, .T. ) ;
#803 = DIRECTION ( 'NONE',  ( 0.000000000000000000, -1.000000000000000000, 0.000000000000000000 ) ) ;
#804 = LINE ( 'NONE', #94, #142 ) ;
#805 = ORIENTED_EDGE ( 'NONE', *, *, #93, .F. ) ;
#806 = CARTESIAN_POINT ( 'NONE',  ( 4.999999999999998224, 24.49489742783178059, 135.0000000000000000 ) ) ;
#807 = ORIENTED_EDGE ( 'NONE', *, *, #338, .F. ) ;
#808 = CARTESIAN_POINT ( 'NONE',  ( -24.49489742783173085, 5.000000000000255795, 135.0000000000000000 ) ) ;
#809 = EDGE_CURVE ( 'NONE', #319, #445, #269, .T. ) ;
#810 =( NAMED_UNIT ( * ) SI_UNIT ( $, .STERADIAN. ) SOLID_ANGLE_UNIT ( ) );
#811 = VERTEX_POINT ( 'NONE', #517 ) ;
#812 = LINE ( 'NONE', #171, #218 ) ;
#813 = EDGE_CURVE ( 'NONE', #662, #140, #5, .T. ) ;
#814 = ORIENTED_EDGE ( 'NONE', *, *, #525, .T. ) ;
#815 = DIRECTION ( 'NONE',  ( 0.000000000000000000, 0.000000000000000000, 1.000000000000000000 ) ) ;
ENDSEC;
END-ISO-10303-21;
