ISO-10303-21;
HEADER;
FILE_DESCRIPTION (( 'STEP AP214' ),
    '1' );
FILE_NAME ('ohišje ležaja ojnice.STEP',
    '2025-10-23T13:14:04',
    ( '' ),
    ( '' ),
    'SwSTEP 2.0',
    'SolidWorks 2024',
    '' );
FILE_SCHEMA (( 'AUTOMOTIVE_DESIGN' ));
ENDSEC;

DATA;
#1 = FACE_OUTER_BOUND ( 'NONE', #642, .T. ) ;
#2 = VERTEX_POINT ( 'NONE', #647 ) ;
#3 = DIRECTION ( 'NONE',  ( 0.000000000000000000, 0.000000000000000000, 1.000000000000000000 ) ) ;
#4 = DIRECTION ( 'NONE',  ( 0.000000000000000000, 0.000000000000000000, 1.000000000000000000 ) ) ;
#5 = ADVANCED_FACE ( 'NONE', ( #489, #890 ), #584, .T. ) ;
#6 = ORIENTED_EDGE ( 'NONE', *, *, #216, .F. ) ;
#7 = ORIENTED_EDGE ( 'NONE', *, *, #226, .T. ) ;
#8 = CARTESIAN_POINT ( 'NONE',  ( 0.5000000000000000000, 13.86637939100011430, -5.884615384615367262 ) ) ;
#9 = CYLINDRICAL_SURFACE ( 'NONE', #445, 2.500000000000000888 ) ;
#10 = AXIS2_PLACEMENT_3D ( 'NONE', #312, #624, #393 ) ;
#11 = AXIS2_PLACEMENT_3D ( 'NONE', #810, #119, #42 ) ;
#12 = EDGE_CURVE ( 'NONE', #103, #703, #778, .T. ) ;
#13 = ORIENTED_EDGE ( 'NONE', *, *, #610, .F. ) ;
#14 = VERTEX_POINT ( 'NONE', #325 ) ;
#15 = LINE ( 'NONE', #639, #311 ) ;
#16 = DIRECTION ( 'NONE',  ( 1.000000000000000000, 0.000000000000000000, 0.000000000000000000 ) ) ;
#17 = AXIS2_PLACEMENT_3D ( 'NONE', #903, #127, #431 ) ;
#18 = AXIS2_PLACEMENT_3D ( 'NONE', #685, #915, #367 ) ;
#19 = ORIENTED_EDGE ( 'NONE', *, *, #878, .T. ) ;
#20 = VERTEX_POINT ( 'NONE', #727 ) ;
#21 = DIRECTION ( 'NONE',  ( -0.000000000000000000, -0.9893885927933614433, 0.1452935389147497758 ) ) ;
#22 = DIRECTION ( 'NONE',  ( 0.000000000000000000, 0.000000000000000000, 1.000000000000000000 ) ) ;
#23 = DIRECTION ( 'NONE',  ( -1.000000000000000000, 0.000000000000000000, 0.000000000000000000 ) ) ;
#24 = ORIENTED_EDGE ( 'NONE', *, *, #25, .F. ) ;
#25 = EDGE_CURVE ( 'NONE', #766, #830, #288, .T. ) ;
#26 = DIRECTION ( 'NONE',  ( -1.000000000000000000, 0.000000000000000000, 0.000000000000000000 ) ) ;
#27 = CYLINDRICAL_SURFACE ( 'NONE', #51, 4.000000000000000000 ) ;
#28 = DIRECTION ( 'NONE',  ( 0.000000000000000000, 0.000000000000000000, -1.000000000000000000 ) ) ;
#29 = EDGE_LOOP ( 'NONE', ( #38, #383, #513, #153 ) ) ;
#30 = AXIS2_PLACEMENT_3D ( 'NONE', #912, #522, #833 ) ;
#31 = DIRECTION ( 'NONE',  ( 0.000000000000000000, 0.1452935389147501088, 0.9893885927933613322 ) ) ;
#32 = DIRECTION ( 'NONE',  ( 0.000000000000000000, 0.000000000000000000, -1.000000000000000000 ) ) ;
#33 = EDGE_LOOP ( 'NONE', ( #716, #855, #415, #6 ) ) ;
#34 = CARTESIAN_POINT ( 'NONE',  ( -1.608688034560285418, 10.63818571409912828, -6.746774262607168282 ) ) ;
#35 = CARTESIAN_POINT ( 'NONE',  ( -1.964466094067262025, -2.999999999999998668, 5.000000000000000888 ) ) ;
#36 = ADVANCED_FACE ( 'NONE', ( #424 ), #268, .F. ) ;
#37 = DIRECTION ( 'NONE',  ( 0.000000000000000000, 0.000000000000000000, 1.000000000000000000 ) ) ;
#38 = ORIENTED_EDGE ( 'NONE', *, *, #616, .T. ) ;
#39 = CARTESIAN_POINT ( 'NONE',  ( -2.919387856874011256, 10.77589188154020761, -5.154068977919832761 ) ) ;
#40 = CARTESIAN_POINT ( 'NONE',  ( -0.4999999999999995559, -3.000000000000000000, -5.000000000000000000 ) ) ;
#41 = DIRECTION ( 'NONE',  ( 1.000000000000000000, 0.000000000000000000, 0.000000000000000000 ) ) ;
#42 = DIRECTION ( 'NONE',  ( 0.000000000000000000, -3.469446951953612217E-15, 1.000000000000000000 ) ) ;
#43 = EDGE_CURVE ( 'NONE', #883, #248, #114, .T. ) ;
#44 = EDGE_LOOP ( 'NONE', ( #450, #839 ) ) ;
#45 = AXIS2_PLACEMENT_3D ( 'NONE', #8, #165, #251 ) ;
#46 = CARTESIAN_POINT ( 'NONE',  ( 2.000000000000000000, 20.00000000000000000, 5.000000000000000888 ) ) ;
#47 = TOROIDAL_SURFACE ( 'NONE', #967, 8.499999999999998224, 2.500000000000000000 ) ;
#48 = CARTESIAN_POINT ( 'NONE',  ( -0.5000000000000000000, 20.00000000000000000, 0.000000000000000000 ) ) ;
#49 = AXIS2_PLACEMENT_3D ( 'NONE', #57, #212, #587 ) ;
#50 = DIRECTION ( 'NONE',  ( 0.000000000000000000, 0.000000000000000000, 1.000000000000000000 ) ) ;
#51 = AXIS2_PLACEMENT_3D ( 'NONE', #565, #725, #262 ) ;
#52 = CARTESIAN_POINT ( 'NONE',  ( 0.4999999999999995559, 10.98240232764001512, 4.526528518016596614 ) ) ;
#53 = ORIENTED_EDGE ( 'NONE', *, *, #634, .T. ) ;
#54 = FILL_AREA_STYLE ('',( #891 ) ) ;
#55 = EDGE_CURVE ( 'NONE', #248, #883, #333, .T. ) ;
#56 = CARTESIAN_POINT ( 'NONE',  ( 2.919387856874011256, 10.77589188154021649, 5.154068977919834538 ) ) ;
#57 = CARTESIAN_POINT ( 'NONE',  ( -0.5000000000000000000, 20.00000000000000000, 0.000000000000000000 ) ) ;
#58 = CARTESIAN_POINT ( 'NONE',  ( 0.8276206038282125643, 10.62034602665687721, -6.983786441207095130 ) ) ;
#59 = EDGE_LOOP ( 'NONE', ( #93, #376, #866, #338, #130, #490, #989, #538 ) ) ;
#60 = LINE ( 'NONE', #351, #886 ) ;
#61 = DIRECTION ( 'NONE',  ( 0.000000000000000000, 0.000000000000000000, 1.000000000000000000 ) ) ;
#62 = CYLINDRICAL_SURFACE ( 'NONE', #381, 5.000000000000000888 ) ;
#63 = DIRECTION ( 'NONE',  ( -1.000000000000000000, 0.000000000000000000, 0.000000000000000000 ) ) ;
#64 = ORIENTED_EDGE ( 'NONE', *, *, #955, .T. ) ;
#65 = AXIS2_PLACEMENT_3D ( 'NONE', #975, #433, #905 ) ;
#66 = CARTESIAN_POINT ( 'NONE',  ( -1.608614661793908773, 10.63818298828144648, 6.746809633574422094 ) ) ;
#67 = CIRCLE ( 'NONE', #742, 8.499999999999998224 ) ;
#68 = CARTESIAN_POINT ( 'NONE',  ( 0.000000000000000000, -10.00000000000000000, 0.000000000000000000 ) ) ;
#69 = APPLICATION_PROTOCOL_DEFINITION ( 'draft international standard', 'automotive_design', 1998, #767 ) ;
#70 = AXIS2_PLACEMENT_3D ( 'NONE', #455, #444, #525 ) ;
#71 = FACE_OUTER_BOUND ( 'NONE', #171, .T. ) ;
#72 = CARTESIAN_POINT ( 'NONE',  ( -0.5000000000000000000, 20.00000000000000000, 8.499999999999998224 ) ) ;
#73 = ADVANCED_FACE ( 'NONE', ( #816, #109 ), #273, .T. ) ;
#74 = ORIENTED_EDGE ( 'NONE', *, *, #764, .F. ) ;
#75 = DIRECTION ( 'NONE',  ( 1.000000000000000000, 0.000000000000000000, 0.000000000000000000 ) ) ;
#76 = CARTESIAN_POINT ( 'NONE',  ( -2.669011349839837344, 10.72098211357856989, 5.755528394517631874 ) ) ;
#77 = CARTESIAN_POINT ( 'NONE',  ( 0.4999999999999995559, -3.000000000000001776, -5.000000000000000888 ) ) ;
#78 = CARTESIAN_POINT ( 'NONE',  ( -3.000000000000000000, 20.00000000000000000, 0.000000000000000000 ) ) ;
#79 = CIRCLE ( 'NONE', #45, 2.499999999999999112 ) ;
#80 = AXIS2_PLACEMENT_3D ( 'NONE', #769, #389, #166 ) ;
#81 = CIRCLE ( 'NONE', #994, 1.550000000000000044 ) ;
#82 = ORIENTED_EDGE ( 'NONE', *, *, #175, .T. ) ;
#83 = ORIENTED_EDGE ( 'NONE', *, *, #12, .T. ) ;
#84 = EDGE_CURVE ( 'NONE', #627, #638, #598, .T. ) ;
#85 = CYLINDRICAL_SURFACE ( 'NONE', #689, 11.00000000000000000 ) ;
#86 = CARTESIAN_POINT ( 'NONE',  ( -3.000000000000000000, 20.00000000000000000, 0.000000000000000000 ) ) ;
#87 = DIRECTION ( 'NONE',  ( 0.000000000000000000, -0.9893885927933614433, -0.1452935389147497758 ) ) ;
#88 = EDGE_CURVE ( 'NONE', #703, #170, #571, .T. ) ;
#89 = ORIENTED_EDGE ( 'NONE', *, *, #717, .F. ) ;
#90 = DIRECTION ( 'NONE',  ( 0.000000000000000000, 0.000000000000000000, -1.000000000000000000 ) ) ;
#91 = CARTESIAN_POINT ( 'NONE',  ( 3.000000000000000000, 20.00000000000000000, 0.000000000000000000 ) ) ;
#92 = B_SPLINE_CURVE_WITH_KNOTS ( 'NONE', 3,
 ( #416, #498, #746, #274, #132, #34, #356, #282, #339, #590, #574, #819, #887, #734, #39, #343, #653, #201 ),
 .UNSPECIFIED., .F., .F.,
 ( 4, 2, 2, 2, 2, 2, 2, 2, 4 ),
 ( 0.000000000000000000, 0.0004885802968247468167, 0.0009771605936494936334, 0.001465740890474240450, 0.001954321187298987267, 0.002442901484123734084, 0.002931481780948480900, 0.003420062077773227717, 0.003908642374597974534 ),
 .UNSPECIFIED. ) ;
#93 = ORIENTED_EDGE ( 'NONE', *, *, #145, .T. ) ;
#94 = AXIS2_PLACEMENT_3D ( 'NONE', #377, #841, #928 ) ;
#95 = CARTESIAN_POINT ( 'NONE',  ( 0.5000000000000000000, 20.00000000000000000, 11.00000000000000000 ) ) ;
#96 = CARTESIAN_POINT ( 'NONE',  ( 0.5000000000000000000, 20.00000000000000000, 0.000000000000000000 ) ) ;
#97 = AXIS2_PLACEMENT_3D ( 'NONE', #324, #948, #558 ) ;
#98 = ORIENTED_EDGE ( 'NONE', *, *, #163, .T. ) ;
#99 = ORIENTED_EDGE ( 'NONE', *, *, #409, .F. ) ;
#100 = EDGE_CURVE ( 'NONE', #465, #854, #460, .T. ) ;
#101 = DIRECTION ( 'NONE',  ( 0.000000000000000000, 0.000000000000000000, 1.000000000000000000 ) ) ;
#102 = DIRECTION ( 'NONE',  ( -1.000000000000000000, -0.000000000000000000, -0.000000000000000000 ) ) ;
#103 = VERTEX_POINT ( 'NONE', #199 ) ;
#104 = EDGE_LOOP ( 'NONE', ( #321, #7, #420, #688 ) ) ;
#105 = EDGE_CURVE ( 'NONE', #785, #709, #964, .T. ) ;
#106 = LINE ( 'NONE', #327, #491 ) ;
#107 = DIRECTION ( 'NONE',  ( 0.000000000000000000, -1.000000000000000000, 0.000000000000000000 ) ) ;
#108 = CIRCLE ( 'NONE', #932, 11.00000000000000000 ) ;
#109 = FACE_BOUND ( 'NONE', #44, .T. ) ;
#110 = VECTOR ( 'NONE', #126, 1000.000000000000114 ) ;
#111 = CARTESIAN_POINT ( 'NONE',  ( -3.000000000000000000, 13.86637939100013206, 5.884615384615385025 ) ) ;
#112 = CARTESIAN_POINT ( 'NONE',  ( 0.5000000000000000000, 10.61916848035313876, 9.000000000000001776 ) ) ;
#113 = EDGE_CURVE ( 'NONE', #925, #481, #885, .T. ) ;
#114 = CIRCLE ( 'NONE', #677, 1.550000000000000044 ) ;
#115 = DIRECTION ( 'NONE',  ( 0.000000000000000000, -1.000000000000000000, 0.000000000000000000 ) ) ;
#116 = ORIENTED_EDGE ( 'NONE', *, *, #610, .T. ) ;
#117 = DIRECTION ( 'NONE',  ( -1.000000000000000000, -0.000000000000000000, -0.000000000000000000 ) ) ;
#118 = FACE_OUTER_BOUND ( 'NONE', #721, .T. ) ;
#119 = DIRECTION ( 'NONE',  ( 1.000000000000000000, -0.000000000000000000, -0.000000000000000000 ) ) ;
#120 = SURFACE_STYLE_USAGE ( .BOTH. , #812 ) ;
#121 = DIRECTION ( 'NONE',  ( -2.503561332509937534E-16, -0.6923076923076925127, -0.7216024245882198818 ) ) ;
#122 = DIRECTION ( 'NONE',  ( -1.000000000000000000, -0.000000000000000000, -0.000000000000000000 ) ) ;
#123 = TOROIDAL_SURFACE ( 'NONE', #540, 8.499999999999998224, 2.500000000000000000 ) ;
#124 = CARTESIAN_POINT ( 'NONE',  ( 0.000000000000000000, 14.00000000000000000, 0.000000000000000000 ) ) ;
#125 = VERTEX_POINT ( 'NONE', #969 ) ;
#126 = DIRECTION ( 'NONE',  ( -0.000000000000000000, 0.9893885927933614433, 0.1452935389147497758 ) ) ;
#127 = DIRECTION ( 'NONE',  ( 1.000000000000000000, 0.000000000000000000, 0.000000000000000000 ) ) ;
#128 = CARTESIAN_POINT ( 'NONE',  ( 0.5000000000000000000, 12.06237332952957431, -7.615384615384606981 ) ) ;
#129 = DIRECTION ( 'NONE',  ( 1.000000000000000000, 0.000000000000000000, 0.000000000000000000 ) ) ;
#130 = ORIENTED_EDGE ( 'NONE', *, *, #717, .T. ) ;
#131 = EDGE_CURVE ( 'NONE', #269, #995, #895, .T. ) ;
#132 = CARTESIAN_POINT ( 'NONE',  ( -1.305992856809298663, 10.62861619965084437, -6.872192215394094639 ) ) ;
#133 = FACE_OUTER_BOUND ( 'NONE', #945, .T. ) ;
#134 = CARTESIAN_POINT ( 'NONE',  ( 3.000000000000000000, 20.00000000000000000, -11.00000000000000000 ) ) ;
#135 = ORIENTED_EDGE ( 'NONE', *, *, #43, .T. ) ;
#136 = APPLICATION_CONTEXT ( 'automotive_design' ) ;
#137 = LINE ( 'NONE', #77, #939 ) ;
#138 = CARTESIAN_POINT ( 'NONE',  ( 2.000000000000000000, 20.00000000000000000, 4.000000000000000000 ) ) ;
#139 = FACE_OUTER_BOUND ( 'NONE', #392, .T. ) ;
#140 = ORIENTED_EDGE ( 'NONE', *, *, #84, .T. ) ;
#141 = DIRECTION ( 'NONE',  ( 1.000000000000000000, 0.000000000000000000, 0.000000000000000000 ) ) ;
#142 = VECTOR ( 'NONE', #826, 1000.000000000000000 ) ;
#143 = CARTESIAN_POINT ( 'NONE',  ( 1.964466094067262469, -2.999999999999998668, 5.000000000000000888 ) ) ;
#144 = VECTOR ( 'NONE', #227, 1000.000000000000000 ) ;
#145 = EDGE_CURVE ( 'NONE', #585, #683, #295, .T. ) ;
#146 = AXIS2_PLACEMENT_3D ( 'NONE', #641, #959, #394 ) ;
#147 = CARTESIAN_POINT ( 'NONE',  ( 1.305936597554885559, 10.62861482740910546, -6.872210553700800695 ) ) ;
#148 = ORIENTED_EDGE ( 'NONE', *, *, #784, .T. ) ;
#149 = CARTESIAN_POINT ( 'NONE',  ( -0.4999999999999995559, 10.98240232764001512, 4.526528518016596614 ) ) ;
#150 = PRODUCT_RELATED_PRODUCT_CATEGORY ( 'part', '', ( #506 ) ) ;
#151 = CARTESIAN_POINT ( 'NONE',  ( -2.933674586154134012, 10.77497574272925007, 5.161177510749683783 ) ) ;
#152 = CARTESIAN_POINT ( 'NONE',  ( 2.486405159748982019, 10.69713296300471406, 6.027831063582672400 ) ) ;
#153 = ORIENTED_EDGE ( 'NONE', *, *, #329, .F. ) ;
#154 = CARTESIAN_POINT ( 'NONE',  ( -3.000000000000000000, 20.00000000000000000, 0.000000000000000000 ) ) ;
#155 = ORIENTED_EDGE ( 'NONE', *, *, #796, .T. ) ;
#156 = ORIENTED_EDGE ( 'NONE', *, *, #88, .T. ) ;
#157 = EDGE_CURVE ( 'NONE', #786, #2, #619, .T. ) ;
#158 =( NAMED_UNIT ( * ) SI_UNIT ( $, .STERADIAN. ) SOLID_ANGLE_UNIT ( ) );
#159 = CIRCLE ( 'NONE', #476, 8.499999999999998224 ) ;
#160 = CARTESIAN_POINT ( 'NONE',  ( 3.000000000000000000, 20.00000000000000000, 0.000000000000000000 ) ) ;
#161 = ORIENTED_EDGE ( 'NONE', *, *, #559, .F. ) ;
#162 = EDGE_LOOP ( 'NONE', ( #541, #934, #293, #631 ) ) ;
#163 = EDGE_CURVE ( 'NONE', #281, #2, #208, .T. ) ;
#164 = COLOUR_RGB ( '',0.7921568627450980005, 0.8196078431372548767, 0.9333333333333333481 ) ;
#165 = DIRECTION ( 'NONE',  ( 0.000000000000000000, 0.6923076923076962874, -0.7216024245882162180 ) ) ;
#166 = DIRECTION ( 'NONE',  ( 0.000000000000000000, 0.000000000000000000, 1.000000000000000000 ) ) ;
#167 = ORIENTED_EDGE ( 'NONE', *, *, #851, .T. ) ;
#168 = DIRECTION ( 'NONE',  ( 0.000000000000000000, 0.000000000000000000, 1.000000000000000000 ) ) ;
#169 = CARTESIAN_POINT ( 'NONE',  ( -0.4999999999999995559, 10.61916848035313876, -7.000000000000000000 ) ) ;
#170 = VERTEX_POINT ( 'NONE', #913 ) ;
#171 = EDGE_LOOP ( 'NONE', ( #568, #622, #835, #297 ) ) ;
#172 = CARTESIAN_POINT ( 'NONE',  ( 0.5000000000000000000, 20.00000000000000000, -8.499999999999998224 ) ) ;
#173 = AXIS2_PLACEMENT_3D ( 'NONE', #713, #644, #31 ) ;
#174 = CARTESIAN_POINT ( 'NONE',  ( -0.5000000000000000000, 20.00000000000000000, 0.000000000000000000 ) ) ;
#175 = EDGE_CURVE ( 'NONE', #900, #830, #837, .T. ) ;
#176 = ORIENTED_EDGE ( 'NONE', *, *, #566, .F. ) ;
#177 = CARTESIAN_POINT ( 'NONE',  ( 3.000000000000000000, 10.61916848035313876, -9.000000000000001776 ) ) ;
#178 = CARTESIAN_POINT ( 'NONE',  ( -0.5000000000000000000, 10.61916848035313876, -9.000000000000001776 ) ) ;
#179 = AXIS2_PLACEMENT_3D ( 'NONE', #294, #601, #676 ) ;
#180 = CARTESIAN_POINT ( 'NONE',  ( 3.000000000000000000, -3.000000000000000000, -7.000000000000000000 ) ) ;
#181 = ORIENTED_EDGE ( 'NONE', *, *, #157, .T. ) ;
#182 = CARTESIAN_POINT ( 'NONE',  ( 3.000000000000000000, -3.000000000000000000, -2.473186957874966563 ) ) ;
#183 = CARTESIAN_POINT ( 'NONE',  ( -3.000000000000000000, 20.00000000000000000, -8.499999999999998224 ) ) ;
#184 = CARTESIAN_POINT ( 'NONE',  ( 3.000000000000000000, -2.999999999999998668, -3.953359768370592775 ) ) ;
#185 = VERTEX_POINT ( 'NONE', #673 ) ;
#186 = ADVANCED_FACE ( 'NONE', ( #435 ), #765, .F. ) ;
#187 = LINE ( 'NONE', #803, #110 ) ;
#188 = CARTESIAN_POINT ( 'NONE',  ( 0.5000000000000000000, 20.00000000000000000, -11.00000000000000000 ) ) ;
#189 = VECTOR ( 'NONE', #578, 1000.000000000000000 ) ;
#190 = ORIENTED_EDGE ( 'NONE', *, *, #832, .F. ) ;
#191 = ORIENTED_EDGE ( 'NONE', *, *, #43, .F. ) ;
#192 = AXIS2_PLACEMENT_3D ( 'NONE', #345, #369, #198 ) ;
#193 = CIRCLE ( 'NONE', #314, 2.500000000000000444 ) ;
#194 = EDGE_CURVE ( 'NONE', #709, #320, #299, .T. ) ;
#195 = CARTESIAN_POINT ( 'NONE',  ( 0.000000000000000000, -10.00000000000000000, 1.550000000000000044 ) ) ;
#196 = CARTESIAN_POINT ( 'NONE',  ( 3.000000000000000000, -3.000000000000000000, -2.473186957874966563 ) ) ;
#197 = DIRECTION ( 'NONE',  ( 1.000000000000000000, -0.000000000000000000, -0.000000000000000000 ) ) ;
#198 = DIRECTION ( 'NONE',  ( 0.000000000000000000, 0.9893885927933614433, 0.1452935389147497758 ) ) ;
#199 = CARTESIAN_POINT ( 'NONE',  ( 0.4999999999999995559, -3.000000000000000000, -5.000000000000000000 ) ) ;
#200 = ORIENTED_EDGE ( 'NONE', *, *, #856, .F. ) ;
#201 = CARTESIAN_POINT ( 'NONE',  ( -3.000000000000000000, 10.83801205317479166, -4.505324540009640444 ) ) ;
#202 = CARTESIAN_POINT ( 'NONE',  ( 2.983839136030415062, 10.80634380568878861, 4.832267883877243264 ) ) ;
#203 = DIRECTION ( 'NONE',  ( 1.000000000000000000, 0.000000000000000000, 0.000000000000000000 ) ) ;
#204 = ADVANCED_FACE ( 'NONE', ( #842 ), #428, .T. ) ;
#205 = CARTESIAN_POINT ( 'NONE',  ( 2.999999999999999556, 10.80614492765127110, -4.832333946965783333 ) ) ;
#206 = VERTEX_POINT ( 'NONE', #220 ) ;
#207 = AXIS2_PLACEMENT_3D ( 'NONE', #177, #482, #101 ) ;
#208 = CIRCLE ( 'NONE', #705, 2.000000000000001776 ) ;
#209 = DIRECTION ( 'NONE',  ( 0.000000000000000000, 0.000000000000000000, 1.000000000000000000 ) ) ;
#210 = DIRECTION ( 'NONE',  ( 1.000000000000000000, -0.000000000000000000, -0.000000000000000000 ) ) ;
#211 = AXIS2_PLACEMENT_3D ( 'NONE', #874, #253, #488 ) ;
#212 = DIRECTION ( 'NONE',  ( -1.000000000000000000, 0.000000000000000000, 0.000000000000000000 ) ) ;
#213 = AXIS2_PLACEMENT_3D ( 'NONE', #637, #407, #484 ) ;
#214 = DIRECTION ( 'NONE',  ( -1.000000000000000000, -0.000000000000000000, -0.000000000000000000 ) ) ;
#215 = VECTOR ( 'NONE', #882, 1000.000000000000000 ) ;
#216 = EDGE_CURVE ( 'NONE', #231, #537, #289, .T. ) ;
#217 = ORIENTED_EDGE ( 'NONE', *, *, #279, .F. ) ;
#218 =( NAMED_UNIT ( * ) SI_UNIT ( $, .STERADIAN. ) SOLID_ANGLE_UNIT ( ) );
#219 = PLANE ( 'NONE',  #192 ) ;
#220 = CARTESIAN_POINT ( 'NONE',  ( -0.5000000000000000000, 20.00000000000000000, -11.00000000000000000 ) ) ;
#221 = ORIENTED_EDGE ( 'NONE', *, *, #113, .F. ) ;
#222 = EDGE_CURVE ( 'NONE', #260, #785, #888, .T. ) ;
#223 = CARTESIAN_POINT ( 'NONE',  ( -1.305936597554885781, 10.62861482740911612, 6.872210553700803359 ) ) ;
#224 = CARTESIAN_POINT ( 'NONE',  ( 0.6651951346974046553, 10.61916848035313876, -6.999999999999999112 ) ) ;
#225 = SHAPE_DEFINITION_REPRESENTATION ( #782, #877 ) ;
#226 = EDGE_CURVE ( 'NONE', #597, #206, #829, .T. ) ;
#227 = DIRECTION ( 'NONE',  ( 0.000000000000000000, 1.000000000000000000, 0.000000000000000000 ) ) ;
#228 = TOROIDAL_SURFACE ( 'NONE', #497, 4.500000000000000888, 2.500000000000000000 ) ;
#229 = CARTESIAN_POINT ( 'NONE',  ( 2.486305163637136495, 10.69712190533762630, -6.027959472165785648 ) ) ;
#230 = CARTESIAN_POINT ( 'NONE',  ( 2.152502136727850957, 10.66715773760467734, 6.383457958875150773 ) ) ;
#231 = VERTEX_POINT ( 'NONE', #834 ) ;
#232 = LINE ( 'NONE', #236, #675 ) ;
#233 = ADVANCED_FACE ( 'NONE', ( #139 ), #760, .F. ) ;
#234 = ORIENTED_EDGE ( 'NONE', *, *, #941, .F. ) ;
#235 = ORIENTED_EDGE ( 'NONE', *, *, #520, .T. ) ;
#236 = CARTESIAN_POINT ( 'NONE',  ( -0.4999999999999995559, -3.000000000000001776, 5.000000000000000888 ) ) ;
#237 = EDGE_CURVE ( 'NONE', #330, #995, #370, .T. ) ;
#238 = EDGE_LOOP ( 'NONE', ( #926, #342, #429, #348 ) ) ;
#239 = ORIENTED_EDGE ( 'NONE', *, *, #955, .F. ) ;
#240 = AXIS2_PLACEMENT_3D ( 'NONE', #172, #487, #723 ) ;
#241 = DIRECTION ( 'NONE',  ( -1.000000000000000000, -0.000000000000000000, -0.000000000000000000 ) ) ;
#242 = VECTOR ( 'NONE', #980, 1000.000000000000000 ) ;
#243 = AXIS2_PLACEMENT_3D ( 'NONE', #78, #382, #549 ) ;
#244 = ORIENTED_EDGE ( 'NONE', *, *, #442, .F. ) ;
#245 = VECTOR ( 'NONE', #809, 1000.000000000000000 ) ;
#246 = LINE ( 'NONE', #552, #577 ) ;
#247 = DIRECTION ( 'NONE',  ( 0.000000000000000000, 0.7216024245882167731, 0.6923076923076956213 ) ) ;
#248 = VERTEX_POINT ( 'NONE', #291 ) ;
#249 = ORIENTED_EDGE ( 'NONE', *, *, #380, .T. ) ;
#250 = ADVANCED_FACE ( 'NONE', ( #583 ), #526, .T. ) ;
#251 = DIRECTION ( 'NONE',  ( 0.000000000000000000, 0.7216024245882158850, 0.6923076923076965095 ) ) ;
#252 = UNCERTAINTY_MEASURE_WITH_UNIT (LENGTH_MEASURE( 1.000000000000000082E-05 ), #461, 'distance_accuracy_value', 'NONE');
#253 = DIRECTION ( 'NONE',  ( -1.000000000000000000, 0.000000000000000000, 0.000000000000000000 ) ) ;
#254 = ORIENTED_EDGE ( 'NONE', *, *, #55, .T. ) ;
#255 = DIRECTION ( 'NONE',  ( -1.000000000000000000, 0.000000000000000000, 0.000000000000000000 ) ) ;
#256 = CIRCLE ( 'NONE', #818, 4.000000000000000000 ) ;
#257 = FACE_OUTER_BOUND ( 'NONE', #408, .T. ) ;
#258 = AXIS2_PLACEMENT_3D ( 'NONE', #468, #836, #247 ) ;
#259 = ORIENTED_EDGE ( 'NONE', *, *, #512, .F. ) ;
#260 = VERTEX_POINT ( 'NONE', #894 ) ;
#261 = DIRECTION ( 'NONE',  ( -1.000000000000000000, 0.000000000000000000, 0.000000000000000000 ) ) ;
#262 = DIRECTION ( 'NONE',  ( 0.000000000000000000, 0.000000000000000000, -1.000000000000000000 ) ) ;
#263 = ADVANCED_FACE ( 'NONE', ( #118 ), #47, .T. ) ;
#264 = DIRECTION ( 'NONE',  ( -1.000000000000000000, 0.000000000000000000, 0.000000000000000000 ) ) ;
#265 = ORIENTED_EDGE ( 'NONE', *, *, #512, .T. ) ;
#266 = CARTESIAN_POINT ( 'NONE',  ( 3.000000000000000000, 10.61916848035313876, 9.000000000000001776 ) ) ;
#267 = DIRECTION ( 'NONE',  ( 0.000000000000000000, 0.000000000000000000, -1.000000000000000000 ) ) ;
#268 = CYLINDRICAL_SURFACE ( 'NONE', #909, 2.000000000000001776 ) ;
#269 = VERTEX_POINT ( 'NONE', #439 ) ;
#270 = CARTESIAN_POINT ( 'NONE',  ( -3.000000000000000000, 13.86637939100011607, -5.884615384615369038 ) ) ;
#271 = CARTESIAN_POINT ( 'NONE',  ( 2.023924743876665211, 10.65857853405574396, 6.488851728264024565 ) ) ;
#272 = CIRCLE ( 'NONE', #412, 5.000000000000000888 ) ;
#273 = PLANE ( 'NONE',  #463 ) ;
#274 = CARTESIAN_POINT ( 'NONE',  ( -1.147206524550166806, 10.62504000759977529, -6.920267885248406969 ) ) ;
#275 = CARTESIAN_POINT ( 'NONE',  ( -1.752163268244285366, 10.64412973733416123, 6.670093613166008240 ) ) ;
#276 = DIRECTION ( 'NONE',  ( 0.000000000000000000, 0.000000000000000000, 1.000000000000000000 ) ) ;
#277 = ORIENTED_EDGE ( 'NONE', *, *, #559, .T. ) ;
#278 = CARTESIAN_POINT ( 'NONE',  ( 2.871392845473937250, 10.76131760554177497, 5.310782155855543252 ) ) ;
#279 = EDGE_CURVE ( 'NONE', #854, #465, #741, .T. ) ;
#280 = DIRECTION ( 'NONE',  ( -1.000000000000000000, 0.000000000000000000, 0.000000000000000000 ) ) ;
#281 = VERTEX_POINT ( 'NONE', #128 ) ;
#282 = CARTESIAN_POINT ( 'NONE',  ( -2.023924743876665211, 10.65857853405573152, -6.488851728264021901 ) ) ;
#283 = CARTESIAN_POINT ( 'NONE',  ( 1.305992856809298663, 10.62861619965085680, 6.872192215394095527 ) ) ;
#284 = CARTESIAN_POINT ( 'NONE',  ( -3.000000000000000000, 20.00000000000000000, 0.000000000000000000 ) ) ;
#285 = DIRECTION ( 'NONE',  ( -1.000000000000000000, -0.000000000000000000, -0.000000000000000000 ) ) ;
#286 = DIRECTION ( 'NONE',  ( 1.000000000000000000, 0.000000000000000000, 0.000000000000000000 ) ) ;
#287 = FACE_BOUND ( 'NONE', #604, .T. ) ;
#288 = CIRCLE ( 'NONE', #213, 4.000000000000000000 ) ;
#289 = LINE ( 'NONE', #440, #672 ) ;
#290 = ADVANCED_FACE ( 'NONE', ( #678 ), #951, .T. ) ;
#291 = CARTESIAN_POINT ( 'NONE',  ( 1.898202538678397459E-16, 14.00000000000000000, -1.550000000000000044 ) ) ;
#292 = DIRECTION ( 'NONE',  ( 0.000000000000000000, 0.000000000000000000, 1.000000000000000000 ) ) ;
#293 = ORIENTED_EDGE ( 'NONE', *, *, #472, .T. ) ;
#294 = CARTESIAN_POINT ( 'NONE',  ( 3.000000000000000000, 20.00000000000000000, 0.000000000000000000 ) ) ;
#295 = LINE ( 'NONE', #972, #640 ) ;
#296 = DIRECTION ( 'NONE',  ( 0.000000000000000000, -1.000000000000000000, 0.000000000000000000 ) ) ;
#297 = ORIENTED_EDGE ( 'NONE', *, *, #680, .T. ) ;
#298 = CARTESIAN_POINT ( 'NONE',  ( -0.4999999999999995559, 10.61916848035313876, 7.000000000000000000 ) ) ;
#299 = CIRCLE ( 'NONE', #366, 2.500000000000000444 ) ;
#300 = CYLINDRICAL_SURFACE ( 'NONE', #94, 1.550000000000000044 ) ;
#301 = AXIS2_PLACEMENT_3D ( 'NONE', #962, #197, #209 ) ;
#302 = ORIENTED_EDGE ( 'NONE', *, *, #856, .T. ) ;
#303 = CIRCLE ( 'NONE', #97, 4.000000000000000000 ) ;
#304 = CARTESIAN_POINT ( 'NONE',  ( -0.5000000000000000000, 12.06237332952957431, -7.615384615384606981 ) ) ;
#305 = AXIS2_PLACEMENT_3D ( 'NONE', #831, #757, #141 ) ;
#306 = CYLINDRICAL_SURFACE ( 'NONE', #983, 11.00000000000000000 ) ;
#307 = ADVANCED_FACE ( 'NONE', ( #916 ), #219, .F. ) ;
#308 = EDGE_LOOP ( 'NONE', ( #940, #239, #930, #74 ) ) ;
#309 = LINE ( 'NONE', #681, #968 ) ;
#310 = ORIENTED_EDGE ( 'NONE', *, *, #216, .T. ) ;
#311 = VECTOR ( 'NONE', #718, 1000.000000000000000 ) ;
#312 = CARTESIAN_POINT ( 'NONE',  ( 0.5000000000000000000, 13.86637939100013206, 5.884615384615385025 ) ) ;
#313 = CARTESIAN_POINT ( 'NONE',  ( -3.000000000000000000, 20.00000000000000000, 5.000000000000000888 ) ) ;
#314 = AXIS2_PLACEMENT_3D ( 'NONE', #645, #418, #804 ) ;
#315 = EDGE_LOOP ( 'NONE', ( #464, #674, #632, #728 ) ) ;
#316 = ADVANCED_FACE ( 'NONE', ( #655 ), #805, .T. ) ;
#317 =( GEOMETRIC_REPRESENTATION_CONTEXT ( 3 ) GLOBAL_UNCERTAINTY_ASSIGNED_CONTEXT ( ( #252 ) ) GLOBAL_UNIT_ASSIGNED_CONTEXT ( ( #461, #441, #218 ) ) REPRESENTATION_CONTEXT ( 'NONE', 'WORKASPACE' ) );
#318 = DIRECTION ( 'NONE',  ( 1.000000000000000000, 0.000000000000000000, 0.000000000000000000 ) ) ;
#319 = DIRECTION ( 'NONE',  ( -1.000000000000000000, 0.000000000000000000, 0.000000000000000000 ) ) ;
#320 = VERTEX_POINT ( 'NONE', #982 ) ;
#321 = ORIENTED_EDGE ( 'NONE', *, *, #941, .T. ) ;
#322 = EDGE_CURVE ( 'NONE', #507, #925, #67, .T. ) ;
#323 = CARTESIAN_POINT ( 'NONE',  ( 2.000000000000000000, 20.00000000000000000, 0.000000000000000000 ) ) ;
#324 = CARTESIAN_POINT ( 'NONE',  ( 3.000000000000000000, 20.00000000000000000, 0.000000000000000000 ) ) ;
#325 = CARTESIAN_POINT ( 'NONE',  ( 3.000000000000000000, 10.83801205317473837, 4.505324540010183121 ) ) ;
#326 = ORIENTED_EDGE ( 'NONE', *, *, #851, .F. ) ;
#327 = CARTESIAN_POINT ( 'NONE',  ( 0.4999999999999995559, 10.61916848035314054, 7.000000000000000000 ) ) ;
#328 = CARTESIAN_POINT ( 'NONE',  ( -3.000000000000000000, 10.83801205317479166, -4.505324540009640444 ) ) ;
#329 = EDGE_CURVE ( 'NONE', #269, #260, #596, .T. ) ;
#330 = VERTEX_POINT ( 'NONE', #592 ) ;
#331 = ORIENTED_EDGE ( 'NONE', *, *, #745, .F. ) ;
#332 = AXIS2_PLACEMENT_3D ( 'NONE', #174, #478, #788 ) ;
#333 = CIRCLE ( 'NONE', #729, 1.550000000000000044 ) ;
#334 = CARTESIAN_POINT ( 'NONE',  ( -3.000000000000000000, -2.636766152713127198, -2.526528518016596614 ) ) ;
#335 = CARTESIAN_POINT ( 'NONE',  ( -3.000000000000000000, -3.000000000000000000, -2.473186957874966563 ) ) ;
#336 = ADVANCED_FACE ( 'NONE', ( #133 ), #62, .F. ) ;
#337 = ORIENTED_EDGE ( 'NONE', *, *, #684, .T. ) ;
#338 = ORIENTED_EDGE ( 'NONE', *, *, #466, .T. ) ;
#339 = CARTESIAN_POINT ( 'NONE',  ( -2.152502136727851845, 10.66715773760465780, -6.383457958875148996 ) ) ;
#340 = FACE_OUTER_BOUND ( 'NONE', #950, .T. ) ;
#341 = ORIENTED_EDGE ( 'NONE', *, *, #690, .F. ) ;
#342 = ORIENTED_EDGE ( 'NONE', *, *, #573, .F. ) ;
#343 = CARTESIAN_POINT ( 'NONE',  ( -2.983839136030415951, 10.80634380568878150, -4.832267883877244152 ) ) ;
#344 = CARTESIAN_POINT ( 'NONE',  ( -2.999999999999998668, -2.999999999999998668, -3.953359768370592775 ) ) ;
#345 = CARTESIAN_POINT ( 'NONE',  ( 7.000000000000000000, 10.61916848035313876, 7.000000000000000000 ) ) ;
#346 = VECTOR ( 'NONE', #63, 1000.000000000000000 ) ;
#347 = DIRECTION ( 'NONE',  ( 0.000000000000000000, 0.000000000000000000, 1.000000000000000000 ) ) ;
#348 = ORIENTED_EDGE ( 'NONE', *, *, #543, .F. ) ;
#349 = ADVANCED_FACE ( 'NONE', ( #427, #287 ), #740, .T. ) ;
#350 = AXIS2_PLACEMENT_3D ( 'NONE', #863, #107, #636 ) ;
#351 = CARTESIAN_POINT ( 'NONE',  ( -4.000000000000000000, 20.00000000000000000, 4.000000000000000000 ) ) ;
#352 = STYLED_ITEM ( 'NONE', ( #425 ), #938 ) ;
#353 = CARTESIAN_POINT ( 'NONE',  ( -2.023831121459320315, 10.65857282809914608, 6.488922389259303536 ) ) ;
#354 = VERTEX_POINT ( 'NONE', #138 ) ;
#355 = ADVANCED_FACE ( 'NONE', ( #691, #447 ), #762, .T. ) ;
#356 = CARTESIAN_POINT ( 'NONE',  ( -1.752244171267349326, 10.64413331040650412, -6.670047880475773461 ) ) ;
#357 = CARTESIAN_POINT ( 'NONE',  ( -0.6651951346974046553, 10.61916848035314054, 7.000000000000000000 ) ) ;
#358 = DIRECTION ( 'NONE',  ( 0.000000000000000000, 0.1452935389147501088, -0.9893885927933613322 ) ) ;
#359 = EDGE_LOOP ( 'NONE', ( #181, #551, #546, #200 ) ) ;
#360 = LINE ( 'NONE', #195, #142 ) ;
#361 = CARTESIAN_POINT ( 'NONE',  ( 7.000000000000000000, -3.000000000000000000, -5.000000000000000000 ) ) ;
#362 = CARTESIAN_POINT ( 'NONE',  ( 2.000000000000000000, 20.00000000000000000, 0.000000000000000000 ) ) ;
#363 = EDGE_CURVE ( 'NONE', #125, #248, #920, .T. ) ;
#364 = CARTESIAN_POINT ( 'NONE',  ( 3.000000000000000000, 10.83801205317470995, -4.505324540010179568 ) ) ;
#365 = ORIENTED_EDGE ( 'NONE', *, *, #605, .F. ) ;
#366 = AXIS2_PLACEMENT_3D ( 'NONE', #72, #921, #371 ) ;
#367 = DIRECTION ( 'NONE',  ( 0.000000000000000000, 0.000000000000000000, 1.000000000000000000 ) ) ;
#368 = CIRCLE ( 'NONE', #708, 8.499999999999998224 ) ;
#369 = DIRECTION ( 'NONE',  ( 0.000000000000000000, 0.1452935389147498035, -0.9893885927933615543 ) ) ;
#370 = B_SPLINE_CURVE_WITH_KNOTS ( 'NONE', 3,
 ( #378, #687, #151, #452, #76, #770, #898, #987, #353, #275, #66, #223, #754, #735, #357, #971 ),
 .UNSPECIFIED., .F., .F.,
 ( 4, 2, 2, 2, 2, 2, 2, 4 ),
 ( -3.210776887366397847E-05, 0.0009535474037427884523, 0.001446374990051014532, 0.001939202576359240829, 0.002432030162667467126, 0.002924857748975692989, 0.003417685335283919285, 0.003910512921592145148 ),
 .UNSPECIFIED. ) ;
#371 = DIRECTION ( 'NONE',  ( 0.000000000000000000, 0.000000000000000000, -1.000000000000000000 ) ) ;
#372 = CIRCLE ( 'NONE', #399, 2.500000000000000000 ) ;
#373 = AXIS2_PLACEMENT_3D ( 'NONE', #581, #840, #910 ) ;
#374 = CARTESIAN_POINT ( 'NONE',  ( 0.4999999999999995559, -3.000000000000000000, 5.000000000000000000 ) ) ;
#375 = CARTESIAN_POINT ( 'NONE',  ( 2.152404855853030430, 10.66715081762692563, -6.383542253709360459 ) ) ;
#376 = ORIENTED_EDGE ( 'NONE', *, *, #908, .T. ) ;
#377 = CARTESIAN_POINT ( 'NONE',  ( 0.000000000000000000, -10.00000000000000000, 0.000000000000000000 ) ) ;
#378 = CARTESIAN_POINT ( 'NONE',  ( -3.000000000000000000, 10.83801205317473659, 4.505324540010183121 ) ) ;
#379 = EDGE_LOOP ( 'NONE', ( #612, #265, #89, #527 ) ) ;
#380 = EDGE_CURVE ( 'NONE', #946, #925, #838, .T. ) ;
#381 = AXIS2_PLACEMENT_3D ( 'NONE', #362, #122, #670 ) ;
#382 = DIRECTION ( 'NONE',  ( -1.000000000000000000, 0.000000000000000000, 0.000000000000000000 ) ) ;
#383 = ORIENTED_EDGE ( 'NONE', *, *, #784, .F. ) ;
#384 = VERTEX_POINT ( 'NONE', #853 ) ;
#385 = DIRECTION ( 'NONE',  ( -1.000000000000000000, 0.000000000000000000, 0.000000000000000000 ) ) ;
#386 = ORIENTED_EDGE ( 'NONE', *, *, #55, .F. ) ;
#387 = ORIENTED_EDGE ( 'NONE', *, *, #929, .F. ) ;
#388 = DIRECTION ( 'NONE',  ( -1.000000000000000000, -0.000000000000000000, -0.000000000000000000 ) ) ;
#389 = DIRECTION ( 'NONE',  ( -1.000000000000000000, 0.000000000000000000, 0.000000000000000000 ) ) ;
#390 = ADVANCED_FACE ( 'NONE', ( #71 ), #306, .T. ) ;
#391 = EDGE_LOOP ( 'NONE', ( #457, #825 ) ) ;
#392 = EDGE_LOOP ( 'NONE', ( #337, #519, #191, #623 ) ) ;
#393 = DIRECTION ( 'NONE',  ( 0.000000000000000000, 0.7216024245882201038, -0.6923076923076922906 ) ) ;
#394 = DIRECTION ( 'NONE',  ( 0.000000000000000000, 0.000000000000000000, 1.000000000000000000 ) ) ;
#395 = ADVANCED_FACE ( 'NONE', ( #615 ), #9, .T. ) ;
#396 = ORIENTED_EDGE ( 'NONE', *, *, #322, .F. ) ;
#397 = ORIENTED_EDGE ( 'NONE', *, *, #929, .T. ) ;
#398 = AXIS2_PLACEMENT_3D ( 'NONE', #553, #401, #22 ) ;
#399 = AXIS2_PLACEMENT_3D ( 'NONE', #503, #121, #753 ) ;
#400 = CARTESIAN_POINT ( 'NONE',  ( 3.000000000000000000, 20.00000000000000000, 0.000000000000000000 ) ) ;
#401 = DIRECTION ( 'NONE',  ( 1.000000000000000000, -0.000000000000000000, -0.000000000000000000 ) ) ;
#402 = ORIENTED_EDGE ( 'NONE', *, *, #194, .T. ) ;
#403 = ORIENTED_EDGE ( 'NONE', *, *, #222, .F. ) ;
#404 = ADVANCED_FACE ( 'NONE', ( #1 ), #706, .T. ) ;
#405 = CARTESIAN_POINT ( 'NONE',  ( -3.000000000000000000, 20.00000000000000000, 0.000000000000000000 ) ) ;
#406 = DIRECTION ( 'NONE',  ( 0.000000000000000000, 0.000000000000000000, 1.000000000000000000 ) ) ;
#407 = DIRECTION ( 'NONE',  ( -1.000000000000000000, -0.000000000000000000, -0.000000000000000000 ) ) ;
#408 = EDGE_LOOP ( 'NONE', ( #135, #254 ) ) ;
#409 = EDGE_CURVE ( 'NONE', #170, #795, #986, .T. ) ;
#410 = DIRECTION ( 'NONE',  ( 0.000000000000000000, 0.000000000000000000, -1.000000000000000000 ) ) ;
#411 = CARTESIAN_POINT ( 'NONE',  ( -0.4999999999999995559, -3.000000000000000000, 5.000000000000000000 ) ) ;
#412 = AXIS2_PLACEMENT_3D ( 'NONE', #405, #26, #808 ) ;
#413 = AXIS2_PLACEMENT_3D ( 'NONE', #748, #203, #602 ) ;
#414 = CARTESIAN_POINT ( 'NONE',  ( 3.000000000000000000, 0.000000000000000000, 0.000000000000000000 ) ) ;
#415 = ORIENTED_EDGE ( 'NONE', *, *, #936, .F. ) ;
#416 = CARTESIAN_POINT ( 'NONE',  ( -0.4999999999999995559, 10.61916848035313876, -7.000000000000000000 ) ) ;
#417 = MECHANICAL_DESIGN_GEOMETRIC_PRESENTATION_REPRESENTATION (  '', ( #352 ), #911 ) ;
#418 = DIRECTION ( 'NONE',  ( 0.000000000000000000, 1.000000000000000000, 1.224646799147353207E-16 ) ) ;
#419 = CARTESIAN_POINT ( 'NONE',  ( 2.000000000000000000, 20.00000000000000000, 0.000000000000000000 ) ) ;
#420 = ORIENTED_EDGE ( 'NONE', *, *, #924, .T. ) ;
#421 = CARTESIAN_POINT ( 'NONE',  ( 0.000000000000000000, -3.000000000000000000, 0.000000000000000000 ) ) ;
#422 = CARTESIAN_POINT ( 'NONE',  ( 2.669106970968365911, 10.72099660436088975, 5.755365098331712836 ) ) ;
#423 = ADVANCED_FACE ( 'NONE', ( #625 ), #300, .F. ) ;
#424 = FACE_OUTER_BOUND ( 'NONE', #315, .T. ) ;
#425 = PRESENTATION_STYLE_ASSIGNMENT (( #120 ) ) ;
#426 = FACE_OUTER_BOUND ( 'NONE', #359, .T. ) ;
#427 = FACE_OUTER_BOUND ( 'NONE', #59, .T. ) ;
#428 = CYLINDRICAL_SURFACE ( 'NONE', #821, 2.500000000000000444 ) ;
#429 = ORIENTED_EDGE ( 'NONE', *, *, #646, .T. ) ;
#430 = CARTESIAN_POINT ( 'NONE',  ( 0.5000000000000000000, 20.00000000000000000, 8.499999999999998224 ) ) ;
#431 = DIRECTION ( 'NONE',  ( 0.000000000000000000, 0.000000000000000000, -1.000000000000000000 ) ) ;
#432 = PRESENTATION_LAYER_ASSIGNMENT (  '', '', ( #352 ) ) ;
#433 = DIRECTION ( 'NONE',  ( 0.000000000000000000, -0.9893885927933615543, 0.1452935389147498035 ) ) ;
#434 = TOROIDAL_SURFACE ( 'NONE', #563, 8.499999999999998224, 2.500000000000000000 ) ;
#435 = FACE_OUTER_BOUND ( 'NONE', #162, .T. ) ;
#436 = ORIENTED_EDGE ( 'NONE', *, *, #832, .T. ) ;
#437 = CARTESIAN_POINT ( 'NONE',  ( 2.000000000000000000, 20.00000000000000000, -4.000000000000000000 ) ) ;
#438 = EDGE_CURVE ( 'NONE', #465, #185, #309, .T. ) ;
#439 = CARTESIAN_POINT ( 'NONE',  ( 0.4999999999999995559, 10.61916848035313876, 7.000000000000000000 ) ) ;
#440 = CARTESIAN_POINT ( 'NONE',  ( -0.4999999999999995559, 10.61916848035314054, -7.000000000000000000 ) ) ;
#441 =( NAMED_UNIT ( * ) PLANE_ANGLE_UNIT ( ) SI_UNIT ( $, .RADIAN. ) );
#442 = EDGE_CURVE ( 'NONE', #995, #985, #232, .T. ) ;
#443 = DIRECTION ( 'NONE',  ( 0.000000000000000000, 0.000000000000000000, -1.000000000000000000 ) ) ;
#444 = DIRECTION ( 'NONE',  ( -0.000000000000000000, 0.1452935389147498035, 0.9893885927933615543 ) ) ;
#445 = AXIS2_PLACEMENT_3D ( 'NONE', #149, #697, #923 ) ;
#446 = CIRCLE ( 'NONE', #657, 2.000000000000001776 ) ;
#447 = FACE_BOUND ( 'NONE', #694, .T. ) ;
#448 = CARTESIAN_POINT ( 'NONE',  ( 2.746613384497969435, 10.73394359432671408, -5.610616436912907901 ) ) ;
#449 = TOROIDAL_SURFACE ( 'NONE', #17, 4.500000000000002665, 2.500000000000000000 ) ;
#450 = ORIENTED_EDGE ( 'NONE', *, *, #759, .T. ) ;
#451 = CYLINDRICAL_SURFACE ( 'NONE', #952, 4.000000000000000000 ) ;
#452 = CARTESIAN_POINT ( 'NONE',  ( -2.746613384497969879, 10.73394359432671763, 5.610616436912907901 ) ) ;
#453 = ADVANCED_FACE ( 'NONE', ( #779 ), #85, .T. ) ;
#454 = ORIENTED_EDGE ( 'NONE', *, *, #802, .T. ) ;
#455 = CARTESIAN_POINT ( 'NONE',  ( 7.000000000000000000, 10.61916848035313876, -7.000000000000000000 ) ) ;
#456 = DIRECTION ( 'NONE',  ( -1.000000000000000000, 0.000000000000000000, 0.000000000000000000 ) ) ;
#457 = ORIENTED_EDGE ( 'NONE', *, *, #279, .T. ) ;
#458 = VERTEX_POINT ( 'NONE', #313 ) ;
#459 = ADVANCED_FACE ( 'NONE', ( #535 ), #451, .F. ) ;
#460 = CIRCLE ( 'NONE', #801, 5.000000000000000888 ) ;
#461 =( LENGTH_UNIT ( ) NAMED_UNIT ( * ) SI_UNIT ( .MILLI., .METRE. ) );
#462 = DIRECTION ( 'NONE',  ( 0.000000000000000000, -0.000000000000000000, -1.000000000000000000 ) ) ;
#463 = AXIS2_PLACEMENT_3D ( 'NONE', #419, #23, #347 ) ;
#464 = ORIENTED_EDGE ( 'NONE', *, *, #131, .F. ) ;
#465 = VERTEX_POINT ( 'NONE', #611 ) ;
#466 = EDGE_CURVE ( 'NONE', #918, #320, #368, .T. ) ;
#467 = FACE_OUTER_BOUND ( 'NONE', #308, .T. ) ;
#468 = CARTESIAN_POINT ( 'NONE',  ( -0.5000000000000000000, 13.86637939100011430, -5.884615384615368150 ) ) ;
#469 = ORIENTED_EDGE ( 'NONE', *, *, #992, .F. ) ;
#470 = DIRECTION ( 'NONE',  ( -0.000000000000000000, 0.9893885927933614433, -0.1452935389147497758 ) ) ;
#471 = DIRECTION ( 'NONE',  ( 0.000000000000000000, 0.000000000000000000, 1.000000000000000000 ) ) ;
#472 = EDGE_CURVE ( 'NONE', #185, #458, #545, .T. ) ;
#473 = ORIENTED_EDGE ( 'NONE', *, *, #472, .F. ) ;
#474 = EDGE_LOOP ( 'NONE', ( #775, #613 ) ) ;
#475 = AXIS2_PLACEMENT_3D ( 'NONE', #981, #296, #410 ) ;
#476 = AXIS2_PLACEMENT_3D ( 'NONE', #400, #318, #90 ) ;
#477 = DIRECTION ( 'NONE',  ( 1.000000000000000000, -0.000000000000000000, -0.000000000000000000 ) ) ;
#478 = DIRECTION ( 'NONE',  ( -1.000000000000000000, 0.000000000000000000, 0.000000000000000000 ) ) ;
#479 = AXIS2_PLACEMENT_3D ( 'NONE', #984, #285, #533 ) ;
#480 = ORIENTED_EDGE ( 'NONE', *, *, #712, .F. ) ;
#481 = VERTEX_POINT ( 'NONE', #328 ) ;
#482 = DIRECTION ( 'NONE',  ( -1.000000000000000000, 0.000000000000000000, 0.000000000000000000 ) ) ;
#483 = LINE ( 'NONE', #793, #872 ) ;
#484 = DIRECTION ( 'NONE',  ( 0.000000000000000000, 0.000000000000000000, -1.000000000000000000 ) ) ;
#485 = EDGE_LOOP ( 'NONE', ( #508, #244, #817, #876 ) ) ;
#486 = ADVANCED_FACE ( 'NONE', ( #257 ), #731, .T. ) ;
#487 = DIRECTION ( 'NONE',  ( 0.000000000000000000, -1.000000000000000000, 0.000000000000000000 ) ) ;
#488 = DIRECTION ( 'NONE',  ( 0.000000000000000000, 0.000000000000000000, 1.000000000000000000 ) ) ;
#489 = FACE_OUTER_BOUND ( 'NONE', #859, .T. ) ;
#490 = ORIENTED_EDGE ( 'NONE', *, *, #322, .T. ) ;
#491 = VECTOR ( 'NONE', #780, 1000.000000000000114 ) ;
#492 = CARTESIAN_POINT ( 'NONE',  ( 0.000000000000000000, 14.00000000000000000, 1.550000000000000044 ) ) ;
#493 = DIRECTION ( 'NONE',  ( -1.000000000000000000, -0.000000000000000000, -0.000000000000000000 ) ) ;
#494 = AXIS2_PLACEMENT_3D ( 'NONE', #664, #280, #50 ) ;
#495 = CARTESIAN_POINT ( 'NONE',  ( 3.000000000000000000, 20.00000000000000000, 0.000000000000000000 ) ) ;
#496 = EDGE_LOOP ( 'NONE', ( #756, #704, #618, #733 ) ) ;
#497 = AXIS2_PLACEMENT_3D ( 'NONE', #112, #16, #267 ) ;
#498 = CARTESIAN_POINT ( 'NONE',  ( -0.6652069265099828099, 10.61916848035314231, -7.000000000000000000 ) ) ;
#499 = AXIS2_PLACEMENT_3D ( 'NONE', #844, #696, #3 ) ;
#500 = ADVANCED_FACE ( 'NONE', ( #707 ), #228, .T. ) ;
#501 = CARTESIAN_POINT ( 'NONE',  ( 2.000000000000000000, 20.00000000000000000, 0.000000000000000000 ) ) ;
#502 = SURFACE_STYLE_FILL_AREA ( #54 ) ;
#503 = CARTESIAN_POINT ( 'NONE',  ( -0.5000000000000000000, 13.86637939100013206, 5.884615384615384137 ) ) ;
#504 = CARTESIAN_POINT ( 'NONE',  ( 0.5000000000000000000, 10.61916848035313876, 9.000000000000001776 ) ) ;
#505 = ADVANCED_FACE ( 'NONE', ( #719 ), #570, .T. ) ;
#506 = PRODUCT ( 'ohi\X2\0161\X0\je le\X2\017e\X0\aja ojnice', 'ohi\X2\0161\X0\je le\X2\017e\X0\aja ojnice', '', ( #773 ) ) ;
#507 = VERTEX_POINT ( 'NONE', #183 ) ;
#508 = ORIENTED_EDGE ( 'NONE', *, *, #520, .F. ) ;
#509 = CARTESIAN_POINT ( 'NONE',  ( 2.999999999999999112, 10.82221580913572012, 4.667420126330517505 ) ) ;
#510 = DIRECTION ( 'NONE',  ( 0.000000000000000000, 0.000000000000000000, 1.000000000000000000 ) ) ;
#511 = CARTESIAN_POINT ( 'NONE',  ( 2.023831121459320759, 10.65857282809913187, -6.488922389259301760 ) ) ;
#512 = EDGE_CURVE ( 'NONE', #206, #507, #193, .T. ) ;
#513 = ORIENTED_EDGE ( 'NONE', *, *, #815, .T. ) ;
#514 = CIRCLE ( 'NONE', #211, 2.000000000000001776 ) ;
#515 = DIRECTION ( 'NONE',  ( 0.000000000000000000, 0.000000000000000000, 1.000000000000000000 ) ) ;
#516 = DIRECTION ( 'NONE',  ( 0.000000000000000000, 0.000000000000000000, 1.000000000000000000 ) ) ;
#517 = DIRECTION ( 'NONE',  ( -1.000000000000000000, 0.000000000000000000, 0.000000000000000000 ) ) ;
#518 = DIRECTION ( 'NONE',  ( 0.000000000000000000, 1.892425610156516974E-15, -1.000000000000000000 ) ) ;
#519 = ORIENTED_EDGE ( 'NONE', *, *, #363, .T. ) ;
#520 = EDGE_CURVE ( 'NONE', #985, #683, #944, .T. ) ;
#521 = DIRECTION ( 'NONE',  ( 0.000000000000000000, -0.9893885927933614433, 0.1452935389147497758 ) ) ;
#522 = DIRECTION ( 'NONE',  ( -1.000000000000000000, 0.000000000000000000, 0.000000000000000000 ) ) ;
#523 = DIRECTION ( 'NONE',  ( -1.000000000000000000, 0.000000000000000000, 0.000000000000000000 ) ) ;
#524 = ORIENTED_EDGE ( 'NONE', *, *, #936, .T. ) ;
#525 = DIRECTION ( 'NONE',  ( 0.000000000000000000, -0.9893885927933614433, 0.1452935389147497758 ) ) ;
#526 = CYLINDRICAL_SURFACE ( 'NONE', #65, 2.500000000000000888 ) ;
#527 = ORIENTED_EDGE ( 'NONE', *, *, #194, .F. ) ;
#528 = AXIS2_PLACEMENT_3D ( 'NONE', #68, #679, #292 ) ;
#529 = VECTOR ( 'NONE', #493, 1000.000000000000000 ) ;
#530 = CARTESIAN_POINT ( 'NONE',  ( 3.000000000000000000, -3.000000000000000000, -7.000000000000000000 ) ) ;
#531 = ADVANCED_FACE ( 'NONE', ( #340 ), #27, .F. ) ;
#532 = TOROIDAL_SURFACE ( 'NONE', #499, 4.500000000000000888, 2.500000000000000000 ) ;
#533 = DIRECTION ( 'NONE',  ( 0.000000000000000000, 0.000000000000000000, 1.000000000000000000 ) ) ;
#534 = VERTEX_POINT ( 'NONE', #954 ) ;
#535 = FACE_OUTER_BOUND ( 'NONE', #750, .T. ) ;
#536 = EDGE_CURVE ( 'NONE', #854, #458, #649, .T. ) ;
#537 = VERTEX_POINT ( 'NONE', #169 ) ;
#538 = ORIENTED_EDGE ( 'NONE', *, *, #751, .T. ) ;
#539 = DIRECTION ( 'NONE',  ( 0.000000000000000000, 0.000000000000000000, 1.000000000000000000 ) ) ;
#540 = AXIS2_PLACEMENT_3D ( 'NONE', #628, #861, #783 ) ;
#541 = ORIENTED_EDGE ( 'NONE', *, *, #100, .F. ) ;
#542 = ORIENTED_EDGE ( 'NONE', *, *, #616, .F. ) ;
#543 = EDGE_CURVE ( 'NONE', #330, #918, #761, .T. ) ;
#544 = CARTESIAN_POINT ( 'NONE',  ( -4.000000000000000000, 20.00000000000000000, 0.000000000000000000 ) ) ;
#545 = CIRCLE ( 'NONE', #243, 5.000000000000000888 ) ;
#546 = ORIENTED_EDGE ( 'NONE', *, *, #802, .F. ) ;
#547 = ORIENTED_EDGE ( 'NONE', *, *, #684, .F. ) ;
#548 = DIRECTION ( 'NONE',  ( 0.000000000000000000, -0.9893885927933614433, -0.1452935389147497758 ) ) ;
#549 = DIRECTION ( 'NONE',  ( 0.000000000000000000, 0.000000000000000000, 1.000000000000000000 ) ) ;
#550 = ORIENTED_EDGE ( 'NONE', *, *, #764, .T. ) ;
#551 = ORIENTED_EDGE ( 'NONE', *, *, #163, .F. ) ;
#552 = CARTESIAN_POINT ( 'NONE',  ( 3.000000000000000000, -2.636766152713127198, 2.526528518016596614 ) ) ;
#553 = CARTESIAN_POINT ( 'NONE',  ( -0.5000000000000000000, 20.00000000000000000, 0.000000000000000000 ) ) ;
#554 = ORIENTED_EDGE ( 'NONE', *, *, #745, .T. ) ;
#555 = ORIENTED_EDGE ( 'NONE', *, *, #145, .F. ) ;
#556 = FACE_OUTER_BOUND ( 'NONE', #914, .T. ) ;
#557 = VECTOR ( 'NONE', #129, 1000.000000000000000 ) ;
#558 = DIRECTION ( 'NONE',  ( 0.000000000000000000, 0.000000000000000000, -1.000000000000000000 ) ) ;
#559 = EDGE_CURVE ( 'NONE', #537, #946, #446, .T. ) ;
#560 = CARTESIAN_POINT ( 'NONE',  ( 0.000000000000000000, 14.00000000000000000, 0.000000000000000000 ) ) ;
#561 = ORIENTED_EDGE ( 'NONE', *, *, #870, .F. ) ;
#562 = CLOSED_SHELL ( 'NONE', ( #316, #663, #290, #263, #453, #505, #186, #459, #233, #486, #423, #531, #5, #349, #73, #336, #355, #36, #390, #845, #970, #307, #726, #671, #204, #698, #500, #250, #404, #395, #580, #965 ) ) ;
#563 = AXIS2_PLACEMENT_3D ( 'NONE', #48, #586, #516 ) ;
#564 = DIRECTION ( 'NONE',  ( 0.000000000000000000, -7.709882115452474222E-16, -1.000000000000000000 ) ) ;
#565 = CARTESIAN_POINT ( 'NONE',  ( -4.000000000000000000, 20.00000000000000000, 0.000000000000000000 ) ) ;
#566 = EDGE_CURVE ( 'NONE', #597, #281, #922, .T. ) ;
#567 = ORIENTED_EDGE ( 'NONE', *, *, #442, .T. ) ;
#568 = ORIENTED_EDGE ( 'NONE', *, *, #226, .F. ) ;
#569 = LINE ( 'NONE', #937, #902 ) ;
#570 = CYLINDRICAL_SURFACE ( 'NONE', #579, 11.00000000000000000 ) ;
#571 = LINE ( 'NONE', #180, #215 ) ;
#572 = ORIENTED_EDGE ( 'NONE', *, *, #870, .T. ) ;
#573 = EDGE_CURVE ( 'NONE', #20, #995, #514, .T. ) ;
#574 = CARTESIAN_POINT ( 'NONE',  ( -2.486405159748982019, 10.69713296300469452, -6.027831063582668847 ) ) ;
#575 = AXIS2_PLACEMENT_3D ( 'NONE', #266, #388, #564 ) ;
#576 = CARTESIAN_POINT ( 'NONE',  ( 2.746701606790416417, 10.73395949665177795, 5.610439783176016881 ) ) ;
#577 = VECTOR ( 'NONE', #548, 1000.000000000000114 ) ;
#578 = DIRECTION ( 'NONE',  ( -1.000000000000000000, 0.000000000000000000, 0.000000000000000000 ) ) ;
#579 = AXIS2_PLACEMENT_3D ( 'NONE', #91, #943, #471 ) ;
#580 = ADVANCED_FACE ( 'NONE', ( #798 ), #776, .T. ) ;
#581 = CARTESIAN_POINT ( 'NONE',  ( 0.5000000000000000000, 20.00000000000000000, 0.000000000000000000 ) ) ;
#582 = CARTESIAN_POINT ( 'NONE',  ( -3.000000000000000000, -3.000000000000000000, -2.473186957874966563 ) ) ;
#583 = FACE_OUTER_BOUND ( 'NONE', #33, .T. ) ;
#584 = PLANE ( 'NONE',  #692 ) ;
#585 = VERTEX_POINT ( 'NONE', #335 ) ;
#586 = DIRECTION ( 'NONE',  ( -1.000000000000000000, 0.000000000000000000, 0.000000000000000000 ) ) ;
#587 = DIRECTION ( 'NONE',  ( 0.000000000000000000, 0.000000000000000000, 1.000000000000000000 ) ) ;
#588 = DIRECTION ( 'NONE',  ( 0.000000000000000000, 0.000000000000000000, 1.000000000000000000 ) ) ;
#589 = ORIENTED_EDGE ( 'NONE', *, *, #796, .F. ) ;
#590 = CARTESIAN_POINT ( 'NONE',  ( -2.382971016274714859, 10.68640454347508317, -6.153351684821918077 ) ) ;
#591 = LINE ( 'NONE', #361, #245 ) ;
#592 = CARTESIAN_POINT ( 'NONE',  ( -3.000000000000000000, 10.83801205317473659, 4.505324540010183121 ) ) ;
#593 = CIRCLE ( 'NONE', #722, 4.500000000000002665 ) ;
#594 = EDGE_CURVE ( 'NONE', #709, #20, #906, .T. ) ;
#595 = CARTESIAN_POINT ( 'NONE',  ( 0.5000000000000000000, 20.00000000000000000, 0.000000000000000000 ) ) ;
#596 = CIRCLE ( 'NONE', #867, 2.000000000000000888 ) ;
#597 = VERTEX_POINT ( 'NONE', #188 ) ;
#598 = CIRCLE ( 'NONE', #643, 8.499999999999998224 ) ;
#599 = CIRCLE ( 'NONE', #373, 11.00000000000000000 ) ;
#600 = ORIENTED_EDGE ( 'NONE', *, *, #899, .F. ) ;
#601 = DIRECTION ( 'NONE',  ( 1.000000000000000000, 0.000000000000000000, 0.000000000000000000 ) ) ;
#602 = DIRECTION ( 'NONE',  ( 0.000000000000000000, 0.000000000000000000, -1.000000000000000000 ) ) ;
#603 = CARTESIAN_POINT ( 'NONE',  ( 2.382870891911039735, 10.68639497887275169, -6.153464473653330380 ) ) ;
#604 = EDGE_LOOP ( 'NONE', ( #326, #473 ) ) ;
#605 = EDGE_CURVE ( 'NONE', #830, #766, #303, .T. ) ;
#606 = DIRECTION ( 'NONE',  ( 0.000000000000000000, -1.000000000000000000, 0.000000000000000000 ) ) ;
#607 = CARTESIAN_POINT ( 'NONE',  ( 2.669011349839836900, 10.72098211357855391, -5.755528394517628321 ) ) ;
#608 = CARTESIAN_POINT ( 'NONE',  ( -1.964466094067262469, -2.999999999999998668, -5.000000000000000888 ) ) ;
#609 = ORIENTED_EDGE ( 'NONE', *, *, #777, .F. ) ;
#610 = EDGE_CURVE ( 'NONE', #795, #985, #483, .T. ) ;
#611 = CARTESIAN_POINT ( 'NONE',  ( 2.000000000000000000, 20.00000000000000000, -5.000000000000000888 ) ) ;
#612 = ORIENTED_EDGE ( 'NONE', *, *, #924, .F. ) ;
#613 = ORIENTED_EDGE ( 'NONE', *, *, #25, .T. ) ;
#614 = PLANE ( 'NONE',  #70 ) ;
#615 = FACE_OUTER_BOUND ( 'NONE', #485, .T. ) ;
#616 = EDGE_CURVE ( 'NONE', #269, #14, #633, .T. ) ;
#617 = ORIENTED_EDGE ( 'NONE', *, *, #409, .T. ) ;
#618 = ORIENTED_EDGE ( 'NONE', *, *, #594, .T. ) ;
#619 = B_SPLINE_CURVE_WITH_KNOTS ( 'NONE', 3,
 ( #364, #205, #743, #448, #607, #229, #603, #375, #511, #755, #977, #147, #824, #58, #224, #907 ),
 .UNSPECIFIED., .F., .F.,
 ( 4, 2, 2, 2, 2, 2, 2, 4 ),
 ( -3.210776887366340249E-05, 0.0009535474037427866091, 0.001446374990051012581, 0.001939202576359239094, 0.002432030162667465391, 0.002924857748975691254, 0.003417685335283917984, 0.003910512921592144281 ),
 .UNSPECIFIED. ) ;
#620 = CARTESIAN_POINT ( 'NONE',  ( 3.000000000000000000, 20.00000000000000000, 0.000000000000000000 ) ) ;
#621 = EDGE_CURVE ( 'NONE', #585, #231, #979, .T. ) ;
#622 = ORIENTED_EDGE ( 'NONE', *, *, #566, .T. ) ;
#623 = ORIENTED_EDGE ( 'NONE', *, *, #878, .F. ) ;
#624 = DIRECTION ( 'NONE',  ( 0.000000000000000000, -0.6923076923076921796, -0.7216024245882199928 ) ) ;
#625 = FACE_OUTER_BOUND ( 'NONE', #865, .T. ) ;
#626 = ORIENTED_EDGE ( 'NONE', *, *, #594, .F. ) ;
#627 = VERTEX_POINT ( 'NONE', #843 ) ;
#628 = CARTESIAN_POINT ( 'NONE',  ( 0.5000000000000000000, 20.00000000000000000, 0.000000000000000000 ) ) ;
#629 = UNCERTAINTY_MEASURE_WITH_UNIT (LENGTH_MEASURE( 1.000000000000000082E-05 ), #661, 'distance_accuracy_value', 'NONE');
#630 = DIRECTION ( 'NONE',  ( 0.000000000000000000, 0.000000000000000000, -1.000000000000000000 ) ) ;
#631 = ORIENTED_EDGE ( 'NONE', *, *, #536, .F. ) ;
#632 = ORIENTED_EDGE ( 'NONE', *, *, #893, .T. ) ;
#633 = B_SPLINE_CURVE_WITH_KNOTS ( 'NONE', 3,
 ( #738, #813, #654, #747, #283, #827, #974, #271, #230, #771, #152, #422, #576, #278, #56, #202, #509, #889 ),
 .UNSPECIFIED., .F., .F.,
 ( 4, 2, 2, 2, 2, 2, 2, 2, 4 ),
 ( 0.000000000000000000, 0.0004885802968247463830, 0.0009771605936494927661, 0.001465740890474239149, 0.001954321187298985966, 0.002442901484123732782, 0.002931481780948479166, 0.003420062077773226416, 0.003908642374597973666 ),
 .UNSPECIFIED. ) ;
#634 = EDGE_CURVE ( 'NONE', #103, #231, #591, .T. ) ;
#635 = CARTESIAN_POINT ( 'NONE',  ( 0.4999999999999995559, -3.000000000000000000, 5.000000000000000000 ) ) ;
#636 = DIRECTION ( 'NONE',  ( 0.000000000000000000, -0.000000000000000000, -1.000000000000000000 ) ) ;
#637 = CARTESIAN_POINT ( 'NONE',  ( 3.000000000000000000, 20.00000000000000000, 0.000000000000000000 ) ) ;
#638 = VERTEX_POINT ( 'NONE', #892 ) ;
#639 = CARTESIAN_POINT ( 'NONE',  ( 3.000000000000000000, 10.61916848035313876, -7.000000000000000000 ) ) ;
#640 = VECTOR ( 'NONE', #588, 1000.000000000000000 ) ;
#641 = CARTESIAN_POINT ( 'NONE',  ( -3.000000000000000000, 10.61916848035313876, 9.000000000000001776 ) ) ;
#642 = EDGE_LOOP ( 'NONE', ( #524, #221, #807, #161 ) ) ;
#643 = AXIS2_PLACEMENT_3D ( 'NONE', #495, #794, #32 ) ;
#644 = DIRECTION ( 'NONE',  ( 0.000000000000000000, 0.9893885927933615543, -0.1452935389147498035 ) ) ;
#645 = CARTESIAN_POINT ( 'NONE',  ( -0.5000000000000000000, 20.00000000000000000, -8.499999999999998224 ) ) ;
#646 = EDGE_CURVE ( 'NONE', #20, #918, #372, .T. ) ;
#647 = CARTESIAN_POINT ( 'NONE',  ( 0.4999999999999995559, 10.61916848035313876, -7.000000000000000000 ) ) ;
#648 = LINE ( 'NONE', #667, #242 ) ;
#649 = LINE ( 'NONE', #858, #529 ) ;
#650 = CARTESIAN_POINT ( 'NONE',  ( 0.4999999999999995559, -3.000000000000000000, -5.000000000000000000 ) ) ;
#651 = ORIENTED_EDGE ( 'NONE', *, *, #712, .T. ) ;
#652 = CIRCLE ( 'NONE', #475, 1.550000000000000044 ) ;
#653 = CARTESIAN_POINT ( 'NONE',  ( -3.000000000000000444, 10.82221580913627079, -4.667420126330571684 ) ) ;
#654 = CARTESIAN_POINT ( 'NONE',  ( 0.8276437957939530854, 10.62034619226966647, 6.983784148374662770 ) ) ;
#655 = FACE_OUTER_BOUND ( 'NONE', #379, .T. ) ;
#656 = CARTESIAN_POINT ( 'NONE',  ( 3.000000000000000000, 20.00000000000000000, 11.00000000000000000 ) ) ;
#657 = AXIS2_PLACEMENT_3D ( 'NONE', #178, #319, #406 ) ;
#658 = EDGE_LOOP ( 'NONE', ( #13, #991, #850, #567 ) ) ;
#659 = DIRECTION ( 'NONE',  ( 0.000000000000000000, 0.000000000000000000, -1.000000000000000000 ) ) ;
#660 = ORIENTED_EDGE ( 'NONE', *, *, #646, .F. ) ;
#661 =( LENGTH_UNIT ( ) NAMED_UNIT ( * ) SI_UNIT ( .MILLI., .METRE. ) );
#662 = FACE_OUTER_BOUND ( 'NONE', #961, .T. ) ;
#663 = ADVANCED_FACE ( 'NONE', ( #662 ), #434, .T. ) ;
#664 = CARTESIAN_POINT ( 'NONE',  ( 2.000000000000000000, 20.00000000000000000, 0.000000000000000000 ) ) ;
#665 = DIRECTION ( 'NONE',  ( 0.000000000000000000, 0.9893885927933614433, -0.1452935389147497758 ) ) ;
#666 = ORIENTED_EDGE ( 'NONE', *, *, #759, .F. ) ;
#667 = CARTESIAN_POINT ( 'NONE',  ( 3.000000000000000000, 12.06237332952957964, 7.615384615384615863 ) ) ;
#668 = CARTESIAN_POINT ( 'NONE',  ( -3.000000000000000000, -3.000000000000000000, 2.473186957874966563 ) ) ;
#669 = CIRCLE ( 'NONE', #881, 8.499999999999998224 ) ;
#670 = DIRECTION ( 'NONE',  ( 0.000000000000000000, 0.000000000000000000, 1.000000000000000000 ) ) ;
#671 = ADVANCED_FACE ( 'NONE', ( #426 ), #449, .T. ) ;
#672 = VECTOR ( 'NONE', #665, 1000.000000000000114 ) ;
#673 = CARTESIAN_POINT ( 'NONE',  ( -3.000000000000000000, 20.00000000000000000, -5.000000000000000888 ) ) ;
#674 = ORIENTED_EDGE ( 'NONE', *, *, #329, .T. ) ;
#675 = VECTOR ( 'NONE', #87, 1000.000000000000114 ) ;
#676 = DIRECTION ( 'NONE',  ( 0.000000000000000000, 0.000000000000000000, -1.000000000000000000 ) ) ;
#677 = AXIS2_PLACEMENT_3D ( 'NONE', #124, #949, #871 ) ;
#678 = FACE_OUTER_BOUND ( 'NONE', #695, .T. ) ;
#679 = DIRECTION ( 'NONE',  ( 0.000000000000000000, 1.000000000000000000, 0.000000000000000000 ) ) ;
#680 = EDGE_CURVE ( 'NONE', #946, #206, #108, .T. ) ;
#681 = CARTESIAN_POINT ( 'NONE',  ( 2.000000000000000000, 20.00000000000000000, -5.000000000000000888 ) ) ;
#682 = CARTESIAN_POINT ( 'NONE',  ( 0.5000000000000000000, 10.61916848035313876, -9.000000000000001776 ) ) ;
#683 = VERTEX_POINT ( 'NONE', #668 ) ;
#684 = EDGE_CURVE ( 'NONE', #534, #125, #652, .T. ) ;
#685 = CARTESIAN_POINT ( 'NONE',  ( 2.000000000000000000, 20.00000000000000000, 0.000000000000000000 ) ) ;
#686 = VECTOR ( 'NONE', #21, 1000.000000000000114 ) ;
#687 = CARTESIAN_POINT ( 'NONE',  ( -2.999999999999999556, 10.80614492765013601, 4.832333946965673199 ) ) ;
#688 = ORIENTED_EDGE ( 'NONE', *, *, #105, .F. ) ;
#689 = AXIS2_PLACEMENT_3D ( 'NONE', #620, #702, #4 ) ;
#690 = EDGE_CURVE ( 'NONE', #795, #269, #106, .T. ) ;
#691 = FACE_OUTER_BOUND ( 'NONE', #715, .T. ) ;
#692 = AXIS2_PLACEMENT_3D ( 'NONE', #414, #956, #875 ) ;
#693 = CIRCLE ( 'NONE', #179, 8.499999999999998224 ) ;
#694 = EDGE_LOOP ( 'NONE', ( #547, #600 ) ) ;
#695 = EDGE_LOOP ( 'NONE', ( #234, #397, #744, #331 ) ) ;
#696 = DIRECTION ( 'NONE',  ( -1.000000000000000000, 0.000000000000000000, 0.000000000000000000 ) ) ;
#697 = DIRECTION ( 'NONE',  ( 0.000000000000000000, 0.9893885927933615543, 0.1452935389147498035 ) ) ;
#698 = ADVANCED_FACE ( 'NONE', ( #797 ), #123, .T. ) ;
#699 = ORIENTED_EDGE ( 'NONE', *, *, #175, .F. ) ;
#700 = ORIENTED_EDGE ( 'NONE', *, *, #680, .F. ) ;
#701 = CARTESIAN_POINT ( 'NONE',  ( 3.000000000000000000, 10.83801205317470995, -4.505324540010179568 ) ) ;
#702 = DIRECTION ( 'NONE',  ( -1.000000000000000000, 0.000000000000000000, 0.000000000000000000 ) ) ;
#703 = VERTEX_POINT ( 'NONE', #182 ) ;
#704 = ORIENTED_EDGE ( 'NONE', *, *, #105, .T. ) ;
#705 = AXIS2_PLACEMENT_3D ( 'NONE', #682, #988, #443 ) ;
#706 = TOROIDAL_SURFACE ( 'NONE', #80, 4.500000000000002665, 2.500000000000000000 ) ;
#707 = FACE_OUTER_BOUND ( 'NONE', #29, .T. ) ;
#708 = AXIS2_PLACEMENT_3D ( 'NONE', #154, #456, #774 ) ;
#709 = VERTEX_POINT ( 'NONE', #942 ) ;
#710 = ORIENTED_EDGE ( 'NONE', *, *, #536, .T. ) ;
#711 = PRODUCT_DEFINITION_FORMATION_WITH_SPECIFIED_SOURCE ( 'ANY', '', #506, .NOT_KNOWN. ) ;
#712 = EDGE_CURVE ( 'NONE', #2, #537, #15, .T. ) ;
#713 = CARTESIAN_POINT ( 'NONE',  ( 0.4999999999999995559, 10.98240232764001512, -4.526528518016596614 ) ) ;
#714 = CARTESIAN_POINT ( 'NONE',  ( -3.000000000000000000, -2.999999999999998668, 3.953359768370592775 ) ) ;
#715 = EDGE_LOOP ( 'NONE', ( #846, #83, #156, #617, #116, #235, #555, #896 ) ) ;
#716 = ORIENTED_EDGE ( 'NONE', *, *, #621, .F. ) ;
#717 = EDGE_CURVE ( 'NONE', #320, #507, #669, .T. ) ;
#718 = DIRECTION ( 'NONE',  ( -1.000000000000000000, 0.000000000000000000, 0.000000000000000000 ) ) ;
#719 = FACE_OUTER_BOUND ( 'NONE', #496, .T. ) ;
#720 = CARTESIAN_POINT ( 'NONE',  ( 1.964466094067262025, -2.999999999999998668, -5.000000000000000888 ) ) ;
#721 = EDGE_LOOP ( 'NONE', ( #176, #554, #589, #454 ) ) ;
#722 = AXIS2_PLACEMENT_3D ( 'NONE', #752, #117, #730 ) ;
#723 = DIRECTION ( 'NONE',  ( 0.000000000000000000, 0.000000000000000000, -1.000000000000000000 ) ) ;
#724 = VECTOR ( 'NONE', #523, 1000.000000000000000 ) ;
#725 = DIRECTION ( 'NONE',  ( 1.000000000000000000, 0.000000000000000000, 0.000000000000000000 ) ) ;
#726 = ADVANCED_FACE ( 'NONE', ( #467 ), #792, .T. ) ;
#727 = CARTESIAN_POINT ( 'NONE',  ( -0.5000000000000000000, 12.06237332952957964, 7.615384615384615863 ) ) ;
#728 = ORIENTED_EDGE ( 'NONE', *, *, #573, .T. ) ;
#729 = AXIS2_PLACEMENT_3D ( 'NONE', #560, #115, #28 ) ;
#730 = DIRECTION ( 'NONE',  ( 0.000000000000000000, 0.000000000000000000, -1.000000000000000000 ) ) ;
#731 = PLANE ( 'NONE',  #350 ) ;
#732 = DIRECTION ( 'NONE',  ( -1.000000000000000000, 0.000000000000000000, 0.000000000000000000 ) ) ;
#733 = ORIENTED_EDGE ( 'NONE', *, *, #893, .F. ) ;
#734 = CARTESIAN_POINT ( 'NONE',  ( -2.871392845473937250, 10.76131760554176431, -5.310782155855543252 ) ) ;
#735 = CARTESIAN_POINT ( 'NONE',  ( -0.8276206038282126753, 10.62034602665689498, 6.983786441207098683 ) ) ;
#736 = ORIENTED_EDGE ( 'NONE', *, *, #815, .F. ) ;
#737 = CIRCLE ( 'NONE', #240, 2.500000000000000444 ) ;
#738 = CARTESIAN_POINT ( 'NONE',  ( 0.4999999999999995559, 10.61916848035313876, 7.000000000000000000 ) ) ;
#739 = CIRCLE ( 'NONE', #10, 2.499999999999999112 ) ;
#740 = PLANE ( 'NONE',  #30 ) ;
#741 = CIRCLE ( 'NONE', #494, 5.000000000000000888 ) ;
#742 = AXIS2_PLACEMENT_3D ( 'NONE', #284, #517, #510 ) ;
#743 = CARTESIAN_POINT ( 'NONE',  ( 2.933674586154134456, 10.77497574272925185, -5.161177510749682895 ) ) ;
#744 = ORIENTED_EDGE ( 'NONE', *, *, #84, .F. ) ;
#745 = EDGE_CURVE ( 'NONE', #597, #627, #737, .T. ) ;
#746 = CARTESIAN_POINT ( 'NONE',  ( -0.8276437957939531964, 10.62034619226965404, -6.983784148374661882 ) ) ;
#747 = CARTESIAN_POINT ( 'NONE',  ( 1.147206524550167028, 10.62504000759978950, 6.920267885248409634 ) ) ;
#748 = CARTESIAN_POINT ( 'NONE',  ( 0.5000000000000000000, 20.00000000000000000, 0.000000000000000000 ) ) ;
#749 = DIRECTION ( 'NONE',  ( 0.000000000000000000, -0.9893885927933615543, -0.1452935389147498035 ) ) ;
#750 = EDGE_LOOP ( 'NONE', ( #469, #572, #365, #699 ) ) ;
#751 = EDGE_CURVE ( 'NONE', #481, #585, #787, .T. ) ;
#752 = CARTESIAN_POINT ( 'NONE',  ( 3.000000000000000000, 10.61916848035313876, -9.000000000000001776 ) ) ;
#753 = DIRECTION ( 'NONE',  ( 0.000000000000000000, 0.7216024245882197707, -0.6923076923076924016 ) ) ;
#754 = CARTESIAN_POINT ( 'NONE',  ( -1.147161289088588276, 10.62503916817129479, 6.920279192550034431 ) ) ;
#755 = CARTESIAN_POINT ( 'NONE',  ( 1.752163268244286254, 10.64412973733414702, -6.670093613166006463 ) ) ;
#756 = ORIENTED_EDGE ( 'NONE', *, *, #222, .T. ) ;
#757 = DIRECTION ( 'NONE',  ( 0.000000000000000000, 0.000000000000000000, 1.000000000000000000 ) ) ;
#758 = DIRECTION ( 'NONE',  ( 0.000000000000000000, 0.000000000000000000, -1.000000000000000000 ) ) ;
#759 = EDGE_CURVE ( 'NONE', #900, #354, #256, .T. ) ;
#760 = CYLINDRICAL_SURFACE ( 'NONE', #528, 1.550000000000000044 ) ;
#761 = CIRCLE ( 'NONE', #146, 4.500000000000000888 ) ;
#762 = PLANE ( 'NONE',  #852 ) ;
#763 = CIRCLE ( 'NONE', #18, 4.000000000000000000 ) ;
#764 = EDGE_CURVE ( 'NONE', #703, #786, #569, .T. ) ;
#765 = CYLINDRICAL_SURFACE ( 'NONE', #479, 5.000000000000000888 ) ;
#766 = VERTEX_POINT ( 'NONE', #873 ) ;
#767 = APPLICATION_CONTEXT ( 'automotive_design' ) ;
#768 = APPLICATION_PROTOCOL_DEFINITION ( 'draft international standard', 'automotive_design', 1998, #136 ) ;
#769 = CARTESIAN_POINT ( 'NONE',  ( -0.5000000000000000000, 10.61916848035313876, -9.000000000000001776 ) ) ;
#770 = CARTESIAN_POINT ( 'NONE',  ( -2.486305163637136495, 10.69712190533764762, 6.027959472165789201 ) ) ;
#771 = CARTESIAN_POINT ( 'NONE',  ( 2.382971016274714859, 10.68640454347510271, 6.153351684821921630 ) ) ;
#772 = ORIENTED_EDGE ( 'NONE', *, *, #466, .F. ) ;
#773 = PRODUCT_CONTEXT ( 'NONE', #767, 'mechanical' ) ;
#774 = DIRECTION ( 'NONE',  ( 0.000000000000000000, 0.000000000000000000, 1.000000000000000000 ) ) ;
#775 = ORIENTED_EDGE ( 'NONE', *, *, #605, .T. ) ;
#776 = TOROIDAL_SURFACE ( 'NONE', #332, 8.499999999999998224, 2.500000000000000000 ) ;
#777 = EDGE_CURVE ( 'NONE', #281, #946, #958, .T. ) ;
#778 =( BOUNDED_CURVE ( )  B_SPLINE_CURVE ( 3, ( #650, #720, #184, #196 ),
 .UNSPECIFIED., .F., .F. ) 
 B_SPLINE_CURVE_WITH_KNOTS ( ( 4, 4 ),
 ( 0.000000000000000000, 1.570796326794896780 ),
 .UNSPECIFIED. ) 
 CURVE ( )  GEOMETRIC_REPRESENTATION_ITEM ( )  RATIONAL_B_SPLINE_CURVE ( ( 1.000000000000000000, 0.8047378541243649375, 0.8047378541243649375, 1.000000000000000000 ) ) 
 REPRESENTATION_ITEM ( '' )  );
#779 = FACE_OUTER_BOUND ( 'NONE', #104, .T. ) ;
#780 = DIRECTION ( 'NONE',  ( -0.000000000000000000, 0.9893885927933614433, 0.1452935389147497758 ) ) ;
#781 = CARTESIAN_POINT ( 'NONE',  ( 2.999999999999998668, -2.999999999999998668, 3.953359768370592775 ) ) ;
#782 = PRODUCT_DEFINITION_SHAPE ( 'NONE', 'NONE',  #864 ) ;
#783 = DIRECTION ( 'NONE',  ( 0.000000000000000000, 0.000000000000000000, -1.000000000000000000 ) ) ;
#784 = EDGE_CURVE ( 'NONE', #384, #14, #884, .T. ) ;
#785 = VERTEX_POINT ( 'NONE', #95 ) ;
#786 = VERTEX_POINT ( 'NONE', #701 ) ;
#787 = LINE ( 'NONE', #334, #686 ) ;
#788 = DIRECTION ( 'NONE',  ( 0.000000000000000000, 0.000000000000000000, 1.000000000000000000 ) ) ;
#789 = CIRCLE ( 'NONE', #869, 2.500000000000000444 ) ;
#790 = ORIENTED_EDGE ( 'NONE', *, *, #88, .F. ) ;
#791 = ORIENTED_EDGE ( 'NONE', *, *, #438, .F. ) ;
#792 = CYLINDRICAL_SURFACE ( 'NONE', #173, 2.500000000000000444 ) ;
#793 = CARTESIAN_POINT ( 'NONE',  ( 7.000000000000000000, -3.000000000000000000, 5.000000000000000000 ) ) ;
#794 = DIRECTION ( 'NONE',  ( 1.000000000000000000, 0.000000000000000000, 0.000000000000000000 ) ) ;
#795 = VERTEX_POINT ( 'NONE', #635 ) ;
#796 = EDGE_CURVE ( 'NONE', #860, #627, #159, .T. ) ;
#797 = FACE_OUTER_BOUND ( 'NONE', #931, .T. ) ;
#798 = FACE_OUTER_BOUND ( 'NONE', #960, .T. ) ;
#799 = CARTESIAN_POINT ( 'NONE',  ( 3.000000000000000000, 10.61916848035313876, 9.000000000000001776 ) ) ;
#800 = EDGE_LOOP ( 'NONE', ( #99, #190, #542, #341 ) ) ;
#801 = AXIS2_PLACEMENT_3D ( 'NONE', #501, #732, #37 ) ;
#802 = EDGE_CURVE ( 'NONE', #860, #281, #79, .T. ) ;
#803 = CARTESIAN_POINT ( 'NONE',  ( -3.000000000000000000, 10.98240232764001512, 4.526528518016596614 ) ) ;
#804 = DIRECTION ( 'NONE',  ( 0.000000000000000000, 0.000000000000000000, 1.000000000000000000 ) ) ;
#805 = TOROIDAL_SURFACE ( 'NONE', #49, 8.499999999999998224, 2.500000000000000000 ) ;
#806 = CIRCLE ( 'NONE', #301, 11.00000000000000000 ) ;
#807 = ORIENTED_EDGE ( 'NONE', *, *, #380, .F. ) ;
#808 = DIRECTION ( 'NONE',  ( 0.000000000000000000, 0.000000000000000000, 1.000000000000000000 ) ) ;
#809 = DIRECTION ( 'NONE',  ( -1.000000000000000000, -0.000000000000000000, -0.000000000000000000 ) ) ;
#810 = CARTESIAN_POINT ( 'NONE',  ( -3.000000000000000000, 10.61916848035313876, -9.000000000000001776 ) ) ;
#811 = ORIENTED_EDGE ( 'NONE', *, *, #976, .T. ) ;
#812 = SURFACE_SIDE_STYLE ('',( #502 ) ) ;
#813 = CARTESIAN_POINT ( 'NONE',  ( 0.6652069265099828099, 10.61916848035313876, 7.000000000000000000 ) ) ;
#814 = DIRECTION ( 'NONE',  ( 0.000000000000000000, 0.000000000000000000, -1.000000000000000000 ) ) ;
#815 = EDGE_CURVE ( 'NONE', #384, #260, #739, .T. ) ;
#816 = FACE_OUTER_BOUND ( 'NONE', #391, .T. ) ;
#817 = ORIENTED_EDGE ( 'NONE', *, *, #237, .F. ) ;
#818 = AXIS2_PLACEMENT_3D ( 'NONE', #323, #477, #947 ) ;
#819 = CARTESIAN_POINT ( 'NONE',  ( -2.669106970968366799, 10.72099660436086843, -5.755365098331709284 ) ) ;
#820 = CARTESIAN_POINT ( 'NONE',  ( -0.5000000000000000000, 20.00000000000000000, 0.000000000000000000 ) ) ;
#821 = AXIS2_PLACEMENT_3D ( 'NONE', #52, #749, #358 ) ;
#822 = DIRECTION ( 'NONE',  ( 1.000000000000000000, 0.000000000000000000, 0.000000000000000000 ) ) ;
#823 = AXIS2_PLACEMENT_3D ( 'NONE', #96, #880, #630 ) ;
#824 = CARTESIAN_POINT ( 'NONE',  ( 1.147161289088588942, 10.62503916817127703, -6.920279192550032654 ) ) ;
#825 = ORIENTED_EDGE ( 'NONE', *, *, #100, .T. ) ;
#826 = DIRECTION ( 'NONE',  ( 0.000000000000000000, 1.000000000000000000, 0.000000000000000000 ) ) ;
#827 = CARTESIAN_POINT ( 'NONE',  ( 1.608688034560285196, 10.63818571409913183, 6.746774262607164729 ) ) ;
#828 = CARTESIAN_POINT ( 'NONE',  ( 0.5000000000000000000, 20.00000000000000000, 0.000000000000000000 ) ) ;
#829 = LINE ( 'NONE', #134, #724 ) ;
#830 = VERTEX_POINT ( 'NONE', #857 ) ;
#831 = CARTESIAN_POINT ( 'NONE',  ( 0.000000000000000000, 0.000000000000000000, 0.000000000000000000 ) ) ;
#832 = EDGE_CURVE ( 'NONE', #14, #170, #246, .T. ) ;
#833 = DIRECTION ( 'NONE',  ( 0.000000000000000000, 0.000000000000000000, 1.000000000000000000 ) ) ;
#834 = CARTESIAN_POINT ( 'NONE',  ( -0.4999999999999995559, -3.000000000000000000, -5.000000000000000000 ) ) ;
#835 = ORIENTED_EDGE ( 'NONE', *, *, #777, .T. ) ;
#836 = DIRECTION ( 'NONE',  ( 7.307410958291878867E-16, 0.6923076923076959543, -0.7216024245882164401 ) ) ;
#837 = LINE ( 'NONE', #990, #557 ) ;
#838 = CIRCLE ( 'NONE', #258, 2.500000000000000888 ) ;
#839 = ORIENTED_EDGE ( 'NONE', *, *, #992, .T. ) ;
#840 = DIRECTION ( 'NONE',  ( -1.000000000000000000, -0.000000000000000000, -0.000000000000000000 ) ) ;
#841 = DIRECTION ( 'NONE',  ( 0.000000000000000000, 1.000000000000000000, 0.000000000000000000 ) ) ;
#842 = FACE_OUTER_BOUND ( 'NONE', #800, .T. ) ;
#843 = CARTESIAN_POINT ( 'NONE',  ( 3.000000000000000000, 20.00000000000000000, -8.499999999999998224 ) ) ;
#844 = CARTESIAN_POINT ( 'NONE',  ( -0.5000000000000000000, 10.61916848035313876, 9.000000000000001776 ) ) ;
#845 = ADVANCED_FACE ( 'NONE', ( #556 ), #868, .F. ) ;
#846 = ORIENTED_EDGE ( 'NONE', *, *, #634, .F. ) ;
#847 = FACE_OUTER_BOUND ( 'NONE', #978, .T. ) ;
#848 = CARTESIAN_POINT ( 'NONE',  ( 1.898202538678397459E-16, -10.00000000000000000, -1.550000000000000044 ) ) ;
#849 = VECTOR ( 'NONE', #261, 1000.000000000000000 ) ;
#850 = ORIENTED_EDGE ( 'NONE', *, *, #131, .T. ) ;
#851 = EDGE_CURVE ( 'NONE', #458, #185, #272, .T. ) ;
#852 = AXIS2_PLACEMENT_3D ( 'NONE', #530, #606, #462 ) ;
#853 = CARTESIAN_POINT ( 'NONE',  ( 3.000000000000000000, 13.86637939100013206, 5.884615384615385025 ) ) ;
#854 = VERTEX_POINT ( 'NONE', #46 ) ;
#855 = ORIENTED_EDGE ( 'NONE', *, *, #751, .F. ) ;
#856 = EDGE_CURVE ( 'NONE', #786, #860, #593, .T. ) ;
#857 = CARTESIAN_POINT ( 'NONE',  ( 3.000000000000000000, 20.00000000000000000, -4.000000000000000000 ) ) ;
#858 = CARTESIAN_POINT ( 'NONE',  ( 2.000000000000000000, 20.00000000000000000, 5.000000000000000888 ) ) ;
#859 = EDGE_LOOP ( 'NONE', ( #790, #550, #302, #155, #140, #811, #148, #436 ) ) ;
#860 = VERTEX_POINT ( 'NONE', #901 ) ;
#861 = DIRECTION ( 'NONE',  ( 1.000000000000000000, 0.000000000000000000, 0.000000000000000000 ) ) ;
#862 = PRODUCT_DEFINITION_CONTEXT ( 'detailed design', #136, 'design' ) ;
#863 = CARTESIAN_POINT ( 'NONE',  ( 0.000000000000000000, 14.00000000000000000, 0.000000000000000000 ) ) ;
#864 = PRODUCT_DEFINITION ( 'UNKNOWN', '', #711, #862 ) ;
#865 = EDGE_LOOP ( 'NONE', ( #973, #957, #19, #386 ) ) ;
#866 = ORIENTED_EDGE ( 'NONE', *, *, #543, .T. ) ;
#867 = AXIS2_PLACEMENT_3D ( 'NONE', #504, #822, #814 ) ;
#868 = CYLINDRICAL_SURFACE ( 'NONE', #207, 2.000000000000001776 ) ;
#869 = AXIS2_PLACEMENT_3D ( 'NONE', #430, #966, #515 ) ;
#870 = EDGE_CURVE ( 'NONE', #354, #766, #60, .T. ) ;
#871 = DIRECTION ( 'NONE',  ( 0.000000000000000000, 0.000000000000000000, -1.000000000000000000 ) ) ;
#872 = VECTOR ( 'NONE', #102, 1000.000000000000000 ) ;
#873 = CARTESIAN_POINT ( 'NONE',  ( 3.000000000000000000, 20.00000000000000000, 4.000000000000000000 ) ) ;
#874 = CARTESIAN_POINT ( 'NONE',  ( -0.5000000000000000000, 10.61916848035313876, 9.000000000000001776 ) ) ;
#875 = DIRECTION ( 'NONE',  ( 0.000000000000000000, 0.000000000000000000, -1.000000000000000000 ) ) ;
#876 = ORIENTED_EDGE ( 'NONE', *, *, #908, .F. ) ;
#877 = ADVANCED_BREP_SHAPE_REPRESENTATION ( 'ohi\X2\0161\X0\je le\X2\017e\X0\aja ojnice', ( #938, #305 ), #317 ) ;
#878 = EDGE_CURVE ( 'NONE', #534, #883, #360, .T. ) ;
#879 = DIRECTION ( 'NONE',  ( 0.000000000000000000, -1.000000000000000000, 0.000000000000000000 ) ) ;
#880 = DIRECTION ( 'NONE',  ( -1.000000000000000000, -0.000000000000000000, -0.000000000000000000 ) ) ;
#881 = AXIS2_PLACEMENT_3D ( 'NONE', #86, #255, #168 ) ;
#882 = DIRECTION ( 'NONE',  ( 0.000000000000000000, 0.000000000000000000, 1.000000000000000000 ) ) ;
#883 = VERTEX_POINT ( 'NONE', #492 ) ;
#884 = CIRCLE ( 'NONE', #575, 4.500000000000000888 ) ;
#885 = CIRCLE ( 'NONE', #11, 4.500000000000002665 ) ;
#886 = VECTOR ( 'NONE', #286, 1000.000000000000000 ) ;
#887 = CARTESIAN_POINT ( 'NONE',  ( -2.746701606790416417, 10.73395949665176907, -5.610439783176015105 ) ) ;
#888 = CIRCLE ( 'NONE', #904, 11.00000000000000000 ) ;
#889 = CARTESIAN_POINT ( 'NONE',  ( 3.000000000000000000, 10.83801205317473837, 4.505324540010183121 ) ) ;
#890 = FACE_BOUND ( 'NONE', #474, .T. ) ;
#891 = FILL_AREA_STYLE_COLOUR ( '', #164 ) ;
#892 = CARTESIAN_POINT ( 'NONE',  ( 3.000000000000000000, 20.00000000000000000, 8.499999999999998224 ) ) ;
#893 = EDGE_CURVE ( 'NONE', #260, #20, #648, .T. ) ;
#894 = CARTESIAN_POINT ( 'NONE',  ( 0.5000000000000000000, 12.06237332952957964, 7.615384615384615863 ) ) ;
#895 = LINE ( 'NONE', #917, #346 ) ;
#896 = ORIENTED_EDGE ( 'NONE', *, *, #621, .T. ) ;
#897 =( NAMED_UNIT ( * ) PLANE_ANGLE_UNIT ( ) SI_UNIT ( $, .RADIAN. ) );
#898 = CARTESIAN_POINT ( 'NONE',  ( -2.382870891911039735, 10.68639497887276057, 6.153464473653333933 ) ) ;
#899 = EDGE_CURVE ( 'NONE', #125, #534, #81, .T. ) ;
#900 = VERTEX_POINT ( 'NONE', #437 ) ;
#901 = CARTESIAN_POINT ( 'NONE',  ( 3.000000000000000000, 13.86637939100011607, -5.884615384615366374 ) ) ;
#902 = VECTOR ( 'NONE', #470, 1000.000000000000114 ) ;
#903 = CARTESIAN_POINT ( 'NONE',  ( 0.5000000000000000000, 10.61916848035313876, -9.000000000000001776 ) ) ;
#904 = AXIS2_PLACEMENT_3D ( 'NONE', #595, #214, #518 ) ;
#905 = DIRECTION ( 'NONE',  ( 0.000000000000000000, -0.1452935389147500811, -0.9893885927933613322 ) ) ;
#906 = CIRCLE ( 'NONE', #398, 11.00000000000000000 ) ;
#907 = CARTESIAN_POINT ( 'NONE',  ( 0.4999999999999995559, 10.61916848035313876, -7.000000000000000000 ) ) ;
#908 = EDGE_CURVE ( 'NONE', #683, #330, #187, .T. ) ;
#909 = AXIS2_PLACEMENT_3D ( 'NONE', #799, #264, #276 ) ;
#910 = DIRECTION ( 'NONE',  ( 0.000000000000000000, 0.000000000000000000, -1.000000000000000000 ) ) ;
#911 =( GEOMETRIC_REPRESENTATION_CONTEXT ( 3 ) GLOBAL_UNCERTAINTY_ASSIGNED_CONTEXT ( ( #629 ) ) GLOBAL_UNIT_ASSIGNED_CONTEXT ( ( #661, #897, #158 ) ) REPRESENTATION_CONTEXT ( 'NONE', 'WORKASPACE' ) );
#912 = CARTESIAN_POINT ( 'NONE',  ( -3.000000000000000000, 0.000000000000000000, 0.000000000000000000 ) ) ;
#913 = CARTESIAN_POINT ( 'NONE',  ( 3.000000000000000000, -3.000000000000000000, 2.473186957874966563 ) ) ;
#914 = EDGE_LOOP ( 'NONE', ( #609, #98, #651, #277 ) ) ;
#915 = DIRECTION ( 'NONE',  ( 1.000000000000000000, -0.000000000000000000, -0.000000000000000000 ) ) ;
#916 = FACE_OUTER_BOUND ( 'NONE', #658, .T. ) ;
#917 = CARTESIAN_POINT ( 'NONE',  ( 3.000000000000000000, 10.61916848035313876, 7.000000000000000000 ) ) ;
#918 = VERTEX_POINT ( 'NONE', #111 ) ;
#919 = FACE_OUTER_BOUND ( 'NONE', #238, .T. ) ;
#920 = LINE ( 'NONE', #848, #144 ) ;
#921 = DIRECTION ( 'NONE',  ( 0.000000000000000000, -1.000000000000000000, 0.000000000000000000 ) ) ;
#922 = CIRCLE ( 'NONE', #823, 11.00000000000000000 ) ;
#923 = DIRECTION ( 'NONE',  ( 0.000000000000000000, -0.1452935389147500811, 0.9893885927933613322 ) ) ;
#924 = EDGE_CURVE ( 'NONE', #206, #709, #806, .T. ) ;
#925 = VERTEX_POINT ( 'NONE', #270 ) ;
#926 = ORIENTED_EDGE ( 'NONE', *, *, #237, .T. ) ;
#927 = CARTESIAN_POINT ( 'NONE',  ( -0.4999999999999995559, -3.000000000000000000, 5.000000000000000000 ) ) ;
#928 = DIRECTION ( 'NONE',  ( 0.000000000000000000, 0.000000000000000000, 1.000000000000000000 ) ) ;
#929 = EDGE_CURVE ( 'NONE', #785, #638, #789, .T. ) ;
#930 = ORIENTED_EDGE ( 'NONE', *, *, #157, .F. ) ;
#931 = EDGE_LOOP ( 'NONE', ( #387, #403, #736, #935 ) ) ;
#932 = AXIS2_PLACEMENT_3D ( 'NONE', #820, #210, #61 ) ;
#933 = CARTESIAN_POINT ( 'NONE',  ( 3.000000000000000000, -3.000000000000000000, 2.473186957874966563 ) ) ;
#934 = ORIENTED_EDGE ( 'NONE', *, *, #438, .T. ) ;
#935 = ORIENTED_EDGE ( 'NONE', *, *, #976, .F. ) ;
#936 = EDGE_CURVE ( 'NONE', #537, #481, #92, .T. ) ;
#937 = CARTESIAN_POINT ( 'NONE',  ( 3.000000000000000000, 10.98240232764001512, -4.526528518016596614 ) ) ;
#938 = MANIFOLD_SOLID_BREP ( 'Fillet2', #562 ) ;
#939 = VECTOR ( 'NONE', #521, 1000.000000000000114 ) ;
#940 = ORIENTED_EDGE ( 'NONE', *, *, #12, .F. ) ;
#941 = EDGE_CURVE ( 'NONE', #785, #597, #599, .T. ) ;
#942 = CARTESIAN_POINT ( 'NONE',  ( -0.5000000000000000000, 20.00000000000000000, 11.00000000000000000 ) ) ;
#943 = DIRECTION ( 'NONE',  ( -1.000000000000000000, 0.000000000000000000, 0.000000000000000000 ) ) ;
#944 =( BOUNDED_CURVE ( )  B_SPLINE_CURVE ( 3, ( #411, #35, #714, #963 ),
 .UNSPECIFIED., .F., .T. ) 
 B_SPLINE_CURVE_WITH_KNOTS ( ( 4, 4 ),
 ( 0.000000000000000000, 1.570796326794896780 ),
 .UNSPECIFIED. ) 
 CURVE ( )  GEOMETRIC_REPRESENTATION_ITEM ( )  RATIONAL_B_SPLINE_CURVE ( ( 1.000000000000000000, 0.8047378541243649375, 0.8047378541243649375, 1.000000000000000000 ) ) 
 REPRESENTATION_ITEM ( '' )  );
#945 = EDGE_LOOP ( 'NONE', ( #791, #217, #710, #167 ) ) ;
#946 = VERTEX_POINT ( 'NONE', #304 ) ;
#947 = DIRECTION ( 'NONE',  ( 0.000000000000000000, 0.000000000000000000, 1.000000000000000000 ) ) ;
#948 = DIRECTION ( 'NONE',  ( -1.000000000000000000, -0.000000000000000000, -0.000000000000000000 ) ) ;
#949 = DIRECTION ( 'NONE',  ( 0.000000000000000000, -1.000000000000000000, 0.000000000000000000 ) ) ;
#950 = EDGE_LOOP ( 'NONE', ( #561, #666, #82, #24 ) ) ;
#951 = TOROIDAL_SURFACE ( 'NONE', #413, 8.499999999999998224, 2.500000000000000000 ) ;
#952 = AXIS2_PLACEMENT_3D ( 'NONE', #544, #75, #993 ) ;
#953 = CARTESIAN_POINT ( 'NONE',  ( 3.000000000000000000, 12.06237332952957431, -7.615384615384606981 ) ) ;
#954 = CARTESIAN_POINT ( 'NONE',  ( 0.000000000000000000, -3.000000000000000000, 1.550000000000000044 ) ) ;
#955 = EDGE_CURVE ( 'NONE', #2, #103, #137, .T. ) ;
#956 = DIRECTION ( 'NONE',  ( 1.000000000000000000, 0.000000000000000000, 0.000000000000000000 ) ) ;
#957 = ORIENTED_EDGE ( 'NONE', *, *, #899, .T. ) ;
#958 = LINE ( 'NONE', #953, #849 ) ;
#959 = DIRECTION ( 'NONE',  ( 1.000000000000000000, -0.000000000000000000, -0.000000000000000000 ) ) ;
#960 = EDGE_LOOP ( 'NONE', ( #259, #700, #249, #396 ) ) ;
#961 = EDGE_LOOP ( 'NONE', ( #626, #402, #772, #660 ) ) ;
#962 = CARTESIAN_POINT ( 'NONE',  ( -0.5000000000000000000, 20.00000000000000000, 0.000000000000000000 ) ) ;
#963 = CARTESIAN_POINT ( 'NONE',  ( -3.000000000000000000, -3.000000000000000000, 2.473186957874966563 ) ) ;
#964 = LINE ( 'NONE', #656, #189 ) ;
#965 = ADVANCED_FACE ( 'NONE', ( #919 ), #532, .T. ) ;
#966 = DIRECTION ( 'NONE',  ( 0.000000000000000000, 1.000000000000000000, -1.224646799147353207E-16 ) ) ;
#967 = AXIS2_PLACEMENT_3D ( 'NONE', #828, #41, #758 ) ;
#968 = VECTOR ( 'NONE', #241, 1000.000000000000000 ) ;
#969 = CARTESIAN_POINT ( 'NONE',  ( 1.898202538678397459E-16, -3.000000000000000000, -1.550000000000000044 ) ) ;
#970 = ADVANCED_FACE ( 'NONE', ( #847 ), #614, .F. ) ;
#971 = CARTESIAN_POINT ( 'NONE',  ( -0.4999999999999995559, 10.61916848035313876, 7.000000000000000000 ) ) ;
#972 = CARTESIAN_POINT ( 'NONE',  ( -3.000000000000000000, -3.000000000000000000, -7.000000000000000000 ) ) ;
#973 = ORIENTED_EDGE ( 'NONE', *, *, #363, .F. ) ;
#974 = CARTESIAN_POINT ( 'NONE',  ( 1.752244171267348882, 10.64413331040651300, 6.670047880475772573 ) ) ;
#975 = CARTESIAN_POINT ( 'NONE',  ( -0.4999999999999995559, 10.98240232764001512, -4.526528518016596614 ) ) ;
#976 = EDGE_CURVE ( 'NONE', #638, #384, #693, .T. ) ;
#977 = CARTESIAN_POINT ( 'NONE',  ( 1.608614661793908773, 10.63818298828143583, -6.746809633574421206 ) ) ;
#978 = EDGE_LOOP ( 'NONE', ( #480, #64, #53, #310 ) ) ;
#979 =( BOUNDED_CURVE ( )  B_SPLINE_CURVE ( 3, ( #582, #344, #608, #40 ),
 .UNSPECIFIED., .F., .F. ) 
 B_SPLINE_CURVE_WITH_KNOTS ( ( 4, 4 ),
 ( 1.570796326794896558, 3.141592653589793116 ),
 .UNSPECIFIED. ) 
 CURVE ( )  GEOMETRIC_REPRESENTATION_ITEM ( )  RATIONAL_B_SPLINE_CURVE ( ( 1.000000000000000000, 0.8047378541243649375, 0.8047378541243649375, 1.000000000000000000 ) ) 
 REPRESENTATION_ITEM ( '' )  );
#980 = DIRECTION ( 'NONE',  ( -1.000000000000000000, 0.000000000000000000, 0.000000000000000000 ) ) ;
#981 = CARTESIAN_POINT ( 'NONE',  ( 0.000000000000000000, -3.000000000000000000, 0.000000000000000000 ) ) ;
#982 = CARTESIAN_POINT ( 'NONE',  ( -3.000000000000000000, 20.00000000000000000, 8.499999999999998224 ) ) ;
#983 = AXIS2_PLACEMENT_3D ( 'NONE', #160, #385, #539 ) ;
#984 = CARTESIAN_POINT ( 'NONE',  ( 2.000000000000000000, 20.00000000000000000, 0.000000000000000000 ) ) ;
#985 = VERTEX_POINT ( 'NONE', #927 ) ;
#986 =( BOUNDED_CURVE ( )  B_SPLINE_CURVE ( 3, ( #933, #781, #143, #374 ),
 .UNSPECIFIED., .F., .F. ) 
 B_SPLINE_CURVE_WITH_KNOTS ( ( 4, 4 ),
 ( 1.570796326794896558, 3.141592653589793116 ),
 .UNSPECIFIED. ) 
 CURVE ( )  GEOMETRIC_REPRESENTATION_ITEM ( )  RATIONAL_B_SPLINE_CURVE ( ( 1.000000000000000000, 0.8047378541243649375, 0.8047378541243649375, 1.000000000000000000 ) ) 
 REPRESENTATION_ITEM ( '' )  );
#987 = CARTESIAN_POINT ( 'NONE',  ( -2.152404855853029542, 10.66715081762693274, 6.383542253709362235 ) ) ;
#988 = DIRECTION ( 'NONE',  ( 1.000000000000000000, 0.000000000000000000, 0.000000000000000000 ) ) ;
#989 = ORIENTED_EDGE ( 'NONE', *, *, #113, .T. ) ;
#990 = CARTESIAN_POINT ( 'NONE',  ( -4.000000000000000000, 20.00000000000000000, -4.000000000000000000 ) ) ;
#991 = ORIENTED_EDGE ( 'NONE', *, *, #690, .T. ) ;
#992 = EDGE_CURVE ( 'NONE', #354, #900, #763, .T. ) ;
#993 = DIRECTION ( 'NONE',  ( 0.000000000000000000, 0.000000000000000000, -1.000000000000000000 ) ) ;
#994 = AXIS2_PLACEMENT_3D ( 'NONE', #421, #879, #659 ) ;
#995 = VERTEX_POINT ( 'NONE', #298 ) ;
ENDSEC;
END-ISO-10303-21;
