ISO-10303-21;
HEADER;
FILE_DESCRIPTION (( 'STEP AP214' ),
    '1' );
FILE_NAME ('distanènik za zgornjo ohišje ojnice.STEP',
    '2025-10-23T13:14:22',
    ( '' ),
    ( '' ),
    'SwSTEP 2.0',
    'SolidWorks 2024',
    '' );
FILE_SCHEMA (( 'AUTOMOTIVE_DESIGN' ));
ENDSEC;

DATA;
#1 = PLANE ( 'NONE',  #84 ) ;
#2 = DIRECTION ( 'NONE',  ( -0.000000000000000000, -0.000000000000000000, -1.000000000000000000 ) ) ;
#3 = CARTESIAN_POINT ( 'NONE',  ( 0.000000000000000000, 0.000000000000000000, 0.000000000000000000 ) ) ;
#4 = AXIS2_PLACEMENT_3D ( 'NONE', #37, #51, #45 ) ;
#5 = CARTESIAN_POINT ( 'NONE',  ( 0.000000000000000000, 0.000000000000000000, 0.000000000000000000 ) ) ;
#6 = ORIENTED_EDGE ( 'NONE', *, *, #108, .T. ) ;
#7 = DIRECTION ( 'NONE',  ( 1.000000000000000000, 0.000000000000000000, 0.000000000000000000 ) ) ;
#8 = AXIS2_PLACEMENT_3D ( 'NONE', #101, #173, #60 ) ;
#9 = FACE_OUTER_BOUND ( 'NONE', #75, .T. ) ;
#10 = EDGE_CURVE ( 'NONE', #76, #196, #44, .T. ) ;
#11 =( LENGTH_UNIT ( ) NAMED_UNIT ( * ) SI_UNIT ( .MILLI., .METRE. ) );
#12 = SHAPE_DEFINITION_REPRESENTATION ( #15, #176 ) ;
#13 = PRESENTATION_LAYER_ASSIGNMENT (  '', '', ( #134 ) ) ;
#14 = AXIS2_PLACEMENT_3D ( 'NONE', #170, #174, #136 ) ;
#15 = PRODUCT_DEFINITION_SHAPE ( 'NONE', 'NONE',  #150 ) ;
#16 = DIRECTION ( 'NONE',  ( 0.000000000000000000, 0.000000000000000000, 1.000000000000000000 ) ) ;
#17 = CYLINDRICAL_SURFACE ( 'NONE', #4, 3.500000000000000000 ) ;
#18 = AXIS2_PLACEMENT_3D ( 'NONE', #70, #128, #182 ) ;
#19 = VERTEX_POINT ( 'NONE', #119 ) ;
#20 = DIRECTION ( 'NONE',  ( 0.000000000000000000, 0.000000000000000000, 1.000000000000000000 ) ) ;
#21 = ORIENTED_EDGE ( 'NONE', *, *, #108, .F. ) ;
#22 = CARTESIAN_POINT ( 'NONE',  ( 0.000000000000000000, 0.000000000000000000, 1.600000000000000089 ) ) ;
#23 = ORIENTED_EDGE ( 'NONE', *, *, #28, .T. ) ;
#24 = UNCERTAINTY_MEASURE_WITH_UNIT (LENGTH_MEASURE( 1.000000000000000082E-05 ), #11, 'distance_accuracy_value', 'NONE');
#25 = APPLICATION_PROTOCOL_DEFINITION ( 'draft international standard', 'automotive_design', 1998, #87 ) ;
#26 = PRESENTATION_STYLE_ASSIGNMENT (( #163 ) ) ;
#27 = CARTESIAN_POINT ( 'NONE',  ( 0.000000000000000000, 0.000000000000000000, 1.600000000000000089 ) ) ;
#28 = EDGE_CURVE ( 'NONE', #19, #120, #185, .T. ) ;
#29 = COLOUR_RGB ( '',0.7921568627450980005, 0.8196078431372548767, 0.9333333333333333481 ) ;
#30 = CYLINDRICAL_SURFACE ( 'NONE', #65, 1.550000000000000044 ) ;
#31 = ORIENTED_EDGE ( 'NONE', *, *, #159, .F. ) ;
#32 = PRODUCT ( 'distan\X2\010d\X0\nik za zgornjo ohi\X2\0161\X0\je ojnice', 'distan\X2\010d\X0\nik za zgornjo ohi\X2\0161\X0\je ojnice', '', ( #192 ) ) ;
#33 = DIRECTION ( 'NONE',  ( 1.000000000000000000, 0.000000000000000000, 0.000000000000000000 ) ) ;
#34 = DIRECTION ( 'NONE',  ( -0.000000000000000000, -0.000000000000000000, -1.000000000000000000 ) ) ;
#35 = CIRCLE ( 'NONE', #137, 1.550000000000000044 ) ;
#36 = CARTESIAN_POINT ( 'NONE',  ( 0.000000000000000000, 0.000000000000000000, 0.000000000000000000 ) ) ;
#37 = CARTESIAN_POINT ( 'NONE',  ( 0.000000000000000000, 0.000000000000000000, 1.600000000000000089 ) ) ;
#38 = ORIENTED_EDGE ( 'NONE', *, *, #53, .F. ) ;
#39 = AXIS2_PLACEMENT_3D ( 'NONE', #27, #130, #83 ) ;
#40 = SURFACE_STYLE_FILL_AREA ( #178 ) ;
#41 = FACE_OUTER_BOUND ( 'NONE', #68, .T. ) ;
#42 = DIRECTION ( 'NONE',  ( 1.000000000000000000, 0.000000000000000000, 0.000000000000000000 ) ) ;
#43 = VERTEX_POINT ( 'NONE', #125 ) ;
#44 = CIRCLE ( 'NONE', #14, 3.500000000000000000 ) ;
#45 = DIRECTION ( 'NONE',  ( -1.000000000000000000, 0.000000000000000000, 0.000000000000000000 ) ) ;
#46 = CARTESIAN_POINT ( 'NONE',  ( 0.000000000000000000, 0.000000000000000000, 1.600000000000000089 ) ) ;
#47 = DIRECTION ( 'NONE',  ( 1.000000000000000000, 0.000000000000000000, 0.000000000000000000 ) ) ;
#48 = ORIENTED_EDGE ( 'NONE', *, *, #159, .T. ) ;
#49 = LINE ( 'NONE', #88, #117 ) ;
#50 = AXIS2_PLACEMENT_3D ( 'NONE', #198, #142, #47 ) ;
#51 = DIRECTION ( 'NONE',  ( -0.000000000000000000, -0.000000000000000000, -1.000000000000000000 ) ) ;
#52 = ORIENTED_EDGE ( 'NONE', *, *, #115, .F. ) ;
#53 = EDGE_CURVE ( 'NONE', #120, #112, #171, .T. ) ;
#54 =( NAMED_UNIT ( * ) SI_UNIT ( $, .STERADIAN. ) SOLID_ANGLE_UNIT ( ) );
#55 = DIRECTION ( 'NONE',  ( -0.000000000000000000, -0.000000000000000000, -1.000000000000000000 ) ) ;
#56 =( NAMED_UNIT ( * ) PLANE_ANGLE_UNIT ( ) SI_UNIT ( $, .RADIAN. ) );
#57 = MECHANICAL_DESIGN_GEOMETRIC_PRESENTATION_REPRESENTATION (  '', ( #134 ), #114 ) ;
#58 = ORIENTED_EDGE ( 'NONE', *, *, #184, .T. ) ;
#59 = CIRCLE ( 'NONE', #8, 3.500000000000000000 ) ;
#60 = DIRECTION ( 'NONE',  ( 1.000000000000000000, 0.000000000000000000, 0.000000000000000000 ) ) ;
#61 = AXIS2_PLACEMENT_3D ( 'NONE', #5, #67, #126 ) ;
#62 = CARTESIAN_POINT ( 'NONE',  ( -3.500000000000000000, 0.000000000000000000, 0.000000000000000000 ) ) ;
#63 = CARTESIAN_POINT ( 'NONE',  ( 0.000000000000000000, 0.000000000000000000, 0.000000000000000000 ) ) ;
#64 = EDGE_LOOP ( 'NONE', ( #191, #94 ) ) ;
#65 = AXIS2_PLACEMENT_3D ( 'NONE', #85, #162, #148 ) ;
#66 = EDGE_LOOP ( 'NONE', ( #6, #58 ) ) ;
#67 = DIRECTION ( 'NONE',  ( 0.000000000000000000, 0.000000000000000000, 1.000000000000000000 ) ) ;
#68 = EDGE_LOOP ( 'NONE', ( #38, #48, #166, #132 ) ) ;
#69 = SURFACE_SIDE_STYLE ('',( #40 ) ) ;
#70 = CARTESIAN_POINT ( 'NONE',  ( 0.000000000000000000, 0.000000000000000000, 1.600000000000000089 ) ) ;
#71 = ADVANCED_FACE ( 'NONE', ( #175 ), #17, .T. ) ;
#72 = VECTOR ( 'NONE', #2, 1000.000000000000000 ) ;
#73 = ORIENTED_EDGE ( 'NONE', *, *, #172, .F. ) ;
#74 = DIRECTION ( 'NONE',  ( 1.000000000000000000, 0.000000000000000000, -0.000000000000000000 ) ) ;
#75 = EDGE_LOOP ( 'NONE', ( #52, #100, #102, #168 ) ) ;
#76 = VERTEX_POINT ( 'NONE', #104 ) ;
#77 = EDGE_CURVE ( 'NONE', #86, #177, #113, .T. ) ;
#78 = LINE ( 'NONE', #140, #72 ) ;
#79 = ORIENTED_EDGE ( 'NONE', *, *, #53, .T. ) ;
#80 = PRODUCT_DEFINITION_FORMATION_WITH_SPECIFIED_SOURCE ( 'ANY', '', #32, .NOT_KNOWN. ) ;
#81 = CYLINDRICAL_SURFACE ( 'NONE', #18, 3.500000000000000000 ) ;
#82 =( NAMED_UNIT ( * ) SI_UNIT ( $, .STERADIAN. ) SOLID_ANGLE_UNIT ( ) );
#83 = DIRECTION ( 'NONE',  ( -1.000000000000000000, 0.000000000000000000, 0.000000000000000000 ) ) ;
#84 = AXIS2_PLACEMENT_3D ( 'NONE', #63, #92, #158 ) ;
#85 = CARTESIAN_POINT ( 'NONE',  ( 0.000000000000000000, 0.000000000000000000, 1.600000000000000089 ) ) ;
#86 = VERTEX_POINT ( 'NONE', #62 ) ;
#87 = APPLICATION_CONTEXT ( 'automotive_design' ) ;
#88 = CARTESIAN_POINT ( 'NONE',  ( -3.500000000000000000, 0.000000000000000000, 1.600000000000000089 ) ) ;
#89 = DIRECTION ( 'NONE',  ( 1.000000000000000000, 0.000000000000000000, 0.000000000000000000 ) ) ;
#90 = FACE_OUTER_BOUND ( 'NONE', #64, .T. ) ;
#91 = UNCERTAINTY_MEASURE_WITH_UNIT (LENGTH_MEASURE( 1.000000000000000082E-05 ), #149, 'distance_accuracy_value', 'NONE');
#92 = DIRECTION ( 'NONE',  ( 0.000000000000000000, 0.000000000000000000, 1.000000000000000000 ) ) ;
#93 = PLANE ( 'NONE',  #152 ) ;
#94 = ORIENTED_EDGE ( 'NONE', *, *, #115, .T. ) ;
#95 = DIRECTION ( 'NONE',  ( 0.000000000000000000, 0.000000000000000000, 1.000000000000000000 ) ) ;
#96 = VECTOR ( 'NONE', #55, 1000.000000000000000 ) ;
#97 = EDGE_CURVE ( 'NONE', #76, #86, #49, .T. ) ;
#98 = CARTESIAN_POINT ( 'NONE',  ( 1.550000000000000044, 1.898202538678397459E-16, 0.000000000000000000 ) ) ;
#99 = ADVANCED_FACE ( 'NONE', ( #90, #138 ), #93, .T. ) ;
#100 = ORIENTED_EDGE ( 'NONE', *, *, #141, .T. ) ;
#101 = CARTESIAN_POINT ( 'NONE',  ( 0.000000000000000000, 0.000000000000000000, 1.600000000000000089 ) ) ;
#102 = ORIENTED_EDGE ( 'NONE', *, *, #133, .T. ) ;
#103 = ORIENTED_EDGE ( 'NONE', *, *, #133, .F. ) ;
#104 = CARTESIAN_POINT ( 'NONE',  ( -3.500000000000000000, 0.000000000000000000, 1.600000000000000089 ) ) ;
#105 = PRODUCT_RELATED_PRODUCT_CATEGORY ( 'part', '', ( #32 ) ) ;
#106 = ORIENTED_EDGE ( 'NONE', *, *, #28, .F. ) ;
#107 = FILL_AREA_STYLE_COLOUR ( '', #29 ) ;
#108 = EDGE_CURVE ( 'NONE', #43, #112, #157, .T. ) ;
#109 = CYLINDRICAL_SURFACE ( 'NONE', #39, 1.550000000000000044 ) ;
#110 = ORIENTED_EDGE ( 'NONE', *, *, #10, .F. ) ;
#111 = FACE_OUTER_BOUND ( 'NONE', #193, .T. ) ;
#112 = VERTEX_POINT ( 'NONE', #98 ) ;
#113 = CIRCLE ( 'NONE', #169, 3.500000000000000000 ) ;
#114 =( GEOMETRIC_REPRESENTATION_CONTEXT ( 3 ) GLOBAL_UNCERTAINTY_ASSIGNED_CONTEXT ( ( #91 ) ) GLOBAL_UNIT_ASSIGNED_CONTEXT ( ( #149, #56, #54 ) ) REPRESENTATION_CONTEXT ( 'NONE', 'WORKASPACE' ) );
#115 = EDGE_CURVE ( 'NONE', #196, #76, #59, .T. ) ;
#116 = EDGE_LOOP ( 'NONE', ( #188, #110, #127, #121 ) ) ;
#117 = VECTOR ( 'NONE', #34, 1000.000000000000000 ) ;
#118 = CARTESIAN_POINT ( 'NONE',  ( 0.000000000000000000, 0.000000000000000000, 1.600000000000000089 ) ) ;
#119 = CARTESIAN_POINT ( 'NONE',  ( -1.550000000000000044, 0.000000000000000000, 1.600000000000000089 ) ) ;
#120 = VERTEX_POINT ( 'NONE', #199 ) ;
#121 = ORIENTED_EDGE ( 'NONE', *, *, #77, .T. ) ;
#122 = AXIS2_PLACEMENT_3D ( 'NONE', #3, #20, #160 ) ;
#123 = AXIS2_PLACEMENT_3D ( 'NONE', #46, #154, #33 ) ;
#124 = ADVANCED_FACE ( 'NONE', ( #186, #139 ), #1, .F. ) ;
#125 = CARTESIAN_POINT ( 'NONE',  ( -1.550000000000000044, 0.000000000000000000, 0.000000000000000000 ) ) ;
#126 = DIRECTION ( 'NONE',  ( 1.000000000000000000, 0.000000000000000000, 0.000000000000000000 ) ) ;
#127 = ORIENTED_EDGE ( 'NONE', *, *, #97, .T. ) ;
#128 = DIRECTION ( 'NONE',  ( -0.000000000000000000, -0.000000000000000000, -1.000000000000000000 ) ) ;
#129 = LINE ( 'NONE', #195, #96 ) ;
#130 = DIRECTION ( 'NONE',  ( -0.000000000000000000, -0.000000000000000000, -1.000000000000000000 ) ) ;
#131 = ORIENTED_EDGE ( 'NONE', *, *, #77, .F. ) ;
#132 = ORIENTED_EDGE ( 'NONE', *, *, #184, .F. ) ;
#133 = EDGE_CURVE ( 'NONE', #177, #86, #161, .T. ) ;
#134 = STYLED_ITEM ( 'NONE', ( #26 ), #153 ) ;
#135 = APPLICATION_PROTOCOL_DEFINITION ( 'draft international standard', 'automotive_design', 1998, #156 ) ;
#136 = DIRECTION ( 'NONE',  ( 1.000000000000000000, 0.000000000000000000, 0.000000000000000000 ) ) ;
#137 = AXIS2_PLACEMENT_3D ( 'NONE', #22, #180, #42 ) ;
#138 = FACE_BOUND ( 'NONE', #146, .T. ) ;
#139 = FACE_BOUND ( 'NONE', #66, .T. ) ;
#140 = CARTESIAN_POINT ( 'NONE',  ( 3.500000000000000000, 4.286263797015736595E-16, 1.600000000000000089 ) ) ;
#141 = EDGE_CURVE ( 'NONE', #196, #177, #78, .T. ) ;
#142 = DIRECTION ( 'NONE',  ( 0.000000000000000000, 0.000000000000000000, 1.000000000000000000 ) ) ;
#143 =( GEOMETRIC_REPRESENTATION_CONTEXT ( 3 ) GLOBAL_UNCERTAINTY_ASSIGNED_CONTEXT ( ( #24 ) ) GLOBAL_UNIT_ASSIGNED_CONTEXT ( ( #11, #165, #82 ) ) REPRESENTATION_CONTEXT ( 'NONE', 'WORKASPACE' ) );
#144 = VECTOR ( 'NONE', #187, 1000.000000000000000 ) ;
#145 = PRODUCT_DEFINITION_CONTEXT ( 'detailed design', #156, 'design' ) ;
#146 = EDGE_LOOP ( 'NONE', ( #106, #31 ) ) ;
#147 = AXIS2_PLACEMENT_3D ( 'NONE', #181, #95, #7 ) ;
#148 = DIRECTION ( 'NONE',  ( -1.000000000000000000, 0.000000000000000000, 0.000000000000000000 ) ) ;
#149 =( LENGTH_UNIT ( ) NAMED_UNIT ( * ) SI_UNIT ( .MILLI., .METRE. ) );
#150 = PRODUCT_DEFINITION ( 'UNKNOWN', '', #80, #145 ) ;
#151 = CIRCLE ( 'NONE', #147, 1.550000000000000044 ) ;
#152 = AXIS2_PLACEMENT_3D ( 'NONE', #118, #16, #74 ) ;
#153 = MANIFOLD_SOLID_BREP ( 'Boss-Extrude1', #183 ) ;
#154 = DIRECTION ( 'NONE',  ( 0.000000000000000000, 0.000000000000000000, 1.000000000000000000 ) ) ;
#155 = DIRECTION ( 'NONE',  ( 0.000000000000000000, 0.000000000000000000, 1.000000000000000000 ) ) ;
#156 = APPLICATION_CONTEXT ( 'automotive_design' ) ;
#157 = CIRCLE ( 'NONE', #50, 1.550000000000000044 ) ;
#158 = DIRECTION ( 'NONE',  ( 1.000000000000000000, 0.000000000000000000, -0.000000000000000000 ) ) ;
#159 = EDGE_CURVE ( 'NONE', #120, #19, #35, .T. ) ;
#160 = DIRECTION ( 'NONE',  ( 1.000000000000000000, 0.000000000000000000, 0.000000000000000000 ) ) ;
#161 = CIRCLE ( 'NONE', #122, 3.500000000000000000 ) ;
#162 = DIRECTION ( 'NONE',  ( -0.000000000000000000, -0.000000000000000000, -1.000000000000000000 ) ) ;
#163 = SURFACE_STYLE_USAGE ( .BOTH. , #69 ) ;
#164 = CARTESIAN_POINT ( 'NONE',  ( 3.500000000000000000, 4.286263797015736595E-16, 1.600000000000000089 ) ) ;
#165 =( NAMED_UNIT ( * ) PLANE_ANGLE_UNIT ( ) SI_UNIT ( $, .RADIAN. ) );
#166 = ORIENTED_EDGE ( 'NONE', *, *, #172, .T. ) ;
#167 = ADVANCED_FACE ( 'NONE', ( #41 ), #109, .F. ) ;
#168 = ORIENTED_EDGE ( 'NONE', *, *, #97, .F. ) ;
#169 = AXIS2_PLACEMENT_3D ( 'NONE', #36, #155, #89 ) ;
#170 = CARTESIAN_POINT ( 'NONE',  ( 0.000000000000000000, 0.000000000000000000, 1.600000000000000089 ) ) ;
#171 = LINE ( 'NONE', #190, #144 ) ;
#172 = EDGE_CURVE ( 'NONE', #19, #43, #129, .T. ) ;
#173 = DIRECTION ( 'NONE',  ( 0.000000000000000000, 0.000000000000000000, 1.000000000000000000 ) ) ;
#174 = DIRECTION ( 'NONE',  ( 0.000000000000000000, 0.000000000000000000, 1.000000000000000000 ) ) ;
#175 = FACE_OUTER_BOUND ( 'NONE', #116, .T. ) ;
#176 = ADVANCED_BREP_SHAPE_REPRESENTATION ( 'distan\X2\010d\X0\nik za zgornjo ohi\X2\0161\X0\je ojnice', ( #153, #61 ), #143 ) ;
#177 = VERTEX_POINT ( 'NONE', #194 ) ;
#178 = FILL_AREA_STYLE ('',( #107 ) ) ;
#179 = ADVANCED_FACE ( 'NONE', ( #9 ), #81, .T. ) ;
#180 = DIRECTION ( 'NONE',  ( 0.000000000000000000, 0.000000000000000000, 1.000000000000000000 ) ) ;
#181 = CARTESIAN_POINT ( 'NONE',  ( 0.000000000000000000, 0.000000000000000000, 0.000000000000000000 ) ) ;
#182 = DIRECTION ( 'NONE',  ( -1.000000000000000000, 0.000000000000000000, 0.000000000000000000 ) ) ;
#183 = CLOSED_SHELL ( 'NONE', ( #197, #179, #99, #124, #71, #167 ) ) ;
#184 = EDGE_CURVE ( 'NONE', #112, #43, #151, .T. ) ;
#185 = CIRCLE ( 'NONE', #123, 1.550000000000000044 ) ;
#186 = FACE_OUTER_BOUND ( 'NONE', #189, .T. ) ;
#187 = DIRECTION ( 'NONE',  ( -0.000000000000000000, -0.000000000000000000, -1.000000000000000000 ) ) ;
#188 = ORIENTED_EDGE ( 'NONE', *, *, #141, .F. ) ;
#189 = EDGE_LOOP ( 'NONE', ( #131, #103 ) ) ;
#190 = CARTESIAN_POINT ( 'NONE',  ( 1.550000000000000044, 1.898202538678397459E-16, 1.600000000000000089 ) ) ;
#191 = ORIENTED_EDGE ( 'NONE', *, *, #10, .T. ) ;
#192 = PRODUCT_CONTEXT ( 'NONE', #87, 'mechanical' ) ;
#193 = EDGE_LOOP ( 'NONE', ( #23, #79, #21, #73 ) ) ;
#194 = CARTESIAN_POINT ( 'NONE',  ( 3.500000000000000000, 4.286263797015736595E-16, 0.000000000000000000 ) ) ;
#195 = CARTESIAN_POINT ( 'NONE',  ( -1.550000000000000044, 0.000000000000000000, 1.600000000000000089 ) ) ;
#196 = VERTEX_POINT ( 'NONE', #164 ) ;
#197 = ADVANCED_FACE ( 'NONE', ( #111 ), #30, .F. ) ;
#198 = CARTESIAN_POINT ( 'NONE',  ( 0.000000000000000000, 0.000000000000000000, 0.000000000000000000 ) ) ;
#199 = CARTESIAN_POINT ( 'NONE',  ( 1.550000000000000044, 1.898202538678397459E-16, 1.600000000000000089 ) ) ;
ENDSEC;
END-ISO-10303-21;
