ISO-10303-21;
HEADER;
FILE_DESCRIPTION (( 'STEP AP214' ),
    '1' );
FILE_NAME ('Novo držalo.STEP',
    '2025-10-23T13:12:35',
    ( '' ),
    ( '' ),
    'SwSTEP 2.0',
    'SolidWorks 2024',
    '' );
FILE_SCHEMA (( 'AUTOMOTIVE_DESIGN' ));
ENDSEC;

DATA;
#1 = FACE_OUTER_BOUND ( 'NONE', #599, .T. ) ;
#2 = LINE ( 'NONE', #218, #402 ) ;
#3 = AXIS2_PLACEMENT_3D ( 'NONE', #681, #72, #244 ) ;
#4 = ORIENTED_EDGE ( 'NONE', *, *, #115, .F. ) ;
#5 = DIRECTION ( 'NONE',  ( 0.000000000000000000, 0.000000000000000000, -1.000000000000000000 ) ) ;
#6 = DIRECTION ( 'NONE',  ( -0.000000000000000000, -0.000000000000000000, -1.000000000000000000 ) ) ;
#7 = ORIENTED_EDGE ( 'NONE', *, *, #261, .T. ) ;
#8 = ORIENTED_EDGE ( 'NONE', *, *, #198, .F. ) ;
#9 = AXIS2_PLACEMENT_3D ( 'NONE', #585, #316, #148 ) ;
#10 = ADVANCED_FACE ( 'NONE', ( #408 ), #579, .F. ) ;
#11 = EDGE_LOOP ( 'NONE', ( #109, #395, #155, #289 ) ) ;
#12 = PRODUCT_DEFINITION_CONTEXT ( 'detailed design', #692, 'design' ) ;
#13 = CARTESIAN_POINT ( 'NONE',  ( 2.600000000000005862, -18.00000000000000355, 21.00000000000000000 ) ) ;
#14 = ORIENTED_EDGE ( 'NONE', *, *, #172, .T. ) ;
#15 = CARTESIAN_POINT ( 'NONE',  ( 5.204170427930421283E-15, -18.00000000000000355, 21.00000000000000000 ) ) ;
#16 = ORIENTED_EDGE ( 'NONE', *, *, #166, .T. ) ;
#17 = EDGE_CURVE ( 'NONE', #573, #131, #210, .T. ) ;
#18 = CIRCLE ( 'NONE', #56, 2.600000000000000533 ) ;
#19 = FACE_OUTER_BOUND ( 'NONE', #309, .T. ) ;
#20 = VERTEX_POINT ( 'NONE', #152 ) ;
#21 = ORIENTED_EDGE ( 'NONE', *, *, #420, .T. ) ;
#22 = CARTESIAN_POINT ( 'NONE',  ( -10.00000000000000178, 22.00000000000000000, 21.00000000000000000 ) ) ;
#23 = DIRECTION ( 'NONE',  ( 0.000000000000000000, 0.000000000000000000, -1.000000000000000000 ) ) ;
#24 = ORIENTED_EDGE ( 'NONE', *, *, #42, .F. ) ;
#25 = ORIENTED_EDGE ( 'NONE', *, *, #671, .T. ) ;
#26 = FACE_OUTER_BOUND ( 'NONE', #214, .T. ) ;
#27 = DIRECTION ( 'NONE',  ( 1.000000000000000000, 0.000000000000000000, 0.000000000000000000 ) ) ;
#28 = CARTESIAN_POINT ( 'NONE',  ( -10.00000000000000178, -25.00000000000000000, 0.000000000000000000 ) ) ;
#29 = EDGE_CURVE ( 'NONE', #187, #182, #569, .T. ) ;
#30 = DIRECTION ( 'NONE',  ( -1.000000000000000000, 0.000000000000000000, 0.000000000000000000 ) ) ;
#31 =( GEOMETRIC_REPRESENTATION_CONTEXT ( 3 ) GLOBAL_UNCERTAINTY_ASSIGNED_CONTEXT ( ( #64 ) ) GLOBAL_UNIT_ASSIGNED_CONTEXT ( ( #223, #652, #490 ) ) REPRESENTATION_CONTEXT ( 'NONE', 'WORKASPACE' ) );
#32 = DIRECTION ( 'NONE',  ( 0.000000000000000000, 0.000000000000000000, -1.000000000000000000 ) ) ;
#33 = EDGE_LOOP ( 'NONE', ( #390, #330 ) ) ;
#34 = ORIENTED_EDGE ( 'NONE', *, *, #251, .F. ) ;
#35 = DIRECTION ( 'NONE',  ( -1.000000000000000000, 1.156482317317871331E-15, 0.000000000000000000 ) ) ;
#36 = LINE ( 'NONE', #643, #179 ) ;
#37 = CARTESIAN_POINT ( 'NONE',  ( -10.00000000000000178, 25.00000000000000000, 21.00000000000000000 ) ) ;
#38 = ADVANCED_FACE ( 'NONE', ( #40 ), #259, .T. ) ;
#39 = CARTESIAN_POINT ( 'NONE',  ( 6.999999999999995559, 22.00000000000000355, 21.00000000000000000 ) ) ;
#40 = FACE_OUTER_BOUND ( 'NONE', #491, .T. ) ;
#41 = PLANE ( 'NONE',  #104 ) ;
#42 = EDGE_CURVE ( 'NONE', #501, #290, #505, .T. ) ;
#43 = LINE ( 'NONE', #471, #480 ) ;
#44 = VERTEX_POINT ( 'NONE', #206 ) ;
#45 = FACE_OUTER_BOUND ( 'NONE', #423, .T. ) ;
#46 = VECTOR ( 'NONE', #659, 1000.000000000000000 ) ;
#47 = CIRCLE ( 'NONE', #449, 3.000000000000000000 ) ;
#48 = AXIS2_PLACEMENT_3D ( 'NONE', #128, #199, #571 ) ;
#49 = CARTESIAN_POINT ( 'NONE',  ( 9.999999999999998224, 22.00000000000000000, 21.00000000000000000 ) ) ;
#50 = EDGE_CURVE ( 'NONE', #612, #141, #638, .T. ) ;
#51 = DIRECTION ( 'NONE',  ( -0.000000000000000000, 0.000000000000000000, -1.000000000000000000 ) ) ;
#52 = EDGE_LOOP ( 'NONE', ( #14, #21, #594, #682 ) ) ;
#53 = LINE ( 'NONE', #67, #342 ) ;
#54 = AXIS2_PLACEMENT_3D ( 'NONE', #609, #27, #23 ) ;
#55 = VECTOR ( 'NONE', #417, 1000.000000000000000 ) ;
#56 = AXIS2_PLACEMENT_3D ( 'NONE', #15, #443, #665 ) ;
#57 = VECTOR ( 'NONE', #651, 1000.000000000000000 ) ;
#58 = AXIS2_PLACEMENT_3D ( 'NONE', #100, #265, #140 ) ;
#59 =( NAMED_UNIT ( * ) SI_UNIT ( $, .STERADIAN. ) SOLID_ANGLE_UNIT ( ) );
#60 = DIRECTION ( 'NONE',  ( -0.000000000000000000, -0.000000000000000000, -1.000000000000000000 ) ) ;
#61 = EDGE_CURVE ( 'NONE', #325, #279, #236, .T. ) ;
#62 = DIRECTION ( 'NONE',  ( -0.000000000000000000, 0.000000000000000000, -1.000000000000000000 ) ) ;
#63 = FILL_AREA_STYLE_COLOUR ( '', #270 ) ;
#64 = UNCERTAINTY_MEASURE_WITH_UNIT (LENGTH_MEASURE( 1.000000000000000082E-05 ), #223, 'distance_accuracy_value', 'NONE');
#65 = EDGE_CURVE ( 'NONE', #182, #124, #178, .T. ) ;
#66 = CARTESIAN_POINT ( 'NONE',  ( -10.00000000000000178, 5.900000000000002132, 0.000000000000000000 ) ) ;
#67 = CARTESIAN_POINT ( 'NONE',  ( -10.00000000000000178, 25.00000000000000000, 11.00000000000000000 ) ) ;
#68 = EDGE_LOOP ( 'NONE', ( #201, #556, #103, #25, #160, #7, #224, #414 ) ) ;
#69 = AXIS2_PLACEMENT_3D ( 'NONE', #451, #185, #409 ) ;
#70 = CARTESIAN_POINT ( 'NONE',  ( 9.999999999999998224, -22.00000000000000355, 21.00000000000000000 ) ) ;
#71 = VERTEX_POINT ( 'NONE', #49 ) ;
#72 = DIRECTION ( 'NONE',  ( -0.000000000000000000, -0.000000000000000000, -1.000000000000000000 ) ) ;
#73 = ORIENTED_EDGE ( 'NONE', *, *, #415, .T. ) ;
#74 = EDGE_CURVE ( 'NONE', #71, #573, #621, .T. ) ;
#75 = PLANE ( 'NONE',  #54 ) ;
#76 = ORIENTED_EDGE ( 'NONE', *, *, #61, .F. ) ;
#77 = AXIS2_PLACEMENT_3D ( 'NONE', #399, #142, #412 ) ;
#78 = DIRECTION ( 'NONE',  ( -1.000000000000000000, -0.000000000000000000, -0.000000000000000000 ) ) ;
#79 = AXIS2_PLACEMENT_3D ( 'NONE', #604, #647, #267 ) ;
#80 = LINE ( 'NONE', #551, #607 ) ;
#81 = ORIENTED_EDGE ( 'NONE', *, *, #555, .T. ) ;
#82 = EDGE_CURVE ( 'NONE', #20, #341, #314, .T. ) ;
#83 = DIRECTION ( 'NONE',  ( -0.000000000000000000, -0.000000000000000000, 1.000000000000000000 ) ) ;
#84 = CARTESIAN_POINT ( 'NONE',  ( -10.00000000000000178, 1.400000000000003908, -2.640970522028243333E-15 ) ) ;
#85 = VERTEX_POINT ( 'NONE', #358 ) ;
#86 = VERTEX_POINT ( 'NONE', #135 ) ;
#87 = FACE_BOUND ( 'NONE', #122, .T. ) ;
#88 = DIRECTION ( 'NONE',  ( 0.000000000000000000, 1.000000000000000000, 0.000000000000000000 ) ) ;
#89 = ORIENTED_EDGE ( 'NONE', *, *, #476, .F. ) ;
#90 = FACE_BOUND ( 'NONE', #184, .T. ) ;
#91 = DIRECTION ( 'NONE',  ( 0.000000000000000000, -0.7071067811865485719, 0.7071067811865465735 ) ) ;
#92 = ORIENTED_EDGE ( 'NONE', *, *, #261, .F. ) ;
#93 = AXIS2_PLACEMENT_3D ( 'NONE', #581, #96, #365 ) ;
#94 = CARTESIAN_POINT ( 'NONE',  ( 9.999999999999996447, 5.900000000000002132, 0.000000000000000000 ) ) ;
#95 = DIRECTION ( 'NONE',  ( -0.000000000000000000, 0.000000000000000000, -1.000000000000000000 ) ) ;
#96 = DIRECTION ( 'NONE',  ( -0.000000000000000000, 0.7071067811865463515, 0.7071067811865487940 ) ) ;
#97 = FACE_OUTER_BOUND ( 'NONE', #276, .T. ) ;
#98 = ORIENTED_EDGE ( 'NONE', *, *, #639, .F. ) ;
#99 = DIRECTION ( 'NONE',  ( -1.000000000000000000, 0.000000000000000000, 0.000000000000000000 ) ) ;
#100 = CARTESIAN_POINT ( 'NONE',  ( 0.000000000000000000, 0.000000000000000000, 0.000000000000000000 ) ) ;
#101 = CARTESIAN_POINT ( 'NONE',  ( 6.999999999999995559, 22.00000000000000355, 21.00000000000000000 ) ) ;
#102 = VECTOR ( 'NONE', #566, 1000.000000000000000 ) ;
#103 = ORIENTED_EDGE ( 'NONE', *, *, #17, .T. ) ;
#104 = AXIS2_PLACEMENT_3D ( 'NONE', #260, #99, #416 ) ;
#105 = ADVANCED_FACE ( 'NONE', ( #90, #203 ), #242, .T. ) ;
#106 = CARTESIAN_POINT ( 'NONE',  ( -10.00000000000000178, 3.469446951953614189E-15, 1.399999999999995026 ) ) ;
#107 = VERTEX_POINT ( 'NONE', #691 ) ;
#108 = SURFACE_SIDE_STYLE ('',( #544 ) ) ;
#109 = ORIENTED_EDGE ( 'NONE', *, *, #430, .T. ) ;
#110 = CARTESIAN_POINT ( 'NONE',  ( -2.599999999999995648, -18.00000000000000355, 11.00000000000000000 ) ) ;
#111 = ORIENTED_EDGE ( 'NONE', *, *, #17, .F. ) ;
#112 = AXIS2_PLACEMENT_3D ( 'NONE', #262, #144, #304 ) ;
#113 = CYLINDRICAL_SURFACE ( 'NONE', #523, 3.000000000000000000 ) ;
#114 = ORIENTED_EDGE ( 'NONE', *, *, #444, .F. ) ;
#115 = EDGE_CURVE ( 'NONE', #124, #325, #630, .T. ) ;
#116 = DIRECTION ( 'NONE',  ( 0.000000000000000000, 1.000000000000000000, 0.000000000000000000 ) ) ;
#117 = ADVANCED_FACE ( 'NONE', ( #687 ), #196, .F. ) ;
#118 = DIRECTION ( 'NONE',  ( -0.000000000000000000, -0.000000000000000000, 1.000000000000000000 ) ) ;
#119 = ORIENTED_EDGE ( 'NONE', *, *, #373, .F. ) ;
#120 = VECTOR ( 'NONE', #553, 1000.000000000000000 ) ;
#121 = DIRECTION ( 'NONE',  ( 1.000000000000000000, 0.000000000000000000, -0.000000000000000000 ) ) ;
#122 = EDGE_LOOP ( 'NONE', ( #400, #486 ) ) ;
#123 = DIRECTION ( 'NONE',  ( -1.000000000000000000, 0.000000000000000000, 0.000000000000000000 ) ) ;
#124 = VERTEX_POINT ( 'NONE', #680 ) ;
#125 = DIRECTION ( 'NONE',  ( -1.000000000000000000, -0.000000000000000000, -0.000000000000000000 ) ) ;
#126 = ORIENTED_EDGE ( 'NONE', *, *, #646, .F. ) ;
#127 = AXIS2_PLACEMENT_3D ( 'NONE', #496, #675, #247 ) ;
#128 = CARTESIAN_POINT ( 'NONE',  ( -7.000000000000002665, 22.00000000000000000, 21.00000000000000000 ) ) ;
#129 = AXIS2_PLACEMENT_3D ( 'NONE', #520, #582, #366 ) ;
#130 = CARTESIAN_POINT ( 'NONE',  ( 5.204170427930421283E-15, 18.00000000000000355, 21.00000000000000000 ) ) ;
#131 = VERTEX_POINT ( 'NONE', #295 ) ;
#132 = CARTESIAN_POINT ( 'NONE',  ( 9.999999999999998224, 0.000000000000000000, 1.399999999999996581 ) ) ;
#133 = EDGE_CURVE ( 'NONE', #478, #234, #636, .T. ) ;
#134 = ORIENTED_EDGE ( 'NONE', *, *, #387, .F. ) ;
#135 = CARTESIAN_POINT ( 'NONE',  ( -2.599999999999995648, 18.00000000000000355, 11.00000000000000000 ) ) ;
#136 = CARTESIAN_POINT ( 'NONE',  ( 6.999999999999995559, 25.00000000000000000, 21.00000000000000000 ) ) ;
#137 = CARTESIAN_POINT ( 'NONE',  ( -7.000000000000002665, -22.00000000000000355, 11.00000000000000000 ) ) ;
#138 = ORIENTED_EDGE ( 'NONE', *, *, #567, .F. ) ;
#139 = CYLINDRICAL_SURFACE ( 'NONE', #459, 3.000000000000000000 ) ;
#140 = DIRECTION ( 'NONE',  ( -1.000000000000000000, 0.000000000000000000, -0.000000000000000000 ) ) ;
#141 = VERTEX_POINT ( 'NONE', #94 ) ;
#142 = DIRECTION ( 'NONE',  ( 0.000000000000000000, -1.000000000000000000, 0.000000000000000000 ) ) ;
#143 = VECTOR ( 'NONE', #352, 1000.000000000000000 ) ;
#144 = DIRECTION ( 'NONE',  ( -0.000000000000000000, -0.000000000000000000, -1.000000000000000000 ) ) ;
#145 = ORIENTED_EDGE ( 'NONE', *, *, #133, .T. ) ;
#146 = EDGE_CURVE ( 'NONE', #341, #229, #700, .T. ) ;
#147 =( GEOMETRIC_REPRESENTATION_CONTEXT ( 3 ) GLOBAL_UNCERTAINTY_ASSIGNED_CONTEXT ( ( #388 ) ) GLOBAL_UNIT_ASSIGNED_CONTEXT ( ( #277, #600, #59 ) ) REPRESENTATION_CONTEXT ( 'NONE', 'WORKASPACE' ) );
#148 = DIRECTION ( 'NONE',  ( 1.000000000000000000, 0.000000000000000000, 0.000000000000000000 ) ) ;
#149 = AXIS2_PLACEMENT_3D ( 'NONE', #704, #91, #518 ) ;
#150 = DIRECTION ( 'NONE',  ( -1.000000000000000000, 0.000000000000000000, -0.000000000000000000 ) ) ;
#151 = CYLINDRICAL_SURFACE ( 'NONE', #112, 2.600000000000000533 ) ;
#152 = CARTESIAN_POINT ( 'NONE',  ( -7.000000000000002665, -25.00000000000000000, 21.00000000000000000 ) ) ;
#153 = CARTESIAN_POINT ( 'NONE',  ( -7.000000000000002665, -25.00000000000000000, 11.00000000000000000 ) ) ;
#154 = FACE_OUTER_BOUND ( 'NONE', #333, .T. ) ;
#155 = ORIENTED_EDGE ( 'NONE', *, *, #166, .F. ) ;
#156 = DIRECTION ( 'NONE',  ( 0.000000000000000000, 1.000000000000000000, -0.000000000000000000 ) ) ;
#157 = VECTOR ( 'NONE', #662, 1000.000000000000000 ) ;
#158 = DIRECTION ( 'NONE',  ( -0.000000000000000000, 0.7071067811865487940, -0.7071067811865463515 ) ) ;
#159 = LINE ( 'NONE', #208, #264 ) ;
#160 = ORIENTED_EDGE ( 'NONE', *, *, #547, .T. ) ;
#161 = APPLICATION_PROTOCOL_DEFINITION ( 'draft international standard', 'automotive_design', 1998, #488 ) ;
#162 = LINE ( 'NONE', #532, #367 ) ;
#163 = ORIENTED_EDGE ( 'NONE', *, *, #115, .T. ) ;
#164 = SHAPE_DEFINITION_REPRESENTATION ( #389, #537 ) ;
#165 = PRESENTATION_STYLE_ASSIGNMENT (( #332 ) ) ;
#166 = EDGE_CURVE ( 'NONE', #612, #466, #503, .T. ) ;
#167 = DIRECTION ( 'NONE',  ( -0.000000000000000000, -0.000000000000000000, -1.000000000000000000 ) ) ;
#168 = ORIENTED_EDGE ( 'NONE', *, *, #593, .T. ) ;
#169 = VECTOR ( 'NONE', #167, 1000.000000000000000 ) ;
#170 = PRODUCT_DEFINITION_FORMATION_WITH_SPECIFIED_SOURCE ( 'ANY', '', #479, .NOT_KNOWN. ) ;
#171 = LINE ( 'NONE', #601, #498 ) ;
#172 = EDGE_CURVE ( 'NONE', #554, #522, #576, .T. ) ;
#173 = LINE ( 'NONE', #605, #217 ) ;
#174 = ORIENTED_EDGE ( 'NONE', *, *, #133, .F. ) ;
#175 = ADVANCED_FACE ( 'NONE', ( #303, #627, #87 ), #517, .F. ) ;
#176 = LINE ( 'NONE', #494, #596 ) ;
#177 = ORIENTED_EDGE ( 'NONE', *, *, #415, .F. ) ;
#178 = CIRCLE ( 'NONE', #191, 2.999999999999999112 ) ;
#179 = VECTOR ( 'NONE', #249, 1000.000000000000000 ) ;
#180 = CARTESIAN_POINT ( 'NONE',  ( 9.999999999999998224, 0.000000000000000000, 1.399999999999996581 ) ) ;
#181 = ORIENTED_EDGE ( 'NONE', *, *, #420, .F. ) ;
#182 = VERTEX_POINT ( 'NONE', #248 ) ;
#183 = CARTESIAN_POINT ( 'NONE',  ( -10.00000000000000178, 5.900000000000002132, 11.00000000000000000 ) ) ;
#184 = EDGE_LOOP ( 'NONE', ( #272, #34 ) ) ;
#185 = DIRECTION ( 'NONE',  ( 0.000000000000000000, 0.000000000000000000, -1.000000000000000000 ) ) ;
#186 = FACE_BOUND ( 'NONE', #512, .T. ) ;
#187 = VERTEX_POINT ( 'NONE', #507 ) ;
#188 = ADVANCED_FACE ( 'NONE', ( #26 ), #139, .T. ) ;
#189 = VERTEX_POINT ( 'NONE', #562 ) ;
#190 = CIRCLE ( 'NONE', #127, 2.600000000000000533 ) ;
#191 = AXIS2_PLACEMENT_3D ( 'NONE', #462, #689, #529 ) ;
#192 = CARTESIAN_POINT ( 'NONE',  ( 6.999999999999999112, -22.00000000000000355, 21.00000000000000000 ) ) ;
#193 = AXIS2_PLACEMENT_3D ( 'NONE', #433, #222, #429 ) ;
#194 = AXIS2_PLACEMENT_3D ( 'NONE', #310, #51, #516 ) ;
#195 = LINE ( 'NONE', #335, #235 ) ;
#196 = PLANE ( 'NONE',  #77 ) ;
#197 = ORIENTED_EDGE ( 'NONE', *, *, #427, .T. ) ;
#198 = EDGE_CURVE ( 'NONE', #234, #502, #467, .T. ) ;
#199 = DIRECTION ( 'NONE',  ( 0.000000000000000000, 0.000000000000000000, -1.000000000000000000 ) ) ;
#200 = CARTESIAN_POINT ( 'NONE',  ( 5.204170427930421283E-15, 18.00000000000000355, 11.00000000000000000 ) ) ;
#201 = ORIENTED_EDGE ( 'NONE', *, *, #542, .T. ) ;
#202 = DIRECTION ( 'NONE',  ( 0.000000000000000000, -0.000000000000000000, 1.000000000000000000 ) ) ;
#203 = FACE_OUTER_BOUND ( 'NONE', #359, .T. ) ;
#204 = PRODUCT_RELATED_PRODUCT_CATEGORY ( 'part', '', ( #479 ) ) ;
#205 = LINE ( 'NONE', #301, #575 ) ;
#206 = CARTESIAN_POINT ( 'NONE',  ( -7.000000000000002665, 25.00000000000000000, 11.00000000000000000 ) ) ;
#207 = AXIS2_PLACEMENT_3D ( 'NONE', #101, #266, #475 ) ;
#208 = CARTESIAN_POINT ( 'NONE',  ( 9.999999999999998224, 25.00000000000000000, 11.00000000000000000 ) ) ;
#209 = FACE_OUTER_BOUND ( 'NONE', #629, .T. ) ;
#210 = LINE ( 'NONE', #37, #524 ) ;
#211 = CARTESIAN_POINT ( 'NONE',  ( -10.00000000000000178, -25.00000000000000000, 21.00000000000000000 ) ) ;
#212 = ORIENTED_EDGE ( 'NONE', *, *, #527, .T. ) ;
#213 = CARTESIAN_POINT ( 'NONE',  ( 6.999999999999995559, 25.00000000000000000, 21.00000000000000000 ) ) ;
#214 = EDGE_LOOP ( 'NONE', ( #620, #453, #690, #269 ) ) ;
#215 = VECTOR ( 'NONE', #648, 1000.000000000000000 ) ;
#216 = CARTESIAN_POINT ( 'NONE',  ( -10.00000000000000178, 22.00000000000000000, 21.00000000000000000 ) ) ;
#217 = VECTOR ( 'NONE', #118, 1000.000000000000000 ) ;
#218 = CARTESIAN_POINT ( 'NONE',  ( 9.999999999999998224, -5.900000000000002132, 0.000000000000000000 ) ) ;
#219 = LINE ( 'NONE', #225, #157 ) ;
#220 = ORIENTED_EDGE ( 'NONE', *, *, #476, .T. ) ;
#221 = ADVANCED_FACE ( 'NONE', ( #499 ), #354, .T. ) ;
#222 = DIRECTION ( 'NONE',  ( 0.000000000000000000, 0.000000000000000000, -1.000000000000000000 ) ) ;
#223 =( LENGTH_UNIT ( ) NAMED_UNIT ( * ) SI_UNIT ( .MILLI., .METRE. ) );
#224 = ORIENTED_EDGE ( 'NONE', *, *, #82, .T. ) ;
#225 = CARTESIAN_POINT ( 'NONE',  ( 9.999999999999998224, -1.399999999999996136, -3.493163874476734598E-15 ) ) ;
#226 = VERTEX_POINT ( 'NONE', #22 ) ;
#227 = VECTOR ( 'NONE', #125, 1000.000000000000000 ) ;
#228 = AXIS2_PLACEMENT_3D ( 'NONE', #590, #411, #318 ) ;
#229 = VERTEX_POINT ( 'NONE', #461 ) ;
#230 = EDGE_CURVE ( 'NONE', #545, #85, #684, .T. ) ;
#231 = DIRECTION ( 'NONE',  ( 0.000000000000000000, 0.000000000000000000, -1.000000000000000000 ) ) ;
#232 = ORIENTED_EDGE ( 'NONE', *, *, #661, .T. ) ;
#233 = DIRECTION ( 'NONE',  ( -0.000000000000000000, -0.000000000000000000, 1.000000000000000000 ) ) ;
#234 = VERTEX_POINT ( 'NONE', #674 ) ;
#235 = VECTOR ( 'NONE', #404, 1000.000000000000000 ) ;
#236 = CIRCLE ( 'NONE', #683, 3.000000000000000000 ) ;
#237 = EDGE_CURVE ( 'NONE', #274, #591, #559, .T. ) ;
#238 = CIRCLE ( 'NONE', #635, 2.600000000000000533 ) ;
#239 = CYLINDRICAL_SURFACE ( 'NONE', #525, 2.600000000000000533 ) ;
#240 = ORIENTED_EDGE ( 'NONE', *, *, #430, .F. ) ;
#241 = ORIENTED_EDGE ( 'NONE', *, *, #560, .T. ) ;
#242 = PLANE ( 'NONE',  #69 ) ;
#243 = EDGE_CURVE ( 'NONE', #591, #478, #623, .T. ) ;
#244 = DIRECTION ( 'NONE',  ( -1.000000000000000000, 0.000000000000000000, 0.000000000000000000 ) ) ;
#245 = ORIENTED_EDGE ( 'NONE', *, *, #542, .F. ) ;
#246 = CARTESIAN_POINT ( 'NONE',  ( 5.204170427930421283E-15, 18.00000000000000355, 21.00000000000000000 ) ) ;
#247 = DIRECTION ( 'NONE',  ( 1.000000000000000000, 0.000000000000000000, 0.000000000000000000 ) ) ;
#248 = CARTESIAN_POINT ( 'NONE',  ( 9.999999999999998224, -22.00000000000000355, 11.00000000000000000 ) ) ;
#249 = DIRECTION ( 'NONE',  ( -0.000000000000000000, -0.000000000000000000, -1.000000000000000000 ) ) ;
#250 = DIRECTION ( 'NONE',  ( 1.000000000000000000, 1.156482317317871331E-15, 0.000000000000000000 ) ) ;
#251 = EDGE_CURVE ( 'NONE', #343, #86, #370, .T. ) ;
#252 = ORIENTED_EDGE ( 'NONE', *, *, #317, .T. ) ;
#253 = CARTESIAN_POINT ( 'NONE',  ( 9.999999999999996447, 5.900000000000002132, 11.00000000000000000 ) ) ;
#254 = LINE ( 'NONE', #693, #413 ) ;
#255 = ORIENTED_EDGE ( 'NONE', *, *, #65, .F. ) ;
#256 = CARTESIAN_POINT ( 'NONE',  ( -10.00000000000000178, -5.900000000000002132, 0.000000000000000000 ) ) ;
#257 = DIRECTION ( 'NONE',  ( -1.000000000000000000, 0.000000000000000000, 0.000000000000000000 ) ) ;
#258 = LINE ( 'NONE', #528, #535 ) ;
#259 = PLANE ( 'NONE',  #511 ) ;
#260 = CARTESIAN_POINT ( 'NONE',  ( 9.999999999999998224, -25.00000000000000000, 21.00000000000000000 ) ) ;
#261 = EDGE_CURVE ( 'NONE', #492, #20, #381, .T. ) ;
#262 = CARTESIAN_POINT ( 'NONE',  ( 5.204170427930421283E-15, -18.00000000000000355, 21.00000000000000000 ) ) ;
#263 = DIRECTION ( 'NONE',  ( -1.000000000000000000, 0.000000000000000000, -0.000000000000000000 ) ) ;
#264 = VECTOR ( 'NONE', #360, 1000.000000000000000 ) ;
#265 = DIRECTION ( 'NONE',  ( 0.000000000000000000, 0.000000000000000000, -1.000000000000000000 ) ) ;
#266 = DIRECTION ( 'NONE',  ( -0.000000000000000000, -0.000000000000000000, 1.000000000000000000 ) ) ;
#267 = DIRECTION ( 'NONE',  ( 1.000000000000000000, 0.000000000000000000, 0.000000000000000000 ) ) ;
#268 = LINE ( 'NONE', #640, #280 ) ;
#269 = ORIENTED_EDGE ( 'NONE', *, *, #550, .F. ) ;
#270 = COLOUR_RGB ( '',0.7921568627450980005, 0.8196078431372548767, 0.9333333333333333481 ) ;
#271 = DIRECTION ( 'NONE',  ( -9.082321863752916905E-17, -1.000000000000000000, 0.000000000000000000 ) ) ;
#272 = ORIENTED_EDGE ( 'NONE', *, *, #661, .F. ) ;
#273 = EDGE_CURVE ( 'NONE', #234, #141, #268, .T. ) ;
#274 = VERTEX_POINT ( 'NONE', #418 ) ;
#275 = FILL_AREA_STYLE ('',( #63 ) ) ;
#276 = EDGE_LOOP ( 'NONE', ( #656, #673, #245, #686, #515, #679, #396, #610, #145, #617, #302 ) ) ;
#277 =( LENGTH_UNIT ( ) NAMED_UNIT ( * ) SI_UNIT ( .MILLI., .METRE. ) );
#278 = ADVANCED_FACE ( 'NONE', ( #644 ), #473, .F. ) ;
#279 = VERTEX_POINT ( 'NONE', #362 ) ;
#280 = VECTOR ( 'NONE', #422, 1000.000000000000000 ) ;
#281 = EDGE_LOOP ( 'NONE', ( #285, #564, #168, #232 ) ) ;
#282 = CARTESIAN_POINT ( 'NONE',  ( -2.599999999999995648, -18.00000000000000355, 21.00000000000000000 ) ) ;
#283 = ORIENTED_EDGE ( 'NONE', *, *, #273, .F. ) ;
#284 = LINE ( 'NONE', #180, #227 ) ;
#285 = ORIENTED_EDGE ( 'NONE', *, *, #427, .F. ) ;
#286 = ORIENTED_EDGE ( 'NONE', *, *, #626, .F. ) ;
#287 = CIRCLE ( 'NONE', #384, 2.999999999999999112 ) ;
#288 = DIRECTION ( 'NONE',  ( -0.000000000000000000, -0.000000000000000000, -1.000000000000000000 ) ) ;
#289 = ORIENTED_EDGE ( 'NONE', *, *, #50, .T. ) ;
#290 = VERTEX_POINT ( 'NONE', #256 ) ;
#291 = DIRECTION ( 'NONE',  ( 0.000000000000000000, 0.000000000000000000, -1.000000000000000000 ) ) ;
#292 = EDGE_CURVE ( 'NONE', #44, #107, #159, .T. ) ;
#293 = DIRECTION ( 'NONE',  ( 0.000000000000000000, -0.000000000000000000, 1.000000000000000000 ) ) ;
#294 = ORIENTED_EDGE ( 'NONE', *, *, #677, .T. ) ;
#295 = CARTESIAN_POINT ( 'NONE',  ( -7.000000000000002665, 25.00000000000000000, 21.00000000000000000 ) ) ;
#296 = DIRECTION ( 'NONE',  ( -0.000000000000000000, -0.000000000000000000, -1.000000000000000000 ) ) ;
#297 = ORIENTED_EDGE ( 'NONE', *, *, #567, .T. ) ;
#298 = ADVANCED_FACE ( 'NONE', ( #45 ), #703, .F. ) ;
#299 = AXIS2_PLACEMENT_3D ( 'NONE', #619, #293, #121 ) ;
#300 = CARTESIAN_POINT ( 'NONE',  ( -10.00000000000000178, -25.00000000000000000, 21.00000000000000000 ) ) ;
#301 = CARTESIAN_POINT ( 'NONE',  ( -10.00000000000000178, -22.00000000000000355, 21.00000000000000000 ) ) ;
#302 = ORIENTED_EDGE ( 'NONE', *, *, #50, .F. ) ;
#303 = FACE_OUTER_BOUND ( 'NONE', #68, .T. ) ;
#304 = DIRECTION ( 'NONE',  ( -1.000000000000000000, 0.000000000000000000, 0.000000000000000000 ) ) ;
#305 = DIRECTION ( 'NONE',  ( -1.000000000000000000, -0.000000000000000000, -0.000000000000000000 ) ) ;
#306 = CARTESIAN_POINT ( 'NONE',  ( -7.000000000000002665, -22.00000000000000355, 21.00000000000000000 ) ) ;
#307 = EDGE_CURVE ( 'NONE', #85, #545, #344, .T. ) ;
#308 = CARTESIAN_POINT ( 'NONE',  ( 9.999999999999998224, -5.900000000000002132, 11.00000000000000000 ) ) ;
#309 = EDGE_LOOP ( 'NONE', ( #432, #197, #379, #642 ) ) ;
#310 = CARTESIAN_POINT ( 'NONE',  ( 5.204170427930421283E-15, 18.00000000000000355, 11.00000000000000000 ) ) ;
#311 = ADVANCED_FACE ( 'NONE', ( #531 ), #477, .F. ) ;
#312 = AXIS2_PLACEMENT_3D ( 'NONE', #618, #291, #150 ) ;
#313 = PLANE ( 'NONE',  #149 ) ;
#314 = LINE ( 'NONE', #300, #368 ) ;
#315 = CIRCLE ( 'NONE', #9, 2.600000000000000533 ) ;
#316 = DIRECTION ( 'NONE',  ( 0.000000000000000000, -0.000000000000000000, 1.000000000000000000 ) ) ;
#317 = EDGE_CURVE ( 'NONE', #419, #428, #315, .T. ) ;
#318 = DIRECTION ( 'NONE',  ( -1.000000000000000000, 0.000000000000000000, 0.000000000000000000 ) ) ;
#319 = EDGE_LOOP ( 'NONE', ( #565, #338, #119, #670, #495, #376, #328, #706, #489, #398, #509 ) ) ;
#320 = EDGE_CURVE ( 'NONE', #290, #274, #2, .T. ) ;
#321 = DIRECTION ( 'NONE',  ( -0.000000000000000000, 1.000000000000000000, -0.000000000000000000 ) ) ;
#322 = EDGE_LOOP ( 'NONE', ( #561, #126, #138, #446 ) ) ;
#323 = CARTESIAN_POINT ( 'NONE',  ( 6.999999999999995559, 22.00000000000000355, 11.00000000000000000 ) ) ;
#324 = LINE ( 'NONE', #13, #667 ) ;
#325 = VERTEX_POINT ( 'NONE', #153 ) ;
#326 = CARTESIAN_POINT ( 'NONE',  ( -7.000000000000002665, -25.00000000000000000, 21.00000000000000000 ) ) ;
#327 = LINE ( 'NONE', #70, #215 ) ;
#328 = ORIENTED_EDGE ( 'NONE', *, *, #650, .F. ) ;
#329 = CARTESIAN_POINT ( 'NONE',  ( 6.999999999999999112, -25.00000000000000000, 21.00000000000000000 ) ) ;
#330 = ORIENTED_EDGE ( 'NONE', *, *, #230, .F. ) ;
#331 = MECHANICAL_DESIGN_GEOMETRIC_PRESENTATION_REPRESENTATION (  '', ( #510 ), #31 ) ;
#332 = SURFACE_STYLE_USAGE ( .BOTH. , #108 ) ;
#333 = EDGE_LOOP ( 'NONE', ( #240, #283, #463, #98 ) ) ;
#334 = AXIS2_PLACEMENT_3D ( 'NONE', #346, #452, #123 ) ;
#335 = CARTESIAN_POINT ( 'NONE',  ( -10.00000000000000178, -25.00000000000000000, 21.00000000000000000 ) ) ;
#336 = ORIENTED_EDGE ( 'NONE', *, *, #435, .T. ) ;
#337 = CARTESIAN_POINT ( 'NONE',  ( 9.999999999999998224, -5.900000000000002132, 11.00000000000000000 ) ) ;
#338 = ORIENTED_EDGE ( 'NONE', *, *, #685, .T. ) ;
#339 = ADVANCED_FACE ( 'NONE', ( #97 ), #41, .F. ) ;
#340 = LINE ( 'NONE', #397, #143 ) ;
#341 = VERTEX_POINT ( 'NONE', #329 ) ;
#342 = VECTOR ( 'NONE', #321, 1000.000000000000000 ) ;
#343 = VERTEX_POINT ( 'NONE', #431 ) ;
#344 = CIRCLE ( 'NONE', #228, 2.600000000000000533 ) ;
#345 = DIRECTION ( 'NONE',  ( 0.000000000000000000, 0.000000000000000000, -1.000000000000000000 ) ) ;
#346 = CARTESIAN_POINT ( 'NONE',  ( -7.000000000000002665, 22.00000000000000000, 11.00000000000000000 ) ) ;
#347 = ORIENTED_EDGE ( 'NONE', *, *, #560, .F. ) ;
#348 = DIRECTION ( 'NONE',  ( -0.000000000000000000, 0.7071067811865465735, 0.7071067811865485719 ) ) ;
#349 = VERTEX_POINT ( 'NONE', #592 ) ;
#350 = ADVANCED_FACE ( 'NONE', ( #440 ), #113, .T. ) ;
#351 = DIRECTION ( 'NONE',  ( 0.000000000000000000, 0.000000000000000000, 1.000000000000000000 ) ) ;
#352 = DIRECTION ( 'NONE',  ( -0.000000000000000000, -0.000000000000000000, -1.000000000000000000 ) ) ;
#353 = DIRECTION ( 'NONE',  ( -0.000000000000000000, 0.000000000000000000, -1.000000000000000000 ) ) ;
#354 = CYLINDRICAL_SURFACE ( 'NONE', #48, 2.999999999999999112 ) ;
#355 = CARTESIAN_POINT ( 'NONE',  ( 9.999999999999996447, 5.900000000000002132, 11.00000000000000000 ) ) ;
#356 = VECTOR ( 'NONE', #6, 1000.000000000000000 ) ;
#357 = VECTOR ( 'NONE', #369, 1000.000000000000000 ) ;
#358 = CARTESIAN_POINT ( 'NONE',  ( -2.599999999999995648, 18.00000000000000355, 21.00000000000000000 ) ) ;
#359 = EDGE_LOOP ( 'NONE', ( #558, #649, #676, #16, #426, #586 ) ) ;
#360 = DIRECTION ( 'NONE',  ( 1.000000000000000000, -0.000000000000000000, -0.000000000000000000 ) ) ;
#361 = DIRECTION ( 'NONE',  ( 1.000000000000000000, 0.000000000000000000, 0.000000000000000000 ) ) ;
#362 = CARTESIAN_POINT ( 'NONE',  ( -10.00000000000000178, -22.00000000000000355, 11.00000000000000000 ) ) ;
#363 = EDGE_CURVE ( 'NONE', #466, #701, #655, .T. ) ;
#364 = CARTESIAN_POINT ( 'NONE',  ( -10.00000000000000178, 25.00000000000000000, 21.00000000000000000 ) ) ;
#365 = DIRECTION ( 'NONE',  ( 0.000000000000000000, -0.7071067811865487940, 0.7071067811865463515 ) ) ;
#366 = DIRECTION ( 'NONE',  ( -1.000000000000000000, 0.000000000000000000, 0.000000000000000000 ) ) ;
#367 = VECTOR ( 'NONE', #271, 1000.000000000000000 ) ;
#368 = VECTOR ( 'NONE', #696, 1000.000000000000000 ) ;
#369 = DIRECTION ( 'NONE',  ( -0.000000000000000000, -1.000000000000000000, -0.000000000000000000 ) ) ;
#370 = CIRCLE ( 'NONE', #194, 2.600000000000000533 ) ;
#371 = DIRECTION ( 'NONE',  ( -1.000000000000000000, 0.000000000000000000, 0.000000000000000000 ) ) ;
#372 = VERTEX_POINT ( 'NONE', #598 ) ;
#373 = EDGE_CURVE ( 'NONE', #466, #372, #53, .T. ) ;
#374 = APPLICATION_PROTOCOL_DEFINITION ( 'draft international standard', 'automotive_design', 1998, #692 ) ;
#375 = MANIFOLD_SOLID_BREP ( 'Fillet1', #425 ) ;
#376 = ORIENTED_EDGE ( 'NONE', *, *, #616, .F. ) ;
#377 = CYLINDRICAL_SURFACE ( 'NONE', #193, 2.999999999999999112 ) ;
#378 = CARTESIAN_POINT ( 'NONE',  ( 2.600000000000005862, -18.00000000000000355, 11.00000000000000000 ) ) ;
#379 = ORIENTED_EDGE ( 'NONE', *, *, #251, .T. ) ;
#380 = DIRECTION ( 'NONE',  ( -0.000000000000000000, -0.000000000000000000, 1.000000000000000000 ) ) ;
#381 = CIRCLE ( 'NONE', #657, 2.999999999999999112 ) ;
#382 = CARTESIAN_POINT ( 'NONE',  ( 9.999999999999996447, 5.900000000000002132, 0.000000000000000000 ) ) ;
#383 = EDGE_LOOP ( 'NONE', ( #441, #347, #255, #506 ) ) ;
#384 = AXIS2_PLACEMENT_3D ( 'NONE', #654, #380, #658 ) ;
#385 = CARTESIAN_POINT ( 'NONE',  ( -10.00000000000000178, 5.900000000000002132, 11.00000000000000000 ) ) ;
#386 = ORIENTED_EDGE ( 'NONE', *, *, #493, .F. ) ;
#387 = EDGE_CURVE ( 'NONE', #591, #501, #219, .T. ) ;
#388 = UNCERTAINTY_MEASURE_WITH_UNIT (LENGTH_MEASURE( 1.000000000000000082E-05 ), #277, 'distance_accuracy_value', 'NONE');
#389 = PRODUCT_DEFINITION_SHAPE ( 'NONE', 'NONE',  #631 ) ;
#390 = ORIENTED_EDGE ( 'NONE', *, *, #307, .F. ) ;
#391 = DIRECTION ( 'NONE',  ( -1.000000000000000000, 0.000000000000000000, 0.000000000000000000 ) ) ;
#392 = ORIENTED_EDGE ( 'NONE', *, *, #320, .F. ) ;
#393 = EDGE_CURVE ( 'NONE', #229, #182, #327, .T. ) ;
#394 = PLANE ( 'NONE',  #299 ) ;
#395 = ORIENTED_EDGE ( 'NONE', *, *, #363, .F. ) ;
#396 = ORIENTED_EDGE ( 'NONE', *, *, #237, .T. ) ;
#397 = CARTESIAN_POINT ( 'NONE',  ( -10.00000000000000178, -5.900000000000002132, 11.00000000000000000 ) ) ;
#398 = ORIENTED_EDGE ( 'NONE', *, *, #435, .F. ) ;
#399 = CARTESIAN_POINT ( 'NONE',  ( 9.999999999999996447, 5.900000000000002132, 11.00000000000000000 ) ) ;
#400 = ORIENTED_EDGE ( 'NONE', *, *, #172, .F. ) ;
#401 = PRESENTATION_LAYER_ASSIGNMENT (  '', '', ( #510 ) ) ;
#402 = VECTOR ( 'NONE', #580, 1000.000000000000000 ) ;
#403 = CARTESIAN_POINT ( 'NONE',  ( 5.204170427930421283E-15, -18.00000000000000355, 21.00000000000000000 ) ) ;
#404 = DIRECTION ( 'NONE',  ( -0.000000000000000000, -1.000000000000000000, -0.000000000000000000 ) ) ;
#405 = CARTESIAN_POINT ( 'NONE',  ( 0.000000000000000000, 0.000000000000000000, 0.000000000000000000 ) ) ;
#406 = ORIENTED_EDGE ( 'NONE', *, *, #685, .F. ) ;
#407 = DIRECTION ( 'NONE',  ( -0.000000000000000000, 0.7071067811865487940, -0.7071067811865463515 ) ) ;
#408 = FACE_OUTER_BOUND ( 'NONE', #570, .T. ) ;
#409 = DIRECTION ( 'NONE',  ( -1.000000000000000000, 0.000000000000000000, 0.000000000000000000 ) ) ;
#410 = PLANE ( 'NONE',  #513 ) ;
#411 = DIRECTION ( 'NONE',  ( 0.000000000000000000, 0.000000000000000000, 1.000000000000000000 ) ) ;
#412 = DIRECTION ( 'NONE',  ( 0.000000000000000000, -0.000000000000000000, -1.000000000000000000 ) ) ;
#413 = VECTOR ( 'NONE', #521, 1000.000000000000000 ) ;
#414 = ORIENTED_EDGE ( 'NONE', *, *, #146, .T. ) ;
#415 = EDGE_CURVE ( 'NONE', #44, #131, #173, .T. ) ;
#416 = DIRECTION ( 'NONE',  ( 0.000000000000000000, 0.000000000000000000, 1.000000000000000000 ) ) ;
#417 = DIRECTION ( 'NONE',  ( -0.000000000000000000, -0.000000000000000000, -1.000000000000000000 ) ) ;
#418 = CARTESIAN_POINT ( 'NONE',  ( 9.999999999999998224, -5.900000000000002132, 0.000000000000000000 ) ) ;
#419 = VERTEX_POINT ( 'NONE', #110 ) ;
#420 = EDGE_CURVE ( 'NONE', #522, #428, #324, .T. ) ;
#421 = CARTESIAN_POINT ( 'NONE',  ( -10.00000000000000178, -25.00000000000000000, 0.000000000000000000 ) ) ;
#422 = DIRECTION ( 'NONE',  ( 0.000000000000000000, 1.000000000000000000, 0.000000000000000000 ) ) ;
#423 = EDGE_LOOP ( 'NONE', ( #653, #294, #4, #241 ) ) ;
#424 = EDGE_CURVE ( 'NONE', #189, #612, #162, .T. ) ;
#425 = CLOSED_SHELL ( 'NONE', ( #588, #442, #574, #278, #38, #175, #603, #339, #454, #298, #536, #613, #10, #311, #541, #117, #105, #188, #221, #697, #350 ) ) ;
#426 = ORIENTED_EDGE ( 'NONE', *, *, #373, .T. ) ;
#427 = EDGE_CURVE ( 'NONE', #545, #343, #483, .T. ) ;
#428 = VERTEX_POINT ( 'NONE', #378 ) ;
#429 = DIRECTION ( 'NONE',  ( -1.000000000000000000, 0.000000000000000000, 0.000000000000000000 ) ) ;
#430 = EDGE_CURVE ( 'NONE', #141, #701, #485, .T. ) ;
#431 = CARTESIAN_POINT ( 'NONE',  ( 2.600000000000005862, 18.00000000000000355, 11.00000000000000000 ) ) ;
#432 = ORIENTED_EDGE ( 'NONE', *, *, #307, .T. ) ;
#433 = CARTESIAN_POINT ( 'NONE',  ( -7.000000000000002665, -22.00000000000000355, 21.00000000000000000 ) ) ;
#434 = VECTOR ( 'NONE', #519, 1000.000000000000000 ) ;
#435 = EDGE_CURVE ( 'NONE', #279, #349, #171, .T. ) ;
#436 = AXIS2_PLACEMENT_3D ( 'NONE', #246, #457, #30 ) ;
#437 = CARTESIAN_POINT ( 'NONE',  ( 2.600000000000005862, 18.00000000000000355, 21.00000000000000000 ) ) ;
#438 = ORIENTED_EDGE ( 'NONE', *, *, #444, .T. ) ;
#439 = DIRECTION ( 'NONE',  ( -0.000000000000000000, -0.000000000000000000, 1.000000000000000000 ) ) ;
#440 = FACE_OUTER_BOUND ( 'NONE', #383, .T. ) ;
#441 = ORIENTED_EDGE ( 'NONE', *, *, #146, .F. ) ;
#442 = ADVANCED_FACE ( 'NONE', ( #19 ), #239, .F. ) ;
#443 = DIRECTION ( 'NONE',  ( 0.000000000000000000, 0.000000000000000000, 1.000000000000000000 ) ) ;
#444 = EDGE_CURVE ( 'NONE', #428, #419, #190, .T. ) ;
#445 = LINE ( 'NONE', #337, #120 ) ;
#446 = ORIENTED_EDGE ( 'NONE', *, *, #487, .T. ) ;
#447 = VECTOR ( 'NONE', #688, 1000.000000000000000 ) ;
#448 = VECTOR ( 'NONE', #407, 999.9999999999998863 ) ;
#449 = AXIS2_PLACEMENT_3D ( 'NONE', #323, #62, #543 ) ;
#450 = ORIENTED_EDGE ( 'NONE', *, *, #550, .T. ) ;
#451 = CARTESIAN_POINT ( 'NONE',  ( 0.000000000000000000, 0.000000000000000000, 11.00000000000000000 ) ) ;
#452 = DIRECTION ( 'NONE',  ( -0.000000000000000000, 0.000000000000000000, -1.000000000000000000 ) ) ;
#453 = ORIENTED_EDGE ( 'NONE', *, *, #664, .F. ) ;
#454 = ADVANCED_FACE ( 'NONE', ( #669 ), #75, .F. ) ;
#455 = CARTESIAN_POINT ( 'NONE',  ( 9.999999999999998224, -25.00000000000000000, 0.000000000000000000 ) ) ;
#456 = ORIENTED_EDGE ( 'NONE', *, *, #237, .F. ) ;
#457 = DIRECTION ( 'NONE',  ( 0.000000000000000000, 0.000000000000000000, 1.000000000000000000 ) ) ;
#458 = CARTESIAN_POINT ( 'NONE',  ( 2.600000000000005862, 18.00000000000000355, 21.00000000000000000 ) ) ;
#459 = AXIS2_PLACEMENT_3D ( 'NONE', #39, #345, #257 ) ;
#460 = ORIENTED_EDGE ( 'NONE', *, *, #616, .T. ) ;
#461 = CARTESIAN_POINT ( 'NONE',  ( 9.999999999999998224, -22.00000000000000355, 21.00000000000000000 ) ) ;
#462 = CARTESIAN_POINT ( 'NONE',  ( 6.999999999999999112, -22.00000000000000355, 11.00000000000000000 ) ) ;
#463 = ORIENTED_EDGE ( 'NONE', *, *, #198, .T. ) ;
#464 = CARTESIAN_POINT ( 'NONE',  ( 9.999999999999998224, -25.00000000000000000, 11.00000000000000000 ) ) ;
#465 = FACE_OUTER_BOUND ( 'NONE', #694, .T. ) ;
#466 = VERTEX_POINT ( 'NONE', #183 ) ;
#467 = LINE ( 'NONE', #624, #587 ) ;
#468 = LINE ( 'NONE', #421, #357 ) ;
#469 = DIRECTION ( 'NONE',  ( 0.000000000000000000, 0.000000000000000000, -1.000000000000000000 ) ) ;
#470 = VECTOR ( 'NONE', #678, 1000.000000000000000 ) ;
#471 = CARTESIAN_POINT ( 'NONE',  ( 9.999999999999998224, 22.00000000000000000, 21.00000000000000000 ) ) ;
#472 = CARTESIAN_POINT ( 'NONE',  ( 9.999999999999996447, 5.900000000000002132, 11.00000000000000000 ) ) ;
#473 = CYLINDRICAL_SURFACE ( 'NONE', #129, 2.600000000000000533 ) ;
#474 = DIRECTION ( 'NONE',  ( 0.000000000000000000, -1.000000000000000000, 0.000000000000000000 ) ) ;
#475 = DIRECTION ( 'NONE',  ( -1.000000000000000000, 0.000000000000000000, 0.000000000000000000 ) ) ;
#476 = EDGE_CURVE ( 'NONE', #478, #615, #284, .T. ) ;
#477 = PLANE ( 'NONE',  #622 ) ;
#478 = VERTEX_POINT ( 'NONE', #672 ) ;
#479 = PRODUCT ( 'Novo dr\X2\017e\X0\alo', 'Novo dr\X2\017e\X0\alo', '', ( #534 ) ) ;
#480 = VECTOR ( 'NONE', #439, 1000.000000000000000 ) ;
#481 = AXIS2_PLACEMENT_3D ( 'NONE', #192, #83, #35 ) ;
#482 = VECTOR ( 'NONE', #5, 1000.000000000000000 ) ;
#483 = LINE ( 'NONE', #437, #169 ) ;
#484 = EDGE_LOOP ( 'NONE', ( #181, #81, #212, #114 ) ) ;
#485 = LINE ( 'NONE', #382, #46 ) ;
#486 = ORIENTED_EDGE ( 'NONE', *, *, #555, .F. ) ;
#487 = EDGE_CURVE ( 'NONE', #349, #290, #340, .T. ) ;
#488 = APPLICATION_CONTEXT ( 'automotive_design' ) ;
#489 = ORIENTED_EDGE ( 'NONE', *, *, #487, .F. ) ;
#490 =( NAMED_UNIT ( * ) SI_UNIT ( $, .STERADIAN. ) SOLID_ANGLE_UNIT ( ) );
#491 = EDGE_LOOP ( 'NONE', ( #392, #24, #134, #456 ) ) ;
#492 = VERTEX_POINT ( 'NONE', #614 ) ;
#493 = EDGE_CURVE ( 'NONE', #372, #44, #546, .T. ) ;
#494 = CARTESIAN_POINT ( 'NONE',  ( 6.999999999999999112, -25.00000000000000000, 21.00000000000000000 ) ) ;
#495 = ORIENTED_EDGE ( 'NONE', *, *, #639, .T. ) ;
#496 = CARTESIAN_POINT ( 'NONE',  ( 5.204170427930421283E-15, -18.00000000000000355, 11.00000000000000000 ) ) ;
#497 = EDGE_LOOP ( 'NONE', ( #163, #549, #336, #297, #632, #666 ) ) ;
#498 = VECTOR ( 'NONE', #116, 1000.000000000000000 ) ;
#499 = FACE_OUTER_BOUND ( 'NONE', #663, .T. ) ;
#500 = FACE_OUTER_BOUND ( 'NONE', #484, .T. ) ;
#501 = VERTEX_POINT ( 'NONE', #557 ) ;
#502 = VERTEX_POINT ( 'NONE', #84 ) ;
#503 = LINE ( 'NONE', #253, #102 ) ;
#504 = LINE ( 'NONE', #611, #533 ) ;
#505 = LINE ( 'NONE', #28, #608 ) ;
#506 = ORIENTED_EDGE ( 'NONE', *, *, #393, .F. ) ;
#507 = CARTESIAN_POINT ( 'NONE',  ( 9.999999999999998224, -5.900000000000002132, 11.00000000000000000 ) ) ;
#508 = CARTESIAN_POINT ( 'NONE',  ( 2.600000000000005862, -18.00000000000000355, 21.00000000000000000 ) ) ;
#509 = ORIENTED_EDGE ( 'NONE', *, *, #626, .T. ) ;
#510 = STYLED_ITEM ( 'NONE', ( #165 ), #375 ) ;
#511 = AXIS2_PLACEMENT_3D ( 'NONE', #405, #469, #263 ) ;
#512 = EDGE_LOOP ( 'NONE', ( #252, #438 ) ) ;
#513 = AXIS2_PLACEMENT_3D ( 'NONE', #364, #474, #572 ) ;
#514 = DIRECTION ( 'NONE',  ( -1.000000000000000000, 0.000000000000000000, 0.000000000000000000 ) ) ;
#515 = ORIENTED_EDGE ( 'NONE', *, *, #29, .F. ) ;
#516 = DIRECTION ( 'NONE',  ( -1.000000000000000000, 0.000000000000000000, 0.000000000000000000 ) ) ;
#517 = PLANE ( 'NONE',  #312 ) ;
#518 = DIRECTION ( 'NONE',  ( 0.000000000000000000, -0.7071067811865465735, -0.7071067811865485719 ) ) ;
#519 = DIRECTION ( 'NONE',  ( -0.000000000000000000, -1.000000000000000000, -0.000000000000000000 ) ) ;
#520 = CARTESIAN_POINT ( 'NONE',  ( 5.204170427930421283E-15, 18.00000000000000355, 21.00000000000000000 ) ) ;
#521 = DIRECTION ( 'NONE',  ( -0.000000000000000000, 0.7071067811865465735, 0.7071067811865485719 ) ) ;
#522 = VERTEX_POINT ( 'NONE', #508 ) ;
#523 = AXIS2_PLACEMENT_3D ( 'NONE', #548, #231, #539 ) ;
#524 = VECTOR ( 'NONE', #305, 1000.000000000000000 ) ;
#525 = AXIS2_PLACEMENT_3D ( 'NONE', #130, #296, #391 ) ;
#526 = AXIS2_PLACEMENT_3D ( 'NONE', #211, #695, #202 ) ;
#527 = EDGE_CURVE ( 'NONE', #554, #419, #80, .T. ) ;
#528 = CARTESIAN_POINT ( 'NONE',  ( -10.00000000000000178, 1.400000000000003908, -2.640970522028243333E-15 ) ) ;
#529 = DIRECTION ( 'NONE',  ( 1.000000000000000000, 0.000000000000000000, 0.000000000000000000 ) ) ;
#530 = CARTESIAN_POINT ( 'NONE',  ( 9.999999999999998224, -5.900000000000002132, 11.00000000000000000 ) ) ;
#531 = FACE_OUTER_BOUND ( 'NONE', #322, .T. ) ;
#532 = CARTESIAN_POINT ( 'NONE',  ( 9.999999999999998224, 25.00000000000000000, 11.00000000000000000 ) ) ;
#533 = VECTOR ( 'NONE', #88, 1000.000000000000000 ) ;
#534 = PRODUCT_CONTEXT ( 'NONE', #488, 'mechanical' ) ;
#535 = VECTOR ( 'NONE', #158, 999.9999999999998863 ) ;
#536 = ADVANCED_FACE ( 'NONE', ( #500 ), #563, .F. ) ;
#537 = ADVANCED_BREP_SHAPE_REPRESENTATION ( 'Novo dr\X2\017e\X0\alo', ( #375, #79 ), #147 ) ;
#538 = LINE ( 'NONE', #216, #482 ) ;
#539 = DIRECTION ( 'NONE',  ( -1.000000000000000000, 0.000000000000000000, 0.000000000000000000 ) ) ;
#540 = ORIENTED_EDGE ( 'NONE', *, *, #243, .F. ) ;
#541 = ADVANCED_FACE ( 'NONE', ( #186, #568 ), #394, .F. ) ;
#542 = EDGE_CURVE ( 'NONE', #229, #71, #504, .T. ) ;
#543 = DIRECTION ( 'NONE',  ( -1.000000000000000000, 0.000000000000000000, 0.000000000000000000 ) ) ;
#544 = SURFACE_STYLE_FILL_AREA ( #275 ) ;
#545 = VERTEX_POINT ( 'NONE', #458 ) ;
#546 = CIRCLE ( 'NONE', #334, 2.999999999999999112 ) ;
#547 = EDGE_CURVE ( 'NONE', #226, #492, #195, .T. ) ;
#548 = CARTESIAN_POINT ( 'NONE',  ( 6.999999999999999112, -22.00000000000000355, 21.00000000000000000 ) ) ;
#549 = ORIENTED_EDGE ( 'NONE', *, *, #61, .T. ) ;
#550 = EDGE_CURVE ( 'NONE', #573, #107, #625, .T. ) ;
#551 = CARTESIAN_POINT ( 'NONE',  ( -2.599999999999995648, -18.00000000000000355, 21.00000000000000000 ) ) ;
#552 = ORIENTED_EDGE ( 'NONE', *, *, #292, .F. ) ;
#553 = DIRECTION ( 'NONE',  ( 1.000000000000000000, -0.000000000000000000, -0.000000000000000000 ) ) ;
#554 = VERTEX_POINT ( 'NONE', #282 ) ;
#555 = EDGE_CURVE ( 'NONE', #522, #554, #18, .T. ) ;
#556 = ORIENTED_EDGE ( 'NONE', *, *, #74, .T. ) ;
#557 = CARTESIAN_POINT ( 'NONE',  ( -10.00000000000000178, -1.399999999999996136, -3.493163874476734598E-15 ) ) ;
#558 = ORIENTED_EDGE ( 'NONE', *, *, #292, .T. ) ;
#559 = LINE ( 'NONE', #455, #470 ) ;
#560 = EDGE_CURVE ( 'NONE', #124, #341, #176, .T. ) ;
#561 = ORIENTED_EDGE ( 'NONE', *, *, #320, .T. ) ;
#562 = CARTESIAN_POINT ( 'NONE',  ( 9.999999999999998224, 22.00000000000000355, 11.00000000000000000 ) ) ;
#563 = CYLINDRICAL_SURFACE ( 'NONE', #3, 2.600000000000000533 ) ;
#564 = ORIENTED_EDGE ( 'NONE', *, *, #230, .T. ) ;
#565 = ORIENTED_EDGE ( 'NONE', *, *, #547, .F. ) ;
#566 = DIRECTION ( 'NONE',  ( -1.000000000000000000, 0.000000000000000000, 0.000000000000000000 ) ) ;
#567 = EDGE_CURVE ( 'NONE', #349, #187, #445, .T. ) ;
#568 = FACE_OUTER_BOUND ( 'NONE', #497, .T. ) ;
#569 = LINE ( 'NONE', #584, #434 ) ;
#570 = EDGE_LOOP ( 'NONE', ( #460, #8, #174, #220 ) ) ;
#571 = DIRECTION ( 'NONE',  ( -1.000000000000000000, 0.000000000000000000, 0.000000000000000000 ) ) ;
#572 = DIRECTION ( 'NONE',  ( 0.000000000000000000, -0.000000000000000000, -1.000000000000000000 ) ) ;
#573 = VERTEX_POINT ( 'NONE', #213 ) ;
#574 = ADVANCED_FACE ( 'NONE', ( #209 ), #410, .F. ) ;
#575 = VECTOR ( 'NONE', #578, 1000.000000000000000 ) ;
#576 = CIRCLE ( 'NONE', #668, 2.600000000000000533 ) ;
#577 = CARTESIAN_POINT ( 'NONE',  ( 9.999999999999998224, 1.400000000000003908, -2.640970522028243333E-15 ) ) ;
#578 = DIRECTION ( 'NONE',  ( -0.000000000000000000, -0.000000000000000000, 1.000000000000000000 ) ) ;
#579 = PLANE ( 'NONE',  #93 ) ;
#580 = DIRECTION ( 'NONE',  ( 1.000000000000000000, -0.000000000000000000, -0.000000000000000000 ) ) ;
#581 = CARTESIAN_POINT ( 'NONE',  ( 9.999999999999998224, 1.400000000000003908, -2.640970522028243333E-15 ) ) ;
#582 = DIRECTION ( 'NONE',  ( -0.000000000000000000, -0.000000000000000000, -1.000000000000000000 ) ) ;
#583 = CARTESIAN_POINT ( 'NONE',  ( 9.999999999999998224, -1.399999999999996136, -3.493163874476734598E-15 ) ) ;
#584 = CARTESIAN_POINT ( 'NONE',  ( 9.999999999999998224, -25.00000000000000000, 11.00000000000000000 ) ) ;
#585 = CARTESIAN_POINT ( 'NONE',  ( 5.204170427930421283E-15, -18.00000000000000355, 11.00000000000000000 ) ) ;
#586 = ORIENTED_EDGE ( 'NONE', *, *, #493, .T. ) ;
#587 = VECTOR ( 'NONE', #78, 1000.000000000000000 ) ;
#588 = ADVANCED_FACE ( 'NONE', ( #641 ), #151, .F. ) ;
#589 = VECTOR ( 'NONE', #348, 1000.000000000000000 ) ;
#590 = CARTESIAN_POINT ( 'NONE',  ( 5.204170427930421283E-15, 18.00000000000000355, 21.00000000000000000 ) ) ;
#591 = VERTEX_POINT ( 'NONE', #583 ) ;
#592 = CARTESIAN_POINT ( 'NONE',  ( -10.00000000000000178, -5.900000000000002132, 11.00000000000000000 ) ) ;
#593 = EDGE_CURVE ( 'NONE', #85, #86, #36, .T. ) ;
#594 = ORIENTED_EDGE ( 'NONE', *, *, #317, .F. ) ;
#595 = VECTOR ( 'NONE', #514, 1000.000000000000000 ) ;
#596 = VECTOR ( 'NONE', #233, 1000.000000000000000 ) ;
#597 = LINE ( 'NONE', #326, #57 ) ;
#598 = CARTESIAN_POINT ( 'NONE',  ( -10.00000000000000178, 22.00000000000000000, 11.00000000000000000 ) ) ;
#599 = EDGE_LOOP ( 'NONE', ( #92, #286, #76, #602 ) ) ;
#600 =( NAMED_UNIT ( * ) PLANE_ANGLE_UNIT ( ) SI_UNIT ( $, .RADIAN. ) );
#601 = CARTESIAN_POINT ( 'NONE',  ( -10.00000000000000178, -25.00000000000000000, 11.00000000000000000 ) ) ;
#602 = ORIENTED_EDGE ( 'NONE', *, *, #677, .F. ) ;
#603 = ADVANCED_FACE ( 'NONE', ( #154 ), #628, .T. ) ;
#604 = CARTESIAN_POINT ( 'NONE',  ( 0.000000000000000000, 0.000000000000000000, 0.000000000000000000 ) ) ;
#605 = CARTESIAN_POINT ( 'NONE',  ( -7.000000000000002665, 25.00000000000000000, 21.00000000000000000 ) ) ;
#606 = ORIENTED_EDGE ( 'NONE', *, *, #671, .F. ) ;
#607 = VECTOR ( 'NONE', #288, 1000.000000000000000 ) ;
#608 = VECTOR ( 'NONE', #699, 1000.000000000000000 ) ;
#609 = CARTESIAN_POINT ( 'NONE',  ( -10.00000000000000178, -25.00000000000000000, 21.00000000000000000 ) ) ;
#610 = ORIENTED_EDGE ( 'NONE', *, *, #243, .T. ) ;
#611 = CARTESIAN_POINT ( 'NONE',  ( 9.999999999999998224, -25.00000000000000000, 21.00000000000000000 ) ) ;
#612 = VERTEX_POINT ( 'NONE', #355 ) ;
#613 = ADVANCED_FACE ( 'NONE', ( #465 ), #313, .F. ) ;
#614 = CARTESIAN_POINT ( 'NONE',  ( -10.00000000000000178, -22.00000000000000355, 21.00000000000000000 ) ) ;
#615 = VERTEX_POINT ( 'NONE', #106 ) ;
#616 = EDGE_CURVE ( 'NONE', #615, #502, #258, .T. ) ;
#617 = ORIENTED_EDGE ( 'NONE', *, *, #273, .T. ) ;
#618 = CARTESIAN_POINT ( 'NONE',  ( 0.000000000000000000, 0.000000000000000000, 21.00000000000000000 ) ) ;
#619 = CARTESIAN_POINT ( 'NONE',  ( 0.000000000000000000, 0.000000000000000000, 11.00000000000000000 ) ) ;
#620 = ORIENTED_EDGE ( 'NONE', *, *, #74, .F. ) ;
#621 = CIRCLE ( 'NONE', #207, 3.000000000000000000 ) ;
#622 = AXIS2_PLACEMENT_3D ( 'NONE', #530, #156, #633 ) ;
#623 = LINE ( 'NONE', #132, #589 ) ;
#624 = CARTESIAN_POINT ( 'NONE',  ( 9.999999999999998224, 1.400000000000003908, -2.640970522028243333E-15 ) ) ;
#625 = LINE ( 'NONE', #136, #634 ) ;
#626 = EDGE_CURVE ( 'NONE', #279, #492, #205, .T. ) ;
#627 = FACE_BOUND ( 'NONE', #33, .T. ) ;
#628 = PLANE ( 'NONE',  #58 ) ;
#629 = EDGE_LOOP ( 'NONE', ( #111, #450, #552, #73 ) ) ;
#630 = LINE ( 'NONE', #464, #595 ) ;
#631 = PRODUCT_DEFINITION ( 'UNKNOWN', '', #170, #12 ) ;
#632 = ORIENTED_EDGE ( 'NONE', *, *, #29, .T. ) ;
#633 = DIRECTION ( 'NONE',  ( 0.000000000000000000, 0.000000000000000000, 1.000000000000000000 ) ) ;
#634 = VECTOR ( 'NONE', #32, 1000.000000000000000 ) ;
#635 = AXIS2_PLACEMENT_3D ( 'NONE', #200, #95, #698 ) ;
#636 = LINE ( 'NONE', #577, #448 ) ;
#637 = LINE ( 'NONE', #308, #447 ) ;
#638 = LINE ( 'NONE', #472, #55 ) ;
#639 = EDGE_CURVE ( 'NONE', #701, #502, #468, .T. ) ;
#640 = CARTESIAN_POINT ( 'NONE',  ( 9.999999999999998224, -25.00000000000000000, 0.000000000000000000 ) ) ;
#641 = FACE_OUTER_BOUND ( 'NONE', #52, .T. ) ;
#642 = ORIENTED_EDGE ( 'NONE', *, *, #593, .F. ) ;
#643 = CARTESIAN_POINT ( 'NONE',  ( -2.599999999999995648, 18.00000000000000355, 21.00000000000000000 ) ) ;
#644 = FACE_OUTER_BOUND ( 'NONE', #281, .T. ) ;
#645 = ORIENTED_EDGE ( 'NONE', *, *, #650, .T. ) ;
#646 = EDGE_CURVE ( 'NONE', #187, #274, #637, .T. ) ;
#647 = DIRECTION ( 'NONE',  ( 0.000000000000000000, 0.000000000000000000, 1.000000000000000000 ) ) ;
#648 = DIRECTION ( 'NONE',  ( 0.000000000000000000, 0.000000000000000000, -1.000000000000000000 ) ) ;
#649 = ORIENTED_EDGE ( 'NONE', *, *, #702, .T. ) ;
#650 = EDGE_CURVE ( 'NONE', #501, #615, #254, .T. ) ;
#651 = DIRECTION ( 'NONE',  ( 0.000000000000000000, 0.000000000000000000, -1.000000000000000000 ) ) ;
#652 =( NAMED_UNIT ( * ) PLANE_ANGLE_UNIT ( ) SI_UNIT ( $, .RADIAN. ) );
#653 = ORIENTED_EDGE ( 'NONE', *, *, #82, .F. ) ;
#654 = CARTESIAN_POINT ( 'NONE',  ( -7.000000000000002665, 22.00000000000000000, 21.00000000000000000 ) ) ;
#655 = LINE ( 'NONE', #385, #356 ) ;
#656 = ORIENTED_EDGE ( 'NONE', *, *, #424, .F. ) ;
#657 = AXIS2_PLACEMENT_3D ( 'NONE', #306, #705, #371 ) ;
#658 = DIRECTION ( 'NONE',  ( -1.000000000000000000, 0.000000000000000000, 0.000000000000000000 ) ) ;
#659 = DIRECTION ( 'NONE',  ( -1.000000000000000000, 0.000000000000000000, 0.000000000000000000 ) ) ;
#660 = ORIENTED_EDGE ( 'NONE', *, *, #387, .T. ) ;
#661 = EDGE_CURVE ( 'NONE', #86, #343, #238, .T. ) ;
#662 = DIRECTION ( 'NONE',  ( -1.000000000000000000, -0.000000000000000000, -0.000000000000000000 ) ) ;
#663 = EDGE_LOOP ( 'NONE', ( #606, #177, #386, #406 ) ) ;
#664 = EDGE_CURVE ( 'NONE', #189, #71, #43, .T. ) ;
#665 = DIRECTION ( 'NONE',  ( 1.000000000000000000, 0.000000000000000000, 0.000000000000000000 ) ) ;
#666 = ORIENTED_EDGE ( 'NONE', *, *, #65, .T. ) ;
#667 = VECTOR ( 'NONE', #60, 1000.000000000000000 ) ;
#668 = AXIS2_PLACEMENT_3D ( 'NONE', #403, #351, #361 ) ;
#669 = FACE_OUTER_BOUND ( 'NONE', #319, .T. ) ;
#670 = ORIENTED_EDGE ( 'NONE', *, *, #363, .T. ) ;
#671 = EDGE_CURVE ( 'NONE', #131, #226, #287, .T. ) ;
#672 = CARTESIAN_POINT ( 'NONE',  ( 9.999999999999998224, 0.000000000000000000, 1.399999999999996581 ) ) ;
#673 = ORIENTED_EDGE ( 'NONE', *, *, #664, .T. ) ;
#674 = CARTESIAN_POINT ( 'NONE',  ( 9.999999999999998224, 1.400000000000003908, -2.640970522028243333E-15 ) ) ;
#675 = DIRECTION ( 'NONE',  ( 0.000000000000000000, -0.000000000000000000, 1.000000000000000000 ) ) ;
#676 = ORIENTED_EDGE ( 'NONE', *, *, #424, .T. ) ;
#677 = EDGE_CURVE ( 'NONE', #20, #325, #597, .T. ) ;
#678 = DIRECTION ( 'NONE',  ( 0.000000000000000000, 1.000000000000000000, 0.000000000000000000 ) ) ;
#679 = ORIENTED_EDGE ( 'NONE', *, *, #646, .T. ) ;
#680 = CARTESIAN_POINT ( 'NONE',  ( 6.999999999999999112, -25.00000000000000000, 11.00000000000000000 ) ) ;
#681 = CARTESIAN_POINT ( 'NONE',  ( 5.204170427930421283E-15, -18.00000000000000355, 21.00000000000000000 ) ) ;
#682 = ORIENTED_EDGE ( 'NONE', *, *, #527, .F. ) ;
#683 = AXIS2_PLACEMENT_3D ( 'NONE', #137, #353, #250 ) ;
#684 = CIRCLE ( 'NONE', #436, 2.600000000000000533 ) ;
#685 = EDGE_CURVE ( 'NONE', #226, #372, #538, .T. ) ;
#686 = ORIENTED_EDGE ( 'NONE', *, *, #393, .T. ) ;
#687 = FACE_OUTER_BOUND ( 'NONE', #11, .T. ) ;
#688 = DIRECTION ( 'NONE',  ( -0.000000000000000000, -0.000000000000000000, -1.000000000000000000 ) ) ;
#689 = DIRECTION ( 'NONE',  ( -0.000000000000000000, 0.000000000000000000, -1.000000000000000000 ) ) ;
#690 = ORIENTED_EDGE ( 'NONE', *, *, #702, .F. ) ;
#691 = CARTESIAN_POINT ( 'NONE',  ( 6.999999999999995559, 25.00000000000000000, 11.00000000000000000 ) ) ;
#692 = APPLICATION_CONTEXT ( 'automotive_design' ) ;
#693 = CARTESIAN_POINT ( 'NONE',  ( -10.00000000000000178, 0.000000000000000000, 1.399999999999996581 ) ) ;
#694 = EDGE_LOOP ( 'NONE', ( #645, #89, #540, #660 ) ) ;
#695 = DIRECTION ( 'NONE',  ( 0.000000000000000000, 1.000000000000000000, 0.000000000000000000 ) ) ;
#696 = DIRECTION ( 'NONE',  ( 1.000000000000000000, 0.000000000000000000, 0.000000000000000000 ) ) ;
#697 = ADVANCED_FACE ( 'NONE', ( #1 ), #377, .T. ) ;
#698 = DIRECTION ( 'NONE',  ( -1.000000000000000000, 0.000000000000000000, 0.000000000000000000 ) ) ;
#699 = DIRECTION ( 'NONE',  ( -0.000000000000000000, -1.000000000000000000, -0.000000000000000000 ) ) ;
#700 = CIRCLE ( 'NONE', #481, 3.000000000000000000 ) ;
#701 = VERTEX_POINT ( 'NONE', #66 ) ;
#702 = EDGE_CURVE ( 'NONE', #107, #189, #47, .T. ) ;
#703 = PLANE ( 'NONE',  #526 ) ;
#704 = CARTESIAN_POINT ( 'NONE',  ( 9.999999999999998224, 0.000000000000000000, 1.399999999999996581 ) ) ;
#705 = DIRECTION ( 'NONE',  ( -0.000000000000000000, -0.000000000000000000, 1.000000000000000000 ) ) ;
#706 = ORIENTED_EDGE ( 'NONE', *, *, #42, .T. ) ;
ENDSEC;
END-ISO-10303-21;
