ISO-10303-21;
HEADER;
FILE_DESCRIPTION (( 'STEP AP214' ),
    '1' );
FILE_NAME ('ohišje ojnice spodaj z pušo.STEP',
    '2025-10-23T13:12:56',
    ( '' ),
    ( '' ),
    'SwSTEP 2.0',
    'SolidWorks 2024',
    '' );
FILE_SCHEMA (( 'AUTOMOTIVE_DESIGN' ));
ENDSEC;

DATA;
#1 = DIRECTION ( 'NONE',  ( 1.000000000000000000, 0.000000000000000000, -0.000000000000000000 ) ) ;
#2 = PRESENTATION_LAYER_ASSIGNMENT (  '', '', ( #287 ) ) ;
#3 = ORIENTED_EDGE ( 'NONE', *, *, #505, .F. ) ;
#4 = DIRECTION ( 'NONE',  ( 0.000000000000000000, 0.000000000000000000, 1.000000000000000000 ) ) ;
#5 = CARTESIAN_POINT ( 'NONE',  ( -5.000000000000000000, 20.00000000000000000, 0.000000000000000000 ) ) ;
#6 =( LENGTH_UNIT ( ) NAMED_UNIT ( * ) SI_UNIT ( .MILLI., .METRE. ) );
#7 = ORIENTED_EDGE ( 'NONE', *, *, #244, .F. ) ;
#8 = ADVANCED_FACE ( 'NONE', ( #936 ), #791, .F. ) ;
#9 = DIRECTION ( 'NONE',  ( 0.000000000000000000, 0.000000000000000000, 1.000000000000000000 ) ) ;
#10 = CIRCLE ( 'NONE', #251, 5.000000000000000888 ) ;
#11 = VECTOR ( 'NONE', #910, 1000.000000000000000 ) ;
#12 = CARTESIAN_POINT ( 'NONE',  ( -5.000000000000000000, 20.00000000000000000, -5.000000000000000000 ) ) ;
#13 = AXIS2_PLACEMENT_3D ( 'NONE', #833, #449, #747 ) ;
#14 = ORIENTED_EDGE ( 'NONE', *, *, #664, .T. ) ;
#15 = PRODUCT_DEFINITION_CONTEXT ( 'detailed design', #371, 'design' ) ;
#16 = CARTESIAN_POINT ( 'NONE',  ( -2.000000000000000000, 10.61916848035313876, 1.000000000000000000 ) ) ;
#17 = CARTESIAN_POINT ( 'NONE',  ( -3.000000000000000000, 20.00000000000000000, 0.000000000000000000 ) ) ;
#18 = ORIENTED_EDGE ( 'NONE', *, *, #474, .F. ) ;
#19 = DIRECTION ( 'NONE',  ( 0.000000000000000000, 0.000000000000000000, 1.000000000000000000 ) ) ;
#20 = AXIS2_PLACEMENT_3D ( 'NONE', #650, #799, #271 ) ;
#21 = ADVANCED_FACE ( 'NONE', ( #570, #654 ), #509, .T. ) ;
#22 = CARTESIAN_POINT ( 'NONE',  ( 2.000000000000000000, 16.39198787705889870, -3.461538461538460787 ) ) ;
#23 = ORIENTED_EDGE ( 'NONE', *, *, #403, .F. ) ;
#24 = DIRECTION ( 'NONE',  ( 0.000000000000000000, 0.000000000000000000, 1.000000000000000000 ) ) ;
#25 = DIRECTION ( 'NONE',  ( -1.000000000000000000, 0.000000000000000000, 0.000000000000000000 ) ) ;
#26 = EDGE_LOOP ( 'NONE', ( #475, #498, #811, #103 ) ) ;
#27 = CARTESIAN_POINT ( 'NONE',  ( 2.000000000000000000, 10.61916848035313876, -9.000000000000001776 ) ) ;
#28 = DIRECTION ( 'NONE',  ( 1.000000000000000000, 0.000000000000000000, 0.000000000000000000 ) ) ;
#29 = EDGE_LOOP ( 'NONE', ( #935, #549, #380, #151 ) ) ;
#30 = ADVANCED_FACE ( 'NONE', ( #212 ), #208, .T. ) ;
#31 = CARTESIAN_POINT ( 'NONE',  ( 0.000000000000000000, 0.000000000000000000, 0.000000000000000000 ) ) ;
#32 = AXIS2_PLACEMENT_3D ( 'NONE', #421, #720, #255 ) ;
#33 = DIRECTION ( 'NONE',  ( 0.000000000000000000, 0.000000000000000000, 1.000000000000000000 ) ) ;
#34 = DIRECTION ( 'NONE',  ( 0.000000000000000000, 0.000000000000000000, -1.000000000000000000 ) ) ;
#35 = VERTEX_POINT ( 'NONE', #584 ) ;
#36 = DIRECTION ( 'NONE',  ( 0.000000000000000000, 0.000000000000000000, -1.000000000000000000 ) ) ;
#37 = EDGE_CURVE ( 'NONE', #177, #332, #183, .T. ) ;
#38 = EDGE_CURVE ( 'NONE', #434, #133, #595, .T. ) ;
#39 = CARTESIAN_POINT ( 'NONE',  ( 1.836970198721030181E-16, 14.00000000000000000, 1.500000000000000222 ) ) ;
#40 = ORIENTED_EDGE ( 'NONE', *, *, #76, .F. ) ;
#41 = CARTESIAN_POINT ( 'NONE',  ( 2.000000000000000000, 20.00000000000000000, 8.000000000000000000 ) ) ;
#42 = FILL_AREA_STYLE ('',( #774 ) ) ;
#43 = DIRECTION ( 'NONE',  ( -0.000000000000000000, -1.000000000000000000, -0.000000000000000000 ) ) ;
#44 = EDGE_CURVE ( 'NONE', #434, #763, #422, .T. ) ;
#45 = ORIENTED_EDGE ( 'NONE', *, *, #897, .T. ) ;
#46 = DIRECTION ( 'NONE',  ( -1.000000000000000000, -0.000000000000000000, 0.000000000000000000 ) ) ;
#47 = DIRECTION ( 'NONE',  ( 0.000000000000000000, -2.602085213965210642E-15, 1.000000000000000000 ) ) ;
#48 = AXIS2_PLACEMENT_3D ( 'NONE', #199, #489, #780 ) ;
#49 = DIRECTION ( 'NONE',  ( 0.000000000000000000, 1.000000000000000000, 0.000000000000000000 ) ) ;
#50 = EDGE_CURVE ( 'NONE', #835, #237, #347, .T. ) ;
#51 = EDGE_LOOP ( 'NONE', ( #503, #518, #191, #406 ) ) ;
#52 = DIRECTION ( 'NONE',  ( 0.000000000000000000, 0.000000000000000000, 1.000000000000000000 ) ) ;
#53 = DIRECTION ( 'NONE',  ( 0.000000000000000000, 0.000000000000000000, 1.000000000000000000 ) ) ;
#54 = SHAPE_DEFINITION_REPRESENTATION ( #586, #319 ) ;
#55 = FACE_OUTER_BOUND ( 'NONE', #472, .T. ) ;
#56 = DIRECTION ( 'NONE',  ( -1.000000000000000000, -0.000000000000000000, 0.000000000000000000 ) ) ;
#57 = CIRCLE ( 'NONE', #480, 2.999999999999999556 ) ;
#58 = DIRECTION ( 'NONE',  ( 1.000000000000000000, 0.000000000000000000, 0.000000000000000000 ) ) ;
#59 = VERTEX_POINT ( 'NONE', #915 ) ;
#60 = ORIENTED_EDGE ( 'NONE', *, *, #466, .T. ) ;
#61 = CARTESIAN_POINT ( 'NONE',  ( -11.00000000000000000, 20.00000000000000000, 0.000000000000000000 ) ) ;
#62 = LINE ( 'NONE', #277, #448 ) ;
#63 = AXIS2_PLACEMENT_3D ( 'NONE', #265, #476, #338 ) ;
#64 = AXIS2_PLACEMENT_3D ( 'NONE', #117, #49, #410 ) ;
#65 = EDGE_LOOP ( 'NONE', ( #681, #929, #679, #521 ) ) ;
#66 = DIRECTION ( 'NONE',  ( 0.000000000000000000, 0.000000000000000000, 1.000000000000000000 ) ) ;
#67 = EDGE_CURVE ( 'NONE', #78, #479, #381, .T. ) ;
#68 = LINE ( 'NONE', #135, #405 ) ;
#69 = DIRECTION ( 'NONE',  ( 0.000000000000000000, 0.000000000000000000, 1.000000000000000000 ) ) ;
#70 = CARTESIAN_POINT ( 'NONE',  ( 2.000000000000000000, 10.61916848035313876, -4.000000000000000000 ) ) ;
#71 = AXIS2_PLACEMENT_3D ( 'NONE', #870, #661, #506 ) ;
#72 = ADVANCED_FACE ( 'NONE', ( #551 ), #640, .T. ) ;
#73 = CARTESIAN_POINT ( 'NONE',  ( -3.000000000000000000, 20.00000000000000000, 0.000000000000000000 ) ) ;
#74 = ORIENTED_EDGE ( 'NONE', *, *, #116, .T. ) ;
#75 = DIRECTION ( 'NONE',  ( 1.000000000000000000, 0.000000000000000000, 0.000000000000000000 ) ) ;
#76 = EDGE_CURVE ( 'NONE', #625, #756, #121, .T. ) ;
#77 = AXIS2_PLACEMENT_3D ( 'NONE', #914, #189, #846 ) ;
#78 = VERTEX_POINT ( 'NONE', #567 ) ;
#79 = AXIS2_PLACEMENT_3D ( 'NONE', #386, #382, #883 ) ;
#80 = CIRCLE ( 'NONE', #170, 5.000000000000000000 ) ;
#81 = CARTESIAN_POINT ( 'NONE',  ( 5.000000000000000000, 16.39198787705890226, 3.461538461538461675 ) ) ;
#82 = CIRCLE ( 'NONE', #703, 8.000000000000000000 ) ;
#83 = ORIENTED_EDGE ( 'NONE', *, *, #633, .T. ) ;
#84 = DIRECTION ( 'NONE',  ( 0.000000000000000000, -0.000000000000000000, 1.000000000000000000 ) ) ;
#85 = ORIENTED_EDGE ( 'NONE', *, *, #460, .F. ) ;
#86 = DIRECTION ( 'NONE',  ( 0.000000000000000000, 0.000000000000000000, 1.000000000000000000 ) ) ;
#87 = ADVANCED_FACE ( 'NONE', ( #697 ), #138, .T. ) ;
#88 = DIRECTION ( 'NONE',  ( 0.000000000000000000, 0.000000000000000000, -1.000000000000000000 ) ) ;
#89 = ORIENTED_EDGE ( 'NONE', *, *, #163, .F. ) ;
#90 = DIRECTION ( 'NONE',  ( 0.000000000000000000, 1.000000000000000000, 1.224646799147353207E-16 ) ) ;
#91 = TOROIDAL_SURFACE ( 'NONE', #900, 8.000000000000000000, 3.000000000000000000 ) ;
#92 = ADVANCED_FACE ( 'NONE', ( #407 ), #714, .T. ) ;
#93 = DIRECTION ( 'NONE',  ( -0.000000000000000000, -1.000000000000000000, -0.000000000000000000 ) ) ;
#94 = ORIENTED_EDGE ( 'NONE', *, *, #417, .T. ) ;
#95 = DIRECTION ( 'NONE',  ( -1.000000000000000000, -0.000000000000000000, 0.000000000000000000 ) ) ;
#96 =( NAMED_UNIT ( * ) SI_UNIT ( $, .STERADIAN. ) SOLID_ANGLE_UNIT ( ) );
#97 = TOROIDAL_SURFACE ( 'NONE', #71, 5.000000000000000000, 3.000000000000000000 ) ;
#98 = PLANE ( 'NONE',  #537 ) ;
#99 = EDGE_CURVE ( 'NONE', #540, #748, #635, .T. ) ;
#100 = ORIENTED_EDGE ( 'NONE', *, *, #76, .T. ) ;
#101 = CARTESIAN_POINT ( 'NONE',  ( 5.000000000000000000, 20.00000000000000000, 0.000000000000000000 ) ) ;
#102 = DIRECTION ( 'NONE',  ( -0.000000000000000000, 0.000000000000000000, 1.000000000000000000 ) ) ;
#103 = ORIENTED_EDGE ( 'NONE', *, *, #649, .T. ) ;
#104 = EDGE_CURVE ( 'NONE', #841, #748, #131, .T. ) ;
#105 = AXIS2_PLACEMENT_3D ( 'NONE', #291, #152, #726 ) ;
#106 = PLANE ( 'NONE',  #63 ) ;
#107 = DIRECTION ( 'NONE',  ( -0.000000000000000000, -1.000000000000000000, 0.000000000000000000 ) ) ;
#108 = ORIENTED_EDGE ( 'NONE', *, *, #269, .T. ) ;
#109 = CARTESIAN_POINT ( 'NONE',  ( -2.000000000000000000, 14.22718060329424006, -5.538461538461536549 ) ) ;
#110 = ADVANCED_FACE ( 'NONE', ( #55 ), #126, .T. ) ;
#111 = ORIENTED_EDGE ( 'NONE', *, *, #711, .F. ) ;
#112 = DIRECTION ( 'NONE',  ( 1.000000000000000000, 0.000000000000000000, 0.000000000000000000 ) ) ;
#113 = ORIENTED_EDGE ( 'NONE', *, *, #874, .T. ) ;
#114 = DIRECTION ( 'NONE',  ( 0.000000000000000000, 0.000000000000000000, 1.000000000000000000 ) ) ;
#115 = CARTESIAN_POINT ( 'NONE',  ( -2.000000000000000000, 0.000000000000000000, -4.000000000000000000 ) ) ;
#116 = EDGE_CURVE ( 'NONE', #434, #253, #928, .T. ) ;
#117 = CARTESIAN_POINT ( 'NONE',  ( 2.000000000000000000, 0.000000000000000000, 1.000000000000000000 ) ) ;
#118 = VERTEX_POINT ( 'NONE', #497 ) ;
#119 = ORIENTED_EDGE ( 'NONE', *, *, #874, .F. ) ;
#120 = SURFACE_SIDE_STYLE ('',( #125 ) ) ;
#121 = LINE ( 'NONE', #477, #839 ) ;
#122 = AXIS2_PLACEMENT_3D ( 'NONE', #419, #148, #221 ) ;
#123 = APPLICATION_CONTEXT ( 'automotive_design' ) ;
#124 = VERTEX_POINT ( 'NONE', #857 ) ;
#125 = SURFACE_STYLE_FILL_AREA ( #42 ) ;
#126 = PLANE ( 'NONE',  #698 ) ;
#127 = ORIENTED_EDGE ( 'NONE', *, *, #330, .T. ) ;
#128 = CIRCLE ( 'NONE', #235, 3.000000000000000000 ) ;
#129 = CIRCLE ( 'NONE', #492, 5.000000000000000000 ) ;
#130 = CYLINDRICAL_SURFACE ( 'NONE', #420, 3.150000000000000355 ) ;
#131 = LINE ( 'NONE', #339, #361 ) ;
#132 = EDGE_CURVE ( 'NONE', #508, #763, #623, .T. ) ;
#133 = VERTEX_POINT ( 'NONE', #557 ) ;
#134 = LINE ( 'NONE', #873, #180 ) ;
#135 = CARTESIAN_POINT ( 'NONE',  ( -5.000000000000000000, 14.22718060329424006, -5.538461538461536549 ) ) ;
#136 = TOROIDAL_SURFACE ( 'NONE', #608, 8.000000000000000000, 3.000000000000000000 ) ;
#137 = DIRECTION ( 'NONE',  ( 0.000000000000000000, 0.000000000000000000, 1.000000000000000000 ) ) ;
#138 = TOROIDAL_SURFACE ( 'NONE', #917, 8.000000000000000000, 3.000000000000000000 ) ;
#139 = ORIENTED_EDGE ( 'NONE', *, *, #369, .T. ) ;
#140 = DIRECTION ( 'NONE',  ( 1.000000000000000000, 0.000000000000000000, -0.000000000000000000 ) ) ;
#141 = DIRECTION ( 'NONE',  ( 0.000000000000000000, -0.7216024245882203259, 0.6923076923076919575 ) ) ;
#142 = EDGE_CURVE ( 'NONE', #835, #124, #709, .T. ) ;
#143 = DIRECTION ( 'NONE',  ( -0.000000000000000000, -1.000000000000000000, -0.000000000000000000 ) ) ;
#144 = ORIENTED_EDGE ( 'NONE', *, *, #309, .T. ) ;
#145 = AXIS2_PLACEMENT_3D ( 'NONE', #178, #328, #547 ) ;
#146 = CIRCLE ( 'NONE', #648, 8.000000000000000000 ) ;
#147 = ORIENTED_EDGE ( 'NONE', *, *, #905, .F. ) ;
#148 = DIRECTION ( 'NONE',  ( -0.000000000000000000, -1.000000000000000000, -0.000000000000000000 ) ) ;
#149 = EDGE_CURVE ( 'NONE', #35, #332, #62, .T. ) ;
#150 = CARTESIAN_POINT ( 'NONE',  ( -3.000000000000000000, 20.00000000000000000, 0.000000000000000000 ) ) ;
#151 = ORIENTED_EDGE ( 'NONE', *, *, #829, .F. ) ;
#152 = DIRECTION ( 'NONE',  ( -1.000000000000000000, -0.000000000000000000, 0.000000000000000000 ) ) ;
#153 = DIRECTION ( 'NONE',  ( 1.000000000000000000, -0.000000000000000000, -0.000000000000000000 ) ) ;
#154 = EDGE_LOOP ( 'NONE', ( #693, #815, #368, #85 ) ) ;
#155 = CARTESIAN_POINT ( 'NONE',  ( -5.000000000000000000, 10.61916848035313876, -1.000000000000000000 ) ) ;
#156 = AXIS2_PLACEMENT_3D ( 'NONE', #510, #1, #209 ) ;
#157 = CARTESIAN_POINT ( 'NONE',  ( -5.000000000000000000, 10.61916848035313876, 1.000000000000000888 ) ) ;
#158 = ORIENTED_EDGE ( 'NONE', *, *, #296, .F. ) ;
#159 = EDGE_CURVE ( 'NONE', #395, #124, #861, .T. ) ;
#160 = DIRECTION ( 'NONE',  ( 0.000000000000000000, 0.000000000000000000, 1.000000000000000000 ) ) ;
#161 = VECTOR ( 'NONE', #544, 1000.000000000000000 ) ;
#162 = EDGE_LOOP ( 'NONE', ( #495, #139, #842, #310 ) ) ;
#163 = EDGE_CURVE ( 'NONE', #569, #177, #68, .T. ) ;
#164 = UNCERTAINTY_MEASURE_WITH_UNIT (LENGTH_MEASURE( 1.000000000000000082E-05 ), #686, 'distance_accuracy_value', 'NONE');
#165 = DIRECTION ( 'NONE',  ( 0.000000000000000000, 0.000000000000000000, -1.000000000000000000 ) ) ;
#166 = AXIS2_PLACEMENT_3D ( 'NONE', #311, #519, #165 ) ;
#167 = DIRECTION ( 'NONE',  ( -1.000000000000000000, -0.000000000000000000, 0.000000000000000000 ) ) ;
#168 = ORIENTED_EDGE ( 'NONE', *, *, #829, .T. ) ;
#169 = CARTESIAN_POINT ( 'NONE',  ( 2.000000000000000000, 0.000000000000000000, -4.000000000000000000 ) ) ;
#170 = AXIS2_PLACEMENT_3D ( 'NONE', #562, #851, #204 ) ;
#171 = DIRECTION ( 'NONE',  ( 1.000000000000000000, 0.000000000000000000, 0.000000000000000000 ) ) ;
#172 = ORIENTED_EDGE ( 'NONE', *, *, #761, .F. ) ;
#173 = DIRECTION ( 'NONE',  ( -1.000000000000000000, -0.000000000000000000, 0.000000000000000000 ) ) ;
#174 = APPLICATION_PROTOCOL_DEFINITION ( 'draft international standard', 'automotive_design', 1998, #371 ) ;
#175 = CARTESIAN_POINT ( 'NONE',  ( -2.000000000000000000, 20.00000000000000000, 5.000000000000000000 ) ) ;
#176 = VECTOR ( 'NONE', #153, 1000.000000000000000 ) ;
#177 = VERTEX_POINT ( 'NONE', #354 ) ;
#178 = CARTESIAN_POINT ( 'NONE',  ( 2.000000000000000000, 20.00000000000000000, 0.000000000000000000 ) ) ;
#179 = EDGE_LOOP ( 'NONE', ( #754, #158 ) ) ;
#180 = VECTOR ( 'NONE', #796, 1000.000000000000000 ) ;
#181 = AXIS2_PLACEMENT_3D ( 'NONE', #409, #639, #769 ) ;
#182 = DIRECTION ( 'NONE',  ( 1.000000000000000000, 0.000000000000000000, -0.000000000000000000 ) ) ;
#183 = CIRCLE ( 'NONE', #468, 5.000000000000000888 ) ;
#184 = CARTESIAN_POINT ( 'NONE',  ( 2.000000000000000000, 10.61916848035313876, -1.000000000000000000 ) ) ;
#185 = ORIENTED_EDGE ( 'NONE', *, *, #377, .F. ) ;
#186 = EDGE_CURVE ( 'NONE', #804, #428, #485, .T. ) ;
#187 = DIRECTION ( 'NONE',  ( 0.000000000000000000, 0.000000000000000000, 1.000000000000000000 ) ) ;
#188 = ORIENTED_EDGE ( 'NONE', *, *, #776, .T. ) ;
#189 = DIRECTION ( 'NONE',  ( 0.000000000000000000, -1.000000000000000000, 0.000000000000000000 ) ) ;
#190 = CARTESIAN_POINT ( 'NONE',  ( -3.000000000000000000, 20.00000000000000000, 0.000000000000000000 ) ) ;
#191 = ORIENTED_EDGE ( 'NONE', *, *, #624, .F. ) ;
#192 = CIRCLE ( 'NONE', #294, 2.999999999999999556 ) ;
#193 = FACE_OUTER_BOUND ( 'NONE', #162, .T. ) ;
#194 = CARTESIAN_POINT ( 'NONE',  ( -2.000000000000000000, 0.000000000000000000, 1.000000000000000888 ) ) ;
#195 = EDGE_CURVE ( 'NONE', #35, #569, #683, .T. ) ;
#196 = CARTESIAN_POINT ( 'NONE',  ( 2.000000000000000000, 10.61916848035313876, 9.000000000000001776 ) ) ;
#197 = DIRECTION ( 'NONE',  ( -1.000000000000000000, -0.000000000000000000, 0.000000000000000000 ) ) ;
#198 = TOROIDAL_SURFACE ( 'NONE', #181, 5.000000000000000000, 3.000000000000000000 ) ;
#199 = CARTESIAN_POINT ( 'NONE',  ( -5.000000000000000000, 20.00000000000000000, 0.000000000000000000 ) ) ;
#200 = EDGE_CURVE ( 'NONE', #423, #304, #229, .T. ) ;
#201 = CIRCLE ( 'NONE', #777, 3.000000000000000444 ) ;
#202 = EDGE_LOOP ( 'NONE', ( #552, #487, #275, #185 ) ) ;
#203 = ORIENTED_EDGE ( 'NONE', *, *, #330, .F. ) ;
#204 = DIRECTION ( 'NONE',  ( 0.000000000000000000, 0.000000000000000000, 1.000000000000000000 ) ) ;
#205 = DIRECTION ( 'NONE',  ( 0.000000000000000000, 1.000000000000000000, 0.000000000000000000 ) ) ;
#206 = EDGE_CURVE ( 'NONE', #428, #804, #700, .T. ) ;
#207 = ORIENTED_EDGE ( 'NONE', *, *, #897, .F. ) ;
#208 = CYLINDRICAL_SURFACE ( 'NONE', #884, 3.000000000000000000 ) ;
#209 = DIRECTION ( 'NONE',  ( 0.000000000000000000, 0.000000000000000000, 1.000000000000000000 ) ) ;
#210 = CARTESIAN_POINT ( 'NONE',  ( 5.000000000000000000, 10.61916848035313876, 1.000000000000000888 ) ) ;
#211 = CARTESIAN_POINT ( 'NONE',  ( 0.000000000000000000, 14.00000000000000000, 0.000000000000000000 ) ) ;
#212 = FACE_OUTER_BOUND ( 'NONE', #374, .T. ) ;
#213 = CYLINDRICAL_SURFACE ( 'NONE', #656, 3.000000000000000000 ) ;
#214 = VECTOR ( 'NONE', #713, 1000.000000000000000 ) ;
#215 = DIRECTION ( 'NONE',  ( 1.000000000000000000, -0.000000000000000000, -0.000000000000000000 ) ) ;
#216 = ORIENTED_EDGE ( 'NONE', *, *, #447, .T. ) ;
#217 = CYLINDRICAL_SURFACE ( 'NONE', #122, 1.500000000000000222 ) ;
#218 = DIRECTION ( 'NONE',  ( 1.000000000000000000, 0.000000000000000000, 0.000000000000000000 ) ) ;
#219 = VERTEX_POINT ( 'NONE', #707 ) ;
#220 = ORIENTED_EDGE ( 'NONE', *, *, #674, .F. ) ;
#221 = DIRECTION ( 'NONE',  ( 0.000000000000000000, 0.000000000000000000, -1.000000000000000000 ) ) ;
#222 = VECTOR ( 'NONE', #25, 1000.000000000000000 ) ;
#223 = AXIS2_PLACEMENT_3D ( 'NONE', #184, #753, #765 ) ;
#224 = VERTEX_POINT ( 'NONE', #921 ) ;
#225 = AXIS2_PLACEMENT_3D ( 'NONE', #101, #813, #160 ) ;
#226 = DIRECTION ( 'NONE',  ( 0.000000000000000000, 0.000000000000000000, -1.000000000000000000 ) ) ;
#227 = EDGE_CURVE ( 'NONE', #662, #625, #806, .T. ) ;
#228 = LINE ( 'NONE', #157, #11 ) ;
#229 = CIRCLE ( 'NONE', #745, 3.150000000000000355 ) ;
#230 = EDGE_LOOP ( 'NONE', ( #404, #751, #891, #631 ) ) ;
#231 = CARTESIAN_POINT ( 'NONE',  ( -2.000000000000000000, 10.61916848035313876, -9.000000000000001776 ) ) ;
#232 = ADVANCED_FACE ( 'NONE', ( #550, #334 ), #106, .T. ) ;
#233 = EDGE_LOOP ( 'NONE', ( #314, #349, #147, #904 ) ) ;
#234 = CARTESIAN_POINT ( 'NONE',  ( -2.000000000000000000, 20.00000000000000000, -8.000000000000000000 ) ) ;
#235 = AXIS2_PLACEMENT_3D ( 'NONE', #721, #367, #737 ) ;
#236 = CARTESIAN_POINT ( 'NONE',  ( 0.000000000000000000, 14.00000000000000000, 0.000000000000000000 ) ) ;
#237 = VERTEX_POINT ( 'NONE', #695 ) ;
#238 = ADVANCED_FACE ( 'NONE', ( #931 ), #198, .T. ) ;
#239 = LINE ( 'NONE', #527, #934 ) ;
#240 = FACE_OUTER_BOUND ( 'NONE', #29, .T. ) ;
#241 = VERTEX_POINT ( 'NONE', #115 ) ;
#242 = FACE_OUTER_BOUND ( 'NONE', #233, .T. ) ;
#243 = CIRCLE ( 'NONE', #823, 3.000000000000000000 ) ;
#244 = EDGE_CURVE ( 'NONE', #529, #835, #303, .T. ) ;
#245 = CIRCLE ( 'NONE', #607, 4.050000000000000711 ) ;
#246 = DIRECTION ( 'NONE',  ( 0.000000000000000000, 0.000000000000000000, -1.000000000000000000 ) ) ;
#247 = ORIENTED_EDGE ( 'NONE', *, *, #163, .T. ) ;
#248 = CARTESIAN_POINT ( 'NONE',  ( -5.000000000000000000, 20.00000000000000000, 0.000000000000000000 ) ) ;
#249 = VERTEX_POINT ( 'NONE', #634 ) ;
#250 = MANIFOLD_SOLID_BREP ( 'Fillet1', #759 ) ;
#251 = AXIS2_PLACEMENT_3D ( 'NONE', #665, #596, #379 ) ;
#252 = FACE_OUTER_BOUND ( 'NONE', #715, .T. ) ;
#253 = VERTEX_POINT ( 'NONE', #779 ) ;
#254 = ORIENTED_EDGE ( 'NONE', *, *, #44, .F. ) ;
#255 = DIRECTION ( 'NONE',  ( 0.000000000000000000, 0.000000000000000000, -1.000000000000000000 ) ) ;
#256 = FACE_OUTER_BOUND ( 'NONE', #230, .T. ) ;
#257 = EDGE_CURVE ( 'NONE', #569, #434, #854, .T. ) ;
#258 = EDGE_LOOP ( 'NONE', ( #710, #845, #907, #418 ) ) ;
#259 = DIRECTION ( 'NONE',  ( 0.000000000000000000, 1.000000000000000000, 0.000000000000000000 ) ) ;
#260 = MECHANICAL_DESIGN_GEOMETRIC_PRESENTATION_REPRESENTATION (  '', ( #287 ), #321 ) ;
#261 = VECTOR ( 'NONE', #736, 1000.000000000000000 ) ;
#262 = CARTESIAN_POINT ( 'NONE',  ( 2.000000000000000000, 0.000000000000000000, -1.000000000000000888 ) ) ;
#263 = ORIENTED_EDGE ( 'NONE', *, *, #812, .F. ) ;
#264 = CARTESIAN_POINT ( 'NONE',  ( -2.000000000000000000, 0.000000000000000000, 4.000000000000000000 ) ) ;
#265 = CARTESIAN_POINT ( 'NONE',  ( -3.000000000000000000, 20.00000000000000000, 0.000000000000000000 ) ) ;
#266 = CARTESIAN_POINT ( 'NONE',  ( 2.000000000000000000, 20.00000000000000000, 0.000000000000000000 ) ) ;
#267 = CIRCLE ( 'NONE', #355, 4.050000000000000711 ) ;
#268 = VERTEX_POINT ( 'NONE', #346 ) ;
#269 = EDGE_CURVE ( 'NONE', #219, #837, #80, .T. ) ;
#270 =( NAMED_UNIT ( * ) SI_UNIT ( $, .STERADIAN. ) SOLID_ANGLE_UNIT ( ) );
#271 = DIRECTION ( 'NONE',  ( 0.000000000000000000, 0.000000000000000000, 1.000000000000000000 ) ) ;
#272 = CARTESIAN_POINT ( 'NONE',  ( -2.000000000000000000, 10.61916848035313876, -9.000000000000001776 ) ) ;
#273 = PRODUCT_DEFINITION ( 'UNKNOWN', '', #878, #15 ) ;
#274 = AXIS2_PLACEMENT_3D ( 'NONE', #888, #744, #892 ) ;
#275 = ORIENTED_EDGE ( 'NONE', *, *, #365, .F. ) ;
#276 = CARTESIAN_POINT ( 'NONE',  ( -5.000000000000000000, 20.00000000000000000, -3.150000000000000355 ) ) ;
#277 = CARTESIAN_POINT ( 'NONE',  ( -5.000000000000000000, 10.61916848035313876, -4.000000000000000000 ) ) ;
#278 = DIRECTION ( 'NONE',  ( 0.000000000000000000, 0.000000000000000000, -1.000000000000000000 ) ) ;
#279 = ORIENTED_EDGE ( 'NONE', *, *, #664, .F. ) ;
#280 = DIRECTION ( 'NONE',  ( 0.000000000000000000, 1.000000000000000000, -0.000000000000000000 ) ) ;
#281 = DIRECTION ( 'NONE',  ( -3.129451665637422780E-16, -0.6923076923076921796, -0.7216024245882202148 ) ) ;
#282 = CARTESIAN_POINT ( 'NONE',  ( -11.00000000000000000, 20.00000000000000000, -3.150000000000000355 ) ) ;
#283 = EDGE_CURVE ( 'NONE', #849, #490, #82, .T. ) ;
#284 = CARTESIAN_POINT ( 'NONE',  ( 2.000000000000000000, 10.61916848035313876, -1.000000000000000888 ) ) ;
#285 = DIRECTION ( 'NONE',  ( 0.000000000000000000, 0.000000000000000000, -1.000000000000000000 ) ) ;
#286 = VECTOR ( 'NONE', #43, 1000.000000000000000 ) ;
#287 = STYLED_ITEM ( 'NONE', ( #343 ), #250 ) ;
#288 = EDGE_LOOP ( 'NONE', ( #939, #454, #867, #18 ) ) ;
#289 = VERTEX_POINT ( 'NONE', #629 ) ;
#290 = ADVANCED_FACE ( 'NONE', ( #864 ), #213, .T. ) ;
#291 = CARTESIAN_POINT ( 'NONE',  ( 2.000000000000000000, 20.00000000000000000, 0.000000000000000000 ) ) ;
#292 = DIRECTION ( 'NONE',  ( 1.000000000000000000, 0.000000000000000000, 0.000000000000000000 ) ) ;
#293 = EDGE_LOOP ( 'NONE', ( #207, #412 ) ) ;
#294 = AXIS2_PLACEMENT_3D ( 'NONE', #803, #358, #742 ) ;
#295 = LINE ( 'NONE', #589, #916 ) ;
#296 = EDGE_CURVE ( 'NONE', #249, #491, #245, .T. ) ;
#297 = AXIS2_PLACEMENT_3D ( 'NONE', #236, #93, #906 ) ;
#298 = DIRECTION ( 'NONE',  ( 0.000000000000000000, 0.000000000000000000, -1.000000000000000000 ) ) ;
#299 = ORIENTED_EDGE ( 'NONE', *, *, #99, .T. ) ;
#300 = LINE ( 'NONE', #677, #261 ) ;
#301 = EDGE_CURVE ( 'NONE', #224, #399, #201, .T. ) ;
#302 = CARTESIAN_POINT ( 'NONE',  ( 0.000000000000000000, 0.000000000000000000, -4.000000000000000000 ) ) ;
#303 = CIRCLE ( 'NONE', #732, 3.000000000000000000 ) ;
#304 = VERTEX_POINT ( 'NONE', #276 ) ;
#305 = AXIS2_PLACEMENT_3D ( 'NONE', #940, #56, #725 ) ;
#306 = UNCERTAINTY_MEASURE_WITH_UNIT (LENGTH_MEASURE( 1.000000000000000082E-05 ), #6, 'distance_accuracy_value', 'NONE');
#307 = FACE_OUTER_BOUND ( 'NONE', #766, .T. ) ;
#308 = CARTESIAN_POINT ( 'NONE',  ( -5.000000000000000000, 20.00000000000000000, 0.000000000000000000 ) ) ;
#309 = EDGE_CURVE ( 'NONE', #859, #59, #733, .T. ) ;
#310 = ORIENTED_EDGE ( 'NONE', *, *, #116, .F. ) ;
#311 = CARTESIAN_POINT ( 'NONE',  ( 0.000000000000000000, 14.00000000000000000, 0.000000000000000000 ) ) ;
#312 = APPLICATION_PROTOCOL_DEFINITION ( 'draft international standard', 'automotive_design', 1998, #123 ) ;
#313 = CARTESIAN_POINT ( 'NONE',  ( 0.000000000000000000, 0.000000000000000000, -1.500000000000000222 ) ) ;
#314 = ORIENTED_EDGE ( 'NONE', *, *, #844, .T. ) ;
#315 = ADVANCED_FACE ( 'NONE', ( #860 ), #325, .T. ) ;
#316 = DIRECTION ( 'NONE',  ( -1.000000000000000000, -0.000000000000000000, 0.000000000000000000 ) ) ;
#317 = DIRECTION ( 'NONE',  ( 0.000000000000000000, 0.000000000000000000, -1.000000000000000000 ) ) ;
#318 = CARTESIAN_POINT ( 'NONE',  ( 2.000000000000000000, 20.00000000000000000, 0.000000000000000000 ) ) ;
#319 = ADVANCED_BREP_SHAPE_REPRESENTATION ( 'ohi\X2\0161\X0\je ojnice spodaj z pu\X2\0161\X0\o', ( #250, #348 ), #850 ) ;
#320 = VERTEX_POINT ( 'NONE', #360 ) ;
#321 =( GEOMETRIC_REPRESENTATION_CONTEXT ( 3 ) GLOBAL_UNCERTAINTY_ASSIGNED_CONTEXT ( ( #164 ) ) GLOBAL_UNIT_ASSIGNED_CONTEXT ( ( #686, #622, #270 ) ) REPRESENTATION_CONTEXT ( 'NONE', 'WORKASPACE' ) );
#322 = CARTESIAN_POINT ( 'NONE',  ( -2.000000000000000000, 0.000000000000000000, -1.000000000000000000 ) ) ;
#323 = CIRCLE ( 'NONE', #274, 5.000000000000000000 ) ;
#324 = DIRECTION ( 'NONE',  ( 1.000000000000000000, -0.000000000000000000, -0.000000000000000000 ) ) ;
#325 = TOROIDAL_SURFACE ( 'NONE', #856, 5.000000000000000000, 3.000000000000000000 ) ;
#326 = CARTESIAN_POINT ( 'NONE',  ( 5.000000000000000000, 0.000000000000000000, -1.000000000000000888 ) ) ;
#327 = ORIENTED_EDGE ( 'NONE', *, *, #341, .T. ) ;
#328 = DIRECTION ( 'NONE',  ( -1.000000000000000000, -0.000000000000000000, 0.000000000000000000 ) ) ;
#329 = DIRECTION ( 'NONE',  ( -1.000000000000000000, -0.000000000000000000, 0.000000000000000000 ) ) ;
#330 = EDGE_CURVE ( 'NONE', #533, #59, #486, .T. ) ;
#331 = CARTESIAN_POINT ( 'NONE',  ( -2.000000000000000000, 20.00000000000000000, 0.000000000000000000 ) ) ;
#332 = VERTEX_POINT ( 'NONE', #70 ) ;
#333 = ORIENTED_EDGE ( 'NONE', *, *, #484, .F. ) ;
#334 = FACE_OUTER_BOUND ( 'NONE', #451, .T. ) ;
#335 = AXIS2_PLACEMENT_3D ( 'NONE', #322, #817, #805 ) ;
#336 = ORIENTED_EDGE ( 'NONE', *, *, #905, .T. ) ;
#337 = ORIENTED_EDGE ( 'NONE', *, *, #880, .T. ) ;
#338 = DIRECTION ( 'NONE',  ( 0.000000000000000000, 0.000000000000000000, -1.000000000000000000 ) ) ;
#339 = CARTESIAN_POINT ( 'NONE',  ( -5.000000000000000000, 10.61916848035313876, 4.000000000000000000 ) ) ;
#340 = ORIENTED_EDGE ( 'NONE', *, *, #257, .F. ) ;
#341 = EDGE_CURVE ( 'NONE', #35, #490, #243, .T. ) ;
#342 = FACE_OUTER_BOUND ( 'NONE', #390, .T. ) ;
#343 = PRESENTATION_STYLE_ASSIGNMENT (( #543 ) ) ;
#344 = ORIENTED_EDGE ( 'NONE', *, *, #142, .F. ) ;
#345 = CARTESIAN_POINT ( 'NONE',  ( 2.000000000000000000, 10.61916848035313876, -9.000000000000001776 ) ) ;
#346 = CARTESIAN_POINT ( 'NONE',  ( 5.000000000000000000, 20.00000000000000000, 5.000000000000000000 ) ) ;
#347 = LINE ( 'NONE', #402, #548 ) ;
#348 = AXIS2_PLACEMENT_3D ( 'NONE', #893, #899, #28 ) ;
#349 = ORIENTED_EDGE ( 'NONE', *, *, #633, .F. ) ;
#350 = DIRECTION ( 'NONE',  ( 1.000000000000000000, -0.000000000000000000, -0.000000000000000000 ) ) ;
#351 = DIRECTION ( 'NONE',  ( 0.000000000000000000, -0.000000000000000000, -1.000000000000000000 ) ) ;
#352 = ORIENTED_EDGE ( 'NONE', *, *, #149, .T. ) ;
#353 = FACE_OUTER_BOUND ( 'NONE', #659, .T. ) ;
#354 = CARTESIAN_POINT ( 'NONE',  ( 2.000000000000000000, 14.22718060329424006, -5.538461538461536549 ) ) ;
#355 = AXIS2_PLACEMENT_3D ( 'NONE', #767, #401, #702 ) ;
#356 = CARTESIAN_POINT ( 'NONE',  ( 2.000000000000000000, 20.00000000000000000, 5.000000000000000000 ) ) ;
#357 = AXIS2_PLACEMENT_3D ( 'NONE', #175, #606, #532 ) ;
#358 = DIRECTION ( 'NONE',  ( 3.129451665637421301E-16, 0.6923076923076925127, -0.7216024245882197707 ) ) ;
#359 = ORIENTED_EDGE ( 'NONE', *, *, #50, .T. ) ;
#360 = CARTESIAN_POINT ( 'NONE',  ( 0.000000000000000000, 14.00000000000000000, -1.500000000000000222 ) ) ;
#361 = VECTOR ( 'NONE', #415, 1000.000000000000000 ) ;
#362 = DIRECTION ( 'NONE',  ( 0.000000000000000000, 0.000000000000000000, -1.000000000000000000 ) ) ;
#363 = CYLINDRICAL_SURFACE ( 'NONE', #413, 4.050000000000000711 ) ;
#364 = EDGE_LOOP ( 'NONE', ( #327, #926, #111, #685 ) ) ;
#365 = EDGE_CURVE ( 'NONE', #587, #253, #593, .T. ) ;
#366 = DIRECTION ( 'NONE',  ( 1.000000000000000000, 0.000000000000000000, -0.000000000000000000 ) ) ;
#367 = DIRECTION ( 'NONE',  ( -0.000000000000000000, -1.000000000000000000, -0.000000000000000000 ) ) ;
#368 = ORIENTED_EDGE ( 'NONE', *, *, #296, .T. ) ;
#369 = EDGE_CURVE ( 'NONE', #133, #587, #134, .T. ) ;
#370 = DIRECTION ( 'NONE',  ( 0.000000000000000000, 0.000000000000000000, 1.000000000000000000 ) ) ;
#371 = APPLICATION_CONTEXT ( 'automotive_design' ) ;
#372 = AXIS2_PLACEMENT_3D ( 'NONE', #682, #112, #246 ) ;
#373 = DIRECTION ( 'NONE',  ( 1.000000000000000000, 0.000000000000000000, 0.000000000000000000 ) ) ;
#374 = EDGE_LOOP ( 'NONE', ( #7, #119, #336, #908 ) ) ;
#375 = CIRCLE ( 'NONE', #225, 5.000000000000000000 ) ;
#376 = CARTESIAN_POINT ( 'NONE',  ( 1.836970198721030181E-16, 0.000000000000000000, 1.500000000000000222 ) ) ;
#377 = EDGE_CURVE ( 'NONE', #268, #587, #501, .T. ) ;
#378 = VECTOR ( 'NONE', #922, 1000.000000000000000 ) ;
#379 = DIRECTION ( 'NONE',  ( 0.000000000000000000, 0.000000000000000000, 1.000000000000000000 ) ) ;
#380 = ORIENTED_EDGE ( 'NONE', *, *, #132, .F. ) ;
#381 = CIRCLE ( 'NONE', #669, 3.150000000000000355 ) ;
#382 = DIRECTION ( 'NONE',  ( -1.000000000000000000, -0.000000000000000000, 0.000000000000000000 ) ) ;
#383 = ADVANCED_FACE ( 'NONE', ( #869 ), #217, .F. ) ;
#384 = LINE ( 'NONE', #894, #222 ) ;
#385 = ORIENTED_EDGE ( 'NONE', *, *, #706, .T. ) ;
#386 = CARTESIAN_POINT ( 'NONE',  ( 5.000000000000000000, 10.61916848035313876, -9.000000000000001776 ) ) ;
#387 = AXIS2_PLACEMENT_3D ( 'NONE', #694, #46, #52 ) ;
#388 = FACE_OUTER_BOUND ( 'NONE', #51, .T. ) ;
#389 = TOROIDAL_SURFACE ( 'NONE', #927, 5.000000000000000000, 3.000000000000000000 ) ;
#390 = EDGE_LOOP ( 'NONE', ( #882, #74, #911, #89 ) ) ;
#391 = CYLINDRICAL_SURFACE ( 'NONE', #372, 5.000000000000000888 ) ;
#392 = EDGE_LOOP ( 'NONE', ( #40, #840, #144, #408, #601, #463, #430, #902 ) ) ;
#393 = CYLINDRICAL_SURFACE ( 'NONE', #615, 3.000000000000000000 ) ;
#394 = LINE ( 'NONE', #39, #161 ) ;
#395 = VERTEX_POINT ( 'NONE', #800 ) ;
#396 = DIRECTION ( 'NONE',  ( -1.000000000000000000, -0.000000000000000000, 0.000000000000000000 ) ) ;
#397 = EDGE_CURVE ( 'NONE', #763, #849, #657, .T. ) ;
#398 = CARTESIAN_POINT ( 'NONE',  ( -2.000000000000000000, 20.00000000000000000, 0.000000000000000000 ) ) ;
#399 = VERTEX_POINT ( 'NONE', #81 ) ;
#400 = CIRCLE ( 'NONE', #223, 3.000000000000000000 ) ;
#401 = DIRECTION ( 'NONE',  ( 1.000000000000000000, 0.000000000000000000, 0.000000000000000000 ) ) ;
#402 = CARTESIAN_POINT ( 'NONE',  ( 5.000000000000000000, 10.61916848035313876, -1.000000000000000888 ) ) ;
#403 = EDGE_CURVE ( 'NONE', #133, #533, #789, .T. ) ;
#404 = ORIENTED_EDGE ( 'NONE', *, *, #880, .F. ) ;
#405 = VECTOR ( 'NONE', #647, 1000.000000000000000 ) ;
#406 = ORIENTED_EDGE ( 'NONE', *, *, #301, .T. ) ;
#407 = FACE_OUTER_BOUND ( 'NONE', #202, .T. ) ;
#408 = ORIENTED_EDGE ( 'NONE', *, *, #812, .T. ) ;
#409 = CARTESIAN_POINT ( 'NONE',  ( 2.000000000000000000, 20.00000000000000000, 0.000000000000000000 ) ) ;
#410 = DIRECTION ( 'NONE',  ( 0.000000000000000000, 0.000000000000000000, 1.000000000000000000 ) ) ;
#411 = AXIS2_PLACEMENT_3D ( 'NONE', #670, #171, #34 ) ;
#412 = ORIENTED_EDGE ( 'NONE', *, *, #67, .F. ) ;
#413 = AXIS2_PLACEMENT_3D ( 'NONE', #889, #324, #317 ) ;
#414 = CARTESIAN_POINT ( 'NONE',  ( -2.000000000000000000, 10.61916848035313876, -1.000000000000000000 ) ) ;
#415 = DIRECTION ( 'NONE',  ( 1.000000000000000000, 0.000000000000000000, 0.000000000000000000 ) ) ;
#416 = ORIENTED_EDGE ( 'NONE', *, *, #104, .F. ) ;
#417 = EDGE_CURVE ( 'NONE', #423, #78, #295, .T. ) ;
#418 = ORIENTED_EDGE ( 'NONE', *, *, #624, .T. ) ;
#419 = CARTESIAN_POINT ( 'NONE',  ( 0.000000000000000000, 14.00000000000000000, 0.000000000000000000 ) ) ;
#420 = AXIS2_PLACEMENT_3D ( 'NONE', #61, #350, #643 ) ;
#421 = CARTESIAN_POINT ( 'NONE',  ( 0.000000000000000000, 0.000000000000000000, 0.000000000000000000 ) ) ;
#422 = CIRCLE ( 'NONE', #20, 3.000000000000000000 ) ;
#423 = VERTEX_POINT ( 'NONE', #783 ) ;
#424 = CARTESIAN_POINT ( 'NONE',  ( -2.000000000000000000, 20.00000000000000000, 0.000000000000000000 ) ) ;
#425 = ADVANCED_FACE ( 'NONE', ( #353 ), #130, .F. ) ;
#426 = ADVANCED_FACE ( 'NONE', ( #941 ), #91, .T. ) ;
#427 = CYLINDRICAL_SURFACE ( 'NONE', #535, 4.050000000000000711 ) ;
#428 = VERTEX_POINT ( 'NONE', #376 ) ;
#429 = CIRCLE ( 'NONE', #739, 4.050000000000000711 ) ;
#430 = ORIENTED_EDGE ( 'NONE', *, *, #283, .T. ) ;
#431 = DIRECTION ( 'NONE',  ( 1.043150555212474260E-16, 0.6923076923076919575, 0.7216024245882202148 ) ) ;
#432 = ADVANCED_FACE ( 'NONE', ( #741, #307 ), #663, .F. ) ;
#433 = DIRECTION ( 'NONE',  ( 1.000000000000000000, 0.000000000000000000, 0.000000000000000000 ) ) ;
#434 = VERTEX_POINT ( 'NONE', #234 ) ;
#435 = CARTESIAN_POINT ( 'NONE',  ( -5.000000000000000000, 20.00000000000000000, 0.000000000000000000 ) ) ;
#436 = DIRECTION ( 'NONE',  ( 0.000000000000000000, 0.000000000000000000, 1.000000000000000000 ) ) ;
#437 = ADVANCED_FACE ( 'NONE', ( #242 ), #136, .T. ) ;
#438 = ORIENTED_EDGE ( 'NONE', *, *, #397, .F. ) ;
#439 = PLANE ( 'NONE',  #865 ) ;
#440 = CARTESIAN_POINT ( 'NONE',  ( -5.000000000000000000, 0.000000000000000000, -1.000000000000000000 ) ) ;
#441 = ORIENTED_EDGE ( 'NONE', *, *, #781, .T. ) ;
#442 = CYLINDRICAL_SURFACE ( 'NONE', #819, 3.150000000000000355 ) ;
#443 = LINE ( 'NONE', #282, #176 ) ;
#444 = EDGE_LOOP ( 'NONE', ( #416, #863, #609, #299 ) ) ;
#445 = AXIS2_PLACEMENT_3D ( 'NONE', #211, #534, #620 ) ;
#446 = CARTESIAN_POINT ( 'NONE',  ( -3.000000000000000000, 20.00000000000000000, -3.150000000000000355 ) ) ;
#447 = EDGE_CURVE ( 'NONE', #841, #859, #668, .T. ) ;
#448 = VECTOR ( 'NONE', #573, 1000.000000000000000 ) ;
#449 = DIRECTION ( 'NONE',  ( 1.000000000000000000, 0.000000000000000000, 0.000000000000000000 ) ) ;
#450 = COLOUR_RGB ( '',0.7921568627450980005, 0.8196078431372548767, 0.9333333333333333481 ) ;
#451 = EDGE_LOOP ( 'NONE', ( #188, #441 ) ) ;
#452 = CARTESIAN_POINT ( 'NONE',  ( 2.000000000000000000, 20.00000000000000000, -5.000000000000000000 ) ) ;
#453 = FACE_OUTER_BOUND ( 'NONE', #26, .T. ) ;
#454 = ORIENTED_EDGE ( 'NONE', *, *, #740, .F. ) ;
#455 = AXIS2_PLACEMENT_3D ( 'NONE', #913, #632, #467 ) ;
#456 = DIRECTION ( 'NONE',  ( 0.000000000000000000, 0.000000000000000000, 1.000000000000000000 ) ) ;
#457 = VECTOR ( 'NONE', #517, 1000.000000000000000 ) ;
#458 = AXIS2_PLACEMENT_3D ( 'NONE', #331, #167, #687 ) ;
#459 = DIRECTION ( 'NONE',  ( -3.129451665637421794E-16, -0.6923076923076922906, 0.7216024245882199928 ) ) ;
#460 = EDGE_CURVE ( 'NONE', #118, #491, #300, .T. ) ;
#461 = EDGE_LOOP ( 'NONE', ( #127, #671, #923, #614 ) ) ;
#462 = CIRCLE ( 'NONE', #445, 1.500000000000000222 ) ;
#463 = ORIENTED_EDGE ( 'NONE', *, *, #397, .T. ) ;
#464 = DIRECTION ( 'NONE',  ( 1.000000000000000000, 0.000000000000000000, 0.000000000000000000 ) ) ;
#465 = ORIENTED_EDGE ( 'NONE', *, *, #37, .T. ) ;
#466 = EDGE_CURVE ( 'NONE', #268, #399, #323, .T. ) ;
#467 = DIRECTION ( 'NONE',  ( 0.000000000000000000, 0.000000000000000000, -1.000000000000000000 ) ) ;
#468 = AXIS2_PLACEMENT_3D ( 'NONE', #345, #140, #872 ) ;
#469 = ORIENTED_EDGE ( 'NONE', *, *, #200, .F. ) ;
#470 = CARTESIAN_POINT ( 'NONE',  ( -5.000000000000000000, 20.00000000000000000, 0.000000000000000000 ) ) ;
#471 = LINE ( 'NONE', #678, #724 ) ;
#472 = EDGE_LOOP ( 'NONE', ( #868, #642 ) ) ;
#473 = FACE_OUTER_BOUND ( 'NONE', #559, .T. ) ;
#474 = EDGE_CURVE ( 'NONE', #241, #35, #592, .T. ) ;
#475 = ORIENTED_EDGE ( 'NONE', *, *, #104, .T. ) ;
#476 = DIRECTION ( 'NONE',  ( 1.000000000000000000, 0.000000000000000000, 0.000000000000000000 ) ) ;
#477 = CARTESIAN_POINT ( 'NONE',  ( -5.000000000000000000, 0.000000000000000000, 0.000000000000000000 ) ) ;
#478 = VECTOR ( 'NONE', #143, 1000.000000000000000 ) ;
#479 = VERTEX_POINT ( 'NONE', #446 ) ;
#480 = AXIS2_PLACEMENT_3D ( 'NONE', #22, #459, #890 ) ;
#481 = CIRCLE ( 'NONE', #411, 3.150000000000000355 ) ;
#482 = CARTESIAN_POINT ( 'NONE',  ( 5.000000000000000000, 10.61916848035313876, 9.000000000000001776 ) ) ;
#483 = DIRECTION ( 'NONE',  ( -0.000000000000000000, -1.000000000000000000, -0.000000000000000000 ) ) ;
#484 = EDGE_CURVE ( 'NONE', #320, #804, #239, .T. ) ;
#485 = CIRCLE ( 'NONE', #32, 1.500000000000000222 ) ;
#486 = CIRCLE ( 'NONE', #566, 3.000000000000000888 ) ;
#487 = ORIENTED_EDGE ( 'NONE', *, *, #531, .T. ) ;
#488 = DIRECTION ( 'NONE',  ( -0.000000000000000000, -1.000000000000000000, -0.000000000000000000 ) ) ;
#489 = DIRECTION ( 'NONE',  ( -1.000000000000000000, -0.000000000000000000, 0.000000000000000000 ) ) ;
#490 = VERTEX_POINT ( 'NONE', #155 ) ;
#491 = VERTEX_POINT ( 'NONE', #598 ) ;
#492 = AXIS2_PLACEMENT_3D ( 'NONE', #308, #818, #539 ) ;
#493 = EDGE_CURVE ( 'NONE', #304, #423, #807, .T. ) ;
#494 = ORIENTED_EDGE ( 'NONE', *, *, #526, .T. ) ;
#495 = ORIENTED_EDGE ( 'NONE', *, *, #38, .T. ) ;
#496 = DIRECTION ( 'NONE',  ( 0.000000000000000000, 1.000000000000000000, 0.000000000000000000 ) ) ;
#497 = CARTESIAN_POINT ( 'NONE',  ( -3.000000000000000000, 20.00000000000000000, -4.050000000000000711 ) ) ;
#498 = ORIENTED_EDGE ( 'NONE', *, *, #729, .T. ) ;
#499 = EDGE_LOOP ( 'NONE', ( #220, #871, #778, #546 ) ) ;
#500 = DIRECTION ( 'NONE',  ( 0.000000000000000000, 0.000000000000000000, -1.000000000000000000 ) ) ;
#501 = CIRCLE ( 'NONE', #580, 3.000000000000000000 ) ;
#502 = CYLINDRICAL_SURFACE ( 'NONE', #925, 8.000000000000000000 ) ;
#503 = ORIENTED_EDGE ( 'NONE', *, *, #466, .F. ) ;
#504 = DIRECTION ( 'NONE',  ( 0.000000000000000000, -1.000000000000000000, 0.000000000000000000 ) ) ;
#505 = EDGE_CURVE ( 'NONE', #253, #177, #560, .T. ) ;
#506 = DIRECTION ( 'NONE',  ( 0.000000000000000000, 0.000000000000000000, 1.000000000000000000 ) ) ;
#507 = CIRCLE ( 'NONE', #768, 8.000000000000000000 ) ;
#508 = VERTEX_POINT ( 'NONE', #821 ) ;
#509 = PLANE ( 'NONE',  #305 ) ;
#510 = CARTESIAN_POINT ( 'NONE',  ( -5.000000000000000000, 10.61916848035313876, 9.000000000000001776 ) ) ;
#511 = EDGE_CURVE ( 'NONE', #320, #785, #727, .T. ) ;
#512 = LINE ( 'NONE', #590, #457 ) ;
#513 = AXIS2_PLACEMENT_3D ( 'NONE', #452, #90, #456 ) ;
#514 = ORIENTED_EDGE ( 'NONE', *, *, #142, .T. ) ;
#515 = DIRECTION ( 'NONE',  ( 0.000000000000000000, -1.000000000000000000, 0.000000000000000000 ) ) ;
#516 = AXIS2_PLACEMENT_3D ( 'NONE', #794, #646, #930 ) ;
#517 = DIRECTION ( 'NONE',  ( 1.000000000000000000, -0.000000000000000000, -0.000000000000000000 ) ) ;
#518 = ORIENTED_EDGE ( 'NONE', *, *, #377, .T. ) ;
#519 = DIRECTION ( 'NONE',  ( 0.000000000000000000, -1.000000000000000000, 0.000000000000000000 ) ) ;
#520 = DIRECTION ( 'NONE',  ( -1.000000000000000000, -0.000000000000000000, 0.000000000000000000 ) ) ;
#521 = ORIENTED_EDGE ( 'NONE', *, *, #644, .T. ) ;
#522 = DIRECTION ( 'NONE',  ( -1.000000000000000000, -0.000000000000000000, 0.000000000000000000 ) ) ;
#523 = VECTOR ( 'NONE', #838, 1000.000000000000000 ) ;
#524 = CARTESIAN_POINT ( 'NONE',  ( -5.000000000000000000, 16.39198787705889870, -3.461538461538460787 ) ) ;
#525 = ORIENTED_EDGE ( 'NONE', *, *, #844, .F. ) ;
#526 = EDGE_CURVE ( 'NONE', #837, #268, #375, .T. ) ;
#527 = CARTESIAN_POINT ( 'NONE',  ( 0.000000000000000000, 14.00000000000000000, -1.500000000000000222 ) ) ;
#528 = CARTESIAN_POINT ( 'NONE',  ( -5.000000000000000000, 10.61916848035313876, 1.000000000000000888 ) ) ;
#529 = VERTEX_POINT ( 'NONE', #169 ) ;
#530 = DIRECTION ( 'NONE',  ( -0.000000000000000000, -1.000000000000000000, -0.000000000000000000 ) ) ;
#531 = EDGE_CURVE ( 'NONE', #837, #253, #801, .T. ) ;
#532 = DIRECTION ( 'NONE',  ( 0.000000000000000000, 0.000000000000000000, -1.000000000000000000 ) ) ;
#533 = VERTEX_POINT ( 'NONE', #602 ) ;
#534 = DIRECTION ( 'NONE',  ( 0.000000000000000000, -1.000000000000000000, 0.000000000000000000 ) ) ;
#535 = AXIS2_PLACEMENT_3D ( 'NONE', #17, #215, #88 ) ;
#536 = ORIENTED_EDGE ( 'NONE', *, *, #149, .F. ) ;
#537 = AXIS2_PLACEMENT_3D ( 'NONE', #901, #102, #464 ) ;
#538 = EDGE_CURVE ( 'NONE', #756, #241, #912, .T. ) ;
#539 = DIRECTION ( 'NONE',  ( 0.000000000000000000, 0.000000000000000000, 1.000000000000000000 ) ) ;
#540 = VERTEX_POINT ( 'NONE', #752 ) ;
#541 = CARTESIAN_POINT ( 'NONE',  ( -11.00000000000000000, 20.00000000000000000, 0.000000000000000000 ) ) ;
#542 = ORIENTED_EDGE ( 'NONE', *, *, #493, .F. ) ;
#543 = SURFACE_STYLE_USAGE ( .BOTH. , #120 ) ;
#544 = DIRECTION ( 'NONE',  ( -0.000000000000000000, -1.000000000000000000, -0.000000000000000000 ) ) ;
#545 = VECTOR ( 'NONE', #205, 1000.000000000000000 ) ;
#546 = ORIENTED_EDGE ( 'NONE', *, *, #99, .F. ) ;
#547 = DIRECTION ( 'NONE',  ( 0.000000000000000000, 0.000000000000000000, 1.000000000000000000 ) ) ;
#548 = VECTOR ( 'NONE', #848, 1000.000000000000000 ) ;
#549 = ORIENTED_EDGE ( 'NONE', *, *, #44, .T. ) ;
#550 = FACE_BOUND ( 'NONE', #293, .T. ) ;
#551 = FACE_OUTER_BOUND ( 'NONE', #499, .T. ) ;
#552 = ORIENTED_EDGE ( 'NONE', *, *, #526, .F. ) ;
#553 = ADVANCED_FACE ( 'NONE', ( #749, #680 ), #439, .F. ) ;
#554 = DIRECTION ( 'NONE',  ( -0.000000000000000000, -1.000000000000000000, -0.000000000000000000 ) ) ;
#555 = ORIENTED_EDGE ( 'NONE', *, *, #474, .T. ) ;
#556 = DIRECTION ( 'NONE',  ( 0.000000000000000000, 0.000000000000000000, 1.000000000000000000 ) ) ;
#557 = CARTESIAN_POINT ( 'NONE',  ( -2.000000000000000000, 20.00000000000000000, 8.000000000000000000 ) ) ;
#558 = CIRCLE ( 'NONE', #676, 4.050000000000000711 ) ;
#559 = EDGE_LOOP ( 'NONE', ( #675, #887, #216, #855 ) ) ;
#560 = CIRCLE ( 'NONE', #862, 8.000000000000000000 ) ;
#561 = ORIENTED_EDGE ( 'NONE', *, *, #301, .F. ) ;
#562 = CARTESIAN_POINT ( 'NONE',  ( 5.000000000000000000, 20.00000000000000000, 0.000000000000000000 ) ) ;
#563 = AXIS2_PLACEMENT_3D ( 'NONE', #266, #784, #787 ) ;
#564 = ORIENTED_EDGE ( 'NONE', *, *, #417, .F. ) ;
#565 = DIRECTION ( 'NONE',  ( 0.000000000000000000, 0.000000000000000000, 1.000000000000000000 ) ) ;
#566 = AXIS2_PLACEMENT_3D ( 'NONE', #712, #281, #655 ) ;
#567 = CARTESIAN_POINT ( 'NONE',  ( -3.000000000000000000, 20.00000000000000000, 3.150000000000000355 ) ) ;
#568 = ADVANCED_FACE ( 'NONE', ( #610 ), #442, .F. ) ;
#569 = VERTEX_POINT ( 'NONE', #109 ) ;
#570 = FACE_BOUND ( 'NONE', #738, .T. ) ;
#571 = CARTESIAN_POINT ( 'NONE',  ( 2.000000000000000000, 16.39198787705890226, 3.461538461538462119 ) ) ;
#572 = AXIS2_PLACEMENT_3D ( 'NONE', #924, #259, #114 ) ;
#573 = DIRECTION ( 'NONE',  ( 1.000000000000000000, 0.000000000000000000, 0.000000000000000000 ) ) ;
#574 = CARTESIAN_POINT ( 'NONE',  ( -2.000000000000000000, 0.000000000000000000, 4.000000000000000000 ) ) ;
#575 = DIRECTION ( 'NONE',  ( 0.000000000000000000, 0.000000000000000000, 1.000000000000000000 ) ) ;
#576 = CARTESIAN_POINT ( 'NONE',  ( 1.836970198721030181E-16, 14.00000000000000000, 1.500000000000000222 ) ) ;
#577 = ADVANCED_FACE ( 'NONE', ( #342 ), #755, .T. ) ;
#578 = EDGE_LOOP ( 'NONE', ( #254, #340, #918, #438 ) ) ;
#579 = DIRECTION ( 'NONE',  ( 0.000000000000000000, -1.000000000000000000, 0.000000000000000000 ) ) ;
#580 = AXIS2_PLACEMENT_3D ( 'NONE', #356, #579, #226 ) ;
#581 = CARTESIAN_POINT ( 'NONE',  ( -2.000000000000000000, 10.61916848035313876, 9.000000000000001776 ) ) ;
#582 = EDGE_LOOP ( 'NONE', ( #619, #876, #525, #3 ) ) ;
#583 = EDGE_CURVE ( 'NONE', #785, #320, #462, .T. ) ;
#584 = CARTESIAN_POINT ( 'NONE',  ( -2.000000000000000000, 10.61916848035313876, -4.000000000000000000 ) ) ;
#585 = CARTESIAN_POINT ( 'NONE',  ( -2.000000000000000000, 20.00000000000000000, 0.000000000000000000 ) ) ;
#586 = PRODUCT_DEFINITION_SHAPE ( 'NONE', 'NONE',  #273 ) ;
#587 = VERTEX_POINT ( 'NONE', #41 ) ;
#588 = AXIS2_PLACEMENT_3D ( 'NONE', #581, #520, #436 ) ;
#589 = CARTESIAN_POINT ( 'NONE',  ( -11.00000000000000000, 20.00000000000000000, 3.150000000000000355 ) ) ;
#590 = CARTESIAN_POINT ( 'NONE',  ( -3.000000000000000000, 20.00000000000000000, 4.050000000000000711 ) ) ;
#591 = EDGE_LOOP ( 'NONE', ( #385, #638, #514, #637, #743, #666, #100, #699 ) ) ;
#592 = LINE ( 'NONE', #896, #626 ) ;
#593 = CIRCLE ( 'NONE', #105, 8.000000000000000000 ) ;
#594 = EDGE_CURVE ( 'NONE', #748, #395, #795, .T. ) ;
#595 = CIRCLE ( 'NONE', #792, 8.000000000000000000 ) ;
#596 = DIRECTION ( 'NONE',  ( 1.000000000000000000, 0.000000000000000000, -0.000000000000000000 ) ) ;
#597 = EDGE_LOOP ( 'NONE', ( #734, #771 ) ) ;
#598 = CARTESIAN_POINT ( 'NONE',  ( 5.000000000000000000, 20.00000000000000000, -4.050000000000000711 ) ) ;
#599 = DIRECTION ( 'NONE',  ( -1.000000000000000000, -0.000000000000000000, 0.000000000000000000 ) ) ;
#600 = CYLINDRICAL_SURFACE ( 'NONE', #297, 1.500000000000000222 ) ;
#601 = ORIENTED_EDGE ( 'NONE', *, *, #132, .T. ) ;
#602 = CARTESIAN_POINT ( 'NONE',  ( -2.000000000000000000, 14.22718060329424006, 5.538461538461539213 ) ) ;
#603 = ORIENTED_EDGE ( 'NONE', *, *, #706, .F. ) ;
#604 = ADVANCED_FACE ( 'NONE', ( #473 ), #393, .T. ) ;
#605 = DIRECTION ( 'NONE',  ( 0.000000000000000000, 0.000000000000000000, -1.000000000000000000 ) ) ;
#606 = DIRECTION ( 'NONE',  ( 0.000000000000000000, -1.000000000000000000, 0.000000000000000000 ) ) ;
#607 = AXIS2_PLACEMENT_3D ( 'NONE', #651, #75, #500 ) ;
#608 = AXIS2_PLACEMENT_3D ( 'NONE', #27, #316, #370 ) ;
#609 = ORIENTED_EDGE ( 'NONE', *, *, #822, .F. ) ;
#610 = FACE_OUTER_BOUND ( 'NONE', #895, .T. ) ;
#611 = ADVANCED_FACE ( 'NONE', ( #193 ), #843, .T. ) ;
#612 = ORIENTED_EDGE ( 'NONE', *, *, #761, .T. ) ;
#613 = CYLINDRICAL_SURFACE ( 'NONE', #13, 5.000000000000000888 ) ;
#614 = ORIENTED_EDGE ( 'NONE', *, *, #649, .F. ) ;
#615 = AXIS2_PLACEMENT_3D ( 'NONE', #616, #831, #36 ) ;
#616 = CARTESIAN_POINT ( 'NONE',  ( -2.000000000000000000, 10.61916848035313876, 1.000000000000000888 ) ) ;
#617 = CARTESIAN_POINT ( 'NONE',  ( -5.000000000000000000, 10.61916848035313876, -9.000000000000001776 ) ) ;
#618 = LINE ( 'NONE', #824, #523 ) ;
#619 = ORIENTED_EDGE ( 'NONE', *, *, #531, .F. ) ;
#620 = DIRECTION ( 'NONE',  ( 0.000000000000000000, 0.000000000000000000, -1.000000000000000000 ) ) ;
#621 = EDGE_LOOP ( 'NONE', ( #858, #337, #830, #333 ) ) ;
#622 =( NAMED_UNIT ( * ) PLANE_ANGLE_UNIT ( ) SI_UNIT ( $, .RADIAN. ) );
#623 = CIRCLE ( 'NONE', #48, 5.000000000000000000 ) ;
#624 = EDGE_CURVE ( 'NONE', #224, #587, #750, .T. ) ;
#625 = VERTEX_POINT ( 'NONE', #836 ) ;
#626 = VECTOR ( 'NONE', #672, 1000.000000000000000 ) ;
#627 = DIRECTION ( 'NONE',  ( 1.000000000000000000, 0.000000000000000000, 0.000000000000000000 ) ) ;
#628 = EDGE_LOOP ( 'NONE', ( #832, #279, #561, #688 ) ) ;
#629 = CARTESIAN_POINT ( 'NONE',  ( -3.000000000000000000, 20.00000000000000000, 4.050000000000000711 ) ) ;
#630 = CARTESIAN_POINT ( 'NONE',  ( -5.000000000000000000, 20.00000000000000000, -8.000000000000000000 ) ) ;
#631 = ORIENTED_EDGE ( 'NONE', *, *, #186, .T. ) ;
#632 = DIRECTION ( 'NONE',  ( 1.000000000000000000, 0.000000000000000000, 0.000000000000000000 ) ) ;
#633 = EDGE_CURVE ( 'NONE', #237, #219, #146, .T. ) ;
#634 = CARTESIAN_POINT ( 'NONE',  ( 5.000000000000000000, 20.00000000000000000, 4.050000000000000711 ) ) ;
#635 = LINE ( 'NONE', #705, #545 ) ;
#636 = TOROIDAL_SURFACE ( 'NONE', #458, 5.000000000000000000, 3.000000000000000000 ) ;
#637 = ORIENTED_EDGE ( 'NONE', *, *, #674, .T. ) ;
#638 = ORIENTED_EDGE ( 'NONE', *, *, #244, .T. ) ;
#639 = DIRECTION ( 'NONE',  ( -1.000000000000000000, -0.000000000000000000, 0.000000000000000000 ) ) ;
#640 = CYLINDRICAL_SURFACE ( 'NONE', #64, 3.000000000000000000 ) ;
#641 = PRODUCT ( 'ohi\X2\0161\X0\je ojnice spodaj z pu\X2\0161\X0\o', 'ohi\X2\0161\X0\je ojnice spodaj z pu\X2\0161\X0\o', '', ( #827 ) ) ;
#642 = ORIENTED_EDGE ( 'NONE', *, *, #583, .T. ) ;
#643 = DIRECTION ( 'NONE',  ( 0.000000000000000000, 0.000000000000000000, -1.000000000000000000 ) ) ;
#644 = EDGE_CURVE ( 'NONE', #491, #249, #267, .T. ) ;
#645 = DIRECTION ( 'NONE',  ( 0.000000000000000000, -1.000000000000000000, 0.000000000000000000 ) ) ;
#646 = DIRECTION ( 'NONE',  ( -0.000000000000000000, 0.000000000000000000, -1.000000000000000000 ) ) ;
#647 = DIRECTION ( 'NONE',  ( 1.000000000000000000, 0.000000000000000000, 0.000000000000000000 ) ) ;
#648 = AXIS2_PLACEMENT_3D ( 'NONE', #762, #396, #187 ) ;
#649 = EDGE_CURVE ( 'NONE', #533, #841, #797, .T. ) ;
#650 = CARTESIAN_POINT ( 'NONE',  ( -2.000000000000000000, 20.00000000000000000, -5.000000000000000000 ) ) ;
#651 = CARTESIAN_POINT ( 'NONE',  ( 5.000000000000000000, 20.00000000000000000, 0.000000000000000000 ) ) ;
#652 = LINE ( 'NONE', #440, #478 ) ;
#653 = EDGE_CURVE ( 'NONE', #841, #662, #920, .T. ) ;
#654 = FACE_OUTER_BOUND ( 'NONE', #392, .T. ) ;
#655 = DIRECTION ( 'NONE',  ( 0.000000000000000000, 0.7216024245882202148, -0.6923076923076919575 ) ) ;
#656 = AXIS2_PLACEMENT_3D ( 'NONE', #786, #504, #285 ) ;
#657 = CIRCLE ( 'NONE', #716, 5.000000000000000000 ) ;
#658 = FACE_OUTER_BOUND ( 'NONE', #578, .T. ) ;
#659 = EDGE_LOOP ( 'NONE', ( #793, #94, #760, #172 ) ) ;
#660 = DIRECTION ( 'NONE',  ( -1.000000000000000000, -0.000000000000000000, 0.000000000000000000 ) ) ;
#661 = DIRECTION ( 'NONE',  ( -1.000000000000000000, -0.000000000000000000, 0.000000000000000000 ) ) ;
#662 = VERTEX_POINT ( 'NONE', #574 ) ;
#663 = PLANE ( 'NONE',  #79 ) ;
#664 = EDGE_CURVE ( 'NONE', #399, #395, #507, .T. ) ;
#665 = CARTESIAN_POINT ( 'NONE',  ( 2.000000000000000000, 10.61916848035313876, 9.000000000000001776 ) ) ;
#666 = ORIENTED_EDGE ( 'NONE', *, *, #227, .T. ) ;
#667 = CARTESIAN_POINT ( 'NONE',  ( -5.000000000000000000, 20.00000000000000000, 0.000000000000000000 ) ) ;
#668 = CIRCLE ( 'NONE', #684, 3.000000000000000000 ) ;
#669 = AXIS2_PLACEMENT_3D ( 'NONE', #190, #58, #775 ) ;
#670 = CARTESIAN_POINT ( 'NONE',  ( -3.000000000000000000, 20.00000000000000000, 0.000000000000000000 ) ) ;
#671 = ORIENTED_EDGE ( 'NONE', *, *, #309, .F. ) ;
#672 = DIRECTION ( 'NONE',  ( 0.000000000000000000, 1.000000000000000000, -0.000000000000000000 ) ) ;
#673 = FACE_OUTER_BOUND ( 'NONE', #820, .T. ) ;
#674 = EDGE_CURVE ( 'NONE', #124, #540, #128, .T. ) ;
#675 = ORIENTED_EDGE ( 'NONE', *, *, #227, .F. ) ;
#676 = AXIS2_PLACEMENT_3D ( 'NONE', #150, #433, #362 ) ;
#677 = CARTESIAN_POINT ( 'NONE',  ( -3.000000000000000000, 20.00000000000000000, -4.050000000000000711 ) ) ;
#678 = CARTESIAN_POINT ( 'NONE',  ( 2.000000000000000000, 0.000000000000000000, -4.000000000000000000 ) ) ;
#679 = ORIENTED_EDGE ( 'NONE', *, *, #460, .T. ) ;
#680 = FACE_OUTER_BOUND ( 'NONE', #591, .T. ) ;
#681 = ORIENTED_EDGE ( 'NONE', *, *, #735, .F. ) ;
#682 = CARTESIAN_POINT ( 'NONE',  ( -5.000000000000000000, 10.61916848035313876, 9.000000000000001776 ) ) ;
#683 = CIRCLE ( 'NONE', #898, 5.000000000000000888 ) ;
#684 = AXIS2_PLACEMENT_3D ( 'NONE', #16, #515, #605 ) ;
#685 = ORIENTED_EDGE ( 'NONE', *, *, #195, .F. ) ;
#686 =( LENGTH_UNIT ( ) NAMED_UNIT ( * ) SI_UNIT ( .MILLI., .METRE. ) );
#687 = DIRECTION ( 'NONE',  ( 0.000000000000000000, 0.000000000000000000, 1.000000000000000000 ) ) ;
#688 = ORIENTED_EDGE ( 'NONE', *, *, #729, .F. ) ;
#689 = DIRECTION ( 'NONE',  ( 0.000000000000000000, 0.000000000000000000, -1.000000000000000000 ) ) ;
#690 = VECTOR ( 'NONE', #554, 1000.000000000000000 ) ;
#691 = DIRECTION ( 'NONE',  ( 1.000000000000000000, 0.000000000000000000, -0.000000000000000000 ) ) ;
#692 = DIRECTION ( 'NONE',  ( 0.000000000000000000, 0.000000000000000000, 1.000000000000000000 ) ) ;
#693 = ORIENTED_EDGE ( 'NONE', *, *, #781, .F. ) ;
#694 = CARTESIAN_POINT ( 'NONE',  ( -2.000000000000000000, 10.61916848035313876, 9.000000000000001776 ) ) ;
#695 = CARTESIAN_POINT ( 'NONE',  ( 5.000000000000000000, 10.61916848035313876, -1.000000000000000888 ) ) ;
#696 = ADVANCED_FACE ( 'NONE', ( #658 ), #97, .T. ) ;
#697 = FACE_OUTER_BOUND ( 'NONE', #628, .T. ) ;
#698 = AXIS2_PLACEMENT_3D ( 'NONE', #853, #645, #351 ) ;
#699 = ORIENTED_EDGE ( 'NONE', *, *, #538, .T. ) ;
#700 = CIRCLE ( 'NONE', #77, 1.500000000000000222 ) ;
#701 = AXIS2_PLACEMENT_3D ( 'NONE', #718, #366, #9 ) ;
#702 = DIRECTION ( 'NONE',  ( 0.000000000000000000, 0.000000000000000000, -1.000000000000000000 ) ) ;
#703 = AXIS2_PLACEMENT_3D ( 'NONE', #617, #182, #47 ) ;
#704 = DIRECTION ( 'NONE',  ( 0.000000000000000000, 0.000000000000000000, 1.000000000000000000 ) ) ;
#705 = CARTESIAN_POINT ( 'NONE',  ( 2.000000000000000000, 0.000000000000000000, 4.000000000000000000 ) ) ;
#706 = EDGE_CURVE ( 'NONE', #241, #529, #885, .T. ) ;
#707 = CARTESIAN_POINT ( 'NONE',  ( 5.000000000000000000, 16.39198787705889870, -3.461538461538459455 ) ) ;
#708 = VECTOR ( 'NONE', #373, 1000.000000000000000 ) ;
#709 = LINE ( 'NONE', #937, #214 ) ;
#710 = ORIENTED_EDGE ( 'NONE', *, *, #369, .F. ) ;
#711 = EDGE_CURVE ( 'NONE', #569, #849, #192, .T. ) ;
#712 = CARTESIAN_POINT ( 'NONE',  ( -2.000000000000000000, 16.39198787705890226, 3.461538461538461675 ) ) ;
#713 = DIRECTION ( 'NONE',  ( -0.000000000000000000, 0.000000000000000000, 1.000000000000000000 ) ) ;
#714 = TOROIDAL_SURFACE ( 'NONE', #563, 5.000000000000000000, 3.000000000000000000 ) ;
#715 = EDGE_LOOP ( 'NONE', ( #352, #113, #603, #555 ) ) ;
#716 = AXIS2_PLACEMENT_3D ( 'NONE', #435, #731, #66 ) ;
#717 = AXIS2_PLACEMENT_3D ( 'NONE', #194, #483, #565 ) ;
#718 = CARTESIAN_POINT ( 'NONE',  ( -2.000000000000000000, 20.00000000000000000, 0.000000000000000000 ) ) ;
#719 = ADVANCED_FACE ( 'NONE', ( #875 ), #427, .F. ) ;
#720 = DIRECTION ( 'NONE',  ( 0.000000000000000000, -1.000000000000000000, 0.000000000000000000 ) ) ;
#721 = CARTESIAN_POINT ( 'NONE',  ( 2.000000000000000000, 0.000000000000000000, 1.000000000000000000 ) ) ;
#722 = DIRECTION ( 'NONE',  ( 1.000000000000000000, 0.000000000000000000, -0.000000000000000000 ) ) ;
#723 = DIRECTION ( 'NONE',  ( 0.000000000000000000, 0.000000000000000000, 1.000000000000000000 ) ) ;
#724 = VECTOR ( 'NONE', #107, 1000.000000000000000 ) ;
#725 = DIRECTION ( 'NONE',  ( 0.000000000000000000, 0.000000000000000000, 1.000000000000000000 ) ) ;
#726 = DIRECTION ( 'NONE',  ( 0.000000000000000000, 0.000000000000000000, 1.000000000000000000 ) ) ;
#727 = CIRCLE ( 'NONE', #166, 1.500000000000000222 ) ;
#728 = FACE_OUTER_BOUND ( 'NONE', #154, .T. ) ;
#729 = EDGE_CURVE ( 'NONE', #748, #224, #10, .T. ) ;
#730 = ORIENTED_EDGE ( 'NONE', *, *, #159, .T. ) ;
#731 = DIRECTION ( 'NONE',  ( -1.000000000000000000, -0.000000000000000000, 0.000000000000000000 ) ) ;
#732 = AXIS2_PLACEMENT_3D ( 'NONE', #262, #488, #704 ) ;
#733 = CIRCLE ( 'NONE', #156, 8.000000000000000000 ) ;
#734 = ORIENTED_EDGE ( 'NONE', *, *, #186, .F. ) ;
#735 = EDGE_CURVE ( 'NONE', #289, #249, #512, .T. ) ;
#736 = DIRECTION ( 'NONE',  ( 1.000000000000000000, -0.000000000000000000, -0.000000000000000000 ) ) ;
#737 = DIRECTION ( 'NONE',  ( 0.000000000000000000, 0.000000000000000000, 1.000000000000000000 ) ) ;
#738 = EDGE_LOOP ( 'NONE', ( #542, #469 ) ) ;
#739 = AXIS2_PLACEMENT_3D ( 'NONE', #73, #218, #298 ) ;
#740 = EDGE_CURVE ( 'NONE', #490, #756, #652, .T. ) ;
#741 = FACE_BOUND ( 'NONE', #179, .T. ) ;
#742 = DIRECTION ( 'NONE',  ( 0.000000000000000000, 0.7216024245882195487, 0.6923076923076927347 ) ) ;
#743 = ORIENTED_EDGE ( 'NONE', *, *, #822, .T. ) ;
#744 = DIRECTION ( 'NONE',  ( 1.000000000000000000, 0.000000000000000000, -0.000000000000000000 ) ) ;
#745 = AXIS2_PLACEMENT_3D ( 'NONE', #470, #197, #556 ) ;
#746 = ADVANCED_FACE ( 'NONE', ( #943 ), #847, .T. ) ;
#747 = DIRECTION ( 'NONE',  ( 0.000000000000000000, 0.000000000000000000, -1.000000000000000000 ) ) ;
#748 = VERTEX_POINT ( 'NONE', #814 ) ;
#749 = FACE_BOUND ( 'NONE', #597, .T. ) ;
#750 = CIRCLE ( 'NONE', #145, 8.000000000000000000 ) ;
#751 = ORIENTED_EDGE ( 'NONE', *, *, #511, .F. ) ;
#752 = CARTESIAN_POINT ( 'NONE',  ( 2.000000000000000000, 0.000000000000000000, 4.000000000000000000 ) ) ;
#753 = DIRECTION ( 'NONE',  ( 0.000000000000000000, -1.000000000000000000, 0.000000000000000000 ) ) ;
#754 = ORIENTED_EDGE ( 'NONE', *, *, #644, .F. ) ;
#755 = CYLINDRICAL_SURFACE ( 'NONE', #879, 8.000000000000000000 ) ;
#756 = VERTEX_POINT ( 'NONE', #809 ) ;
#757 =( NAMED_UNIT ( * ) PLANE_ANGLE_UNIT ( ) SI_UNIT ( $, .RADIAN. ) );
#758 = CARTESIAN_POINT ( 'NONE',  ( 5.000000000000000000, 20.00000000000000000, -5.000000000000000000 ) ) ;
#759 = CLOSED_SHELL ( 'NONE', ( #816, #315, #92, #932, #425, #938, #383, #611, #577, #852, #919, #790, #21, #432, #553, #834, #110, #232, #719, #568, #8, #810, #72, #87, #238, #437, #30, #290, #426, #696, #746, #604 ) ) ;
#760 = ORIENTED_EDGE ( 'NONE', *, *, #67, .T. ) ;
#761 = EDGE_CURVE ( 'NONE', #304, #479, #443, .T. ) ;
#762 = CARTESIAN_POINT ( 'NONE',  ( 5.000000000000000000, 10.61916848035313876, -9.000000000000001776 ) ) ;
#763 = VERTEX_POINT ( 'NONE', #12 ) ;
#764 = DIRECTION ( 'NONE',  ( 0.000000000000000000, 0.000000000000000000, 1.000000000000000000 ) ) ;
#765 = DIRECTION ( 'NONE',  ( 0.000000000000000000, 0.000000000000000000, -1.000000000000000000 ) ) ;
#766 = EDGE_LOOP ( 'NONE', ( #344, #359, #83, #108, #494, #60, #14, #730 ) ) ;
#767 = CARTESIAN_POINT ( 'NONE',  ( 5.000000000000000000, 20.00000000000000000, 0.000000000000000000 ) ) ;
#768 = AXIS2_PLACEMENT_3D ( 'NONE', #482, #788, #137 ) ;
#769 = DIRECTION ( 'NONE',  ( 0.000000000000000000, 0.000000000000000000, 1.000000000000000000 ) ) ;
#770 = DIRECTION ( 'NONE',  ( 0.000000000000000000, 0.000000000000000000, -1.000000000000000000 ) ) ;
#771 = ORIENTED_EDGE ( 'NONE', *, *, #206, .F. ) ;
#772 = AXIS2_PLACEMENT_3D ( 'NONE', #667, #522, #24 ) ;
#773 = DIRECTION ( 'NONE',  ( 1.000000000000000000, -0.000000000000000000, -0.000000000000000000 ) ) ;
#774 = FILL_AREA_STYLE_COLOUR ( '', #450 ) ;
#775 = DIRECTION ( 'NONE',  ( 0.000000000000000000, 0.000000000000000000, -1.000000000000000000 ) ) ;
#776 = EDGE_CURVE ( 'NONE', #118, #289, #429, .T. ) ;
#777 = AXIS2_PLACEMENT_3D ( 'NONE', #571, #431, #141 ) ;
#778 = ORIENTED_EDGE ( 'NONE', *, *, #594, .F. ) ;
#779 = CARTESIAN_POINT ( 'NONE',  ( 2.000000000000000000, 20.00000000000000000, -8.000000000000000000 ) ) ;
#780 = DIRECTION ( 'NONE',  ( 0.000000000000000000, 0.000000000000000000, 1.000000000000000000 ) ) ;
#781 = EDGE_CURVE ( 'NONE', #289, #118, #558, .T. ) ;
#782 = ORIENTED_EDGE ( 'NONE', *, *, #195, .T. ) ;
#783 = CARTESIAN_POINT ( 'NONE',  ( -5.000000000000000000, 20.00000000000000000, 3.150000000000000355 ) ) ;
#784 = DIRECTION ( 'NONE',  ( -1.000000000000000000, -0.000000000000000000, 0.000000000000000000 ) ) ;
#785 = VERTEX_POINT ( 'NONE', #576 ) ;
#786 = CARTESIAN_POINT ( 'NONE',  ( -2.000000000000000000, 0.000000000000000000, -1.000000000000000000 ) ) ;
#787 = DIRECTION ( 'NONE',  ( 0.000000000000000000, 0.000000000000000000, 1.000000000000000000 ) ) ;
#788 = DIRECTION ( 'NONE',  ( -1.000000000000000000, -0.000000000000000000, 0.000000000000000000 ) ) ;
#789 = CIRCLE ( 'NONE', #701, 8.000000000000000000 ) ;
#790 = ADVANCED_FACE ( 'NONE', ( #866 ), #502, .T. ) ;
#791 = PLANE ( 'NONE',  #516 ) ;
#792 = AXIS2_PLACEMENT_3D ( 'NONE', #424, #722, #69 ) ;
#793 = ORIENTED_EDGE ( 'NONE', *, *, #493, .T. ) ;
#794 = CARTESIAN_POINT ( 'NONE',  ( 0.000000000000000000, 0.000000000000000000, 4.000000000000000000 ) ) ;
#795 = CIRCLE ( 'NONE', #572, 3.000000000000000000 ) ;
#796 = DIRECTION ( 'NONE',  ( 1.000000000000000000, 0.000000000000000000, 0.000000000000000000 ) ) ;
#797 = CIRCLE ( 'NONE', #387, 5.000000000000000888 ) ;
#798 = EDGE_LOOP ( 'NONE', ( #23, #168, #263, #203 ) ) ;
#799 = DIRECTION ( 'NONE',  ( 0.000000000000000000, 1.000000000000000000, 1.224646799147353207E-16 ) ) ;
#800 = CARTESIAN_POINT ( 'NONE',  ( 5.000000000000000000, 10.61916848035313876, 1.000000000000000000 ) ) ;
#801 = CIRCLE ( 'NONE', #513, 3.000000000000000000 ) ;
#802 = EDGE_CURVE ( 'NONE', #625, #859, #228, .T. ) ;
#803 = CARTESIAN_POINT ( 'NONE',  ( -2.000000000000000000, 16.39198787705889870, -3.461538461538459455 ) ) ;
#804 = VERTEX_POINT ( 'NONE', #313 ) ;
#805 = DIRECTION ( 'NONE',  ( 0.000000000000000000, 0.000000000000000000, 1.000000000000000000 ) ) ;
#806 = CIRCLE ( 'NONE', #717, 3.000000000000000000 ) ;
#807 = CIRCLE ( 'NONE', #772, 3.150000000000000355 ) ;
#808 = AXIS2_PLACEMENT_3D ( 'NONE', #398, #691, #53 ) ;
#809 = CARTESIAN_POINT ( 'NONE',  ( -5.000000000000000000, 0.000000000000000000, -1.000000000000000000 ) ) ;
#810 = ADVANCED_FACE ( 'NONE', ( #252 ), #98, .F. ) ;
#811 = ORIENTED_EDGE ( 'NONE', *, *, #886, .F. ) ;
#812 = EDGE_CURVE ( 'NONE', #59, #508, #129, .T. ) ;
#813 = DIRECTION ( 'NONE',  ( 1.000000000000000000, 0.000000000000000000, -0.000000000000000000 ) ) ;
#814 = CARTESIAN_POINT ( 'NONE',  ( 2.000000000000000000, 10.61916848035313876, 4.000000000000000000 ) ) ;
#815 = ORIENTED_EDGE ( 'NONE', *, *, #735, .T. ) ;
#816 = ADVANCED_FACE ( 'NONE', ( #240 ), #636, .T. ) ;
#817 = DIRECTION ( 'NONE',  ( -0.000000000000000000, -1.000000000000000000, -0.000000000000000000 ) ) ;
#818 = DIRECTION ( 'NONE',  ( -1.000000000000000000, -0.000000000000000000, 0.000000000000000000 ) ) ;
#819 = AXIS2_PLACEMENT_3D ( 'NONE', #541, #773, #689 ) ;
#820 = EDGE_LOOP ( 'NONE', ( #247, #465, #536, #782 ) ) ;
#821 = CARTESIAN_POINT ( 'NONE',  ( -5.000000000000000000, 20.00000000000000000, 5.000000000000000000 ) ) ;
#822 = EDGE_CURVE ( 'NONE', #540, #662, #384, .T. ) ;
#823 = AXIS2_PLACEMENT_3D ( 'NONE', #414, #496, #4 ) ;
#824 = CARTESIAN_POINT ( 'NONE',  ( -5.000000000000000000, 14.22718060329424006, 5.538461538461539213 ) ) ;
#825 = ORIENTED_EDGE ( 'NONE', *, *, #200, .T. ) ;
#826 = CARTESIAN_POINT ( 'NONE',  ( 2.000000000000000000, 20.00000000000000000, 0.000000000000000000 ) ) ;
#827 = PRODUCT_CONTEXT ( 'NONE', #123, 'mechanical' ) ;
#828 = CARTESIAN_POINT ( 'NONE',  ( -2.000000000000000000, 10.61916848035313876, 4.000000000000000000 ) ) ;
#829 = EDGE_CURVE ( 'NONE', #133, #508, #942, .T. ) ;
#830 = ORIENTED_EDGE ( 'NONE', *, *, #206, .T. ) ;
#831 = DIRECTION ( 'NONE',  ( 0.000000000000000000, -1.000000000000000000, 0.000000000000000000 ) ) ;
#832 = ORIENTED_EDGE ( 'NONE', *, *, #594, .T. ) ;
#833 = CARTESIAN_POINT ( 'NONE',  ( -5.000000000000000000, 10.61916848035313876, -9.000000000000001776 ) ) ;
#834 = ADVANCED_FACE ( 'NONE', ( #256 ), #600, .F. ) ;
#835 = VERTEX_POINT ( 'NONE', #326 ) ;
#836 = CARTESIAN_POINT ( 'NONE',  ( -5.000000000000000000, 0.000000000000000000, 1.000000000000000888 ) ) ;
#837 = VERTEX_POINT ( 'NONE', #758 ) ;
#838 = DIRECTION ( 'NONE',  ( 1.000000000000000000, 0.000000000000000000, 0.000000000000000000 ) ) ;
#839 = VECTOR ( 'NONE', #770, 1000.000000000000000 ) ;
#840 = ORIENTED_EDGE ( 'NONE', *, *, #802, .T. ) ;
#841 = VERTEX_POINT ( 'NONE', #828 ) ;
#842 = ORIENTED_EDGE ( 'NONE', *, *, #365, .T. ) ;
#843 = CYLINDRICAL_SURFACE ( 'NONE', #455, 8.000000000000000000 ) ;
#844 = EDGE_CURVE ( 'NONE', #177, #219, #57, .T. ) ;
#845 = ORIENTED_EDGE ( 'NONE', *, *, #403, .T. ) ;
#846 = DIRECTION ( 'NONE',  ( 0.000000000000000000, 0.000000000000000000, -1.000000000000000000 ) ) ;
#847 = TOROIDAL_SURFACE ( 'NONE', #588, 8.000000000000000000, 3.000000000000000000 ) ;
#848 = DIRECTION ( 'NONE',  ( 0.000000000000000000, 1.000000000000000000, 0.000000000000000000 ) ) ;
#849 = VERTEX_POINT ( 'NONE', #524 ) ;
#850 =( GEOMETRIC_REPRESENTATION_CONTEXT ( 3 ) GLOBAL_UNCERTAINTY_ASSIGNED_CONTEXT ( ( #306 ) ) GLOBAL_UNIT_ASSIGNED_CONTEXT ( ( #6, #757, #96 ) ) REPRESENTATION_CONTEXT ( 'NONE', 'WORKASPACE' ) );
#851 = DIRECTION ( 'NONE',  ( 1.000000000000000000, 0.000000000000000000, -0.000000000000000000 ) ) ;
#852 = ADVANCED_FACE ( 'NONE', ( #673 ), #613, .F. ) ;
#853 = CARTESIAN_POINT ( 'NONE',  ( 0.000000000000000000, 14.00000000000000000, 0.000000000000000000 ) ) ;
#854 = CIRCLE ( 'NONE', #808, 8.000000000000000000 ) ;
#855 = ORIENTED_EDGE ( 'NONE', *, *, #802, .F. ) ;
#856 = AXIS2_PLACEMENT_3D ( 'NONE', #585, #660, #723 ) ;
#857 = CARTESIAN_POINT ( 'NONE',  ( 5.000000000000000000, 0.000000000000000000, 1.000000000000000000 ) ) ;
#858 = ORIENTED_EDGE ( 'NONE', *, *, #583, .F. ) ;
#859 = VERTEX_POINT ( 'NONE', #528 ) ;
#860 = FACE_OUTER_BOUND ( 'NONE', #798, .T. ) ;
#861 = LINE ( 'NONE', #210, #286 ) ;
#862 = AXIS2_PLACEMENT_3D ( 'NONE', #826, #173, #86 ) ;
#863 = ORIENTED_EDGE ( 'NONE', *, *, #653, .T. ) ;
#864 = FACE_OUTER_BOUND ( 'NONE', #288, .T. ) ;
#865 = AXIS2_PLACEMENT_3D ( 'NONE', #31, #903, #84 ) ;
#866 = FACE_OUTER_BOUND ( 'NONE', #258, .T. ) ;
#867 = ORIENTED_EDGE ( 'NONE', *, *, #341, .F. ) ;
#868 = ORIENTED_EDGE ( 'NONE', *, *, #511, .T. ) ;
#869 = FACE_OUTER_BOUND ( 'NONE', #621, .T. ) ;
#870 = CARTESIAN_POINT ( 'NONE',  ( -2.000000000000000000, 20.00000000000000000, 0.000000000000000000 ) ) ;
#871 = ORIENTED_EDGE ( 'NONE', *, *, #159, .F. ) ;
#872 = DIRECTION ( 'NONE',  ( 0.000000000000000000, 3.469446951953613400E-15, 1.000000000000000000 ) ) ;
#873 = CARTESIAN_POINT ( 'NONE',  ( -5.000000000000000000, 20.00000000000000000, 8.000000000000000000 ) ) ;
#874 = EDGE_CURVE ( 'NONE', #332, #529, #471, .T. ) ;
#875 = FACE_OUTER_BOUND ( 'NONE', #65, .T. ) ;
#876 = ORIENTED_EDGE ( 'NONE', *, *, #269, .F. ) ;
#877 = DIRECTION ( 'NONE',  ( 1.000000000000000000, -0.000000000000000000, -0.000000000000000000 ) ) ;
#878 = PRODUCT_DEFINITION_FORMATION_WITH_SPECIFIED_SOURCE ( 'ANY', '', #641, .NOT_KNOWN. ) ;
#879 = AXIS2_PLACEMENT_3D ( 'NONE', #248, #627, #278 ) ;
#880 = EDGE_CURVE ( 'NONE', #785, #428, #394, .T. ) ;
#881 = DIRECTION ( 'NONE',  ( 0.000000000000000000, 0.000000000000000000, -1.000000000000000000 ) ) ;
#882 = ORIENTED_EDGE ( 'NONE', *, *, #257, .T. ) ;
#883 = DIRECTION ( 'NONE',  ( 0.000000000000000000, 0.000000000000000000, 1.000000000000000000 ) ) ;
#884 = AXIS2_PLACEMENT_3D ( 'NONE', #284, #280, #575 ) ;
#885 = LINE ( 'NONE', #302, #708 ) ;
#886 = EDGE_CURVE ( 'NONE', #533, #224, #618, .T. ) ;
#887 = ORIENTED_EDGE ( 'NONE', *, *, #653, .F. ) ;
#888 = CARTESIAN_POINT ( 'NONE',  ( 5.000000000000000000, 20.00000000000000000, 0.000000000000000000 ) ) ;
#889 = CARTESIAN_POINT ( 'NONE',  ( -3.000000000000000000, 20.00000000000000000, 0.000000000000000000 ) ) ;
#890 = DIRECTION ( 'NONE',  ( 0.000000000000000000, -0.7216024245882199928, -0.6923076923076922906 ) ) ;
#891 = ORIENTED_EDGE ( 'NONE', *, *, #484, .T. ) ;
#892 = DIRECTION ( 'NONE',  ( 0.000000000000000000, 0.000000000000000000, 1.000000000000000000 ) ) ;
#893 = CARTESIAN_POINT ( 'NONE',  ( 0.000000000000000000, 0.000000000000000000, 0.000000000000000000 ) ) ;
#894 = CARTESIAN_POINT ( 'NONE',  ( 0.000000000000000000, 0.000000000000000000, 4.000000000000000000 ) ) ;
#895 = EDGE_LOOP ( 'NONE', ( #564, #825, #612, #45 ) ) ;
#896 = CARTESIAN_POINT ( 'NONE',  ( -2.000000000000000000, 10.61916848035313876, -4.000000000000000000 ) ) ;
#897 = EDGE_CURVE ( 'NONE', #479, #78, #481, .T. ) ;
#898 = AXIS2_PLACEMENT_3D ( 'NONE', #272, #329, #764 ) ;
#899 = DIRECTION ( 'NONE',  ( 0.000000000000000000, 0.000000000000000000, 1.000000000000000000 ) ) ;
#900 = AXIS2_PLACEMENT_3D ( 'NONE', #231, #95, #19 ) ;
#901 = CARTESIAN_POINT ( 'NONE',  ( 0.000000000000000000, 0.000000000000000000, -4.000000000000000000 ) ) ;
#902 = ORIENTED_EDGE ( 'NONE', *, *, #740, .T. ) ;
#903 = DIRECTION ( 'NONE',  ( 0.000000000000000000, 1.000000000000000000, 0.000000000000000000 ) ) ;
#904 = ORIENTED_EDGE ( 'NONE', *, *, #37, .F. ) ;
#905 = EDGE_CURVE ( 'NONE', #332, #237, #400, .T. ) ;
#906 = DIRECTION ( 'NONE',  ( 0.000000000000000000, 0.000000000000000000, -1.000000000000000000 ) ) ;
#907 = ORIENTED_EDGE ( 'NONE', *, *, #886, .T. ) ;
#908 = ORIENTED_EDGE ( 'NONE', *, *, #50, .F. ) ;
#909 = PRODUCT_RELATED_PRODUCT_CATEGORY ( 'part', '', ( #641 ) ) ;
#910 = DIRECTION ( 'NONE',  ( 0.000000000000000000, 1.000000000000000000, 0.000000000000000000 ) ) ;
#911 = ORIENTED_EDGE ( 'NONE', *, *, #505, .T. ) ;
#912 = CIRCLE ( 'NONE', #335, 3.000000000000000000 ) ;
#913 = CARTESIAN_POINT ( 'NONE',  ( -5.000000000000000000, 20.00000000000000000, 0.000000000000000000 ) ) ;
#914 = CARTESIAN_POINT ( 'NONE',  ( 0.000000000000000000, 0.000000000000000000, 0.000000000000000000 ) ) ;
#915 = CARTESIAN_POINT ( 'NONE',  ( -5.000000000000000000, 16.39198787705890226, 3.461538461538463007 ) ) ;
#916 = VECTOR ( 'NONE', #877, 1000.000000000000000 ) ;
#917 = AXIS2_PLACEMENT_3D ( 'NONE', #196, #933, #692 ) ;
#918 = ORIENTED_EDGE ( 'NONE', *, *, #711, .T. ) ;
#919 = ADVANCED_FACE ( 'NONE', ( #453 ), #391, .F. ) ;
#920 = LINE ( 'NONE', #264, #690 ) ;
#921 = CARTESIAN_POINT ( 'NONE',  ( 2.000000000000000000, 14.22718060329424006, 5.538461538461539213 ) ) ;
#922 = DIRECTION ( 'NONE',  ( 1.000000000000000000, 0.000000000000000000, 0.000000000000000000 ) ) ;
#923 = ORIENTED_EDGE ( 'NONE', *, *, #447, .F. ) ;
#924 = CARTESIAN_POINT ( 'NONE',  ( 2.000000000000000000, 10.61916848035313876, 1.000000000000000000 ) ) ;
#925 = AXIS2_PLACEMENT_3D ( 'NONE', #5, #292, #881 ) ;
#926 = ORIENTED_EDGE ( 'NONE', *, *, #283, .F. ) ;
#927 = AXIS2_PLACEMENT_3D ( 'NONE', #318, #599, #33 ) ;
#928 = LINE ( 'NONE', #630, #378 ) ;
#929 = ORIENTED_EDGE ( 'NONE', *, *, #776, .F. ) ;
#930 = DIRECTION ( 'NONE',  ( -1.000000000000000000, 0.000000000000000000, 0.000000000000000000 ) ) ;
#931 = FACE_OUTER_BOUND ( 'NONE', #582, .T. ) ;
#932 = ADVANCED_FACE ( 'NONE', ( #388 ), #389, .T. ) ;
#933 = DIRECTION ( 'NONE',  ( -1.000000000000000000, -0.000000000000000000, 0.000000000000000000 ) ) ;
#934 = VECTOR ( 'NONE', #530, 1000.000000000000000 ) ;
#935 = ORIENTED_EDGE ( 'NONE', *, *, #38, .F. ) ;
#936 = FACE_OUTER_BOUND ( 'NONE', #444, .T. ) ;
#937 = CARTESIAN_POINT ( 'NONE',  ( 5.000000000000000000, 0.000000000000000000, 0.000000000000000000 ) ) ;
#938 = ADVANCED_FACE ( 'NONE', ( #728 ), #363, .F. ) ;
#939 = ORIENTED_EDGE ( 'NONE', *, *, #538, .F. ) ;
#940 = CARTESIAN_POINT ( 'NONE',  ( -5.000000000000000000, 10.61916848035313876, -9.000000000000001776 ) ) ;
#941 = FACE_OUTER_BOUND ( 'NONE', #364, .T. ) ;
#942 = CIRCLE ( 'NONE', #357, 3.000000000000000000 ) ;
#943 = FACE_OUTER_BOUND ( 'NONE', #461, .T. ) ;
ENDSEC;
END-ISO-10303-21;
